M48
; DRILL file {KiCad (5.1.4-0-10_14)} date Tuesday, November 12, 2019 at 08:49:43 PM
; FORMAT={2:4/ absolute / inch / suppress leading zeros}
; #@! TF.CreationDate,2019-11-12T20:49:43-08:00
; #@! TF.GenerationSoftware,Kicad,Pcbnew,(5.1.4-0-10_14)
; #@! TF.FileFunction,Plated,1,4,PTH
FMAT,2
INCH,TZ
T1C0.0100
T2C0.0118
T3C0.0197
T4C0.0910
T5C0.1181
%
G90
G05
T1
X23250Y-37250
X23500Y-36500
X23750Y-35250
X23750Y-37250
X25250Y-36000
X25250Y-37250
X26950Y-50900
X27100Y-48350
X28550Y-41050
X30250Y-53750
X30300Y-37450
X30300Y-58500
X31150Y-44100
X31150Y-44550
X31271Y-37771
X31450Y-32447
X31500Y-54500
X31650Y-31900
X31676Y-31024
X31800Y-41100
X31950Y-25200
X33000Y-23350
X34150Y-44100
X34150Y-45850
X34227Y-53700
X34400Y-48675
X34650Y-41100
X34750Y-24250
X34832Y-53700
X34900Y-48500
X35050Y-48000
X35181Y-48231
X35350Y-47500
X35500Y-40000
X35500Y-40250
X35500Y-40500
X35750Y-23250
X35750Y-24250
X35750Y-53500
X35950Y-31700
X35950Y-43750
X35950Y-45650
X36150Y-32750
X36250Y-23250
X36250Y-31850
X36300Y-39025
X36450Y-33100
X36600Y-30900
X36600Y-31750
X36750Y-24250
X37300Y-33900
X37750Y-24250
X38250Y-34000
X38250Y-34300
X38550Y-44700
X38701Y-39999
X38750Y-24250
X38950Y-48500
X38951Y-40249
X39000Y-51500
X39150Y-40500
X39174Y-48224
X39200Y-52750
X39250Y-34100
X39250Y-44700
X39500Y-51000
X39501Y-40799
X39600Y-34600
X39650Y-35200
X39650Y-36150
X39650Y-48700
X39750Y-23250
X39750Y-24250
X39800Y-41100
X39874Y-39976
X39925Y-31725
X40100Y-41400
X40150Y-32850
X40150Y-40250
X40250Y-23250
X40250Y-31850
X40401Y-41699
X40450Y-40500
X40600Y-35200
X40600Y-36150
X40650Y-30850
X40650Y-31750
X40700Y-40800
X40750Y-24250
X40750Y-34775
X40974Y-41076
X41000Y-34775
X41000Y-52750
X41250Y-34775
X41274Y-41376
X41350Y-42400
X41500Y-34775
X41550Y-41650
X41750Y-24250
X41750Y-34775
X41850Y-42650
X42300Y-42400
X42524Y-42626
X43000Y-52750
X43250Y-31800
X43250Y-51000
X43400Y-34775
X43624Y-31317
X44100Y-34775
X44225Y-30450
X44250Y-33675
X44350Y-34775
X44500Y-33650
X44575Y-30850
X44750Y-30450
X44800Y-33650
X44800Y-45650
X45100Y-33650
X45100Y-45650
X45350Y-33650
X45350Y-34800
X45400Y-45675
X45600Y-33650
X45600Y-34775
X45800Y-46750
X45850Y-34775
X45850Y-33650
X46000Y-52750
X46100Y-34775
X46100Y-33650
X46150Y-39700
X46150Y-46450
X46250Y-43750
X46275Y-44500
X46350Y-34775
X46400Y-33650
X46400Y-45700
X46450Y-42225
X46450Y-43209
X46476Y-39724
X46500Y-45300
X46600Y-34775
X46650Y-33650
X46700Y-42225
X46700Y-43209
X46739Y-32211
X46800Y-39801
X46811Y-45358
X46825Y-46050
X46825Y-46300
X46825Y-47700
X46825Y-48200
X46825Y-48500
X46825Y-50200
X46825Y-52500
X46850Y-34775
X46950Y-42850
X46950Y-45150
X47000Y-44750
X47056Y-39801
X47100Y-34775
X47150Y-45000
X47200Y-43450
X47250Y-45450
X47273Y-39677
X47350Y-32200
X47350Y-42225
X47400Y-34775
X47450Y-39500
X47500Y-45800
X47650Y-39350
X47650Y-42225
X47675Y-46300
X47675Y-46750
X47675Y-47000
X47675Y-47250
X47675Y-47500
X47675Y-47750
X47675Y-48200
X47675Y-48500
X47700Y-34775
X47800Y-49450
X47825Y-58050
X47850Y-46050
X47851Y-39201
X47900Y-46500
X47950Y-48025
X48000Y-33225
X48000Y-42250
X48100Y-45325
X48122Y-38870
X48175Y-50200
X48175Y-52500
X48200Y-42050
X48250Y-41750
X48300Y-43500
X48300Y-58600
X48326Y-38726
X48350Y-42850
X48400Y-43209
X48493Y-44904
X48500Y-33225
X48600Y-48675
X48650Y-43384
X48664Y-48986
X48750Y-33225
X48800Y-38500
X48800Y-42050
X49000Y-38700
X49100Y-44325
X49139Y-49461
X49226Y-38924
X49250Y-33225
X49450Y-47675
X49550Y-34775
X49750Y-47675
X49800Y-39500
X49800Y-43684
X49850Y-46550
X49850Y-58600
X50000Y-26550
X50000Y-39700
X50000Y-48000
X50050Y-34775
X50050Y-47500
X50100Y-46575
X50174Y-58676
X50200Y-33400
X50200Y-33650
X50200Y-39900
X50250Y-30750
X50250Y-31750
X50300Y-34775
X50300Y-47250
X50450Y-33850
X50500Y-37850
X50500Y-48750
X50700Y-34100
X50700Y-38100
X50750Y-31250
X50750Y-31250
X50750Y-33400
X50800Y-34775
X50807Y-44050
X50900Y-42465
X50950Y-34350
X50999Y-31499
X51000Y-30750
X51000Y-33600
X51150Y-33850
X51200Y-34600
X51250Y-30500
X51250Y-51750
X51250Y-54150
X51300Y-37950
X51350Y-34100
X51350Y-45650
X51565Y-46750
X51565Y-47000
X51600Y-34350
X51600Y-45650
X51649Y-38051
X51661Y-39089
X51700Y-44372
X51750Y-49500
X51842Y-42708
X51850Y-31425
X51850Y-34600
X51880Y-49750
X51880Y-50000
X51880Y-50250
X51900Y-45750
X51985Y-39165
X51997Y-38153
X52000Y-44197
X52050Y-33675
X52126Y-54550
X52127Y-42745
X52300Y-43100
X52326Y-57574
X52334Y-39266
X52350Y-41825
X52350Y-42075
X52353Y-42325
X52353Y-42575
X52500Y-49750
X52500Y-50250
X52500Y-47750
X52500Y-50000
X52528Y-45800
X52550Y-41675
X52600Y-57350
X53000Y-47750
X53050Y-47000
X53149Y-34775
X53250Y-46750
X53374Y-54550
X53450Y-39150
X53450Y-40050
X53450Y-41900
X53450Y-45738
X53625Y-42150
X53625Y-45542
X53626Y-48826
X53650Y-49450
X53700Y-40450
X53800Y-39050
X53800Y-42400
X53800Y-45750
X53943Y-40389
X54000Y-47750
X54050Y-42375
X54050Y-43095
X54160Y-40266
X54300Y-39050
X54400Y-42300
X54439Y-40249
X54500Y-47750
X54550Y-39050
X54600Y-36225
X54674Y-38426
X54683Y-40308
X54750Y-42550
X54750Y-45775
X54750Y-48400
X54850Y-46700
X54902Y-40428
X54963Y-42681
X55000Y-45775
X55049Y-38299
X55050Y-36675
X55050Y-37800
X55050Y-38800
X55050Y-39050
X55150Y-42900
X55150Y-44600
X55150Y-45050
X55200Y-43350
X55200Y-43600
X55250Y-45800
X55350Y-39000
X56000Y-41400
X56200Y-36900
X56200Y-38550
X56368Y-42276
X56377Y-37077
X56524Y-36576
X56650Y-38550
X56700Y-43250
X56700Y-43600
X56702Y-36751
X56800Y-42350
X56850Y-42650
X56950Y-43195
X56950Y-43600
X57148Y-42707
X57150Y-43775
X57426Y-42676
X57550Y-39100
X57550Y-46150
X57750Y-45961
X58050Y-31100
X58050Y-33100
X58150Y-39100
X58650Y-40432
X58650Y-41082
X58900Y-40432
X58900Y-41082
X59000Y-28100
X59050Y-31100
X59200Y-27800
X59250Y-57950
X59500Y-29200
X59500Y-29450
X59500Y-29700
X59500Y-29950
X59500Y-30200
X59500Y-30450
X59500Y-30700
X59500Y-30950
X59500Y-31200
X59500Y-31450
X59500Y-31700
X59500Y-31950
X59500Y-32200
X59500Y-32450
X59500Y-32700
X59500Y-32950
X59650Y-40432
X59650Y-41082
X59675Y-28900
X59676Y-27576
X59700Y-28600
X59870Y-28416
X60000Y-58050
X60091Y-28300
X60100Y-27400
X60325Y-53550
X60341Y-28300
X60400Y-27100
X60442Y-28653
X60500Y-54750
X60500Y-57000
X60500Y-58550
X60591Y-28300
X60600Y-26800
X60750Y-38550
X60750Y-43100
X60841Y-28300
X60900Y-26500
X61100Y-28300
X61100Y-26200
X61300Y-58100
X61325Y-36300
X61325Y-36550
X61350Y-28300
X61400Y-26000
X61500Y-35050
X61500Y-36050
X61600Y-25700
X61600Y-28300
X61900Y-28300
X61975Y-25400
X62000Y-32700
X62000Y-54750
X62000Y-57000
X62150Y-28300
X62200Y-53550
X62225Y-25200
X62275Y-36300
X62275Y-36550
X62400Y-28300
X62475Y-25000
X62600Y-33100
X62650Y-28300
X62700Y-24800
X62900Y-28300
X62975Y-24600
X63150Y-28300
X63200Y-24400
X63400Y-28300
X63589Y-45786
X63700Y-24200
X63900Y-29050
X63950Y-55000
X64000Y-29600
X64000Y-29850
X64000Y-30100
X64000Y-30350
X64000Y-35100
X64000Y-35400
X64000Y-35700
X64000Y-36000
X64100Y-33000
X64100Y-45200
X64450Y-55250
X65100Y-33800
X65200Y-27800
X65200Y-53050
X65550Y-53750
X65600Y-27800
X65650Y-30100
X65800Y-32250
X67400Y-28800
X67400Y-29300
X67400Y-29800
X67400Y-30300
X67400Y-32300
X67400Y-32800
X67400Y-33300
X67400Y-33800
X68650Y-34800
X68750Y-59188
X69250Y-31950
X69514Y-59014
X69800Y-29500
X69800Y-29500
X69800Y-31300
X69800Y-33000
X69800Y-33000
X69800Y-34000
X69800Y-34800
X69800Y-36500
X69800Y-36500
X69800Y-37500
X69800Y-38300
X70000Y-30500
X70200Y-29000
X70200Y-31300
X70200Y-32500
X70200Y-34800
X70200Y-36000
X70200Y-38300
X70500Y-27500
X70500Y-27900
X70500Y-28300
X70600Y-30000
X70600Y-30000
X70600Y-31300
X70600Y-33500
X70600Y-33500
X70600Y-34800
X70600Y-37000
X70600Y-37000
X70600Y-38300
X71000Y-32000
X71300Y-27500
X71350Y-36950
X71800Y-28300
X71800Y-28300
X71950Y-54150
X72300Y-27500
X72300Y-27500
X72624Y-54126
X72800Y-27900
X73000Y-36700
X73100Y-36100
X73450Y-39100
X73550Y-28850
X73750Y-56500
X74000Y-27500
X74000Y-27900
X74000Y-28300
X74200Y-35200
X74350Y-39350
X74500Y-56500
X74750Y-59000
X74800Y-27500
X75107Y-35400
X75107Y-36300
X75107Y-35800
X75300Y-28300
X75300Y-28300
X75500Y-55750
X75500Y-59250
X75666Y-54119
X75750Y-56000
X75800Y-27500
X75800Y-27500
X75965Y-55750
X76300Y-27900
X76315Y-55750
X76315Y-56000
X76315Y-56250
X76350Y-54100
X77050Y-28750
X77500Y-27500
X77500Y-27900
X77500Y-28300
X78300Y-27500
X78800Y-28300
X78800Y-28300
X79300Y-27500
X79300Y-27500
X79800Y-27900
X80200Y-35300
X80350Y-28750
X81000Y-27500
X81000Y-27900
X81000Y-28300
X81000Y-43000
X81486Y-59014
X81500Y-44000
X81500Y-56250
X81600Y-35300
X81800Y-27500
X82300Y-28300
X82300Y-28300
X82500Y-57250
X82500Y-59250
X82800Y-27500
X82800Y-27500
X83300Y-27900
X84850Y-29900
X85500Y-53000
X87000Y-54000
X87950Y-46469
X88750Y-47100
X89300Y-51061
X89300Y-51650
T2
X31498Y-55488
X31498Y-56000
X31498Y-56512
X32199Y-55488
X32199Y-56000
X32199Y-56512
X32900Y-55488
X32900Y-56000
X32900Y-56512
X33600Y-55488
X33600Y-56000
X33600Y-56512
X34301Y-55488
X34301Y-56000
X34301Y-56512
X35002Y-55488
X35002Y-56000
X35002Y-56512
T3
X21750Y-33500
X21750Y-35250
X22100Y-44750
X22200Y-48600
X22250Y-39250
X23000Y-36250
X23250Y-34750
X24000Y-40750
X25350Y-45750
X25750Y-33500
X26250Y-39500
X26350Y-44050
X26350Y-45950
X26600Y-48150
X26606Y-40874
X27000Y-39250
X28500Y-34750
X28500Y-42400
X28750Y-33750
X28750Y-58250
X29300Y-33300
X29350Y-45950
X29400Y-44050
X29400Y-54000
X29750Y-23250
X29750Y-37250
X29750Y-62500
X29806Y-40874
X30000Y-58750
X30250Y-25000
X30250Y-30250
X30250Y-32250
X30250Y-38250
X30500Y-57750
X30700Y-54950
X30750Y-56000
X31192Y-58167
X31650Y-42400
X31655Y-58192
X31750Y-33000
X31905Y-58678
X32250Y-58974
X32350Y-45950
X32400Y-44050
X32661Y-58538
X32706Y-40874
X32974Y-58224
X33750Y-58000
X34250Y-23500
X34250Y-58500
X34500Y-58000
X34600Y-42400
X34750Y-59000
X35500Y-54250
X35500Y-55750
X36500Y-55500
X37000Y-58750
X38000Y-58000
X40750Y-55000
X41434Y-59000
X42250Y-55500
X42750Y-59500
X43250Y-56500
X43500Y-59150
X45500Y-24750
X45750Y-59000
X46250Y-55750
X47000Y-57950
X47250Y-24750
X48400Y-57700
X48500Y-55000
X48750Y-24750
X48800Y-27150
X48900Y-27850
X49850Y-28150
X50250Y-24750
X50500Y-55000
X50500Y-56000
X50700Y-27250
X51150Y-59550
X51500Y-55000
X52100Y-23575
X52100Y-25175
X52100Y-26350
X52750Y-59000
X53717Y-28873
X54000Y-55000
X55068Y-28860
X55350Y-57700
X55500Y-55000
X57000Y-23575
X57000Y-24375
X57000Y-26750
X57000Y-28250
X57000Y-58500
X57500Y-55000
X57500Y-56000
X57750Y-55500
X58500Y-24400
X58500Y-25500
X58750Y-57000
X58750Y-57000
X59300Y-58300
X59700Y-59000
X59900Y-25500
X63500Y-55000
X63800Y-57900
X64100Y-58500
X65750Y-53000
X65750Y-55000
X65750Y-56000
X66250Y-59500
X66750Y-57750
X67000Y-55000
X70237Y-57706
X70750Y-60250
X72000Y-52500
X72000Y-59250
X73250Y-59500
X73758Y-57698
X74300Y-51700
X75250Y-51750
X75500Y-39750
X75500Y-53500
X76250Y-53500
X76500Y-42250
X77000Y-51750
X77000Y-55728
X77345Y-57750
X77750Y-60250
X78000Y-46000
X78000Y-47250
X78000Y-49750
X78500Y-54000
X78500Y-54750
X78600Y-52600
X78750Y-43750
X79000Y-51000
X79000Y-57500
X79250Y-54750
X79750Y-43750
X80250Y-47750
X80250Y-60000
X80750Y-57500
X81000Y-47000
X81000Y-48250
X81000Y-49500
X81250Y-42250
X83100Y-52600
X83250Y-61000
X83350Y-46500
X83500Y-40000
X83750Y-41000
X83750Y-58250
X84250Y-32250
X84250Y-32750
X84250Y-33250
X84250Y-33750
X85500Y-36750
X85750Y-31750
X85750Y-57000
X85750Y-57000
X86000Y-36500
X86250Y-36000
X86500Y-51750
X86750Y-59750
X86900Y-52650
X87218Y-49936
X87250Y-53250
X87250Y-57250
X87300Y-45650
X87500Y-35000
X87750Y-53500
X88250Y-35250
X88250Y-36500
X88500Y-36900
X89150Y-37450
X90250Y-40250
X90250Y-42250
X90450Y-44700
X90750Y-50000
X90750Y-50750
X91750Y-52000
X92500Y-35750
X92500Y-36250
X92500Y-36750
X92750Y-33750
X92750Y-34750
X93750Y-42750
X85284Y-48440
X85544Y-47814
X85544Y-49066
X86170Y-47554
X86170Y-49326
X86796Y-47814
X86796Y-49066
X87056Y-48440
X28984Y-27650
X29244Y-27024
X29244Y-28276
X29870Y-26764
X29870Y-28536
X30496Y-27024
X30496Y-28276
X30756Y-27650
X85284Y-27650
X85544Y-27024
X85544Y-28276
X86170Y-26764
X86170Y-28536
X86796Y-27024
X86796Y-28276
X87056Y-27650
X28984Y-48440
X29244Y-47814
X29244Y-49066
X29870Y-47554
X29870Y-49326
X30496Y-47814
X30496Y-49066
X30756Y-48440
T4
X91940Y-44160
X91940Y-49333
T5
X86170Y-27650
X29870Y-48440
X86170Y-48440
X29870Y-27650
T0
M30
