M48
;Layer_Color=6321
;FILE_FORMAT=4:4
METRIC,LZ
;TYPE=PLATED
T1F00S00C0.7112
T2F00S00C1.0000
T3F00S00C1.1000
T4F00S00C2.2000
T5F00S00C2.5500
T6F00S00C2.7500
%
T01
X0063Y0057
T02
X003065Y0032
X003319
X003573
X003827
X004081
X004765
X005019
X005273
X005527
X005781
X006421
X006675
X006925
X0077Y0028
X007954
X008208
X008462
X008716
X00897
X009224
X009478
X009732
X009986
X010676Y003276
Y00353
Y003784
X0122
Y004038
Y004292
Y004546
Y0048
X010676
Y005054
Y005308
Y004546
Y004292
Y004038
X009986Y0046
X009732
X009478
X009224
X00897
X008716
X008462
X008208
X007954
X0096Y0065
Y006754
Y007008
Y007262
Y007516
Y00777
X0099Y007643
Y007389
X008908Y007365
Y007619
Y007873
X011124Y00777
Y007516
Y007262
Y007008
Y006754
Y0065
X0119Y006819
Y007073
Y007327
Y007581
X007892Y007619
Y007873
Y007365
X007227Y007295
Y007549
Y007803
X006973
Y007549
Y007295
Y007041
X007227
Y006787
X006973
X0063Y006076
X00627Y00478
Y004526
X005881Y004219
X005627
X005373
X005119
X00480002Y00409999
X00444Y00448
Y004734
X003981Y004981
Y004219
X0048Y0051
X005119Y004981
X005373
X005627
X005881
X00541Y00535
X005156
X0049Y006292
X004481Y006419
Y006673
Y006927
Y007181
X0049Y007308
X00539501Y00730001
X00564501
X0063Y0076
X0077Y0046
X003727Y004219
X003473
X003219
X00280002Y00409999
X0028Y0051
X003219Y004981
X003473
X003727
X00366Y00536
X003406
X0033Y006284
X0029Y0063
X003719Y006419
Y006673
Y006927
Y007181
X0033Y0073
X0029Y007316
X003Y00851901
X0034Y008384
X0038Y008392
Y009408
X0034Y0094
X003Y00928101
Y01031901
X0034Y010184
X0038Y010192
Y011208
X0034Y0112
X003Y01108101
X00417Y011174
Y01092
Y010394
Y01014
X0042Y009334
Y00908
X00419Y008654
Y0084
X00564Y00828
Y00878
X00623Y00879
Y00829
X006973Y008311
Y008565
Y008819
Y009073
Y009327
Y009581
Y009835
Y010089
Y010343
Y010597
Y010851
Y011105
Y011359
Y011613
X007227
Y011359
Y011105
Y010851
Y010597
Y010343
Y010089
Y009835
Y009581
Y009327
Y009073
Y008819
Y008565
Y008311
Y008057
X006973
X007892Y008127
Y008381
Y008635
X00614Y009549
Y009803
Y010057
Y010311
X006024Y0119
X00577
X005516
X005262
X005008
X004754
X00449999
X006278
X008Y011778
Y011524
Y01127
Y011016
Y010762
Y010508
Y010254
Y01
X008908Y008635
Y008381
Y008127
X0096Y008024
Y008278
Y008532
Y008786
Y00904
Y009294
X0099Y008659
Y008405
X011124Y008532
Y008786
Y00904
X011124Y009294
X0119Y009238
Y009492
Y009746
Y01000001
Y008984
Y00873
Y008476
Y008222
X011124Y008278
Y008024
X008Y012032
T03
X0048Y008646
Y0089
Y009154
Y010446
Y0107
Y010954
T04
X0109464Y01
Y012032
T05
X010676Y002895
X0122
Y005689
X010676
X009986Y0058446
Y0040446
X0077
Y0058446
T06
X012Y0063
X0071
X012Y0121
X0071
M30
