G04 #@! TF.GenerationSoftware,KiCad,Pcbnew,(5.0.1)-3*
G04 #@! TF.CreationDate,2019-01-04T23:11:44-08:00*
G04 #@! TF.ProjectId,croptop,63726F70746F702E6B696361645F7063,rev?*
G04 #@! TF.SameCoordinates,Original*
G04 #@! TF.FileFunction,Soldermask,Bot*
G04 #@! TF.FilePolarity,Negative*
%FSLAX46Y46*%
G04 Gerber Fmt 4.6, Leading zero omitted, Abs format (unit mm)*
G04 Created by KiCad (PCBNEW (5.0.1)-3) date 1/4/2019 11:11:44 PM*
%MOMM*%
%LPD*%
G01*
G04 APERTURE LIST*
%ADD10C,0.100000*%
G04 APERTURE END LIST*
D10*
G36*
X177869484Y-133221766D02*
X178331757Y-133313718D01*
X179059710Y-133615246D01*
X179667391Y-134021285D01*
X179714854Y-134052999D01*
X180272001Y-134610146D01*
X180272003Y-134610149D01*
X180709754Y-135265290D01*
X181011282Y-135993243D01*
X181039803Y-136136627D01*
X181158146Y-136731574D01*
X181165000Y-136766034D01*
X181165000Y-137553966D01*
X181011282Y-138326757D01*
X180709754Y-139054710D01*
X180374912Y-139555837D01*
X180272001Y-139709854D01*
X179714854Y-140267001D01*
X179714851Y-140267003D01*
X179059710Y-140704754D01*
X178331757Y-141006282D01*
X177558967Y-141160000D01*
X176771033Y-141160000D01*
X175998243Y-141006282D01*
X175270290Y-140704754D01*
X174615149Y-140267003D01*
X174615146Y-140267001D01*
X174057999Y-139709854D01*
X173955088Y-139555837D01*
X173620246Y-139054710D01*
X173318718Y-138326757D01*
X173165000Y-137553966D01*
X173165000Y-136766034D01*
X173171855Y-136731574D01*
X173290197Y-136136627D01*
X173318718Y-135993243D01*
X173620246Y-135265290D01*
X174057997Y-134610149D01*
X174057999Y-134610146D01*
X174615146Y-134052999D01*
X174662609Y-134021285D01*
X175270290Y-133615246D01*
X175998243Y-133313718D01*
X176460516Y-133221766D01*
X176771033Y-133160000D01*
X177558967Y-133160000D01*
X177869484Y-133221766D01*
X177869484Y-133221766D01*
G37*
G36*
X72459484Y-133221766D02*
X72921757Y-133313718D01*
X73649710Y-133615246D01*
X74257391Y-134021285D01*
X74304854Y-134052999D01*
X74862001Y-134610146D01*
X74862003Y-134610149D01*
X75299754Y-135265290D01*
X75601282Y-135993243D01*
X75629803Y-136136627D01*
X75748146Y-136731574D01*
X75755000Y-136766034D01*
X75755000Y-137553966D01*
X75601282Y-138326757D01*
X75299754Y-139054710D01*
X74964912Y-139555837D01*
X74862001Y-139709854D01*
X74304854Y-140267001D01*
X74304851Y-140267003D01*
X73649710Y-140704754D01*
X72921757Y-141006282D01*
X72148967Y-141160000D01*
X71361033Y-141160000D01*
X70588243Y-141006282D01*
X69860290Y-140704754D01*
X69205149Y-140267003D01*
X69205146Y-140267001D01*
X68647999Y-139709854D01*
X68545088Y-139555837D01*
X68210246Y-139054710D01*
X67908718Y-138326757D01*
X67755000Y-137553966D01*
X67755000Y-136766034D01*
X67761855Y-136731574D01*
X67880197Y-136136627D01*
X67908718Y-135993243D01*
X68210246Y-135265290D01*
X68647997Y-134610149D01*
X68647999Y-134610146D01*
X69205146Y-134052999D01*
X69252609Y-134021285D01*
X69860290Y-133615246D01*
X70588243Y-133313718D01*
X71050516Y-133221766D01*
X71361033Y-133160000D01*
X72148967Y-133160000D01*
X72459484Y-133221766D01*
X72459484Y-133221766D01*
G37*
G36*
X137432845Y-138838215D02*
X137523839Y-138875906D01*
X137604640Y-138929896D01*
X137605734Y-138930627D01*
X137675373Y-139000266D01*
X137675375Y-139000269D01*
X137711752Y-139054710D01*
X137730095Y-139082163D01*
X137767785Y-139173155D01*
X137787000Y-139269755D01*
X137787000Y-139368245D01*
X137767785Y-139464845D01*
X137730095Y-139555837D01*
X137675373Y-139637734D01*
X137605734Y-139707373D01*
X137605731Y-139707375D01*
X137523839Y-139762094D01*
X137432845Y-139799785D01*
X137336246Y-139819000D01*
X137237754Y-139819000D01*
X137141155Y-139799785D01*
X137050161Y-139762094D01*
X136968269Y-139707375D01*
X136968266Y-139707373D01*
X136898627Y-139637734D01*
X136843905Y-139555837D01*
X136806215Y-139464845D01*
X136787000Y-139368245D01*
X136787000Y-139269755D01*
X136806215Y-139173155D01*
X136843905Y-139082163D01*
X136862249Y-139054710D01*
X136898625Y-139000269D01*
X136898627Y-139000266D01*
X136968266Y-138930627D01*
X136969360Y-138929896D01*
X137050161Y-138875906D01*
X137141155Y-138838215D01*
X137237754Y-138819000D01*
X137336246Y-138819000D01*
X137432845Y-138838215D01*
X137432845Y-138838215D01*
G37*
G36*
X104225026Y-136641115D02*
X104443412Y-136731573D01*
X104639958Y-136862901D01*
X104807099Y-137030042D01*
X104938427Y-137226588D01*
X105028885Y-137444974D01*
X105075000Y-137676809D01*
X105075000Y-137913191D01*
X105028885Y-138145026D01*
X104938427Y-138363412D01*
X104807099Y-138559958D01*
X104639958Y-138727099D01*
X104443412Y-138858427D01*
X104225026Y-138948885D01*
X103993191Y-138995000D01*
X103756809Y-138995000D01*
X103524974Y-138948885D01*
X103306588Y-138858427D01*
X103110042Y-138727099D01*
X102942901Y-138559958D01*
X102811573Y-138363412D01*
X102721115Y-138145026D01*
X102675000Y-137913191D01*
X102675000Y-137676809D01*
X102721115Y-137444974D01*
X102811573Y-137226588D01*
X102942901Y-137030042D01*
X103110042Y-136862901D01*
X103306588Y-136731573D01*
X103524974Y-136641115D01*
X103756809Y-136595000D01*
X103993191Y-136595000D01*
X104225026Y-136641115D01*
X104225026Y-136641115D01*
G37*
G36*
X80575000Y-138995000D02*
X78175000Y-138995000D01*
X78175000Y-136595000D01*
X80575000Y-136595000D01*
X80575000Y-138995000D01*
X80575000Y-138995000D01*
G37*
G36*
X83225026Y-136641115D02*
X83443412Y-136731573D01*
X83639958Y-136862901D01*
X83807099Y-137030042D01*
X83938427Y-137226588D01*
X84028885Y-137444974D01*
X84075000Y-137676809D01*
X84075000Y-137913191D01*
X84028885Y-138145026D01*
X83938427Y-138363412D01*
X83807099Y-138559958D01*
X83639958Y-138727099D01*
X83443412Y-138858427D01*
X83225026Y-138948885D01*
X82993191Y-138995000D01*
X82756809Y-138995000D01*
X82524974Y-138948885D01*
X82306588Y-138858427D01*
X82110042Y-138727099D01*
X81942901Y-138559958D01*
X81811573Y-138363412D01*
X81721115Y-138145026D01*
X81675000Y-137913191D01*
X81675000Y-137676809D01*
X81721115Y-137444974D01*
X81811573Y-137226588D01*
X81942901Y-137030042D01*
X82110042Y-136862901D01*
X82306588Y-136731573D01*
X82524974Y-136641115D01*
X82756809Y-136595000D01*
X82993191Y-136595000D01*
X83225026Y-136641115D01*
X83225026Y-136641115D01*
G37*
G36*
X86725026Y-136641115D02*
X86943412Y-136731573D01*
X87139958Y-136862901D01*
X87307099Y-137030042D01*
X87438427Y-137226588D01*
X87528885Y-137444974D01*
X87575000Y-137676809D01*
X87575000Y-137913191D01*
X87528885Y-138145026D01*
X87438427Y-138363412D01*
X87307099Y-138559958D01*
X87139958Y-138727099D01*
X86943412Y-138858427D01*
X86725026Y-138948885D01*
X86493191Y-138995000D01*
X86256809Y-138995000D01*
X86024974Y-138948885D01*
X85806588Y-138858427D01*
X85610042Y-138727099D01*
X85442901Y-138559958D01*
X85311573Y-138363412D01*
X85221115Y-138145026D01*
X85175000Y-137913191D01*
X85175000Y-137676809D01*
X85221115Y-137444974D01*
X85311573Y-137226588D01*
X85442901Y-137030042D01*
X85610042Y-136862901D01*
X85806588Y-136731573D01*
X86024974Y-136641115D01*
X86256809Y-136595000D01*
X86493191Y-136595000D01*
X86725026Y-136641115D01*
X86725026Y-136641115D01*
G37*
G36*
X90225026Y-136641115D02*
X90443412Y-136731573D01*
X90639958Y-136862901D01*
X90807099Y-137030042D01*
X90938427Y-137226588D01*
X91028885Y-137444974D01*
X91075000Y-137676809D01*
X91075000Y-137913191D01*
X91028885Y-138145026D01*
X90938427Y-138363412D01*
X90807099Y-138559958D01*
X90639958Y-138727099D01*
X90443412Y-138858427D01*
X90225026Y-138948885D01*
X89993191Y-138995000D01*
X89756809Y-138995000D01*
X89524974Y-138948885D01*
X89306588Y-138858427D01*
X89110042Y-138727099D01*
X88942901Y-138559958D01*
X88811573Y-138363412D01*
X88721115Y-138145026D01*
X88675000Y-137913191D01*
X88675000Y-137676809D01*
X88721115Y-137444974D01*
X88811573Y-137226588D01*
X88942901Y-137030042D01*
X89110042Y-136862901D01*
X89306588Y-136731573D01*
X89524974Y-136641115D01*
X89756809Y-136595000D01*
X89993191Y-136595000D01*
X90225026Y-136641115D01*
X90225026Y-136641115D01*
G37*
G36*
X93725026Y-136641115D02*
X93943412Y-136731573D01*
X94139958Y-136862901D01*
X94307099Y-137030042D01*
X94438427Y-137226588D01*
X94528885Y-137444974D01*
X94575000Y-137676809D01*
X94575000Y-137913191D01*
X94528885Y-138145026D01*
X94438427Y-138363412D01*
X94307099Y-138559958D01*
X94139958Y-138727099D01*
X93943412Y-138858427D01*
X93725026Y-138948885D01*
X93493191Y-138995000D01*
X93256809Y-138995000D01*
X93024974Y-138948885D01*
X92806588Y-138858427D01*
X92610042Y-138727099D01*
X92442901Y-138559958D01*
X92311573Y-138363412D01*
X92221115Y-138145026D01*
X92175000Y-137913191D01*
X92175000Y-137676809D01*
X92221115Y-137444974D01*
X92311573Y-137226588D01*
X92442901Y-137030042D01*
X92610042Y-136862901D01*
X92806588Y-136731573D01*
X93024974Y-136641115D01*
X93256809Y-136595000D01*
X93493191Y-136595000D01*
X93725026Y-136641115D01*
X93725026Y-136641115D01*
G37*
G36*
X97225026Y-136641115D02*
X97443412Y-136731573D01*
X97639958Y-136862901D01*
X97807099Y-137030042D01*
X97938427Y-137226588D01*
X98028885Y-137444974D01*
X98075000Y-137676809D01*
X98075000Y-137913191D01*
X98028885Y-138145026D01*
X97938427Y-138363412D01*
X97807099Y-138559958D01*
X97639958Y-138727099D01*
X97443412Y-138858427D01*
X97225026Y-138948885D01*
X96993191Y-138995000D01*
X96756809Y-138995000D01*
X96524974Y-138948885D01*
X96306588Y-138858427D01*
X96110042Y-138727099D01*
X95942901Y-138559958D01*
X95811573Y-138363412D01*
X95721115Y-138145026D01*
X95675000Y-137913191D01*
X95675000Y-137676809D01*
X95721115Y-137444974D01*
X95811573Y-137226588D01*
X95942901Y-137030042D01*
X96110042Y-136862901D01*
X96306588Y-136731573D01*
X96524974Y-136641115D01*
X96756809Y-136595000D01*
X96993191Y-136595000D01*
X97225026Y-136641115D01*
X97225026Y-136641115D01*
G37*
G36*
X100725026Y-136641115D02*
X100943412Y-136731573D01*
X101139958Y-136862901D01*
X101307099Y-137030042D01*
X101438427Y-137226588D01*
X101528885Y-137444974D01*
X101575000Y-137676809D01*
X101575000Y-137913191D01*
X101528885Y-138145026D01*
X101438427Y-138363412D01*
X101307099Y-138559958D01*
X101139958Y-138727099D01*
X100943412Y-138858427D01*
X100725026Y-138948885D01*
X100493191Y-138995000D01*
X100256809Y-138995000D01*
X100024974Y-138948885D01*
X99806588Y-138858427D01*
X99610042Y-138727099D01*
X99442901Y-138559958D01*
X99311573Y-138363412D01*
X99221115Y-138145026D01*
X99175000Y-137913191D01*
X99175000Y-137676809D01*
X99221115Y-137444974D01*
X99311573Y-137226588D01*
X99442901Y-137030042D01*
X99610042Y-136862901D01*
X99806588Y-136731573D01*
X100024974Y-136641115D01*
X100256809Y-136595000D01*
X100493191Y-136595000D01*
X100725026Y-136641115D01*
X100725026Y-136641115D01*
G37*
G36*
X107725026Y-136641115D02*
X107943412Y-136731573D01*
X108139958Y-136862901D01*
X108307099Y-137030042D01*
X108438427Y-137226588D01*
X108528885Y-137444974D01*
X108575000Y-137676809D01*
X108575000Y-137913191D01*
X108528885Y-138145026D01*
X108438427Y-138363412D01*
X108307099Y-138559958D01*
X108139958Y-138727099D01*
X107943412Y-138858427D01*
X107725026Y-138948885D01*
X107493191Y-138995000D01*
X107256809Y-138995000D01*
X107024974Y-138948885D01*
X106806588Y-138858427D01*
X106610042Y-138727099D01*
X106442901Y-138559958D01*
X106311573Y-138363412D01*
X106221115Y-138145026D01*
X106175000Y-137913191D01*
X106175000Y-137676809D01*
X106221115Y-137444974D01*
X106311573Y-137226588D01*
X106442901Y-137030042D01*
X106610042Y-136862901D01*
X106806588Y-136731573D01*
X107024974Y-136641115D01*
X107256809Y-136595000D01*
X107493191Y-136595000D01*
X107725026Y-136641115D01*
X107725026Y-136641115D01*
G37*
G36*
X111225026Y-136641115D02*
X111443412Y-136731573D01*
X111639958Y-136862901D01*
X111807099Y-137030042D01*
X111938427Y-137226588D01*
X112028885Y-137444974D01*
X112075000Y-137676809D01*
X112075000Y-137913191D01*
X112028885Y-138145026D01*
X111938427Y-138363412D01*
X111807099Y-138559958D01*
X111639958Y-138727099D01*
X111443412Y-138858427D01*
X111225026Y-138948885D01*
X110993191Y-138995000D01*
X110756809Y-138995000D01*
X110524974Y-138948885D01*
X110306588Y-138858427D01*
X110110042Y-138727099D01*
X109942901Y-138559958D01*
X109811573Y-138363412D01*
X109721115Y-138145026D01*
X109675000Y-137913191D01*
X109675000Y-137676809D01*
X109721115Y-137444974D01*
X109811573Y-137226588D01*
X109942901Y-137030042D01*
X110110042Y-136862901D01*
X110306588Y-136731573D01*
X110524974Y-136641115D01*
X110756809Y-136595000D01*
X110993191Y-136595000D01*
X111225026Y-136641115D01*
X111225026Y-136641115D01*
G37*
G36*
X114725026Y-136641115D02*
X114943412Y-136731573D01*
X115139958Y-136862901D01*
X115307099Y-137030042D01*
X115438427Y-137226588D01*
X115528885Y-137444974D01*
X115575000Y-137676809D01*
X115575000Y-137913191D01*
X115528885Y-138145026D01*
X115438427Y-138363412D01*
X115307099Y-138559958D01*
X115139958Y-138727099D01*
X114943412Y-138858427D01*
X114725026Y-138948885D01*
X114493191Y-138995000D01*
X114256809Y-138995000D01*
X114024974Y-138948885D01*
X113806588Y-138858427D01*
X113610042Y-138727099D01*
X113442901Y-138559958D01*
X113311573Y-138363412D01*
X113221115Y-138145026D01*
X113175000Y-137913191D01*
X113175000Y-137676809D01*
X113221115Y-137444974D01*
X113311573Y-137226588D01*
X113442901Y-137030042D01*
X113610042Y-136862901D01*
X113806588Y-136731573D01*
X114024974Y-136641115D01*
X114256809Y-136595000D01*
X114493191Y-136595000D01*
X114725026Y-136641115D01*
X114725026Y-136641115D01*
G37*
G36*
X118225026Y-136641115D02*
X118443412Y-136731573D01*
X118639958Y-136862901D01*
X118807099Y-137030042D01*
X118938427Y-137226588D01*
X119028885Y-137444974D01*
X119075000Y-137676809D01*
X119075000Y-137913191D01*
X119028885Y-138145026D01*
X118938427Y-138363412D01*
X118807099Y-138559958D01*
X118639958Y-138727099D01*
X118443412Y-138858427D01*
X118225026Y-138948885D01*
X117993191Y-138995000D01*
X117756809Y-138995000D01*
X117524974Y-138948885D01*
X117306588Y-138858427D01*
X117110042Y-138727099D01*
X116942901Y-138559958D01*
X116811573Y-138363412D01*
X116721115Y-138145026D01*
X116675000Y-137913191D01*
X116675000Y-137676809D01*
X116721115Y-137444974D01*
X116811573Y-137226588D01*
X116942901Y-137030042D01*
X117110042Y-136862901D01*
X117306588Y-136731573D01*
X117524974Y-136641115D01*
X117756809Y-136595000D01*
X117993191Y-136595000D01*
X118225026Y-136641115D01*
X118225026Y-136641115D01*
G37*
G36*
X121725026Y-136641115D02*
X121943412Y-136731573D01*
X122139958Y-136862901D01*
X122307099Y-137030042D01*
X122438427Y-137226588D01*
X122528885Y-137444974D01*
X122575000Y-137676809D01*
X122575000Y-137913191D01*
X122528885Y-138145026D01*
X122438427Y-138363412D01*
X122307099Y-138559958D01*
X122139958Y-138727099D01*
X121943412Y-138858427D01*
X121725026Y-138948885D01*
X121493191Y-138995000D01*
X121256809Y-138995000D01*
X121024974Y-138948885D01*
X120806588Y-138858427D01*
X120610042Y-138727099D01*
X120442901Y-138559958D01*
X120311573Y-138363412D01*
X120221115Y-138145026D01*
X120175000Y-137913191D01*
X120175000Y-137676809D01*
X120221115Y-137444974D01*
X120311573Y-137226588D01*
X120442901Y-137030042D01*
X120610042Y-136862901D01*
X120806588Y-136731573D01*
X121024974Y-136641115D01*
X121256809Y-136595000D01*
X121493191Y-136595000D01*
X121725026Y-136641115D01*
X121725026Y-136641115D01*
G37*
G36*
X125225026Y-136641115D02*
X125443412Y-136731573D01*
X125639958Y-136862901D01*
X125807099Y-137030042D01*
X125938427Y-137226588D01*
X126028885Y-137444974D01*
X126075000Y-137676809D01*
X126075000Y-137913191D01*
X126028885Y-138145026D01*
X125938427Y-138363412D01*
X125807099Y-138559958D01*
X125639958Y-138727099D01*
X125443412Y-138858427D01*
X125225026Y-138948885D01*
X124993191Y-138995000D01*
X124756809Y-138995000D01*
X124524974Y-138948885D01*
X124306588Y-138858427D01*
X124110042Y-138727099D01*
X123942901Y-138559958D01*
X123811573Y-138363412D01*
X123721115Y-138145026D01*
X123675000Y-137913191D01*
X123675000Y-137676809D01*
X123721115Y-137444974D01*
X123811573Y-137226588D01*
X123942901Y-137030042D01*
X124110042Y-136862901D01*
X124306588Y-136731573D01*
X124524974Y-136641115D01*
X124756809Y-136595000D01*
X124993191Y-136595000D01*
X125225026Y-136641115D01*
X125225026Y-136641115D01*
G37*
G36*
X128725026Y-136641115D02*
X128943412Y-136731573D01*
X129139958Y-136862901D01*
X129307099Y-137030042D01*
X129438427Y-137226588D01*
X129528885Y-137444974D01*
X129575000Y-137676809D01*
X129575000Y-137913191D01*
X129528885Y-138145026D01*
X129438427Y-138363412D01*
X129307099Y-138559958D01*
X129139958Y-138727099D01*
X128943412Y-138858427D01*
X128725026Y-138948885D01*
X128493191Y-138995000D01*
X128256809Y-138995000D01*
X128024974Y-138948885D01*
X127806588Y-138858427D01*
X127610042Y-138727099D01*
X127442901Y-138559958D01*
X127311573Y-138363412D01*
X127221115Y-138145026D01*
X127175000Y-137913191D01*
X127175000Y-137676809D01*
X127221115Y-137444974D01*
X127311573Y-137226588D01*
X127442901Y-137030042D01*
X127610042Y-136862901D01*
X127806588Y-136731573D01*
X128024974Y-136641115D01*
X128256809Y-136595000D01*
X128493191Y-136595000D01*
X128725026Y-136641115D01*
X128725026Y-136641115D01*
G37*
G36*
X133940345Y-136044215D02*
X134024966Y-136079266D01*
X134031339Y-136081906D01*
X134098582Y-136126837D01*
X134113234Y-136136627D01*
X134182873Y-136206266D01*
X134237595Y-136288163D01*
X134262693Y-136348755D01*
X134275285Y-136379155D01*
X134294500Y-136475754D01*
X134294500Y-136574246D01*
X134275285Y-136670845D01*
X134237594Y-136761839D01*
X134234791Y-136766034D01*
X134182873Y-136843734D01*
X134113234Y-136913373D01*
X134113231Y-136913375D01*
X134031339Y-136968094D01*
X133940345Y-137005785D01*
X133843746Y-137025000D01*
X133745254Y-137025000D01*
X133648655Y-137005785D01*
X133557661Y-136968094D01*
X133475769Y-136913375D01*
X133475766Y-136913373D01*
X133406127Y-136843734D01*
X133354209Y-136766034D01*
X133351406Y-136761839D01*
X133313715Y-136670845D01*
X133294500Y-136574246D01*
X133294500Y-136475754D01*
X133313715Y-136379155D01*
X133326307Y-136348755D01*
X133351405Y-136288163D01*
X133406127Y-136206266D01*
X133475766Y-136136627D01*
X133490418Y-136126837D01*
X133557661Y-136081906D01*
X133564035Y-136079266D01*
X133648655Y-136044215D01*
X133745254Y-136025000D01*
X133843746Y-136025000D01*
X133940345Y-136044215D01*
X133940345Y-136044215D01*
G37*
G36*
X158260845Y-135917215D02*
X158314033Y-135939246D01*
X158351839Y-135954906D01*
X158409214Y-135993243D01*
X158433734Y-136009627D01*
X158503373Y-136079266D01*
X158503375Y-136079269D01*
X158558094Y-136161161D01*
X158595785Y-136252155D01*
X158602948Y-136288163D01*
X158615000Y-136348755D01*
X158615000Y-136447245D01*
X158595785Y-136543845D01*
X158583193Y-136574246D01*
X158558094Y-136634839D01*
X158534035Y-136670845D01*
X158503373Y-136716734D01*
X158433734Y-136786373D01*
X158433731Y-136786375D01*
X158351839Y-136841094D01*
X158351838Y-136841095D01*
X158351837Y-136841095D01*
X158299197Y-136862899D01*
X158260845Y-136878785D01*
X158164246Y-136898000D01*
X158065754Y-136898000D01*
X157969155Y-136878785D01*
X157930803Y-136862899D01*
X157878163Y-136841095D01*
X157878162Y-136841095D01*
X157878161Y-136841094D01*
X157796269Y-136786375D01*
X157796266Y-136786373D01*
X157726627Y-136716734D01*
X157695965Y-136670845D01*
X157671906Y-136634839D01*
X157646808Y-136574246D01*
X157634215Y-136543845D01*
X157615000Y-136447245D01*
X157615000Y-136348755D01*
X157627053Y-136288163D01*
X157634215Y-136252155D01*
X157671906Y-136161161D01*
X157726625Y-136079269D01*
X157726627Y-136079266D01*
X157796266Y-136009627D01*
X157820786Y-135993243D01*
X157878161Y-135954906D01*
X157915968Y-135939246D01*
X157969155Y-135917215D01*
X158065754Y-135898000D01*
X158164246Y-135898000D01*
X158260845Y-135917215D01*
X158260845Y-135917215D01*
G37*
G36*
X159530845Y-135409215D02*
X159584033Y-135431246D01*
X159621839Y-135446906D01*
X159702640Y-135500896D01*
X159703734Y-135501627D01*
X159773373Y-135571266D01*
X159773375Y-135571269D01*
X159828094Y-135653161D01*
X159865785Y-135744155D01*
X159885000Y-135840754D01*
X159885000Y-135939246D01*
X159865785Y-136035845D01*
X159828094Y-136126839D01*
X159805159Y-136161163D01*
X159773373Y-136208734D01*
X159703734Y-136278373D01*
X159703731Y-136278375D01*
X159621839Y-136333094D01*
X159621838Y-136333095D01*
X159621837Y-136333095D01*
X159584030Y-136348755D01*
X159530845Y-136370785D01*
X159434246Y-136390000D01*
X159335754Y-136390000D01*
X159239155Y-136370785D01*
X159185970Y-136348755D01*
X159148163Y-136333095D01*
X159148162Y-136333095D01*
X159148161Y-136333094D01*
X159066269Y-136278375D01*
X159066266Y-136278373D01*
X158996627Y-136208734D01*
X158964841Y-136161163D01*
X158941906Y-136126839D01*
X158904215Y-136035845D01*
X158885000Y-135939246D01*
X158885000Y-135840754D01*
X158904215Y-135744155D01*
X158941906Y-135653161D01*
X158996625Y-135571269D01*
X158996627Y-135571266D01*
X159066266Y-135501627D01*
X159067360Y-135500896D01*
X159148161Y-135446906D01*
X159185968Y-135431246D01*
X159239155Y-135409215D01*
X159335754Y-135390000D01*
X159434246Y-135390000D01*
X159530845Y-135409215D01*
X159530845Y-135409215D01*
G37*
G36*
X156990845Y-135409215D02*
X157044033Y-135431246D01*
X157081839Y-135446906D01*
X157162640Y-135500896D01*
X157163734Y-135501627D01*
X157233373Y-135571266D01*
X157233375Y-135571269D01*
X157288094Y-135653161D01*
X157325785Y-135744155D01*
X157345000Y-135840754D01*
X157345000Y-135939246D01*
X157325785Y-136035845D01*
X157288094Y-136126839D01*
X157265159Y-136161163D01*
X157233373Y-136208734D01*
X157163734Y-136278373D01*
X157163731Y-136278375D01*
X157081839Y-136333094D01*
X157081838Y-136333095D01*
X157081837Y-136333095D01*
X157044030Y-136348755D01*
X156990845Y-136370785D01*
X156894246Y-136390000D01*
X156795754Y-136390000D01*
X156699155Y-136370785D01*
X156645970Y-136348755D01*
X156608163Y-136333095D01*
X156608162Y-136333095D01*
X156608161Y-136333094D01*
X156526269Y-136278375D01*
X156526266Y-136278373D01*
X156456627Y-136208734D01*
X156424841Y-136161163D01*
X156401906Y-136126839D01*
X156364215Y-136035845D01*
X156345000Y-135939246D01*
X156345000Y-135840754D01*
X156364215Y-135744155D01*
X156401906Y-135653161D01*
X156456625Y-135571269D01*
X156456627Y-135571266D01*
X156526266Y-135501627D01*
X156527360Y-135500896D01*
X156608161Y-135446906D01*
X156645968Y-135431246D01*
X156699155Y-135409215D01*
X156795754Y-135390000D01*
X156894246Y-135390000D01*
X156990845Y-135409215D01*
X156990845Y-135409215D01*
G37*
G36*
X160673845Y-134901215D02*
X160764839Y-134938906D01*
X160845640Y-134992896D01*
X160846734Y-134993627D01*
X160916373Y-135063266D01*
X160916375Y-135063269D01*
X160971094Y-135145161D01*
X161008785Y-135236155D01*
X161028000Y-135332754D01*
X161028000Y-135431246D01*
X161008785Y-135527845D01*
X160971094Y-135618839D01*
X160948159Y-135653163D01*
X160916373Y-135700734D01*
X160846734Y-135770373D01*
X160846731Y-135770375D01*
X160764839Y-135825094D01*
X160764838Y-135825095D01*
X160764837Y-135825095D01*
X160727030Y-135840755D01*
X160673845Y-135862785D01*
X160577246Y-135882000D01*
X160478754Y-135882000D01*
X160382155Y-135862785D01*
X160328970Y-135840755D01*
X160291163Y-135825095D01*
X160291162Y-135825095D01*
X160291161Y-135825094D01*
X160209269Y-135770375D01*
X160209266Y-135770373D01*
X160139627Y-135700734D01*
X160107841Y-135653163D01*
X160084906Y-135618839D01*
X160047215Y-135527845D01*
X160028000Y-135431246D01*
X160028000Y-135332754D01*
X160047215Y-135236155D01*
X160084906Y-135145161D01*
X160139625Y-135063269D01*
X160139627Y-135063266D01*
X160209266Y-134993627D01*
X160210360Y-134992896D01*
X160291161Y-134938906D01*
X160382155Y-134901215D01*
X160478754Y-134882000D01*
X160577246Y-134882000D01*
X160673845Y-134901215D01*
X160673845Y-134901215D01*
G37*
G36*
X83076845Y-133821715D02*
X83161466Y-133856766D01*
X83167839Y-133859406D01*
X83176769Y-133865373D01*
X83249734Y-133914127D01*
X83319373Y-133983766D01*
X83319375Y-133983769D01*
X83344443Y-134021285D01*
X83374095Y-134065663D01*
X83399193Y-134126255D01*
X83411785Y-134156655D01*
X83431000Y-134253254D01*
X83431000Y-134351746D01*
X83411785Y-134448345D01*
X83374094Y-134539339D01*
X83357701Y-134563873D01*
X83319373Y-134621234D01*
X83249734Y-134690873D01*
X83249731Y-134690875D01*
X83167839Y-134745594D01*
X83076845Y-134783285D01*
X82980246Y-134802500D01*
X82881754Y-134802500D01*
X82785155Y-134783285D01*
X82694161Y-134745594D01*
X82612269Y-134690875D01*
X82612266Y-134690873D01*
X82542627Y-134621234D01*
X82504299Y-134563873D01*
X82487906Y-134539339D01*
X82450215Y-134448345D01*
X82431000Y-134351746D01*
X82431000Y-134253254D01*
X82450215Y-134156655D01*
X82462807Y-134126255D01*
X82487905Y-134065663D01*
X82517558Y-134021285D01*
X82542625Y-133983769D01*
X82542627Y-133983766D01*
X82612266Y-133914127D01*
X82685231Y-133865373D01*
X82694161Y-133859406D01*
X82700535Y-133856766D01*
X82785155Y-133821715D01*
X82881754Y-133802500D01*
X82980246Y-133802500D01*
X83076845Y-133821715D01*
X83076845Y-133821715D01*
G37*
G36*
X87712345Y-133821715D02*
X87796966Y-133856766D01*
X87803339Y-133859406D01*
X87812269Y-133865373D01*
X87885234Y-133914127D01*
X87954873Y-133983766D01*
X87954875Y-133983769D01*
X87979943Y-134021285D01*
X88009595Y-134065663D01*
X88034693Y-134126255D01*
X88047285Y-134156655D01*
X88066500Y-134253254D01*
X88066500Y-134351746D01*
X88047285Y-134448345D01*
X88009594Y-134539339D01*
X87993201Y-134563873D01*
X87954873Y-134621234D01*
X87885234Y-134690873D01*
X87885231Y-134690875D01*
X87803339Y-134745594D01*
X87712345Y-134783285D01*
X87615746Y-134802500D01*
X87517254Y-134802500D01*
X87420655Y-134783285D01*
X87329661Y-134745594D01*
X87247769Y-134690875D01*
X87247766Y-134690873D01*
X87178127Y-134621234D01*
X87139799Y-134563873D01*
X87123406Y-134539339D01*
X87085715Y-134448345D01*
X87066500Y-134351746D01*
X87066500Y-134253254D01*
X87085715Y-134156655D01*
X87098307Y-134126255D01*
X87123405Y-134065663D01*
X87153058Y-134021285D01*
X87178125Y-133983769D01*
X87178127Y-133983766D01*
X87247766Y-133914127D01*
X87320731Y-133865373D01*
X87329661Y-133859406D01*
X87336035Y-133856766D01*
X87420655Y-133821715D01*
X87517254Y-133802500D01*
X87615746Y-133802500D01*
X87712345Y-133821715D01*
X87712345Y-133821715D01*
G37*
G36*
X100285345Y-133821715D02*
X100369966Y-133856766D01*
X100376339Y-133859406D01*
X100385269Y-133865373D01*
X100458234Y-133914127D01*
X100527873Y-133983766D01*
X100527875Y-133983769D01*
X100552943Y-134021285D01*
X100582595Y-134065663D01*
X100607693Y-134126255D01*
X100620285Y-134156655D01*
X100639500Y-134253254D01*
X100639500Y-134351746D01*
X100620285Y-134448345D01*
X100582594Y-134539339D01*
X100566201Y-134563873D01*
X100527873Y-134621234D01*
X100458234Y-134690873D01*
X100458231Y-134690875D01*
X100376339Y-134745594D01*
X100285345Y-134783285D01*
X100188746Y-134802500D01*
X100090254Y-134802500D01*
X99993655Y-134783285D01*
X99902661Y-134745594D01*
X99820769Y-134690875D01*
X99820766Y-134690873D01*
X99751127Y-134621234D01*
X99712799Y-134563873D01*
X99696406Y-134539339D01*
X99658715Y-134448345D01*
X99639500Y-134351746D01*
X99639500Y-134253254D01*
X99658715Y-134156655D01*
X99671307Y-134126255D01*
X99696405Y-134065663D01*
X99726058Y-134021285D01*
X99751125Y-133983769D01*
X99751127Y-133983766D01*
X99820766Y-133914127D01*
X99893731Y-133865373D01*
X99902661Y-133859406D01*
X99909035Y-133856766D01*
X99993655Y-133821715D01*
X100090254Y-133802500D01*
X100188746Y-133802500D01*
X100285345Y-133821715D01*
X100285345Y-133821715D01*
G37*
G36*
X91966845Y-133758215D02*
X92013015Y-133777339D01*
X92057839Y-133795906D01*
X92125082Y-133840837D01*
X92139734Y-133850627D01*
X92209373Y-133920266D01*
X92209375Y-133920269D01*
X92251805Y-133983769D01*
X92264095Y-134002163D01*
X92301785Y-134093155D01*
X92321000Y-134189755D01*
X92321000Y-134288245D01*
X92301785Y-134384845D01*
X92275483Y-134448345D01*
X92264094Y-134475839D01*
X92221666Y-134539337D01*
X92209373Y-134557734D01*
X92139734Y-134627373D01*
X92139731Y-134627375D01*
X92057839Y-134682094D01*
X91966845Y-134719785D01*
X91870246Y-134739000D01*
X91771754Y-134739000D01*
X91675155Y-134719785D01*
X91584161Y-134682094D01*
X91502269Y-134627375D01*
X91502266Y-134627373D01*
X91432627Y-134557734D01*
X91420334Y-134539337D01*
X91377906Y-134475839D01*
X91366518Y-134448345D01*
X91340215Y-134384845D01*
X91321000Y-134288245D01*
X91321000Y-134189755D01*
X91340215Y-134093155D01*
X91377905Y-134002163D01*
X91390196Y-133983769D01*
X91432625Y-133920269D01*
X91432627Y-133920266D01*
X91502266Y-133850627D01*
X91516918Y-133840837D01*
X91584161Y-133795906D01*
X91628986Y-133777339D01*
X91675155Y-133758215D01*
X91771754Y-133739000D01*
X91870246Y-133739000D01*
X91966845Y-133758215D01*
X91966845Y-133758215D01*
G37*
G36*
X79711345Y-133694715D02*
X79757515Y-133713839D01*
X79802339Y-133732406D01*
X79869582Y-133777337D01*
X79884234Y-133787127D01*
X79953873Y-133856766D01*
X79953875Y-133856769D01*
X79996305Y-133920269D01*
X80008595Y-133938663D01*
X80024475Y-133977000D01*
X80046285Y-134029655D01*
X80053448Y-134065663D01*
X80065500Y-134126255D01*
X80065500Y-134224745D01*
X80046285Y-134321345D01*
X80008595Y-134412337D01*
X79953873Y-134494234D01*
X79884234Y-134563873D01*
X79884231Y-134563875D01*
X79802339Y-134618594D01*
X79802338Y-134618595D01*
X79802337Y-134618595D01*
X79781145Y-134627373D01*
X79711345Y-134656285D01*
X79614746Y-134675500D01*
X79516254Y-134675500D01*
X79419655Y-134656285D01*
X79349855Y-134627373D01*
X79328663Y-134618595D01*
X79328662Y-134618595D01*
X79328661Y-134618594D01*
X79246769Y-134563875D01*
X79246766Y-134563873D01*
X79177127Y-134494234D01*
X79122405Y-134412337D01*
X79084715Y-134321345D01*
X79065500Y-134224745D01*
X79065500Y-134126255D01*
X79077553Y-134065663D01*
X79084715Y-134029655D01*
X79106525Y-133977000D01*
X79122405Y-133938663D01*
X79134696Y-133920269D01*
X79177125Y-133856769D01*
X79177127Y-133856766D01*
X79246766Y-133787127D01*
X79261418Y-133777337D01*
X79328661Y-133732406D01*
X79373486Y-133713839D01*
X79419655Y-133694715D01*
X79516254Y-133675500D01*
X79614746Y-133675500D01*
X79711345Y-133694715D01*
X79711345Y-133694715D01*
G37*
G36*
X155720845Y-133123215D02*
X155805466Y-133158266D01*
X155811839Y-133160906D01*
X155892640Y-133214896D01*
X155893734Y-133215627D01*
X155963373Y-133285266D01*
X156018095Y-133367163D01*
X156043193Y-133427755D01*
X156055785Y-133458155D01*
X156075000Y-133554754D01*
X156075000Y-133653246D01*
X156062947Y-133713839D01*
X156055785Y-133749845D01*
X156026016Y-133821715D01*
X156018094Y-133840839D01*
X156005688Y-133859405D01*
X155963373Y-133922734D01*
X155893734Y-133992373D01*
X155893731Y-133992375D01*
X155811839Y-134047094D01*
X155811838Y-134047095D01*
X155811837Y-134047095D01*
X155767010Y-134065663D01*
X155720845Y-134084785D01*
X155624246Y-134104000D01*
X155525754Y-134104000D01*
X155429155Y-134084785D01*
X155382990Y-134065663D01*
X155338163Y-134047095D01*
X155338162Y-134047095D01*
X155338161Y-134047094D01*
X155256269Y-133992375D01*
X155256266Y-133992373D01*
X155186627Y-133922734D01*
X155144312Y-133859405D01*
X155131906Y-133840839D01*
X155123985Y-133821715D01*
X155094215Y-133749845D01*
X155087053Y-133713839D01*
X155075000Y-133653246D01*
X155075000Y-133554754D01*
X155094215Y-133458155D01*
X155106807Y-133427755D01*
X155131905Y-133367163D01*
X155186627Y-133285266D01*
X155256266Y-133215627D01*
X155257360Y-133214896D01*
X155338161Y-133160906D01*
X155344535Y-133158266D01*
X155429155Y-133123215D01*
X155525754Y-133104000D01*
X155624246Y-133104000D01*
X155720845Y-133123215D01*
X155720845Y-133123215D01*
G37*
G36*
X154069845Y-133123215D02*
X154154466Y-133158266D01*
X154160839Y-133160906D01*
X154241640Y-133214896D01*
X154242734Y-133215627D01*
X154312373Y-133285266D01*
X154367095Y-133367163D01*
X154392193Y-133427755D01*
X154404785Y-133458155D01*
X154424000Y-133554754D01*
X154424000Y-133653246D01*
X154411947Y-133713839D01*
X154404785Y-133749845D01*
X154375016Y-133821715D01*
X154367094Y-133840839D01*
X154354688Y-133859405D01*
X154312373Y-133922734D01*
X154242734Y-133992373D01*
X154242731Y-133992375D01*
X154160839Y-134047094D01*
X154160838Y-134047095D01*
X154160837Y-134047095D01*
X154116010Y-134065663D01*
X154069845Y-134084785D01*
X153973246Y-134104000D01*
X153874754Y-134104000D01*
X153778155Y-134084785D01*
X153731990Y-134065663D01*
X153687163Y-134047095D01*
X153687162Y-134047095D01*
X153687161Y-134047094D01*
X153605269Y-133992375D01*
X153605266Y-133992373D01*
X153535627Y-133922734D01*
X153493312Y-133859405D01*
X153480906Y-133840839D01*
X153472985Y-133821715D01*
X153443215Y-133749845D01*
X153436053Y-133713839D01*
X153424000Y-133653246D01*
X153424000Y-133554754D01*
X153443215Y-133458155D01*
X153455807Y-133427755D01*
X153480905Y-133367163D01*
X153535627Y-133285266D01*
X153605266Y-133215627D01*
X153606360Y-133214896D01*
X153687161Y-133160906D01*
X153693535Y-133158266D01*
X153778155Y-133123215D01*
X153874754Y-133104000D01*
X153973246Y-133104000D01*
X154069845Y-133123215D01*
X154069845Y-133123215D01*
G37*
G36*
X152101345Y-133123215D02*
X152185966Y-133158266D01*
X152192339Y-133160906D01*
X152273140Y-133214896D01*
X152274234Y-133215627D01*
X152343873Y-133285266D01*
X152398595Y-133367163D01*
X152423693Y-133427755D01*
X152436285Y-133458155D01*
X152455500Y-133554754D01*
X152455500Y-133653246D01*
X152443447Y-133713839D01*
X152436285Y-133749845D01*
X152406516Y-133821715D01*
X152398594Y-133840839D01*
X152386188Y-133859405D01*
X152343873Y-133922734D01*
X152274234Y-133992373D01*
X152274231Y-133992375D01*
X152192339Y-134047094D01*
X152192338Y-134047095D01*
X152192337Y-134047095D01*
X152147510Y-134065663D01*
X152101345Y-134084785D01*
X152004746Y-134104000D01*
X151906254Y-134104000D01*
X151809655Y-134084785D01*
X151763490Y-134065663D01*
X151718663Y-134047095D01*
X151718662Y-134047095D01*
X151718661Y-134047094D01*
X151636769Y-133992375D01*
X151636766Y-133992373D01*
X151567127Y-133922734D01*
X151524812Y-133859405D01*
X151512406Y-133840839D01*
X151504485Y-133821715D01*
X151474715Y-133749845D01*
X151467553Y-133713839D01*
X151455500Y-133653246D01*
X151455500Y-133554754D01*
X151474715Y-133458155D01*
X151487307Y-133427755D01*
X151512405Y-133367163D01*
X151567127Y-133285266D01*
X151636766Y-133215627D01*
X151637860Y-133214896D01*
X151718661Y-133160906D01*
X151725035Y-133158266D01*
X151809655Y-133123215D01*
X151906254Y-133104000D01*
X152004746Y-133104000D01*
X152101345Y-133123215D01*
X152101345Y-133123215D01*
G37*
G36*
X150069345Y-133059715D02*
X150160339Y-133097406D01*
X150241140Y-133151396D01*
X150242234Y-133152127D01*
X150311873Y-133221766D01*
X150311875Y-133221769D01*
X150354305Y-133285269D01*
X150366595Y-133303663D01*
X150404285Y-133394655D01*
X150423500Y-133491255D01*
X150423500Y-133589745D01*
X150404285Y-133686345D01*
X150374516Y-133758215D01*
X150366594Y-133777339D01*
X150324166Y-133840837D01*
X150311873Y-133859234D01*
X150242234Y-133928873D01*
X150242231Y-133928875D01*
X150160339Y-133983594D01*
X150160338Y-133983595D01*
X150160337Y-133983595D01*
X150115510Y-134002163D01*
X150069345Y-134021285D01*
X149972746Y-134040500D01*
X149874254Y-134040500D01*
X149777655Y-134021285D01*
X149731490Y-134002163D01*
X149686663Y-133983595D01*
X149686662Y-133983595D01*
X149686661Y-133983594D01*
X149604769Y-133928875D01*
X149604766Y-133928873D01*
X149535127Y-133859234D01*
X149522834Y-133840837D01*
X149480406Y-133777339D01*
X149472485Y-133758215D01*
X149442715Y-133686345D01*
X149423500Y-133589745D01*
X149423500Y-133491255D01*
X149442715Y-133394655D01*
X149480405Y-133303663D01*
X149492696Y-133285269D01*
X149535125Y-133221769D01*
X149535127Y-133221766D01*
X149604766Y-133152127D01*
X149605860Y-133151396D01*
X149686661Y-133097406D01*
X149777655Y-133059715D01*
X149874254Y-133040500D01*
X149972746Y-133040500D01*
X150069345Y-133059715D01*
X150069345Y-133059715D01*
G37*
G36*
X148100845Y-133059715D02*
X148191839Y-133097406D01*
X148272640Y-133151396D01*
X148273734Y-133152127D01*
X148343373Y-133221766D01*
X148343375Y-133221769D01*
X148385805Y-133285269D01*
X148398095Y-133303663D01*
X148435785Y-133394655D01*
X148455000Y-133491255D01*
X148455000Y-133589745D01*
X148435785Y-133686345D01*
X148406016Y-133758215D01*
X148398094Y-133777339D01*
X148355666Y-133840837D01*
X148343373Y-133859234D01*
X148273734Y-133928873D01*
X148273731Y-133928875D01*
X148191839Y-133983594D01*
X148191838Y-133983595D01*
X148191837Y-133983595D01*
X148147010Y-134002163D01*
X148100845Y-134021285D01*
X148004246Y-134040500D01*
X147905754Y-134040500D01*
X147809155Y-134021285D01*
X147762990Y-134002163D01*
X147718163Y-133983595D01*
X147718162Y-133983595D01*
X147718161Y-133983594D01*
X147636269Y-133928875D01*
X147636266Y-133928873D01*
X147566627Y-133859234D01*
X147554334Y-133840837D01*
X147511906Y-133777339D01*
X147503985Y-133758215D01*
X147474215Y-133686345D01*
X147455000Y-133589745D01*
X147455000Y-133491255D01*
X147474215Y-133394655D01*
X147511905Y-133303663D01*
X147524196Y-133285269D01*
X147566625Y-133221769D01*
X147566627Y-133221766D01*
X147636266Y-133152127D01*
X147637360Y-133151396D01*
X147718161Y-133097406D01*
X147809155Y-133059715D01*
X147905754Y-133040500D01*
X148004246Y-133040500D01*
X148100845Y-133059715D01*
X148100845Y-133059715D01*
G37*
G36*
X136099345Y-133059715D02*
X136190339Y-133097406D01*
X136271140Y-133151396D01*
X136272234Y-133152127D01*
X136341873Y-133221766D01*
X136341875Y-133221769D01*
X136384305Y-133285269D01*
X136396595Y-133303663D01*
X136434285Y-133394655D01*
X136453500Y-133491255D01*
X136453500Y-133589745D01*
X136434285Y-133686345D01*
X136404516Y-133758215D01*
X136396594Y-133777339D01*
X136354166Y-133840837D01*
X136341873Y-133859234D01*
X136272234Y-133928873D01*
X136272231Y-133928875D01*
X136190339Y-133983594D01*
X136190338Y-133983595D01*
X136190337Y-133983595D01*
X136145510Y-134002163D01*
X136099345Y-134021285D01*
X136002746Y-134040500D01*
X135904254Y-134040500D01*
X135807655Y-134021285D01*
X135761490Y-134002163D01*
X135716663Y-133983595D01*
X135716662Y-133983595D01*
X135716661Y-133983594D01*
X135634769Y-133928875D01*
X135634766Y-133928873D01*
X135565127Y-133859234D01*
X135552834Y-133840837D01*
X135510406Y-133777339D01*
X135502485Y-133758215D01*
X135472715Y-133686345D01*
X135453500Y-133589745D01*
X135453500Y-133491255D01*
X135472715Y-133394655D01*
X135510405Y-133303663D01*
X135522696Y-133285269D01*
X135565125Y-133221769D01*
X135565127Y-133221766D01*
X135634766Y-133152127D01*
X135635860Y-133151396D01*
X135716661Y-133097406D01*
X135807655Y-133059715D01*
X135904254Y-133040500D01*
X136002746Y-133040500D01*
X136099345Y-133059715D01*
X136099345Y-133059715D01*
G37*
G36*
X134067345Y-133059715D02*
X134158339Y-133097406D01*
X134239140Y-133151396D01*
X134240234Y-133152127D01*
X134309873Y-133221766D01*
X134309875Y-133221769D01*
X134352305Y-133285269D01*
X134364595Y-133303663D01*
X134402285Y-133394655D01*
X134421500Y-133491255D01*
X134421500Y-133589745D01*
X134402285Y-133686345D01*
X134372516Y-133758215D01*
X134364594Y-133777339D01*
X134322166Y-133840837D01*
X134309873Y-133859234D01*
X134240234Y-133928873D01*
X134240231Y-133928875D01*
X134158339Y-133983594D01*
X134158338Y-133983595D01*
X134158337Y-133983595D01*
X134113510Y-134002163D01*
X134067345Y-134021285D01*
X133970746Y-134040500D01*
X133872254Y-134040500D01*
X133775655Y-134021285D01*
X133729490Y-134002163D01*
X133684663Y-133983595D01*
X133684662Y-133983595D01*
X133684661Y-133983594D01*
X133602769Y-133928875D01*
X133602766Y-133928873D01*
X133533127Y-133859234D01*
X133520834Y-133840837D01*
X133478406Y-133777339D01*
X133470485Y-133758215D01*
X133440715Y-133686345D01*
X133421500Y-133589745D01*
X133421500Y-133491255D01*
X133440715Y-133394655D01*
X133478405Y-133303663D01*
X133490696Y-133285269D01*
X133533125Y-133221769D01*
X133533127Y-133221766D01*
X133602766Y-133152127D01*
X133603860Y-133151396D01*
X133684661Y-133097406D01*
X133775655Y-133059715D01*
X133872254Y-133040500D01*
X133970746Y-133040500D01*
X134067345Y-133059715D01*
X134067345Y-133059715D01*
G37*
G36*
X132098845Y-133059715D02*
X132189839Y-133097406D01*
X132270640Y-133151396D01*
X132271734Y-133152127D01*
X132341373Y-133221766D01*
X132341375Y-133221769D01*
X132383805Y-133285269D01*
X132396095Y-133303663D01*
X132433785Y-133394655D01*
X132453000Y-133491255D01*
X132453000Y-133589745D01*
X132433785Y-133686345D01*
X132404016Y-133758215D01*
X132396094Y-133777339D01*
X132353666Y-133840837D01*
X132341373Y-133859234D01*
X132271734Y-133928873D01*
X132271731Y-133928875D01*
X132189839Y-133983594D01*
X132189838Y-133983595D01*
X132189837Y-133983595D01*
X132145010Y-134002163D01*
X132098845Y-134021285D01*
X132002246Y-134040500D01*
X131903754Y-134040500D01*
X131807155Y-134021285D01*
X131760990Y-134002163D01*
X131716163Y-133983595D01*
X131716162Y-133983595D01*
X131716161Y-133983594D01*
X131634269Y-133928875D01*
X131634266Y-133928873D01*
X131564627Y-133859234D01*
X131552334Y-133840837D01*
X131509906Y-133777339D01*
X131501985Y-133758215D01*
X131472215Y-133686345D01*
X131453000Y-133589745D01*
X131453000Y-133491255D01*
X131472215Y-133394655D01*
X131509905Y-133303663D01*
X131522196Y-133285269D01*
X131564625Y-133221769D01*
X131564627Y-133221766D01*
X131634266Y-133152127D01*
X131635360Y-133151396D01*
X131716161Y-133097406D01*
X131807155Y-133059715D01*
X131903754Y-133040500D01*
X132002246Y-133040500D01*
X132098845Y-133059715D01*
X132098845Y-133059715D01*
G37*
G36*
X140099845Y-132996215D02*
X140190839Y-133033906D01*
X140255565Y-133077155D01*
X140272734Y-133088627D01*
X140342373Y-133158266D01*
X140342375Y-133158269D01*
X140397094Y-133240161D01*
X140434785Y-133331155D01*
X140441948Y-133367163D01*
X140454000Y-133427755D01*
X140454000Y-133526245D01*
X140434785Y-133622845D01*
X140405016Y-133694715D01*
X140397094Y-133713839D01*
X140354666Y-133777337D01*
X140342373Y-133795734D01*
X140272734Y-133865373D01*
X140272731Y-133865375D01*
X140190839Y-133920094D01*
X140190838Y-133920095D01*
X140190837Y-133920095D01*
X140146010Y-133938663D01*
X140099845Y-133957785D01*
X140003246Y-133977000D01*
X139904754Y-133977000D01*
X139808155Y-133957785D01*
X139761990Y-133938663D01*
X139717163Y-133920095D01*
X139717162Y-133920095D01*
X139717161Y-133920094D01*
X139635269Y-133865375D01*
X139635266Y-133865373D01*
X139565627Y-133795734D01*
X139553334Y-133777337D01*
X139510906Y-133713839D01*
X139502985Y-133694715D01*
X139473215Y-133622845D01*
X139454000Y-133526245D01*
X139454000Y-133427755D01*
X139466053Y-133367163D01*
X139473215Y-133331155D01*
X139510906Y-133240161D01*
X139565625Y-133158269D01*
X139565627Y-133158266D01*
X139635266Y-133088627D01*
X139652435Y-133077155D01*
X139717161Y-133033906D01*
X139808155Y-132996215D01*
X139904754Y-132977000D01*
X140003246Y-132977000D01*
X140099845Y-132996215D01*
X140099845Y-132996215D01*
G37*
G36*
X146068845Y-132996215D02*
X146159839Y-133033906D01*
X146224565Y-133077155D01*
X146241734Y-133088627D01*
X146311373Y-133158266D01*
X146311375Y-133158269D01*
X146366094Y-133240161D01*
X146403785Y-133331155D01*
X146410948Y-133367163D01*
X146423000Y-133427755D01*
X146423000Y-133526245D01*
X146403785Y-133622845D01*
X146374016Y-133694715D01*
X146366094Y-133713839D01*
X146323666Y-133777337D01*
X146311373Y-133795734D01*
X146241734Y-133865373D01*
X146241731Y-133865375D01*
X146159839Y-133920094D01*
X146159838Y-133920095D01*
X146159837Y-133920095D01*
X146115010Y-133938663D01*
X146068845Y-133957785D01*
X145972246Y-133977000D01*
X145873754Y-133977000D01*
X145777155Y-133957785D01*
X145730990Y-133938663D01*
X145686163Y-133920095D01*
X145686162Y-133920095D01*
X145686161Y-133920094D01*
X145604269Y-133865375D01*
X145604266Y-133865373D01*
X145534627Y-133795734D01*
X145522334Y-133777337D01*
X145479906Y-133713839D01*
X145471985Y-133694715D01*
X145442215Y-133622845D01*
X145423000Y-133526245D01*
X145423000Y-133427755D01*
X145435053Y-133367163D01*
X145442215Y-133331155D01*
X145479906Y-133240161D01*
X145534625Y-133158269D01*
X145534627Y-133158266D01*
X145604266Y-133088627D01*
X145621435Y-133077155D01*
X145686161Y-133033906D01*
X145777155Y-132996215D01*
X145873754Y-132977000D01*
X145972246Y-132977000D01*
X146068845Y-132996215D01*
X146068845Y-132996215D01*
G37*
G36*
X142068345Y-132996215D02*
X142159339Y-133033906D01*
X142224065Y-133077155D01*
X142241234Y-133088627D01*
X142310873Y-133158266D01*
X142310875Y-133158269D01*
X142365594Y-133240161D01*
X142403285Y-133331155D01*
X142410448Y-133367163D01*
X142422500Y-133427755D01*
X142422500Y-133526245D01*
X142403285Y-133622845D01*
X142373516Y-133694715D01*
X142365594Y-133713839D01*
X142323166Y-133777337D01*
X142310873Y-133795734D01*
X142241234Y-133865373D01*
X142241231Y-133865375D01*
X142159339Y-133920094D01*
X142159338Y-133920095D01*
X142159337Y-133920095D01*
X142114510Y-133938663D01*
X142068345Y-133957785D01*
X141971746Y-133977000D01*
X141873254Y-133977000D01*
X141776655Y-133957785D01*
X141730490Y-133938663D01*
X141685663Y-133920095D01*
X141685662Y-133920095D01*
X141685661Y-133920094D01*
X141603769Y-133865375D01*
X141603766Y-133865373D01*
X141534127Y-133795734D01*
X141521834Y-133777337D01*
X141479406Y-133713839D01*
X141471485Y-133694715D01*
X141441715Y-133622845D01*
X141422500Y-133526245D01*
X141422500Y-133427755D01*
X141434553Y-133367163D01*
X141441715Y-133331155D01*
X141479406Y-133240161D01*
X141534125Y-133158269D01*
X141534127Y-133158266D01*
X141603766Y-133088627D01*
X141620935Y-133077155D01*
X141685661Y-133033906D01*
X141776655Y-132996215D01*
X141873254Y-132977000D01*
X141971746Y-132977000D01*
X142068345Y-132996215D01*
X142068345Y-132996215D01*
G37*
G36*
X138131345Y-132996215D02*
X138222339Y-133033906D01*
X138287065Y-133077155D01*
X138304234Y-133088627D01*
X138373873Y-133158266D01*
X138373875Y-133158269D01*
X138428594Y-133240161D01*
X138466285Y-133331155D01*
X138473448Y-133367163D01*
X138485500Y-133427755D01*
X138485500Y-133526245D01*
X138466285Y-133622845D01*
X138436516Y-133694715D01*
X138428594Y-133713839D01*
X138386166Y-133777337D01*
X138373873Y-133795734D01*
X138304234Y-133865373D01*
X138304231Y-133865375D01*
X138222339Y-133920094D01*
X138222338Y-133920095D01*
X138222337Y-133920095D01*
X138177510Y-133938663D01*
X138131345Y-133957785D01*
X138034746Y-133977000D01*
X137936254Y-133977000D01*
X137839655Y-133957785D01*
X137793490Y-133938663D01*
X137748663Y-133920095D01*
X137748662Y-133920095D01*
X137748661Y-133920094D01*
X137666769Y-133865375D01*
X137666766Y-133865373D01*
X137597127Y-133795734D01*
X137584834Y-133777337D01*
X137542406Y-133713839D01*
X137534485Y-133694715D01*
X137504715Y-133622845D01*
X137485500Y-133526245D01*
X137485500Y-133427755D01*
X137497553Y-133367163D01*
X137504715Y-133331155D01*
X137542406Y-133240161D01*
X137597125Y-133158269D01*
X137597127Y-133158266D01*
X137666766Y-133088627D01*
X137683935Y-133077155D01*
X137748661Y-133033906D01*
X137839655Y-132996215D01*
X137936254Y-132977000D01*
X138034746Y-132977000D01*
X138131345Y-132996215D01*
X138131345Y-132996215D01*
G37*
G36*
X144100345Y-132996215D02*
X144191339Y-133033906D01*
X144256065Y-133077155D01*
X144273234Y-133088627D01*
X144342873Y-133158266D01*
X144342875Y-133158269D01*
X144397594Y-133240161D01*
X144435285Y-133331155D01*
X144442448Y-133367163D01*
X144454500Y-133427755D01*
X144454500Y-133526245D01*
X144435285Y-133622845D01*
X144405516Y-133694715D01*
X144397594Y-133713839D01*
X144355166Y-133777337D01*
X144342873Y-133795734D01*
X144273234Y-133865373D01*
X144273231Y-133865375D01*
X144191339Y-133920094D01*
X144191338Y-133920095D01*
X144191337Y-133920095D01*
X144146510Y-133938663D01*
X144100345Y-133957785D01*
X144003746Y-133977000D01*
X143905254Y-133977000D01*
X143808655Y-133957785D01*
X143762490Y-133938663D01*
X143717663Y-133920095D01*
X143717662Y-133920095D01*
X143717661Y-133920094D01*
X143635769Y-133865375D01*
X143635766Y-133865373D01*
X143566127Y-133795734D01*
X143553834Y-133777337D01*
X143511406Y-133713839D01*
X143503485Y-133694715D01*
X143473715Y-133622845D01*
X143454500Y-133526245D01*
X143454500Y-133427755D01*
X143466553Y-133367163D01*
X143473715Y-133331155D01*
X143511406Y-133240161D01*
X143566125Y-133158269D01*
X143566127Y-133158266D01*
X143635766Y-133088627D01*
X143652935Y-133077155D01*
X143717661Y-133033906D01*
X143808655Y-132996215D01*
X143905254Y-132977000D01*
X144003746Y-132977000D01*
X144100345Y-132996215D01*
X144100345Y-132996215D01*
G37*
G36*
X157625845Y-132742215D02*
X157716839Y-132779906D01*
X157797640Y-132833896D01*
X157798734Y-132834627D01*
X157868373Y-132904266D01*
X157868375Y-132904269D01*
X157923094Y-132986161D01*
X157960785Y-133077155D01*
X157980000Y-133173754D01*
X157980000Y-133272246D01*
X157960785Y-133368845D01*
X157923094Y-133459839D01*
X157878722Y-133526246D01*
X157868373Y-133541734D01*
X157798734Y-133611373D01*
X157798731Y-133611375D01*
X157716839Y-133666094D01*
X157625845Y-133703785D01*
X157529246Y-133723000D01*
X157430754Y-133723000D01*
X157334155Y-133703785D01*
X157243161Y-133666094D01*
X157161269Y-133611375D01*
X157161266Y-133611373D01*
X157091627Y-133541734D01*
X157081278Y-133526246D01*
X157036906Y-133459839D01*
X156999215Y-133368845D01*
X156980000Y-133272246D01*
X156980000Y-133173754D01*
X156999215Y-133077155D01*
X157036906Y-132986161D01*
X157091625Y-132904269D01*
X157091627Y-132904266D01*
X157161266Y-132834627D01*
X157162360Y-132833896D01*
X157243161Y-132779906D01*
X157334155Y-132742215D01*
X157430754Y-132723000D01*
X157529246Y-132723000D01*
X157625845Y-132742215D01*
X157625845Y-132742215D01*
G37*
G36*
X78906630Y-131242299D02*
X79066855Y-131290903D01*
X79214520Y-131369831D01*
X79343949Y-131476051D01*
X79450169Y-131605480D01*
X79529097Y-131753145D01*
X79577701Y-131913370D01*
X79594112Y-132080000D01*
X79577701Y-132246630D01*
X79529097Y-132406855D01*
X79450169Y-132554520D01*
X79343949Y-132683949D01*
X79214520Y-132790169D01*
X79066855Y-132869097D01*
X78906630Y-132917701D01*
X78781752Y-132930000D01*
X78698248Y-132930000D01*
X78573370Y-132917701D01*
X78413145Y-132869097D01*
X78265480Y-132790169D01*
X78136051Y-132683949D01*
X78029831Y-132554520D01*
X77950903Y-132406855D01*
X77902299Y-132246630D01*
X77885888Y-132080000D01*
X77902299Y-131913370D01*
X77950903Y-131753145D01*
X78029831Y-131605480D01*
X78136051Y-131476051D01*
X78265480Y-131369831D01*
X78413145Y-131290903D01*
X78573370Y-131242299D01*
X78698248Y-131230000D01*
X78781752Y-131230000D01*
X78906630Y-131242299D01*
X78906630Y-131242299D01*
G37*
G36*
X158895845Y-131599215D02*
X158910973Y-131605481D01*
X158986839Y-131636906D01*
X159051565Y-131680155D01*
X159068734Y-131691627D01*
X159138373Y-131761266D01*
X159138375Y-131761269D01*
X159193094Y-131843161D01*
X159230785Y-131934155D01*
X159250000Y-132030754D01*
X159250000Y-132129246D01*
X159230785Y-132225845D01*
X159193094Y-132316839D01*
X159139104Y-132397640D01*
X159138373Y-132398734D01*
X159068734Y-132468373D01*
X159068731Y-132468375D01*
X158986839Y-132523094D01*
X158986838Y-132523095D01*
X158986837Y-132523095D01*
X158910970Y-132554520D01*
X158895845Y-132560785D01*
X158799246Y-132580000D01*
X158700754Y-132580000D01*
X158604155Y-132560785D01*
X158589030Y-132554520D01*
X158513163Y-132523095D01*
X158513162Y-132523095D01*
X158513161Y-132523094D01*
X158431269Y-132468375D01*
X158431266Y-132468373D01*
X158361627Y-132398734D01*
X158360896Y-132397640D01*
X158306906Y-132316839D01*
X158269215Y-132225845D01*
X158250000Y-132129246D01*
X158250000Y-132030754D01*
X158269215Y-131934155D01*
X158306906Y-131843161D01*
X158361625Y-131761269D01*
X158361627Y-131761266D01*
X158431266Y-131691627D01*
X158448435Y-131680155D01*
X158513161Y-131636906D01*
X158589028Y-131605481D01*
X158604155Y-131599215D01*
X158700754Y-131580000D01*
X158799246Y-131580000D01*
X158895845Y-131599215D01*
X158895845Y-131599215D01*
G37*
G36*
X137115345Y-131345215D02*
X137206339Y-131382906D01*
X137287140Y-131436896D01*
X137288234Y-131437627D01*
X137357873Y-131507266D01*
X137357875Y-131507269D01*
X137412594Y-131589161D01*
X137450285Y-131680155D01*
X137469500Y-131776754D01*
X137469500Y-131875246D01*
X137450285Y-131971845D01*
X137412594Y-132062839D01*
X137368222Y-132129246D01*
X137357873Y-132144734D01*
X137288234Y-132214373D01*
X137288231Y-132214375D01*
X137206339Y-132269094D01*
X137115345Y-132306785D01*
X137018746Y-132326000D01*
X136920254Y-132326000D01*
X136823655Y-132306785D01*
X136732661Y-132269094D01*
X136650769Y-132214375D01*
X136650766Y-132214373D01*
X136581127Y-132144734D01*
X136570778Y-132129246D01*
X136526406Y-132062839D01*
X136488715Y-131971845D01*
X136469500Y-131875246D01*
X136469500Y-131776754D01*
X136488715Y-131680155D01*
X136526406Y-131589161D01*
X136581125Y-131507269D01*
X136581127Y-131507266D01*
X136650766Y-131437627D01*
X136651860Y-131436896D01*
X136732661Y-131382906D01*
X136823655Y-131345215D01*
X136920254Y-131326000D01*
X137018746Y-131326000D01*
X137115345Y-131345215D01*
X137115345Y-131345215D01*
G37*
G36*
X156609845Y-131345215D02*
X156700839Y-131382906D01*
X156781640Y-131436896D01*
X156782734Y-131437627D01*
X156852373Y-131507266D01*
X156852375Y-131507269D01*
X156907094Y-131589161D01*
X156944785Y-131680155D01*
X156964000Y-131776754D01*
X156964000Y-131875246D01*
X156944785Y-131971845D01*
X156907094Y-132062839D01*
X156862722Y-132129246D01*
X156852373Y-132144734D01*
X156782734Y-132214373D01*
X156782731Y-132214375D01*
X156700839Y-132269094D01*
X156609845Y-132306785D01*
X156513246Y-132326000D01*
X156414754Y-132326000D01*
X156318155Y-132306785D01*
X156227161Y-132269094D01*
X156145269Y-132214375D01*
X156145266Y-132214373D01*
X156075627Y-132144734D01*
X156065278Y-132129246D01*
X156020906Y-132062839D01*
X155983215Y-131971845D01*
X155964000Y-131875246D01*
X155964000Y-131776754D01*
X155983215Y-131680155D01*
X156020906Y-131589161D01*
X156075625Y-131507269D01*
X156075627Y-131507266D01*
X156145266Y-131437627D01*
X156146360Y-131436896D01*
X156227161Y-131382906D01*
X156318155Y-131345215D01*
X156414754Y-131326000D01*
X156513246Y-131326000D01*
X156609845Y-131345215D01*
X156609845Y-131345215D01*
G37*
G36*
X139083845Y-131345215D02*
X139174839Y-131382906D01*
X139255640Y-131436896D01*
X139256734Y-131437627D01*
X139326373Y-131507266D01*
X139326375Y-131507269D01*
X139381094Y-131589161D01*
X139418785Y-131680155D01*
X139438000Y-131776754D01*
X139438000Y-131875246D01*
X139418785Y-131971845D01*
X139381094Y-132062839D01*
X139336722Y-132129246D01*
X139326373Y-132144734D01*
X139256734Y-132214373D01*
X139256731Y-132214375D01*
X139174839Y-132269094D01*
X139083845Y-132306785D01*
X138987246Y-132326000D01*
X138888754Y-132326000D01*
X138792155Y-132306785D01*
X138701161Y-132269094D01*
X138619269Y-132214375D01*
X138619266Y-132214373D01*
X138549627Y-132144734D01*
X138539278Y-132129246D01*
X138494906Y-132062839D01*
X138457215Y-131971845D01*
X138438000Y-131875246D01*
X138438000Y-131776754D01*
X138457215Y-131680155D01*
X138494906Y-131589161D01*
X138549625Y-131507269D01*
X138549627Y-131507266D01*
X138619266Y-131437627D01*
X138620360Y-131436896D01*
X138701161Y-131382906D01*
X138792155Y-131345215D01*
X138888754Y-131326000D01*
X138987246Y-131326000D01*
X139083845Y-131345215D01*
X139083845Y-131345215D01*
G37*
G36*
X141115845Y-131345215D02*
X141206839Y-131382906D01*
X141287640Y-131436896D01*
X141288734Y-131437627D01*
X141358373Y-131507266D01*
X141358375Y-131507269D01*
X141413094Y-131589161D01*
X141450785Y-131680155D01*
X141470000Y-131776754D01*
X141470000Y-131875246D01*
X141450785Y-131971845D01*
X141413094Y-132062839D01*
X141368722Y-132129246D01*
X141358373Y-132144734D01*
X141288734Y-132214373D01*
X141288731Y-132214375D01*
X141206839Y-132269094D01*
X141115845Y-132306785D01*
X141019246Y-132326000D01*
X140920754Y-132326000D01*
X140824155Y-132306785D01*
X140733161Y-132269094D01*
X140651269Y-132214375D01*
X140651266Y-132214373D01*
X140581627Y-132144734D01*
X140571278Y-132129246D01*
X140526906Y-132062839D01*
X140489215Y-131971845D01*
X140470000Y-131875246D01*
X140470000Y-131776754D01*
X140489215Y-131680155D01*
X140526906Y-131589161D01*
X140581625Y-131507269D01*
X140581627Y-131507266D01*
X140651266Y-131437627D01*
X140652360Y-131436896D01*
X140733161Y-131382906D01*
X140824155Y-131345215D01*
X140920754Y-131326000D01*
X141019246Y-131326000D01*
X141115845Y-131345215D01*
X141115845Y-131345215D01*
G37*
G36*
X143084345Y-131345215D02*
X143175339Y-131382906D01*
X143256140Y-131436896D01*
X143257234Y-131437627D01*
X143326873Y-131507266D01*
X143326875Y-131507269D01*
X143381594Y-131589161D01*
X143419285Y-131680155D01*
X143438500Y-131776754D01*
X143438500Y-131875246D01*
X143419285Y-131971845D01*
X143381594Y-132062839D01*
X143337222Y-132129246D01*
X143326873Y-132144734D01*
X143257234Y-132214373D01*
X143257231Y-132214375D01*
X143175339Y-132269094D01*
X143084345Y-132306785D01*
X142987746Y-132326000D01*
X142889254Y-132326000D01*
X142792655Y-132306785D01*
X142701661Y-132269094D01*
X142619769Y-132214375D01*
X142619766Y-132214373D01*
X142550127Y-132144734D01*
X142539778Y-132129246D01*
X142495406Y-132062839D01*
X142457715Y-131971845D01*
X142438500Y-131875246D01*
X142438500Y-131776754D01*
X142457715Y-131680155D01*
X142495406Y-131589161D01*
X142550125Y-131507269D01*
X142550127Y-131507266D01*
X142619766Y-131437627D01*
X142620860Y-131436896D01*
X142701661Y-131382906D01*
X142792655Y-131345215D01*
X142889254Y-131326000D01*
X142987746Y-131326000D01*
X143084345Y-131345215D01*
X143084345Y-131345215D01*
G37*
G36*
X153053845Y-131345215D02*
X153144839Y-131382906D01*
X153225640Y-131436896D01*
X153226734Y-131437627D01*
X153296373Y-131507266D01*
X153296375Y-131507269D01*
X153351094Y-131589161D01*
X153388785Y-131680155D01*
X153408000Y-131776754D01*
X153408000Y-131875246D01*
X153388785Y-131971845D01*
X153351094Y-132062839D01*
X153306722Y-132129246D01*
X153296373Y-132144734D01*
X153226734Y-132214373D01*
X153226731Y-132214375D01*
X153144839Y-132269094D01*
X153053845Y-132306785D01*
X152957246Y-132326000D01*
X152858754Y-132326000D01*
X152762155Y-132306785D01*
X152671161Y-132269094D01*
X152589269Y-132214375D01*
X152589266Y-132214373D01*
X152519627Y-132144734D01*
X152509278Y-132129246D01*
X152464906Y-132062839D01*
X152427215Y-131971845D01*
X152408000Y-131875246D01*
X152408000Y-131776754D01*
X152427215Y-131680155D01*
X152464906Y-131589161D01*
X152519625Y-131507269D01*
X152519627Y-131507266D01*
X152589266Y-131437627D01*
X152590360Y-131436896D01*
X152671161Y-131382906D01*
X152762155Y-131345215D01*
X152858754Y-131326000D01*
X152957246Y-131326000D01*
X153053845Y-131345215D01*
X153053845Y-131345215D01*
G37*
G36*
X154958845Y-131345215D02*
X155049839Y-131382906D01*
X155130640Y-131436896D01*
X155131734Y-131437627D01*
X155201373Y-131507266D01*
X155201375Y-131507269D01*
X155256094Y-131589161D01*
X155293785Y-131680155D01*
X155313000Y-131776754D01*
X155313000Y-131875246D01*
X155293785Y-131971845D01*
X155256094Y-132062839D01*
X155211722Y-132129246D01*
X155201373Y-132144734D01*
X155131734Y-132214373D01*
X155131731Y-132214375D01*
X155049839Y-132269094D01*
X154958845Y-132306785D01*
X154862246Y-132326000D01*
X154763754Y-132326000D01*
X154667155Y-132306785D01*
X154576161Y-132269094D01*
X154494269Y-132214375D01*
X154494266Y-132214373D01*
X154424627Y-132144734D01*
X154414278Y-132129246D01*
X154369906Y-132062839D01*
X154332215Y-131971845D01*
X154313000Y-131875246D01*
X154313000Y-131776754D01*
X154332215Y-131680155D01*
X154369906Y-131589161D01*
X154424625Y-131507269D01*
X154424627Y-131507266D01*
X154494266Y-131437627D01*
X154495360Y-131436896D01*
X154576161Y-131382906D01*
X154667155Y-131345215D01*
X154763754Y-131326000D01*
X154862246Y-131326000D01*
X154958845Y-131345215D01*
X154958845Y-131345215D01*
G37*
G36*
X133051345Y-131345215D02*
X133142339Y-131382906D01*
X133223140Y-131436896D01*
X133224234Y-131437627D01*
X133293873Y-131507266D01*
X133293875Y-131507269D01*
X133348594Y-131589161D01*
X133386285Y-131680155D01*
X133405500Y-131776754D01*
X133405500Y-131875246D01*
X133386285Y-131971845D01*
X133348594Y-132062839D01*
X133304222Y-132129246D01*
X133293873Y-132144734D01*
X133224234Y-132214373D01*
X133224231Y-132214375D01*
X133142339Y-132269094D01*
X133051345Y-132306785D01*
X132954746Y-132326000D01*
X132856254Y-132326000D01*
X132759655Y-132306785D01*
X132668661Y-132269094D01*
X132586769Y-132214375D01*
X132586766Y-132214373D01*
X132517127Y-132144734D01*
X132506778Y-132129246D01*
X132462406Y-132062839D01*
X132424715Y-131971845D01*
X132405500Y-131875246D01*
X132405500Y-131776754D01*
X132424715Y-131680155D01*
X132462406Y-131589161D01*
X132517125Y-131507269D01*
X132517127Y-131507266D01*
X132586766Y-131437627D01*
X132587860Y-131436896D01*
X132668661Y-131382906D01*
X132759655Y-131345215D01*
X132856254Y-131326000D01*
X132954746Y-131326000D01*
X133051345Y-131345215D01*
X133051345Y-131345215D01*
G37*
G36*
X135083345Y-131345215D02*
X135174339Y-131382906D01*
X135255140Y-131436896D01*
X135256234Y-131437627D01*
X135325873Y-131507266D01*
X135325875Y-131507269D01*
X135380594Y-131589161D01*
X135418285Y-131680155D01*
X135437500Y-131776754D01*
X135437500Y-131875246D01*
X135418285Y-131971845D01*
X135380594Y-132062839D01*
X135336222Y-132129246D01*
X135325873Y-132144734D01*
X135256234Y-132214373D01*
X135256231Y-132214375D01*
X135174339Y-132269094D01*
X135083345Y-132306785D01*
X134986746Y-132326000D01*
X134888254Y-132326000D01*
X134791655Y-132306785D01*
X134700661Y-132269094D01*
X134618769Y-132214375D01*
X134618766Y-132214373D01*
X134549127Y-132144734D01*
X134538778Y-132129246D01*
X134494406Y-132062839D01*
X134456715Y-131971845D01*
X134437500Y-131875246D01*
X134437500Y-131776754D01*
X134456715Y-131680155D01*
X134494406Y-131589161D01*
X134549125Y-131507269D01*
X134549127Y-131507266D01*
X134618766Y-131437627D01*
X134619860Y-131436896D01*
X134700661Y-131382906D01*
X134791655Y-131345215D01*
X134888254Y-131326000D01*
X134986746Y-131326000D01*
X135083345Y-131345215D01*
X135083345Y-131345215D01*
G37*
G36*
X151085345Y-131345215D02*
X151176339Y-131382906D01*
X151257140Y-131436896D01*
X151258234Y-131437627D01*
X151327873Y-131507266D01*
X151327875Y-131507269D01*
X151382594Y-131589161D01*
X151420285Y-131680155D01*
X151439500Y-131776754D01*
X151439500Y-131875246D01*
X151420285Y-131971845D01*
X151382594Y-132062839D01*
X151338222Y-132129246D01*
X151327873Y-132144734D01*
X151258234Y-132214373D01*
X151258231Y-132214375D01*
X151176339Y-132269094D01*
X151085345Y-132306785D01*
X150988746Y-132326000D01*
X150890254Y-132326000D01*
X150793655Y-132306785D01*
X150702661Y-132269094D01*
X150620769Y-132214375D01*
X150620766Y-132214373D01*
X150551127Y-132144734D01*
X150540778Y-132129246D01*
X150496406Y-132062839D01*
X150458715Y-131971845D01*
X150439500Y-131875246D01*
X150439500Y-131776754D01*
X150458715Y-131680155D01*
X150496406Y-131589161D01*
X150551125Y-131507269D01*
X150551127Y-131507266D01*
X150620766Y-131437627D01*
X150621860Y-131436896D01*
X150702661Y-131382906D01*
X150793655Y-131345215D01*
X150890254Y-131326000D01*
X150988746Y-131326000D01*
X151085345Y-131345215D01*
X151085345Y-131345215D01*
G37*
G36*
X149116845Y-131345215D02*
X149207839Y-131382906D01*
X149288640Y-131436896D01*
X149289734Y-131437627D01*
X149359373Y-131507266D01*
X149359375Y-131507269D01*
X149414094Y-131589161D01*
X149451785Y-131680155D01*
X149471000Y-131776754D01*
X149471000Y-131875246D01*
X149451785Y-131971845D01*
X149414094Y-132062839D01*
X149369722Y-132129246D01*
X149359373Y-132144734D01*
X149289734Y-132214373D01*
X149289731Y-132214375D01*
X149207839Y-132269094D01*
X149116845Y-132306785D01*
X149020246Y-132326000D01*
X148921754Y-132326000D01*
X148825155Y-132306785D01*
X148734161Y-132269094D01*
X148652269Y-132214375D01*
X148652266Y-132214373D01*
X148582627Y-132144734D01*
X148572278Y-132129246D01*
X148527906Y-132062839D01*
X148490215Y-131971845D01*
X148471000Y-131875246D01*
X148471000Y-131776754D01*
X148490215Y-131680155D01*
X148527906Y-131589161D01*
X148582625Y-131507269D01*
X148582627Y-131507266D01*
X148652266Y-131437627D01*
X148653360Y-131436896D01*
X148734161Y-131382906D01*
X148825155Y-131345215D01*
X148921754Y-131326000D01*
X149020246Y-131326000D01*
X149116845Y-131345215D01*
X149116845Y-131345215D01*
G37*
G36*
X145116345Y-131345215D02*
X145207339Y-131382906D01*
X145288140Y-131436896D01*
X145289234Y-131437627D01*
X145358873Y-131507266D01*
X145358875Y-131507269D01*
X145413594Y-131589161D01*
X145451285Y-131680155D01*
X145470500Y-131776754D01*
X145470500Y-131875246D01*
X145451285Y-131971845D01*
X145413594Y-132062839D01*
X145369222Y-132129246D01*
X145358873Y-132144734D01*
X145289234Y-132214373D01*
X145289231Y-132214375D01*
X145207339Y-132269094D01*
X145116345Y-132306785D01*
X145019746Y-132326000D01*
X144921254Y-132326000D01*
X144824655Y-132306785D01*
X144733661Y-132269094D01*
X144651769Y-132214375D01*
X144651766Y-132214373D01*
X144582127Y-132144734D01*
X144571778Y-132129246D01*
X144527406Y-132062839D01*
X144489715Y-131971845D01*
X144470500Y-131875246D01*
X144470500Y-131776754D01*
X144489715Y-131680155D01*
X144527406Y-131589161D01*
X144582125Y-131507269D01*
X144582127Y-131507266D01*
X144651766Y-131437627D01*
X144652860Y-131436896D01*
X144733661Y-131382906D01*
X144824655Y-131345215D01*
X144921254Y-131326000D01*
X145019746Y-131326000D01*
X145116345Y-131345215D01*
X145116345Y-131345215D01*
G37*
G36*
X131082845Y-131345215D02*
X131173839Y-131382906D01*
X131254640Y-131436896D01*
X131255734Y-131437627D01*
X131325373Y-131507266D01*
X131325375Y-131507269D01*
X131380094Y-131589161D01*
X131417785Y-131680155D01*
X131437000Y-131776754D01*
X131437000Y-131875246D01*
X131417785Y-131971845D01*
X131380094Y-132062839D01*
X131335722Y-132129246D01*
X131325373Y-132144734D01*
X131255734Y-132214373D01*
X131255731Y-132214375D01*
X131173839Y-132269094D01*
X131082845Y-132306785D01*
X130986246Y-132326000D01*
X130887754Y-132326000D01*
X130791155Y-132306785D01*
X130700161Y-132269094D01*
X130618269Y-132214375D01*
X130618266Y-132214373D01*
X130548627Y-132144734D01*
X130538278Y-132129246D01*
X130493906Y-132062839D01*
X130456215Y-131971845D01*
X130437000Y-131875246D01*
X130437000Y-131776754D01*
X130456215Y-131680155D01*
X130493906Y-131589161D01*
X130548625Y-131507269D01*
X130548627Y-131507266D01*
X130618266Y-131437627D01*
X130619360Y-131436896D01*
X130700161Y-131382906D01*
X130791155Y-131345215D01*
X130887754Y-131326000D01*
X130986246Y-131326000D01*
X131082845Y-131345215D01*
X131082845Y-131345215D01*
G37*
G36*
X147084845Y-131345215D02*
X147175839Y-131382906D01*
X147256640Y-131436896D01*
X147257734Y-131437627D01*
X147327373Y-131507266D01*
X147327375Y-131507269D01*
X147382094Y-131589161D01*
X147419785Y-131680155D01*
X147439000Y-131776754D01*
X147439000Y-131875246D01*
X147419785Y-131971845D01*
X147382094Y-132062839D01*
X147337722Y-132129246D01*
X147327373Y-132144734D01*
X147257734Y-132214373D01*
X147257731Y-132214375D01*
X147175839Y-132269094D01*
X147084845Y-132306785D01*
X146988246Y-132326000D01*
X146889754Y-132326000D01*
X146793155Y-132306785D01*
X146702161Y-132269094D01*
X146620269Y-132214375D01*
X146620266Y-132214373D01*
X146550627Y-132144734D01*
X146540278Y-132129246D01*
X146495906Y-132062839D01*
X146458215Y-131971845D01*
X146439000Y-131875246D01*
X146439000Y-131776754D01*
X146458215Y-131680155D01*
X146495906Y-131589161D01*
X146550625Y-131507269D01*
X146550627Y-131507266D01*
X146620266Y-131437627D01*
X146621360Y-131436896D01*
X146702161Y-131382906D01*
X146793155Y-131345215D01*
X146889754Y-131326000D01*
X146988246Y-131326000D01*
X147084845Y-131345215D01*
X147084845Y-131345215D01*
G37*
G36*
X168230345Y-129757715D02*
X168321339Y-129795406D01*
X168402140Y-129849396D01*
X168403234Y-129850127D01*
X168472873Y-129919766D01*
X168527595Y-130001663D01*
X168565285Y-130092655D01*
X168584500Y-130189255D01*
X168584500Y-130287745D01*
X168565285Y-130384345D01*
X168527595Y-130475337D01*
X168472873Y-130557234D01*
X168403234Y-130626873D01*
X168403231Y-130626875D01*
X168321339Y-130681594D01*
X168230345Y-130719285D01*
X168133746Y-130738500D01*
X168035254Y-130738500D01*
X167938655Y-130719285D01*
X167847661Y-130681594D01*
X167765769Y-130626875D01*
X167765766Y-130626873D01*
X167696127Y-130557234D01*
X167641405Y-130475337D01*
X167603715Y-130384345D01*
X167584500Y-130287745D01*
X167584500Y-130189255D01*
X167603715Y-130092655D01*
X167641405Y-130001663D01*
X167696127Y-129919766D01*
X167765766Y-129850127D01*
X167766860Y-129849396D01*
X167847661Y-129795406D01*
X167938655Y-129757715D01*
X168035254Y-129738500D01*
X168133746Y-129738500D01*
X168230345Y-129757715D01*
X168230345Y-129757715D01*
G37*
G36*
X78906630Y-128702299D02*
X79066855Y-128750903D01*
X79214520Y-128829831D01*
X79343949Y-128936051D01*
X79450169Y-129065480D01*
X79529097Y-129213145D01*
X79577701Y-129373370D01*
X79594112Y-129540000D01*
X79577701Y-129706630D01*
X79529097Y-129866855D01*
X79450169Y-130014520D01*
X79343949Y-130143949D01*
X79214520Y-130250169D01*
X79066855Y-130329097D01*
X78906630Y-130377701D01*
X78781752Y-130390000D01*
X78698248Y-130390000D01*
X78573370Y-130377701D01*
X78413145Y-130329097D01*
X78265480Y-130250169D01*
X78136051Y-130143949D01*
X78029831Y-130014520D01*
X77950903Y-129866855D01*
X77902299Y-129706630D01*
X77885888Y-129540000D01*
X77902299Y-129373370D01*
X77950903Y-129213145D01*
X78029831Y-129065480D01*
X78136051Y-128936051D01*
X78265480Y-128829831D01*
X78413145Y-128750903D01*
X78573370Y-128702299D01*
X78698248Y-128690000D01*
X78781752Y-128690000D01*
X78906630Y-128702299D01*
X78906630Y-128702299D01*
G37*
G36*
X78906630Y-126162299D02*
X79066855Y-126210903D01*
X79214520Y-126289831D01*
X79343949Y-126396051D01*
X79450169Y-126525480D01*
X79529097Y-126673145D01*
X79577701Y-126833370D01*
X79594112Y-127000000D01*
X79577701Y-127166630D01*
X79529097Y-127326855D01*
X79450169Y-127474520D01*
X79343949Y-127603949D01*
X79214520Y-127710169D01*
X79066855Y-127789097D01*
X78906630Y-127837701D01*
X78781752Y-127850000D01*
X78698248Y-127850000D01*
X78573370Y-127837701D01*
X78413145Y-127789097D01*
X78265480Y-127710169D01*
X78136051Y-127603949D01*
X78029831Y-127474520D01*
X77950903Y-127326855D01*
X77902299Y-127166630D01*
X77885888Y-127000000D01*
X77902299Y-126833370D01*
X77950903Y-126673145D01*
X78029831Y-126525480D01*
X78136051Y-126396051D01*
X78265480Y-126289831D01*
X78413145Y-126210903D01*
X78573370Y-126162299D01*
X78698248Y-126150000D01*
X78781752Y-126150000D01*
X78906630Y-126162299D01*
X78906630Y-126162299D01*
G37*
G36*
X79590000Y-125310000D02*
X77890000Y-125310000D01*
X77890000Y-123610000D01*
X79590000Y-123610000D01*
X79590000Y-125310000D01*
X79590000Y-125310000D01*
G37*
G36*
X164991845Y-124106215D02*
X165082839Y-124143906D01*
X165163640Y-124197896D01*
X165164734Y-124198627D01*
X165234373Y-124268266D01*
X165289095Y-124350163D01*
X165326785Y-124441155D01*
X165346000Y-124537755D01*
X165346000Y-124636245D01*
X165326785Y-124732845D01*
X165289095Y-124823837D01*
X165234373Y-124905734D01*
X165164734Y-124975373D01*
X165164731Y-124975375D01*
X165082839Y-125030094D01*
X164991845Y-125067785D01*
X164895246Y-125087000D01*
X164796754Y-125087000D01*
X164700155Y-125067785D01*
X164609161Y-125030094D01*
X164527269Y-124975375D01*
X164527266Y-124975373D01*
X164457627Y-124905734D01*
X164402905Y-124823837D01*
X164365215Y-124732845D01*
X164346000Y-124636245D01*
X164346000Y-124537755D01*
X164365215Y-124441155D01*
X164402905Y-124350163D01*
X164457627Y-124268266D01*
X164527266Y-124198627D01*
X164528360Y-124197896D01*
X164609161Y-124143906D01*
X164700155Y-124106215D01*
X164796754Y-124087000D01*
X164895246Y-124087000D01*
X164991845Y-124106215D01*
X164991845Y-124106215D01*
G37*
G36*
X105936845Y-123026715D02*
X106027839Y-123064406D01*
X106108640Y-123118396D01*
X106109734Y-123119127D01*
X106179373Y-123188766D01*
X106234095Y-123270663D01*
X106271785Y-123361655D01*
X106291000Y-123458255D01*
X106291000Y-123556745D01*
X106271785Y-123653345D01*
X106234095Y-123744337D01*
X106179373Y-123826234D01*
X106109734Y-123895873D01*
X106109731Y-123895875D01*
X106027839Y-123950594D01*
X105936845Y-123988285D01*
X105840246Y-124007500D01*
X105741754Y-124007500D01*
X105645155Y-123988285D01*
X105554161Y-123950594D01*
X105472269Y-123895875D01*
X105472266Y-123895873D01*
X105402627Y-123826234D01*
X105347905Y-123744337D01*
X105310215Y-123653345D01*
X105291000Y-123556745D01*
X105291000Y-123458255D01*
X105310215Y-123361655D01*
X105347905Y-123270663D01*
X105402627Y-123188766D01*
X105472266Y-123119127D01*
X105473360Y-123118396D01*
X105554161Y-123064406D01*
X105645155Y-123026715D01*
X105741754Y-123007500D01*
X105840246Y-123007500D01*
X105936845Y-123026715D01*
X105936845Y-123026715D01*
G37*
G36*
X163531345Y-121248715D02*
X163622339Y-121286406D01*
X163703140Y-121340396D01*
X163704234Y-121341127D01*
X163773873Y-121410766D01*
X163828595Y-121492663D01*
X163866285Y-121583655D01*
X163885500Y-121680255D01*
X163885500Y-121778745D01*
X163866285Y-121875345D01*
X163828595Y-121966337D01*
X163773873Y-122048234D01*
X163704234Y-122117873D01*
X163704231Y-122117875D01*
X163622339Y-122172594D01*
X163531345Y-122210285D01*
X163434746Y-122229500D01*
X163336254Y-122229500D01*
X163239655Y-122210285D01*
X163148661Y-122172594D01*
X163066769Y-122117875D01*
X163066766Y-122117873D01*
X162997127Y-122048234D01*
X162942405Y-121966337D01*
X162904715Y-121875345D01*
X162885500Y-121778745D01*
X162885500Y-121680255D01*
X162904715Y-121583655D01*
X162942405Y-121492663D01*
X162997127Y-121410766D01*
X163066766Y-121341127D01*
X163067860Y-121340396D01*
X163148661Y-121286406D01*
X163239655Y-121248715D01*
X163336254Y-121229500D01*
X163434746Y-121229500D01*
X163531345Y-121248715D01*
X163531345Y-121248715D01*
G37*
G36*
X127526845Y-120232715D02*
X127617839Y-120270406D01*
X127698640Y-120324396D01*
X127699734Y-120325127D01*
X127769373Y-120394766D01*
X127824095Y-120476663D01*
X127861785Y-120567655D01*
X127881000Y-120664255D01*
X127881000Y-120762745D01*
X127861785Y-120859345D01*
X127824095Y-120950337D01*
X127769373Y-121032234D01*
X127699734Y-121101873D01*
X127699731Y-121101875D01*
X127617839Y-121156594D01*
X127526845Y-121194285D01*
X127430246Y-121213500D01*
X127331754Y-121213500D01*
X127235155Y-121194285D01*
X127144161Y-121156594D01*
X127062269Y-121101875D01*
X127062266Y-121101873D01*
X126992627Y-121032234D01*
X126937905Y-120950337D01*
X126900215Y-120859345D01*
X126881000Y-120762745D01*
X126881000Y-120664255D01*
X126900215Y-120567655D01*
X126937905Y-120476663D01*
X126992627Y-120394766D01*
X127062266Y-120325127D01*
X127063360Y-120324396D01*
X127144161Y-120270406D01*
X127235155Y-120232715D01*
X127331754Y-120213500D01*
X127430246Y-120213500D01*
X127526845Y-120232715D01*
X127526845Y-120232715D01*
G37*
G36*
X78906630Y-119177299D02*
X79066855Y-119225903D01*
X79214520Y-119304831D01*
X79343949Y-119411051D01*
X79450169Y-119540480D01*
X79529097Y-119688145D01*
X79577701Y-119848370D01*
X79594112Y-120015000D01*
X79577701Y-120181630D01*
X79529097Y-120341855D01*
X79450169Y-120489520D01*
X79343949Y-120618949D01*
X79214520Y-120725169D01*
X79066855Y-120804097D01*
X78906630Y-120852701D01*
X78781752Y-120865000D01*
X78698248Y-120865000D01*
X78573370Y-120852701D01*
X78413145Y-120804097D01*
X78265480Y-120725169D01*
X78136051Y-120618949D01*
X78029831Y-120489520D01*
X77950903Y-120341855D01*
X77902299Y-120181630D01*
X77885888Y-120015000D01*
X77902299Y-119848370D01*
X77950903Y-119688145D01*
X78029831Y-119540480D01*
X78136051Y-119411051D01*
X78265480Y-119304831D01*
X78413145Y-119225903D01*
X78573370Y-119177299D01*
X78698248Y-119165000D01*
X78781752Y-119165000D01*
X78906630Y-119177299D01*
X78906630Y-119177299D01*
G37*
G36*
X130447845Y-118708715D02*
X130538839Y-118746406D01*
X130619640Y-118800396D01*
X130620734Y-118801127D01*
X130690373Y-118870766D01*
X130745095Y-118952663D01*
X130782785Y-119043655D01*
X130802000Y-119140254D01*
X130802000Y-119238746D01*
X130782785Y-119335345D01*
X130745094Y-119426339D01*
X130691104Y-119507140D01*
X130690373Y-119508234D01*
X130620734Y-119577873D01*
X130620731Y-119577875D01*
X130538839Y-119632594D01*
X130447845Y-119670285D01*
X130351246Y-119689500D01*
X130252754Y-119689500D01*
X130156155Y-119670285D01*
X130065161Y-119632594D01*
X129983269Y-119577875D01*
X129983266Y-119577873D01*
X129913627Y-119508234D01*
X129912896Y-119507140D01*
X129858906Y-119426339D01*
X129821215Y-119335345D01*
X129802000Y-119238746D01*
X129802000Y-119140254D01*
X129821215Y-119043655D01*
X129858905Y-118952663D01*
X129913627Y-118870766D01*
X129983266Y-118801127D01*
X129984360Y-118800396D01*
X130065161Y-118746406D01*
X130156155Y-118708715D01*
X130252754Y-118689500D01*
X130351246Y-118689500D01*
X130447845Y-118708715D01*
X130447845Y-118708715D01*
G37*
G36*
X124986845Y-118645215D02*
X125077839Y-118682906D01*
X125158640Y-118736896D01*
X125159734Y-118737627D01*
X125229373Y-118807266D01*
X125229375Y-118807269D01*
X125284094Y-118889161D01*
X125321785Y-118980155D01*
X125341000Y-119076754D01*
X125341000Y-119175246D01*
X125328369Y-119238745D01*
X125321785Y-119271845D01*
X125284095Y-119362837D01*
X125229373Y-119444734D01*
X125159734Y-119514373D01*
X125159731Y-119514375D01*
X125077839Y-119569094D01*
X124986845Y-119606785D01*
X124890246Y-119626000D01*
X124791754Y-119626000D01*
X124695155Y-119606785D01*
X124604161Y-119569094D01*
X124522269Y-119514375D01*
X124522266Y-119514373D01*
X124452627Y-119444734D01*
X124397905Y-119362837D01*
X124360215Y-119271845D01*
X124353631Y-119238745D01*
X124341000Y-119175246D01*
X124341000Y-119076754D01*
X124360215Y-118980155D01*
X124397906Y-118889161D01*
X124452625Y-118807269D01*
X124452627Y-118807266D01*
X124522266Y-118737627D01*
X124523360Y-118736896D01*
X124604161Y-118682906D01*
X124695155Y-118645215D01*
X124791754Y-118626000D01*
X124890246Y-118626000D01*
X124986845Y-118645215D01*
X124986845Y-118645215D01*
G37*
G36*
X116731845Y-117438715D02*
X116816466Y-117473766D01*
X116822839Y-117476406D01*
X116903640Y-117530396D01*
X116904734Y-117531127D01*
X116974373Y-117600766D01*
X117029095Y-117682663D01*
X117054193Y-117743255D01*
X117066785Y-117773655D01*
X117086000Y-117870254D01*
X117086000Y-117968746D01*
X117073947Y-118029339D01*
X117066785Y-118065345D01*
X117029095Y-118156337D01*
X116974373Y-118238234D01*
X116904734Y-118307873D01*
X116904731Y-118307875D01*
X116822839Y-118362594D01*
X116731845Y-118400285D01*
X116635246Y-118419500D01*
X116536754Y-118419500D01*
X116440155Y-118400285D01*
X116349161Y-118362594D01*
X116267269Y-118307875D01*
X116267266Y-118307873D01*
X116197627Y-118238234D01*
X116142905Y-118156337D01*
X116105215Y-118065345D01*
X116098053Y-118029339D01*
X116086000Y-117968746D01*
X116086000Y-117870254D01*
X116105215Y-117773655D01*
X116117807Y-117743255D01*
X116142905Y-117682663D01*
X116197627Y-117600766D01*
X116267266Y-117531127D01*
X116268360Y-117530396D01*
X116349161Y-117476406D01*
X116355535Y-117473766D01*
X116440155Y-117438715D01*
X116536754Y-117419500D01*
X116635246Y-117419500D01*
X116731845Y-117438715D01*
X116731845Y-117438715D01*
G37*
G36*
X78906630Y-116637299D02*
X79066855Y-116685903D01*
X79214520Y-116764831D01*
X79343949Y-116871051D01*
X79450169Y-117000480D01*
X79529097Y-117148145D01*
X79577701Y-117308370D01*
X79594112Y-117475000D01*
X79577701Y-117641630D01*
X79529097Y-117801855D01*
X79450169Y-117949520D01*
X79343949Y-118078949D01*
X79214520Y-118185169D01*
X79066855Y-118264097D01*
X78906630Y-118312701D01*
X78781752Y-118325000D01*
X78698248Y-118325000D01*
X78573370Y-118312701D01*
X78413145Y-118264097D01*
X78265480Y-118185169D01*
X78136051Y-118078949D01*
X78029831Y-117949520D01*
X77950903Y-117801855D01*
X77902299Y-117641630D01*
X77885888Y-117475000D01*
X77902299Y-117308370D01*
X77950903Y-117148145D01*
X78029831Y-117000480D01*
X78136051Y-116871051D01*
X78265480Y-116764831D01*
X78413145Y-116685903D01*
X78573370Y-116637299D01*
X78698248Y-116625000D01*
X78781752Y-116625000D01*
X78906630Y-116637299D01*
X78906630Y-116637299D01*
G37*
G36*
X130765345Y-117311715D02*
X130856339Y-117349406D01*
X130937140Y-117403396D01*
X130938234Y-117404127D01*
X131007873Y-117473766D01*
X131007875Y-117473769D01*
X131062594Y-117555661D01*
X131100285Y-117646655D01*
X131107448Y-117682663D01*
X131119500Y-117743255D01*
X131119500Y-117841745D01*
X131100285Y-117938345D01*
X131062595Y-118029337D01*
X131007873Y-118111234D01*
X130938234Y-118180873D01*
X130938231Y-118180875D01*
X130856339Y-118235594D01*
X130856338Y-118235595D01*
X130856337Y-118235595D01*
X130787527Y-118264097D01*
X130765345Y-118273285D01*
X130668746Y-118292500D01*
X130570254Y-118292500D01*
X130473655Y-118273285D01*
X130451473Y-118264097D01*
X130382663Y-118235595D01*
X130382662Y-118235595D01*
X130382661Y-118235594D01*
X130300769Y-118180875D01*
X130300766Y-118180873D01*
X130231127Y-118111234D01*
X130176405Y-118029337D01*
X130138715Y-117938345D01*
X130119500Y-117841745D01*
X130119500Y-117743255D01*
X130131553Y-117682663D01*
X130138715Y-117646655D01*
X130176406Y-117555661D01*
X130231125Y-117473769D01*
X130231127Y-117473766D01*
X130300766Y-117404127D01*
X130301860Y-117403396D01*
X130382661Y-117349406D01*
X130473655Y-117311715D01*
X130570254Y-117292500D01*
X130668746Y-117292500D01*
X130765345Y-117311715D01*
X130765345Y-117311715D01*
G37*
G36*
X131590845Y-116105215D02*
X131681839Y-116142906D01*
X131762640Y-116196896D01*
X131763734Y-116197627D01*
X131833373Y-116267266D01*
X131833375Y-116267269D01*
X131888094Y-116349161D01*
X131925785Y-116440155D01*
X131945000Y-116536754D01*
X131945000Y-116635246D01*
X131925785Y-116731845D01*
X131888095Y-116822837D01*
X131833373Y-116904734D01*
X131763734Y-116974373D01*
X131763731Y-116974375D01*
X131681839Y-117029094D01*
X131590845Y-117066785D01*
X131494246Y-117086000D01*
X131395754Y-117086000D01*
X131299155Y-117066785D01*
X131208161Y-117029094D01*
X131126269Y-116974375D01*
X131126266Y-116974373D01*
X131056627Y-116904734D01*
X131001905Y-116822837D01*
X130964215Y-116731845D01*
X130945000Y-116635246D01*
X130945000Y-116536754D01*
X130964215Y-116440155D01*
X131001906Y-116349161D01*
X131056625Y-116267269D01*
X131056627Y-116267266D01*
X131126266Y-116197627D01*
X131127360Y-116196896D01*
X131208161Y-116142906D01*
X131299155Y-116105215D01*
X131395754Y-116086000D01*
X131494246Y-116086000D01*
X131590845Y-116105215D01*
X131590845Y-116105215D01*
G37*
G36*
X93744845Y-115343215D02*
X93835839Y-115380906D01*
X93861938Y-115398345D01*
X93917734Y-115435627D01*
X93987373Y-115505266D01*
X93987375Y-115505269D01*
X94042094Y-115587161D01*
X94079785Y-115678155D01*
X94099000Y-115774754D01*
X94099000Y-115873246D01*
X94079785Y-115969845D01*
X94042094Y-116060839D01*
X93988104Y-116141640D01*
X93987373Y-116142734D01*
X93917734Y-116212373D01*
X93917731Y-116212375D01*
X93835839Y-116267094D01*
X93744845Y-116304785D01*
X93648246Y-116324000D01*
X93549754Y-116324000D01*
X93453155Y-116304785D01*
X93362161Y-116267094D01*
X93280269Y-116212375D01*
X93280266Y-116212373D01*
X93210627Y-116142734D01*
X93209896Y-116141640D01*
X93155906Y-116060839D01*
X93118215Y-115969845D01*
X93099000Y-115873246D01*
X93099000Y-115774754D01*
X93118215Y-115678155D01*
X93155906Y-115587161D01*
X93210625Y-115505269D01*
X93210627Y-115505266D01*
X93280266Y-115435627D01*
X93336062Y-115398345D01*
X93362161Y-115380906D01*
X93453155Y-115343215D01*
X93549754Y-115324000D01*
X93648246Y-115324000D01*
X93744845Y-115343215D01*
X93744845Y-115343215D01*
G37*
G36*
X78906630Y-114097299D02*
X79066855Y-114145903D01*
X79214520Y-114224831D01*
X79343949Y-114331051D01*
X79450169Y-114460480D01*
X79529097Y-114608145D01*
X79577701Y-114768370D01*
X79594112Y-114935000D01*
X79577701Y-115101630D01*
X79529097Y-115261855D01*
X79450169Y-115409520D01*
X79343949Y-115538949D01*
X79214520Y-115645169D01*
X79066855Y-115724097D01*
X78906630Y-115772701D01*
X78781752Y-115785000D01*
X78698248Y-115785000D01*
X78573370Y-115772701D01*
X78413145Y-115724097D01*
X78265480Y-115645169D01*
X78136051Y-115538949D01*
X78029831Y-115409520D01*
X77950903Y-115261855D01*
X77902299Y-115101630D01*
X77885888Y-114935000D01*
X77902299Y-114768370D01*
X77950903Y-114608145D01*
X78029831Y-114460480D01*
X78136051Y-114331051D01*
X78265480Y-114224831D01*
X78413145Y-114145903D01*
X78573370Y-114097299D01*
X78698248Y-114085000D01*
X78781752Y-114085000D01*
X78906630Y-114097299D01*
X78906630Y-114097299D01*
G37*
G36*
X131590845Y-114771715D02*
X131681839Y-114809406D01*
X131749082Y-114854337D01*
X131763734Y-114864127D01*
X131833373Y-114933766D01*
X131888095Y-115015663D01*
X131925785Y-115106655D01*
X131945000Y-115203255D01*
X131945000Y-115301745D01*
X131925785Y-115398345D01*
X131888095Y-115489337D01*
X131833373Y-115571234D01*
X131763734Y-115640873D01*
X131763731Y-115640875D01*
X131681839Y-115695594D01*
X131590845Y-115733285D01*
X131494246Y-115752500D01*
X131395754Y-115752500D01*
X131299155Y-115733285D01*
X131208161Y-115695594D01*
X131126269Y-115640875D01*
X131126266Y-115640873D01*
X131056627Y-115571234D01*
X131001905Y-115489337D01*
X130964215Y-115398345D01*
X130945000Y-115301745D01*
X130945000Y-115203255D01*
X130964215Y-115106655D01*
X131001905Y-115015663D01*
X131056627Y-114933766D01*
X131126266Y-114864127D01*
X131140918Y-114854337D01*
X131208161Y-114809406D01*
X131299155Y-114771715D01*
X131395754Y-114752500D01*
X131494246Y-114752500D01*
X131590845Y-114771715D01*
X131590845Y-114771715D01*
G37*
G36*
X157816345Y-114136715D02*
X157907339Y-114174406D01*
X157916269Y-114180373D01*
X157989234Y-114229127D01*
X158058873Y-114298766D01*
X158113595Y-114380663D01*
X158151285Y-114471655D01*
X158170500Y-114568255D01*
X158170500Y-114666745D01*
X158151285Y-114763345D01*
X158113595Y-114854337D01*
X158058873Y-114936234D01*
X157989234Y-115005873D01*
X157989231Y-115005875D01*
X157907339Y-115060594D01*
X157816345Y-115098285D01*
X157719746Y-115117500D01*
X157621254Y-115117500D01*
X157524655Y-115098285D01*
X157433661Y-115060594D01*
X157351769Y-115005875D01*
X157351766Y-115005873D01*
X157282127Y-114936234D01*
X157227405Y-114854337D01*
X157189715Y-114763345D01*
X157170500Y-114666745D01*
X157170500Y-114568255D01*
X157189715Y-114471655D01*
X157227405Y-114380663D01*
X157282127Y-114298766D01*
X157351766Y-114229127D01*
X157424731Y-114180373D01*
X157433661Y-114174406D01*
X157524655Y-114136715D01*
X157621254Y-114117500D01*
X157719746Y-114117500D01*
X157816345Y-114136715D01*
X157816345Y-114136715D01*
G37*
G36*
X131527345Y-113501715D02*
X131618339Y-113539406D01*
X131699140Y-113593396D01*
X131700234Y-113594127D01*
X131769873Y-113663766D01*
X131769875Y-113663769D01*
X131824594Y-113745661D01*
X131862285Y-113836655D01*
X131881500Y-113933254D01*
X131881500Y-114031746D01*
X131868460Y-114097300D01*
X131862285Y-114128345D01*
X131840734Y-114180375D01*
X131824594Y-114219339D01*
X131814066Y-114235095D01*
X131769873Y-114301234D01*
X131700234Y-114370873D01*
X131700231Y-114370875D01*
X131618339Y-114425594D01*
X131527345Y-114463285D01*
X131430746Y-114482500D01*
X131332254Y-114482500D01*
X131235655Y-114463285D01*
X131144661Y-114425594D01*
X131062769Y-114370875D01*
X131062766Y-114370873D01*
X130993127Y-114301234D01*
X130948934Y-114235095D01*
X130938406Y-114219339D01*
X130922267Y-114180375D01*
X130900715Y-114128345D01*
X130894540Y-114097300D01*
X130881500Y-114031746D01*
X130881500Y-113933254D01*
X130900715Y-113836655D01*
X130938406Y-113745661D01*
X130993125Y-113663769D01*
X130993127Y-113663766D01*
X131062766Y-113594127D01*
X131063860Y-113593396D01*
X131144661Y-113539406D01*
X131235655Y-113501715D01*
X131332254Y-113482500D01*
X131430746Y-113482500D01*
X131527345Y-113501715D01*
X131527345Y-113501715D01*
G37*
G36*
X89172845Y-113311215D02*
X89263839Y-113348906D01*
X89344640Y-113402896D01*
X89345734Y-113403627D01*
X89415373Y-113473266D01*
X89415375Y-113473269D01*
X89459567Y-113539406D01*
X89470095Y-113555163D01*
X89486234Y-113594127D01*
X89507785Y-113646155D01*
X89527000Y-113742754D01*
X89527000Y-113841246D01*
X89507785Y-113937845D01*
X89470094Y-114028839D01*
X89432568Y-114085000D01*
X89415373Y-114110734D01*
X89345734Y-114180373D01*
X89345731Y-114180375D01*
X89263839Y-114235094D01*
X89172845Y-114272785D01*
X89076246Y-114292000D01*
X88977754Y-114292000D01*
X88881155Y-114272785D01*
X88790161Y-114235094D01*
X88708269Y-114180375D01*
X88708266Y-114180373D01*
X88638627Y-114110734D01*
X88621432Y-114085000D01*
X88583906Y-114028839D01*
X88546215Y-113937845D01*
X88527000Y-113841246D01*
X88527000Y-113742754D01*
X88546215Y-113646155D01*
X88567766Y-113594127D01*
X88583905Y-113555163D01*
X88594434Y-113539406D01*
X88638625Y-113473269D01*
X88638627Y-113473266D01*
X88708266Y-113403627D01*
X88709360Y-113402896D01*
X88790161Y-113348906D01*
X88881155Y-113311215D01*
X88977754Y-113292000D01*
X89076246Y-113292000D01*
X89172845Y-113311215D01*
X89172845Y-113311215D01*
G37*
G36*
X79590000Y-113245000D02*
X77890000Y-113245000D01*
X77890000Y-111545000D01*
X79590000Y-111545000D01*
X79590000Y-113245000D01*
X79590000Y-113245000D01*
G37*
G36*
X94189345Y-111914215D02*
X94280339Y-111951906D01*
X94361140Y-112005896D01*
X94362234Y-112006627D01*
X94431873Y-112076266D01*
X94486595Y-112158163D01*
X94524285Y-112249155D01*
X94543500Y-112345755D01*
X94543500Y-112444245D01*
X94524285Y-112540845D01*
X94486595Y-112631837D01*
X94431873Y-112713734D01*
X94362234Y-112783373D01*
X94362231Y-112783375D01*
X94280339Y-112838094D01*
X94189345Y-112875785D01*
X94092746Y-112895000D01*
X93994254Y-112895000D01*
X93897655Y-112875785D01*
X93806661Y-112838094D01*
X93724769Y-112783375D01*
X93724766Y-112783373D01*
X93655127Y-112713734D01*
X93600405Y-112631837D01*
X93562715Y-112540845D01*
X93543500Y-112444245D01*
X93543500Y-112345755D01*
X93562715Y-112249155D01*
X93600405Y-112158163D01*
X93655127Y-112076266D01*
X93724766Y-112006627D01*
X93725860Y-112005896D01*
X93806661Y-111951906D01*
X93897655Y-111914215D01*
X93994254Y-111895000D01*
X94092746Y-111895000D01*
X94189345Y-111914215D01*
X94189345Y-111914215D01*
G37*
G36*
X159213345Y-109755215D02*
X159266533Y-109777246D01*
X159304339Y-109792906D01*
X159385140Y-109846896D01*
X159386234Y-109847627D01*
X159455873Y-109917266D01*
X159455875Y-109917269D01*
X159510594Y-109999161D01*
X159548285Y-110090155D01*
X159553501Y-110116375D01*
X159567500Y-110186755D01*
X159567500Y-110285245D01*
X159548285Y-110381845D01*
X159510595Y-110472837D01*
X159455873Y-110554734D01*
X159386234Y-110624373D01*
X159386231Y-110624375D01*
X159304339Y-110679094D01*
X159213345Y-110716785D01*
X159116746Y-110736000D01*
X159018254Y-110736000D01*
X158921655Y-110716785D01*
X158830661Y-110679094D01*
X158748769Y-110624375D01*
X158748766Y-110624373D01*
X158679127Y-110554734D01*
X158624405Y-110472837D01*
X158586715Y-110381845D01*
X158567500Y-110285245D01*
X158567500Y-110186755D01*
X158581500Y-110116375D01*
X158586715Y-110090155D01*
X158624406Y-109999161D01*
X158679125Y-109917269D01*
X158679127Y-109917266D01*
X158748766Y-109847627D01*
X158749860Y-109846896D01*
X158830661Y-109792906D01*
X158868468Y-109777246D01*
X158921655Y-109755215D01*
X159018254Y-109736000D01*
X159116746Y-109736000D01*
X159213345Y-109755215D01*
X159213345Y-109755215D01*
G37*
G36*
X104285845Y-109247215D02*
X104332015Y-109266339D01*
X104376839Y-109284906D01*
X104457640Y-109338896D01*
X104458734Y-109339627D01*
X104528373Y-109409266D01*
X104583095Y-109491163D01*
X104598975Y-109529500D01*
X104620785Y-109582155D01*
X104640000Y-109678754D01*
X104640000Y-109777246D01*
X104620785Y-109873845D01*
X104583094Y-109964839D01*
X104560159Y-109999163D01*
X104528373Y-110046734D01*
X104458734Y-110116373D01*
X104458731Y-110116375D01*
X104376839Y-110171094D01*
X104376838Y-110171095D01*
X104376837Y-110171095D01*
X104339030Y-110186755D01*
X104285845Y-110208785D01*
X104189246Y-110228000D01*
X104090754Y-110228000D01*
X103994155Y-110208785D01*
X103940970Y-110186755D01*
X103903163Y-110171095D01*
X103903162Y-110171095D01*
X103903161Y-110171094D01*
X103821269Y-110116375D01*
X103821266Y-110116373D01*
X103751627Y-110046734D01*
X103719841Y-109999163D01*
X103696906Y-109964839D01*
X103659215Y-109873845D01*
X103640000Y-109777246D01*
X103640000Y-109678754D01*
X103659215Y-109582155D01*
X103681025Y-109529500D01*
X103696905Y-109491163D01*
X103751627Y-109409266D01*
X103821266Y-109339627D01*
X103822360Y-109338896D01*
X103903161Y-109284906D01*
X103947986Y-109266339D01*
X103994155Y-109247215D01*
X104090754Y-109228000D01*
X104189246Y-109228000D01*
X104285845Y-109247215D01*
X104285845Y-109247215D01*
G37*
G36*
X123589845Y-108548715D02*
X123680839Y-108586406D01*
X123689769Y-108592373D01*
X123762734Y-108641127D01*
X123832373Y-108710766D01*
X123887095Y-108792663D01*
X123924785Y-108883655D01*
X123944000Y-108980255D01*
X123944000Y-109078745D01*
X123924785Y-109175345D01*
X123887095Y-109266337D01*
X123832373Y-109348234D01*
X123762734Y-109417873D01*
X123762731Y-109417875D01*
X123680839Y-109472594D01*
X123680838Y-109472595D01*
X123680837Y-109472595D01*
X123636010Y-109491163D01*
X123589845Y-109510285D01*
X123493246Y-109529500D01*
X123394754Y-109529500D01*
X123298155Y-109510285D01*
X123251990Y-109491163D01*
X123207163Y-109472595D01*
X123207162Y-109472595D01*
X123207161Y-109472594D01*
X123125269Y-109417875D01*
X123125266Y-109417873D01*
X123055627Y-109348234D01*
X123000905Y-109266337D01*
X122963215Y-109175345D01*
X122944000Y-109078745D01*
X122944000Y-108980255D01*
X122963215Y-108883655D01*
X123000905Y-108792663D01*
X123055627Y-108710766D01*
X123125266Y-108641127D01*
X123198231Y-108592373D01*
X123207161Y-108586406D01*
X123298155Y-108548715D01*
X123394754Y-108529500D01*
X123493246Y-108529500D01*
X123589845Y-108548715D01*
X123589845Y-108548715D01*
G37*
G36*
X103968345Y-107977215D02*
X104059339Y-108014906D01*
X104124065Y-108058155D01*
X104141234Y-108069627D01*
X104210873Y-108139266D01*
X104210875Y-108139269D01*
X104265594Y-108221161D01*
X104303285Y-108312155D01*
X104322500Y-108408754D01*
X104322500Y-108507246D01*
X104303285Y-108603845D01*
X104265594Y-108694839D01*
X104254952Y-108710766D01*
X104210873Y-108776734D01*
X104141234Y-108846373D01*
X104141231Y-108846375D01*
X104059339Y-108901094D01*
X103968345Y-108938785D01*
X103871746Y-108958000D01*
X103773254Y-108958000D01*
X103676655Y-108938785D01*
X103585661Y-108901094D01*
X103503769Y-108846375D01*
X103503766Y-108846373D01*
X103434127Y-108776734D01*
X103390048Y-108710766D01*
X103379406Y-108694839D01*
X103341715Y-108603845D01*
X103322500Y-108507246D01*
X103322500Y-108408754D01*
X103341715Y-108312155D01*
X103379406Y-108221161D01*
X103434125Y-108139269D01*
X103434127Y-108139266D01*
X103503766Y-108069627D01*
X103520935Y-108058155D01*
X103585661Y-108014906D01*
X103676655Y-107977215D01*
X103773254Y-107958000D01*
X103871746Y-107958000D01*
X103968345Y-107977215D01*
X103968345Y-107977215D01*
G37*
G36*
X93998845Y-107723215D02*
X94089839Y-107760906D01*
X94164553Y-107810829D01*
X94171734Y-107815627D01*
X94241373Y-107885266D01*
X94241375Y-107885269D01*
X94296094Y-107967161D01*
X94333785Y-108058155D01*
X94347186Y-108125523D01*
X94353000Y-108154755D01*
X94353000Y-108253245D01*
X94333785Y-108349845D01*
X94313943Y-108397749D01*
X94296094Y-108440839D01*
X94251722Y-108507246D01*
X94241373Y-108522734D01*
X94171734Y-108592373D01*
X94171731Y-108592375D01*
X94089839Y-108647094D01*
X93998845Y-108684785D01*
X93902246Y-108704000D01*
X93803754Y-108704000D01*
X93707155Y-108684785D01*
X93616161Y-108647094D01*
X93534269Y-108592375D01*
X93534266Y-108592373D01*
X93464627Y-108522734D01*
X93454278Y-108507246D01*
X93409906Y-108440839D01*
X93392058Y-108397749D01*
X93372215Y-108349845D01*
X93353000Y-108253245D01*
X93353000Y-108154755D01*
X93358815Y-108125523D01*
X93372215Y-108058155D01*
X93409906Y-107967161D01*
X93464625Y-107885269D01*
X93464627Y-107885266D01*
X93534266Y-107815627D01*
X93541447Y-107810829D01*
X93616161Y-107760906D01*
X93707155Y-107723215D01*
X93803754Y-107704000D01*
X93902246Y-107704000D01*
X93998845Y-107723215D01*
X93998845Y-107723215D01*
G37*
G36*
X157897456Y-105032251D02*
X158215936Y-105164170D01*
X158502560Y-105355686D01*
X158746314Y-105599440D01*
X158937830Y-105886064D01*
X159069749Y-106204544D01*
X159137000Y-106542640D01*
X159137000Y-106887360D01*
X159069749Y-107225456D01*
X158937830Y-107543936D01*
X158746314Y-107830560D01*
X158502560Y-108074314D01*
X158215936Y-108265830D01*
X157897456Y-108397749D01*
X157559360Y-108465000D01*
X157214640Y-108465000D01*
X156876544Y-108397749D01*
X156558064Y-108265830D01*
X156271440Y-108074314D01*
X156027686Y-107830560D01*
X155836170Y-107543936D01*
X155704251Y-107225456D01*
X155637000Y-106887360D01*
X155637000Y-106542640D01*
X155704251Y-106204544D01*
X155836170Y-105886064D01*
X156027686Y-105599440D01*
X156271440Y-105355686D01*
X156558064Y-105164170D01*
X156876544Y-105032251D01*
X157214640Y-104965000D01*
X157559360Y-104965000D01*
X157897456Y-105032251D01*
X157897456Y-105032251D01*
G37*
G36*
X171037456Y-105032251D02*
X171355936Y-105164170D01*
X171642560Y-105355686D01*
X171886314Y-105599440D01*
X172077830Y-105886064D01*
X172209749Y-106204544D01*
X172277000Y-106542640D01*
X172277000Y-106887360D01*
X172209749Y-107225456D01*
X172077830Y-107543936D01*
X171886314Y-107830560D01*
X171642560Y-108074314D01*
X171355936Y-108265830D01*
X171037456Y-108397749D01*
X170699360Y-108465000D01*
X170354640Y-108465000D01*
X170016544Y-108397749D01*
X169698064Y-108265830D01*
X169411440Y-108074314D01*
X169167686Y-107830560D01*
X168976170Y-107543936D01*
X168844251Y-107225456D01*
X168777000Y-106887360D01*
X168777000Y-106542640D01*
X168844251Y-106204544D01*
X168976170Y-105886064D01*
X169167686Y-105599440D01*
X169411440Y-105355686D01*
X169698064Y-105164170D01*
X170016544Y-105032251D01*
X170354640Y-104965000D01*
X170699360Y-104965000D01*
X171037456Y-105032251D01*
X171037456Y-105032251D01*
G37*
G36*
X161746590Y-107322045D02*
X161817429Y-107336136D01*
X161917523Y-107377597D01*
X162007607Y-107437789D01*
X162084211Y-107514393D01*
X162084213Y-107514396D01*
X162144403Y-107604477D01*
X162185864Y-107704571D01*
X162207000Y-107810830D01*
X162207000Y-107919170D01*
X162185864Y-108025429D01*
X162144403Y-108125523D01*
X162084211Y-108215607D01*
X162007607Y-108292211D01*
X162007604Y-108292213D01*
X161917523Y-108352403D01*
X161817429Y-108393864D01*
X161746590Y-108407955D01*
X161711171Y-108415000D01*
X161602829Y-108415000D01*
X161567410Y-108407955D01*
X161496571Y-108393864D01*
X161396477Y-108352403D01*
X161306396Y-108292213D01*
X161306393Y-108292211D01*
X161229789Y-108215607D01*
X161169597Y-108125523D01*
X161128136Y-108025429D01*
X161107000Y-107919170D01*
X161107000Y-107810830D01*
X161128136Y-107704571D01*
X161169597Y-107604477D01*
X161229787Y-107514396D01*
X161229789Y-107514393D01*
X161306393Y-107437789D01*
X161396477Y-107377597D01*
X161496571Y-107336136D01*
X161567410Y-107322045D01*
X161602829Y-107315000D01*
X161711171Y-107315000D01*
X161746590Y-107322045D01*
X161746590Y-107322045D01*
G37*
G36*
X166346590Y-107322045D02*
X166417429Y-107336136D01*
X166517523Y-107377597D01*
X166607607Y-107437789D01*
X166684211Y-107514393D01*
X166684213Y-107514396D01*
X166744403Y-107604477D01*
X166785864Y-107704571D01*
X166807000Y-107810830D01*
X166807000Y-107919170D01*
X166785864Y-108025429D01*
X166744403Y-108125523D01*
X166684211Y-108215607D01*
X166607607Y-108292211D01*
X166607604Y-108292213D01*
X166517523Y-108352403D01*
X166417429Y-108393864D01*
X166346590Y-108407955D01*
X166311171Y-108415000D01*
X166202829Y-108415000D01*
X166167410Y-108407955D01*
X166096571Y-108393864D01*
X165996477Y-108352403D01*
X165906396Y-108292213D01*
X165906393Y-108292211D01*
X165829789Y-108215607D01*
X165769597Y-108125523D01*
X165728136Y-108025429D01*
X165707000Y-107919170D01*
X165707000Y-107810830D01*
X165728136Y-107704571D01*
X165769597Y-107604477D01*
X165829787Y-107514396D01*
X165829789Y-107514393D01*
X165906393Y-107437789D01*
X165996477Y-107377597D01*
X166096571Y-107336136D01*
X166167410Y-107322045D01*
X166202829Y-107315000D01*
X166311171Y-107315000D01*
X166346590Y-107322045D01*
X166346590Y-107322045D01*
G37*
G36*
X126574345Y-106326215D02*
X126665339Y-106363906D01*
X126746140Y-106417896D01*
X126747234Y-106418627D01*
X126816873Y-106488266D01*
X126871595Y-106570163D01*
X126909285Y-106661155D01*
X126928500Y-106757755D01*
X126928500Y-106856245D01*
X126909285Y-106952845D01*
X126871595Y-107043837D01*
X126816873Y-107125734D01*
X126747234Y-107195373D01*
X126747231Y-107195375D01*
X126665339Y-107250094D01*
X126574345Y-107287785D01*
X126477746Y-107307000D01*
X126379254Y-107307000D01*
X126282655Y-107287785D01*
X126191661Y-107250094D01*
X126109769Y-107195375D01*
X126109766Y-107195373D01*
X126040127Y-107125734D01*
X125985405Y-107043837D01*
X125947715Y-106952845D01*
X125928500Y-106856245D01*
X125928500Y-106757755D01*
X125947715Y-106661155D01*
X125985405Y-106570163D01*
X126040127Y-106488266D01*
X126109766Y-106418627D01*
X126110860Y-106417896D01*
X126191661Y-106363906D01*
X126282655Y-106326215D01*
X126379254Y-106307000D01*
X126477746Y-106307000D01*
X126574345Y-106326215D01*
X126574345Y-106326215D01*
G37*
G36*
X95522845Y-105373715D02*
X95613839Y-105411406D01*
X95666034Y-105446282D01*
X95695734Y-105466127D01*
X95765373Y-105535766D01*
X95765375Y-105535769D01*
X95820094Y-105617661D01*
X95857785Y-105708655D01*
X95877000Y-105805254D01*
X95877000Y-105903746D01*
X95857785Y-106000345D01*
X95820094Y-106091339D01*
X95766104Y-106172140D01*
X95765373Y-106173234D01*
X95695734Y-106242873D01*
X95695731Y-106242875D01*
X95613839Y-106297594D01*
X95522845Y-106335285D01*
X95426246Y-106354500D01*
X95327754Y-106354500D01*
X95231155Y-106335285D01*
X95140161Y-106297594D01*
X95058269Y-106242875D01*
X95058266Y-106242873D01*
X94988627Y-106173234D01*
X94987896Y-106172140D01*
X94933906Y-106091339D01*
X94896215Y-106000345D01*
X94877000Y-105903746D01*
X94877000Y-105805254D01*
X94896215Y-105708655D01*
X94933906Y-105617661D01*
X94988625Y-105535769D01*
X94988627Y-105535766D01*
X95058266Y-105466127D01*
X95087966Y-105446282D01*
X95140161Y-105411406D01*
X95231155Y-105373715D01*
X95327754Y-105354500D01*
X95426246Y-105354500D01*
X95522845Y-105373715D01*
X95522845Y-105373715D01*
G37*
G36*
X98380345Y-105119715D02*
X98440795Y-105144754D01*
X98471339Y-105157406D01*
X98552140Y-105211396D01*
X98553234Y-105212127D01*
X98622873Y-105281766D01*
X98622875Y-105281769D01*
X98671473Y-105354500D01*
X98677595Y-105363663D01*
X98693475Y-105402000D01*
X98715285Y-105454655D01*
X98734500Y-105551254D01*
X98734500Y-105649746D01*
X98715285Y-105746345D01*
X98677594Y-105837339D01*
X98633222Y-105903746D01*
X98622873Y-105919234D01*
X98553234Y-105988873D01*
X98553231Y-105988875D01*
X98471339Y-106043594D01*
X98380345Y-106081285D01*
X98283746Y-106100500D01*
X98185254Y-106100500D01*
X98088655Y-106081285D01*
X97997661Y-106043594D01*
X97915769Y-105988875D01*
X97915766Y-105988873D01*
X97846127Y-105919234D01*
X97835778Y-105903746D01*
X97791406Y-105837339D01*
X97753715Y-105746345D01*
X97734500Y-105649746D01*
X97734500Y-105551254D01*
X97753715Y-105454655D01*
X97775525Y-105402000D01*
X97791405Y-105363663D01*
X97797528Y-105354500D01*
X97846125Y-105281769D01*
X97846127Y-105281766D01*
X97915766Y-105212127D01*
X97916860Y-105211396D01*
X97997661Y-105157406D01*
X98028206Y-105144754D01*
X98088655Y-105119715D01*
X98185254Y-105100500D01*
X98283746Y-105100500D01*
X98380345Y-105119715D01*
X98380345Y-105119715D01*
G37*
G36*
X123653345Y-104738715D02*
X123744339Y-104776406D01*
X123825140Y-104830396D01*
X123826234Y-104831127D01*
X123895873Y-104900766D01*
X123895875Y-104900769D01*
X123950594Y-104982661D01*
X123988285Y-105073655D01*
X124007500Y-105170254D01*
X124007500Y-105268746D01*
X124003198Y-105290373D01*
X123988285Y-105365345D01*
X123950595Y-105456337D01*
X123895873Y-105538234D01*
X123826234Y-105607873D01*
X123826231Y-105607875D01*
X123744339Y-105662594D01*
X123653345Y-105700285D01*
X123556746Y-105719500D01*
X123458254Y-105719500D01*
X123361655Y-105700285D01*
X123270661Y-105662594D01*
X123188769Y-105607875D01*
X123188766Y-105607873D01*
X123119127Y-105538234D01*
X123064405Y-105456337D01*
X123026715Y-105365345D01*
X123011802Y-105290373D01*
X123007500Y-105268746D01*
X123007500Y-105170254D01*
X123026715Y-105073655D01*
X123064406Y-104982661D01*
X123119125Y-104900769D01*
X123119127Y-104900766D01*
X123188766Y-104831127D01*
X123189860Y-104830396D01*
X123270661Y-104776406D01*
X123361655Y-104738715D01*
X123458254Y-104719500D01*
X123556746Y-104719500D01*
X123653345Y-104738715D01*
X123653345Y-104738715D01*
G37*
G36*
X177945361Y-97676859D02*
X178331757Y-97753718D01*
X179059710Y-98055246D01*
X179473125Y-98331481D01*
X179714854Y-98492999D01*
X180272001Y-99050146D01*
X180272003Y-99050149D01*
X180709754Y-99705290D01*
X180709754Y-99705291D01*
X181011282Y-100433244D01*
X181165000Y-101206033D01*
X181165000Y-101993967D01*
X181011282Y-102766757D01*
X180709754Y-103494710D01*
X180466487Y-103858785D01*
X180272001Y-104149854D01*
X179714854Y-104707001D01*
X179714851Y-104707003D01*
X179059710Y-105144754D01*
X178331757Y-105446282D01*
X177945361Y-105523141D01*
X177558967Y-105600000D01*
X176771033Y-105600000D01*
X176384639Y-105523141D01*
X175998243Y-105446282D01*
X175270290Y-105144754D01*
X174615149Y-104707003D01*
X174615146Y-104707001D01*
X174057999Y-104149854D01*
X173863513Y-103858785D01*
X173620246Y-103494710D01*
X173318718Y-102766757D01*
X173165000Y-101993967D01*
X173165000Y-101206033D01*
X173318718Y-100433244D01*
X173620246Y-99705291D01*
X173620246Y-99705290D01*
X174057997Y-99050149D01*
X174057999Y-99050146D01*
X174615146Y-98492999D01*
X174856875Y-98331481D01*
X175270290Y-98055246D01*
X175998243Y-97753718D01*
X176771033Y-97600000D01*
X177558967Y-97600000D01*
X177945361Y-97676859D01*
X177945361Y-97676859D01*
G37*
G36*
X72535361Y-97676859D02*
X72921757Y-97753718D01*
X73649710Y-98055246D01*
X74063125Y-98331481D01*
X74304854Y-98492999D01*
X74862001Y-99050146D01*
X74862003Y-99050149D01*
X75299754Y-99705290D01*
X75299754Y-99705291D01*
X75601282Y-100433244D01*
X75755000Y-101206033D01*
X75755000Y-101993967D01*
X75678141Y-102380361D01*
X75601282Y-102766757D01*
X75299754Y-103494710D01*
X75056487Y-103858785D01*
X74862001Y-104149854D01*
X74304854Y-104707001D01*
X74304851Y-104707003D01*
X73649710Y-105144754D01*
X72921757Y-105446282D01*
X72535361Y-105523141D01*
X72148967Y-105600000D01*
X71361033Y-105600000D01*
X70974639Y-105523141D01*
X70588243Y-105446282D01*
X69860290Y-105144754D01*
X69205149Y-104707003D01*
X69205146Y-104707001D01*
X68647999Y-104149854D01*
X68453513Y-103858785D01*
X68210246Y-103494710D01*
X67908718Y-102766757D01*
X67831859Y-102380361D01*
X67755000Y-101993967D01*
X67755000Y-101206033D01*
X67908718Y-100433244D01*
X68210246Y-99705291D01*
X68210246Y-99705290D01*
X68647997Y-99050149D01*
X68647999Y-99050146D01*
X69205146Y-98492999D01*
X69446875Y-98331481D01*
X69860290Y-98055246D01*
X70588243Y-97753718D01*
X71361033Y-97600000D01*
X72148967Y-97600000D01*
X72535361Y-97676859D01*
X72535361Y-97676859D01*
G37*
G36*
X161753345Y-104421215D02*
X161844339Y-104458906D01*
X161925140Y-104512896D01*
X161926234Y-104513627D01*
X161995873Y-104583266D01*
X162050595Y-104665163D01*
X162088285Y-104756155D01*
X162107500Y-104852755D01*
X162107500Y-104951245D01*
X162088285Y-105047845D01*
X162058516Y-105119715D01*
X162050594Y-105138839D01*
X162038188Y-105157405D01*
X161995873Y-105220734D01*
X161926234Y-105290373D01*
X161926231Y-105290375D01*
X161844339Y-105345094D01*
X161844338Y-105345095D01*
X161844337Y-105345095D01*
X161799510Y-105363663D01*
X161753345Y-105382785D01*
X161656746Y-105402000D01*
X161558254Y-105402000D01*
X161461655Y-105382785D01*
X161415490Y-105363663D01*
X161370663Y-105345095D01*
X161370662Y-105345095D01*
X161370661Y-105345094D01*
X161288769Y-105290375D01*
X161288766Y-105290373D01*
X161219127Y-105220734D01*
X161176812Y-105157405D01*
X161164406Y-105138839D01*
X161156485Y-105119715D01*
X161126715Y-105047845D01*
X161107500Y-104951245D01*
X161107500Y-104852755D01*
X161126715Y-104756155D01*
X161164405Y-104665163D01*
X161219127Y-104583266D01*
X161288766Y-104513627D01*
X161289860Y-104512896D01*
X161370661Y-104458906D01*
X161461655Y-104421215D01*
X161558254Y-104402000D01*
X161656746Y-104402000D01*
X161753345Y-104421215D01*
X161753345Y-104421215D01*
G37*
G36*
X96602345Y-102897215D02*
X96693339Y-102934906D01*
X96774140Y-102988896D01*
X96775234Y-102989627D01*
X96844873Y-103059266D01*
X96899595Y-103141163D01*
X96937285Y-103232155D01*
X96956500Y-103328755D01*
X96956500Y-103427245D01*
X96937285Y-103523845D01*
X96899595Y-103614837D01*
X96844873Y-103696734D01*
X96775234Y-103766373D01*
X96775231Y-103766375D01*
X96693339Y-103821094D01*
X96602345Y-103858785D01*
X96505746Y-103878000D01*
X96407254Y-103878000D01*
X96310655Y-103858785D01*
X96219661Y-103821094D01*
X96137769Y-103766375D01*
X96137766Y-103766373D01*
X96068127Y-103696734D01*
X96013405Y-103614837D01*
X95975715Y-103523845D01*
X95956500Y-103427245D01*
X95956500Y-103328755D01*
X95975715Y-103232155D01*
X96013405Y-103141163D01*
X96068127Y-103059266D01*
X96137766Y-102989627D01*
X96138860Y-102988896D01*
X96219661Y-102934906D01*
X96310655Y-102897215D01*
X96407254Y-102878000D01*
X96505746Y-102878000D01*
X96602345Y-102897215D01*
X96602345Y-102897215D01*
G37*
G36*
X84981845Y-102897215D02*
X85072839Y-102934906D01*
X85153640Y-102988896D01*
X85154734Y-102989627D01*
X85224373Y-103059266D01*
X85279095Y-103141163D01*
X85316785Y-103232155D01*
X85336000Y-103328755D01*
X85336000Y-103427245D01*
X85316785Y-103523845D01*
X85279095Y-103614837D01*
X85224373Y-103696734D01*
X85154734Y-103766373D01*
X85154731Y-103766375D01*
X85072839Y-103821094D01*
X84981845Y-103858785D01*
X84885246Y-103878000D01*
X84786754Y-103878000D01*
X84690155Y-103858785D01*
X84599161Y-103821094D01*
X84517269Y-103766375D01*
X84517266Y-103766373D01*
X84447627Y-103696734D01*
X84392905Y-103614837D01*
X84355215Y-103523845D01*
X84336000Y-103427245D01*
X84336000Y-103328755D01*
X84355215Y-103232155D01*
X84392905Y-103141163D01*
X84447627Y-103059266D01*
X84517266Y-102989627D01*
X84518360Y-102988896D01*
X84599161Y-102934906D01*
X84690155Y-102897215D01*
X84786754Y-102878000D01*
X84885246Y-102878000D01*
X84981845Y-102897215D01*
X84981845Y-102897215D01*
G37*
G36*
X160673845Y-101055715D02*
X160764839Y-101093406D01*
X160845640Y-101147396D01*
X160846734Y-101148127D01*
X160916373Y-101217766D01*
X160971095Y-101299663D01*
X161008785Y-101390655D01*
X161028000Y-101487255D01*
X161028000Y-101585745D01*
X161008785Y-101682345D01*
X160971095Y-101773337D01*
X160916373Y-101855234D01*
X160846734Y-101924873D01*
X160846731Y-101924875D01*
X160764839Y-101979594D01*
X160673845Y-102017285D01*
X160577246Y-102036500D01*
X160478754Y-102036500D01*
X160382155Y-102017285D01*
X160291161Y-101979594D01*
X160209269Y-101924875D01*
X160209266Y-101924873D01*
X160139627Y-101855234D01*
X160084905Y-101773337D01*
X160047215Y-101682345D01*
X160028000Y-101585745D01*
X160028000Y-101487255D01*
X160047215Y-101390655D01*
X160084905Y-101299663D01*
X160139627Y-101217766D01*
X160209266Y-101148127D01*
X160210360Y-101147396D01*
X160291161Y-101093406D01*
X160382155Y-101055715D01*
X160478754Y-101036500D01*
X160577246Y-101036500D01*
X160673845Y-101055715D01*
X160673845Y-101055715D01*
G37*
G36*
X102274630Y-97968299D02*
X102434855Y-98016903D01*
X102582520Y-98095831D01*
X102711949Y-98202051D01*
X102818169Y-98331480D01*
X102897097Y-98479145D01*
X102945701Y-98639370D01*
X102962112Y-98806000D01*
X102945701Y-98972630D01*
X102897097Y-99132855D01*
X102818169Y-99280520D01*
X102711949Y-99409949D01*
X102582520Y-99516169D01*
X102434855Y-99595097D01*
X102274630Y-99643701D01*
X102149752Y-99656000D01*
X102066248Y-99656000D01*
X101941370Y-99643701D01*
X101781145Y-99595097D01*
X101633480Y-99516169D01*
X101504051Y-99409949D01*
X101397831Y-99280520D01*
X101318903Y-99132855D01*
X101270299Y-98972630D01*
X101253888Y-98806000D01*
X101270299Y-98639370D01*
X101318903Y-98479145D01*
X101397831Y-98331480D01*
X101504051Y-98202051D01*
X101633480Y-98095831D01*
X101781145Y-98016903D01*
X101941370Y-97968299D01*
X102066248Y-97956000D01*
X102149752Y-97956000D01*
X102274630Y-97968299D01*
X102274630Y-97968299D01*
G37*
G36*
X112434630Y-97968299D02*
X112594855Y-98016903D01*
X112742520Y-98095831D01*
X112871949Y-98202051D01*
X112978169Y-98331480D01*
X113057097Y-98479145D01*
X113105701Y-98639370D01*
X113122112Y-98806000D01*
X113105701Y-98972630D01*
X113057097Y-99132855D01*
X112978169Y-99280520D01*
X112871949Y-99409949D01*
X112742520Y-99516169D01*
X112594855Y-99595097D01*
X112434630Y-99643701D01*
X112309752Y-99656000D01*
X112226248Y-99656000D01*
X112101370Y-99643701D01*
X111941145Y-99595097D01*
X111793480Y-99516169D01*
X111664051Y-99409949D01*
X111557831Y-99280520D01*
X111478903Y-99132855D01*
X111430299Y-98972630D01*
X111413888Y-98806000D01*
X111430299Y-98639370D01*
X111478903Y-98479145D01*
X111557831Y-98331480D01*
X111664051Y-98202051D01*
X111793480Y-98095831D01*
X111941145Y-98016903D01*
X112101370Y-97968299D01*
X112226248Y-97956000D01*
X112309752Y-97956000D01*
X112434630Y-97968299D01*
X112434630Y-97968299D01*
G37*
G36*
X109894630Y-97968299D02*
X110054855Y-98016903D01*
X110202520Y-98095831D01*
X110331949Y-98202051D01*
X110438169Y-98331480D01*
X110517097Y-98479145D01*
X110565701Y-98639370D01*
X110582112Y-98806000D01*
X110565701Y-98972630D01*
X110517097Y-99132855D01*
X110438169Y-99280520D01*
X110331949Y-99409949D01*
X110202520Y-99516169D01*
X110054855Y-99595097D01*
X109894630Y-99643701D01*
X109769752Y-99656000D01*
X109686248Y-99656000D01*
X109561370Y-99643701D01*
X109401145Y-99595097D01*
X109253480Y-99516169D01*
X109124051Y-99409949D01*
X109017831Y-99280520D01*
X108938903Y-99132855D01*
X108890299Y-98972630D01*
X108873888Y-98806000D01*
X108890299Y-98639370D01*
X108938903Y-98479145D01*
X109017831Y-98331480D01*
X109124051Y-98202051D01*
X109253480Y-98095831D01*
X109401145Y-98016903D01*
X109561370Y-97968299D01*
X109686248Y-97956000D01*
X109769752Y-97956000D01*
X109894630Y-97968299D01*
X109894630Y-97968299D01*
G37*
G36*
X107354630Y-97968299D02*
X107514855Y-98016903D01*
X107662520Y-98095831D01*
X107791949Y-98202051D01*
X107898169Y-98331480D01*
X107977097Y-98479145D01*
X108025701Y-98639370D01*
X108042112Y-98806000D01*
X108025701Y-98972630D01*
X107977097Y-99132855D01*
X107898169Y-99280520D01*
X107791949Y-99409949D01*
X107662520Y-99516169D01*
X107514855Y-99595097D01*
X107354630Y-99643701D01*
X107229752Y-99656000D01*
X107146248Y-99656000D01*
X107021370Y-99643701D01*
X106861145Y-99595097D01*
X106713480Y-99516169D01*
X106584051Y-99409949D01*
X106477831Y-99280520D01*
X106398903Y-99132855D01*
X106350299Y-98972630D01*
X106333888Y-98806000D01*
X106350299Y-98639370D01*
X106398903Y-98479145D01*
X106477831Y-98331480D01*
X106584051Y-98202051D01*
X106713480Y-98095831D01*
X106861145Y-98016903D01*
X107021370Y-97968299D01*
X107146248Y-97956000D01*
X107229752Y-97956000D01*
X107354630Y-97968299D01*
X107354630Y-97968299D01*
G37*
G36*
X104814630Y-97968299D02*
X104974855Y-98016903D01*
X105122520Y-98095831D01*
X105251949Y-98202051D01*
X105358169Y-98331480D01*
X105437097Y-98479145D01*
X105485701Y-98639370D01*
X105502112Y-98806000D01*
X105485701Y-98972630D01*
X105437097Y-99132855D01*
X105358169Y-99280520D01*
X105251949Y-99409949D01*
X105122520Y-99516169D01*
X104974855Y-99595097D01*
X104814630Y-99643701D01*
X104689752Y-99656000D01*
X104606248Y-99656000D01*
X104481370Y-99643701D01*
X104321145Y-99595097D01*
X104173480Y-99516169D01*
X104044051Y-99409949D01*
X103937831Y-99280520D01*
X103858903Y-99132855D01*
X103810299Y-98972630D01*
X103793888Y-98806000D01*
X103810299Y-98639370D01*
X103858903Y-98479145D01*
X103937831Y-98331480D01*
X104044051Y-98202051D01*
X104173480Y-98095831D01*
X104321145Y-98016903D01*
X104481370Y-97968299D01*
X104606248Y-97956000D01*
X104689752Y-97956000D01*
X104814630Y-97968299D01*
X104814630Y-97968299D01*
G37*
G36*
X100418000Y-99656000D02*
X98718000Y-99656000D01*
X98718000Y-97956000D01*
X100418000Y-97956000D01*
X100418000Y-99656000D01*
X100418000Y-99656000D01*
G37*
M02*
