M48
;DRILL file {KiCad (5.0.1)-3} date 1/4/2019 11:12:08 PM
;FORMAT={2:4/ absolute / inch / suppress leading zeros}
FMAT,2
INCH,TZ
T1C0.0100
T2C0.0394
T3C0.0472
T4C0.0591
T5C0.0906
T6C0.1575
%
G90
G05
M72
T1
X30700Y-46750
X30975Y-39800
X30975Y-42200
X31425Y-39800
X31425Y-42225
X31525Y-52375
X31550Y-50850
X31600Y-46200
X31624Y-51779
X31725Y-48600
X31825Y-39800
X32225Y-39800
X32281Y-45519
X32356Y-50760
X32450Y-46450
X32450Y-48500
X32625Y-42225
X32650Y-52150
X32800Y-39800
X32800Y-44800
X32800Y-50000
X32800Y-50800
X32800Y-52475
X32900Y-48800
X33000Y-42200
X33200Y-46450
X33250Y-46850
X33600Y-39800
X33700Y-50800
X33800Y-42150
X33850Y-51300
X33869Y-52778
X33887Y-47025
X33900Y-45268
X33900Y-46000
X34200Y-42150
X34250Y-48956
X34250Y-49350
X34350Y-51350
X34375Y-44000
X34444Y-50360
X34485Y-46000
X34500Y-52100
X34600Y-39775
X34700Y-50200
X34800Y-47025
X35250Y-53150
X35350Y-41450
X35400Y-49300
X35400Y-50350
X35425Y-40225
X35450Y-44500
X35500Y-44900
X35650Y-47350
X35700Y-51300
X35800Y-39800
X36013Y-47000
X36300Y-48300
X36500Y-44125
X36500Y-46775
X36750Y-51850
X36800Y-47500
X36800Y-52600
X36900Y-41100
X36948Y-50000
X37000Y-50300
X37100Y-52800
X37300Y-38700
X37300Y-39200
X37350Y-45675
X37400Y-48050
X37488Y-43276
X37500Y-42850
X37500Y-44300
X37500Y-44600
X37500Y-49800
X37550Y-45400
X37600Y-50100
X37600Y-52900
X37700Y-45000
X37800Y-39400
X37800Y-41100
X37825Y-48050
X37900Y-42600
X37900Y-43550
X38000Y-42075
X38000Y-44125
X38100Y-46000
X38100Y-47300
X38100Y-48700
X38124Y-44476
X38300Y-42600
X38425Y-50750
X38500Y-39100
X38500Y-40800
X38675Y-42075
X38800Y-48150
X38900Y-49700
X39100Y-45700
X39141Y-43880
X39141Y-44130
X39198Y-46296
X39300Y-40850
X39343Y-46500
X39400Y-49100
X39425Y-45075
X39500Y-41400
X39600Y-50550
X39616Y-44225
X39641Y-43600
X39641Y-43900
X39699Y-45608
X39800Y-41400
X39800Y-47200
X39865Y-43788
X40075Y-46050
X40100Y-47125
X40100Y-50600
X40416Y-46216
X40450Y-43000
X40500Y-47125
X40600Y-46400
X40600Y-51650
X40641Y-43200
X40680Y-48740
X40700Y-46775
X40775Y-43800
X40800Y-49400
X40900Y-47000
X40941Y-43600
X41100Y-50525
X41124Y-47125
X41141Y-43880
X41200Y-48800
X41399Y-46600
X41440Y-47152
X41650Y-51450
X41700Y-40000
X41700Y-40500
X41700Y-41400
X41700Y-41800
X41741Y-47200
X41875Y-48250
X41925Y-51300
X42000Y-49000
X42100Y-52700
X42195Y-42825
X42200Y-39500
X42210Y-46000
X42300Y-48650
X42389Y-46195
X42500Y-49000
X42578Y-50700
X42700Y-42900
X42700Y-48650
X42714Y-43862
X42873Y-44055
X42900Y-45600
X42900Y-46600
X43000Y-44270
X43000Y-52400
X43074Y-45826
X43100Y-48600
X43106Y-42906
X43176Y-45125
X43188Y-45476
X43188Y-45476
X43200Y-39525
X43200Y-44734
X43277Y-43463
X43350Y-41000
X43400Y-44900
X43400Y-45300
X43400Y-46475
X43400Y-43690
X43450Y-52750
X43516Y-48500
X43600Y-50300
X43750Y-40850
X43850Y-52050
X44000Y-49200
X44200Y-48900
X44241Y-47709
X44375Y-44525
X44400Y-41300
X44600Y-39900
X44600Y-40900
X44600Y-48300
X44700Y-46250
X44850Y-42900
X44900Y-45900
X44900Y-47200
X45241Y-44700
X45250Y-46411
X45400Y-39500
X45400Y-40700
X45400Y-48000
X45600Y-40100
X46000Y-44330
X46400Y-40800
X46600Y-39200
X46676Y-45976
X46700Y-40800
X46700Y-44150
X46700Y-44400
X46700Y-44650
X46700Y-44900
X46700Y-45200
X46700Y-45450
X46700Y-45700
X46800Y-43300
X47200Y-39800
X47200Y-40200
X47200Y-41151
X47200Y-41449
X47200Y-41700
X47200Y-41950
X47200Y-42200
X47200Y-42700
X47200Y-42700
X47275Y-44150
X47275Y-44400
X47275Y-44650
X47275Y-44900
X47275Y-45200
X47275Y-45450
X47275Y-45700
X47275Y-46000
X48100Y-42950
X48100Y-43918
X49100Y-45500
X49600Y-44175
X49663Y-42963
X49941Y-46200
X49941Y-46600
X49941Y-46900
X49957Y-44175
X50100Y-43800
X50100Y-45500
X50111Y-43011
X51000Y-48500
X51300Y-44600
X51300Y-44850
X51300Y-45100
X51300Y-45400
X51300Y-45700
X51300Y-46000
X51552Y-51562
X51946Y-51562
X52075Y-46850
X52075Y-47100
X52075Y-47350
X52075Y-47600
X52075Y-47850
X52075Y-48100
X52075Y-48350
X52075Y-48600
X52075Y-48850
X52075Y-49100
X52075Y-49350
X52075Y-49600
X52075Y-49850
X52075Y-50100
X52075Y-50350
X52075Y-50600
X52076Y-45624
X52340Y-51562
X52400Y-46300
X52733Y-51562
X52800Y-45900
X53000Y-53150
X53050Y-45900
X53127Y-51562
X53200Y-55400
X53300Y-45900
X53400Y-54000
X53521Y-51562
X53550Y-45900
X53700Y-53875
X53700Y-53875
X53800Y-45900
X53914Y-51562
X54050Y-45900
X54300Y-45900
X54308Y-51562
X54550Y-45900
X54702Y-51562
X54800Y-45900
X55050Y-45900
X55095Y-51562
X55200Y-50000
X55300Y-45900
X55489Y-51562
X55550Y-45900
X55750Y-46900
X55800Y-45900
X55883Y-51562
X56037Y-46581
X56277Y-51562
X56463Y-48482
X56600Y-46875
X56670Y-51562
X56811Y-48839
X56825Y-47839
X57064Y-51562
X57458Y-51562
X57505Y-46450
X57513Y-47826
X57775Y-46130
X57851Y-51562
X58245Y-51562
X58314Y-47039
X58525Y-47600
X58639Y-51562
X58675Y-46925
X58741Y-46625
X58864Y-49178
X58900Y-53627
X59000Y-46875
X59032Y-51562
X59426Y-51562
X59500Y-47300
X59700Y-47600
X59820Y-51562
X60214Y-51562
X60300Y-53650
X60607Y-51562
X61001Y-51562
X61395Y-51562
X61500Y-39700
X61500Y-41000
X61500Y-43500
X61500Y-45100
X61525Y-48800
X61600Y-44100
X61788Y-51562
X62167Y-44492
X62182Y-51562
X62300Y-49400
X62500Y-48100
X62576Y-51562
X62600Y-49400
X62750Y-40000
X62850Y-52150
X62900Y-44400
X63000Y-51950
X63125Y-50825
X63200Y-42800
X63200Y-52131
X63250Y-42200
X63350Y-52400
X63401Y-44400
X63500Y-48775
X63500Y-50000
X63700Y-45100
X63700Y-50600
X64050Y-46750
X64400Y-47100
X64900Y-46800
X64900Y-47100
X65100Y-46100
X65200Y-47100
X65200Y-48650
X65500Y-47000
X65900Y-49400
X65950Y-48650
X66400Y-45800
X66500Y-42800
X66500Y-45500
X66900Y-52600
X67075Y-47600
X67075Y-48150
X67100Y-55500
X67350Y-46800
T2
X39200Y-38900
X40200Y-38900
X41200Y-38900
X42200Y-38900
X43200Y-38900
X44200Y-38900
X31000Y-44250
X31000Y-45250
X31000Y-46250
X31000Y-47250
X31000Y-49000
X31000Y-50000
X31000Y-51000
X31000Y-52000
T3
X31250Y-54250
X32628Y-54250
X34006Y-54250
X35384Y-54250
X36762Y-54250
X38140Y-54250
X39518Y-54250
X40896Y-54250
X42274Y-54250
X43652Y-54250
X45030Y-54250
X46407Y-54250
X47785Y-54250
X49163Y-54250
X50541Y-54250
T4
X47100Y-48400
X47350Y-52900
X48300Y-49400
X49150Y-53150
X50550Y-53150
X65300Y-52600
X67100Y-50950
T5
X61963Y-42014
X67137Y-42014
T6
X69750Y-54000
X28250Y-40000
X28250Y-54000
X69750Y-40000
T0
M30
