G04 #@! TF.GenerationSoftware,KiCad,Pcbnew,(5.0.1)-3*
G04 #@! TF.CreationDate,2019-01-04T23:11:44-08:00*
G04 #@! TF.ProjectId,croptop,63726F70746F702E6B696361645F7063,rev?*
G04 #@! TF.SameCoordinates,Original*
G04 #@! TF.FileFunction,Copper,L4,Bot,Signal*
G04 #@! TF.FilePolarity,Positive*
%FSLAX46Y46*%
G04 Gerber Fmt 4.6, Leading zero omitted, Abs format (unit mm)*
G04 Created by KiCad (PCBNEW (5.0.1)-3) date 1/4/2019 11:11:44 PM*
%MOMM*%
%LPD*%
G01*
G04 APERTURE LIST*
G04 #@! TA.AperFunction,ComponentPad*
%ADD10C,3.500000*%
G04 #@! TD*
G04 #@! TA.AperFunction,ComponentPad*
%ADD11R,2.400000X2.400000*%
G04 #@! TD*
G04 #@! TA.AperFunction,ComponentPad*
%ADD12C,2.400000*%
G04 #@! TD*
G04 #@! TA.AperFunction,ComponentPad*
%ADD13R,1.700000X1.700000*%
G04 #@! TD*
G04 #@! TA.AperFunction,ComponentPad*
%ADD14O,1.700000X1.700000*%
G04 #@! TD*
G04 #@! TA.AperFunction,ComponentPad*
%ADD15C,8.000000*%
G04 #@! TD*
G04 #@! TA.AperFunction,BGAPad,CuDef*
%ADD16C,1.000000*%
G04 #@! TD*
G04 #@! TA.AperFunction,ViaPad*
%ADD17C,0.508000*%
G04 #@! TD*
G04 #@! TA.AperFunction,ViaPad*
%ADD18C,2.500000*%
G04 #@! TD*
G04 #@! TA.AperFunction,Conductor*
%ADD19C,0.127000*%
G04 #@! TD*
G04 #@! TA.AperFunction,Conductor*
%ADD20C,0.500000*%
G04 #@! TD*
G04 #@! TA.AperFunction,Conductor*
%ADD21C,0.200000*%
G04 #@! TD*
G04 #@! TA.AperFunction,Conductor*
%ADD22C,1.500000*%
G04 #@! TD*
G04 #@! TA.AperFunction,Conductor*
%ADD23C,0.250000*%
G04 #@! TD*
G04 APERTURE END LIST*
D10*
G04 #@! TO.P,J2,5*
G04 #@! TO.N,DRV_GND*
X157387000Y-106715000D03*
X170527000Y-106715000D03*
G04 #@! TD*
D11*
G04 #@! TO.P,J5,1*
G04 #@! TO.N,ADC_VDD*
X79375000Y-137795000D03*
D12*
G04 #@! TO.P,J5,2*
G04 #@! TO.N,ADC_GND*
X82875000Y-137795000D03*
G04 #@! TO.P,J5,3*
G04 #@! TO.N,ADC_A1+*
X86375000Y-137795000D03*
G04 #@! TO.P,J5,4*
G04 #@! TO.N,ADC_A1-*
X89875000Y-137795000D03*
G04 #@! TO.P,J5,5*
G04 #@! TO.N,DVDD*
X93375000Y-137795000D03*
G04 #@! TO.P,J5,6*
G04 #@! TO.N,DRV_GND*
X96875000Y-137795000D03*
G04 #@! TO.P,J5,7*
G04 #@! TO.N,LIN_IN*
X100375000Y-137795000D03*
G04 #@! TO.P,J5,8*
G04 #@! TO.N,ROT_VDD*
X103875000Y-137795000D03*
G04 #@! TO.P,J5,9*
G04 #@! TO.N,DRV_GND*
X107375000Y-137795000D03*
G04 #@! TO.P,J5,10*
G04 #@! TO.N,ROT_A1*
X110875000Y-137795000D03*
G04 #@! TO.P,J5,11*
G04 #@! TO.N,ROT_A2*
X114375000Y-137795000D03*
G04 #@! TO.P,J5,12*
G04 #@! TO.N,DRV_BAT*
X117875000Y-137795000D03*
G04 #@! TO.P,J5,13*
G04 #@! TO.N,DRV_GND*
X121375000Y-137795000D03*
G04 #@! TO.P,J5,14*
G04 #@! TO.N,DRV_OUT1*
X124875000Y-137795000D03*
G04 #@! TO.P,J5,15*
G04 #@! TO.N,DRV_OUT2*
X128375000Y-137795000D03*
G04 #@! TD*
D13*
G04 #@! TO.P,J1,1*
G04 #@! TO.N,PKT_MCLR*
X99568000Y-98806000D03*
D14*
G04 #@! TO.P,J1,2*
G04 #@! TO.N,DVDD*
X102108000Y-98806000D03*
G04 #@! TO.P,J1,3*
G04 #@! TO.N,DRV_GND*
X104648000Y-98806000D03*
G04 #@! TO.P,J1,4*
G04 #@! TO.N,PKT_PGED*
X107188000Y-98806000D03*
G04 #@! TO.P,J1,5*
G04 #@! TO.N,PKT_PGEC*
X109728000Y-98806000D03*
G04 #@! TO.P,J1,6*
G04 #@! TO.N,Net-(J1-Pad6)*
X112268000Y-98806000D03*
G04 #@! TD*
G04 #@! TO.P,J6,4*
G04 #@! TO.N,Net-(J6-Pad4)*
X78740000Y-132080000D03*
G04 #@! TO.P,J6,3*
G04 #@! TO.N,Net-(J6-Pad3)*
X78740000Y-129540000D03*
G04 #@! TO.P,J6,2*
G04 #@! TO.N,ADC_GND*
X78740000Y-127000000D03*
D13*
G04 #@! TO.P,J6,1*
G04 #@! TO.N,ADC_VDD*
X78740000Y-124460000D03*
G04 #@! TD*
G04 #@! TO.P,J7,1*
G04 #@! TO.N,ADC_VDD*
X78740000Y-112395000D03*
D14*
G04 #@! TO.P,J7,2*
G04 #@! TO.N,ADC_GND*
X78740000Y-114935000D03*
G04 #@! TO.P,J7,3*
G04 #@! TO.N,Net-(J7-Pad3)*
X78740000Y-117475000D03*
G04 #@! TO.P,J7,4*
G04 #@! TO.N,Net-(J7-Pad4)*
X78740000Y-120015000D03*
G04 #@! TD*
D15*
G04 #@! TO.P,H1,1*
G04 #@! TO.N,N/C*
X71755000Y-101600000D03*
G04 #@! TD*
G04 #@! TO.P,H2,1*
G04 #@! TO.N,N/C*
X177165000Y-101600000D03*
G04 #@! TD*
G04 #@! TO.P,H3,1*
G04 #@! TO.N,N/C*
X71755000Y-137160000D03*
G04 #@! TD*
G04 #@! TO.P,H4,1*
G04 #@! TO.N,N/C*
X177165000Y-137160000D03*
G04 #@! TD*
D16*
G04 #@! TO.P,TP1,1*
G04 #@! TO.N,DVDD*
X163385500Y-121729500D03*
G04 #@! TD*
G04 #@! TO.P,TP2,1*
G04 #@! TO.N,DRV_GND*
X164846000Y-124587000D03*
G04 #@! TD*
G04 #@! TO.P,TP3,1*
G04 #@! TO.N,ADC_VDD*
X82931000Y-134302500D03*
G04 #@! TD*
G04 #@! TO.P,TP5,1*
G04 #@! TO.N,DVDD_UNREG*
X168084500Y-130238500D03*
G04 #@! TD*
G04 #@! TO.P,TP6,1*
G04 #@! TO.N,LCD_ANODE*
X133794500Y-136525000D03*
G04 #@! TD*
G04 #@! TO.P,TP7,1*
G04 #@! TO.N,LCD_CATHODE*
X137287000Y-139319000D03*
G04 #@! TD*
G04 #@! TO.P,TP8,1*
G04 #@! TO.N,LCD_R0*
X130937000Y-131826000D03*
G04 #@! TD*
G04 #@! TO.P,TP9,1*
G04 #@! TO.N,LCD_R1*
X131953000Y-133540500D03*
G04 #@! TD*
G04 #@! TO.P,TP10,1*
G04 #@! TO.N,LCD_R2*
X132905500Y-131826000D03*
G04 #@! TD*
G04 #@! TO.P,TP11,1*
G04 #@! TO.N,LCD_R3*
X133921500Y-133540500D03*
G04 #@! TD*
G04 #@! TO.P,TP12,1*
G04 #@! TO.N,LCD_R4*
X134937500Y-131826000D03*
G04 #@! TD*
G04 #@! TO.P,TP13,1*
G04 #@! TO.N,LCD_R5*
X135953500Y-133540500D03*
G04 #@! TD*
G04 #@! TO.P,TP14,1*
G04 #@! TO.N,LCD_R6*
X136969500Y-131826000D03*
G04 #@! TD*
G04 #@! TO.P,TP15,1*
G04 #@! TO.N,LCD_R7*
X137985500Y-133477000D03*
G04 #@! TD*
G04 #@! TO.P,TP16,1*
G04 #@! TO.N,LCD_G0*
X138938000Y-131826000D03*
G04 #@! TD*
G04 #@! TO.P,TP17,1*
G04 #@! TO.N,LCD_G1*
X139954000Y-133477000D03*
G04 #@! TD*
G04 #@! TO.P,TP18,1*
G04 #@! TO.N,LCD_G2*
X140970000Y-131826000D03*
G04 #@! TD*
G04 #@! TO.P,TP19,1*
G04 #@! TO.N,LCD_G3*
X141922500Y-133477000D03*
G04 #@! TD*
G04 #@! TO.P,TP20,1*
G04 #@! TO.N,LCD_G4*
X142938500Y-131826000D03*
G04 #@! TD*
G04 #@! TO.P,TP21,1*
G04 #@! TO.N,LCD_G5*
X143954500Y-133477000D03*
G04 #@! TD*
G04 #@! TO.P,TP22,1*
G04 #@! TO.N,LCD_G6*
X144970500Y-131826000D03*
G04 #@! TD*
G04 #@! TO.P,TP23,1*
G04 #@! TO.N,LCD_G7*
X145923000Y-133477000D03*
G04 #@! TD*
G04 #@! TO.P,TP24,1*
G04 #@! TO.N,LCD_B0*
X146939000Y-131826000D03*
G04 #@! TD*
G04 #@! TO.P,TP25,1*
G04 #@! TO.N,LCD_B1*
X147955000Y-133540500D03*
G04 #@! TD*
G04 #@! TO.P,TP26,1*
G04 #@! TO.N,LCD_B2*
X148971000Y-131826000D03*
G04 #@! TD*
G04 #@! TO.P,TP27,1*
G04 #@! TO.N,LCD_B3*
X149923500Y-133540500D03*
G04 #@! TD*
G04 #@! TO.P,TP28,1*
G04 #@! TO.N,LCD_B4*
X150939500Y-131826000D03*
G04 #@! TD*
G04 #@! TO.P,TP29,1*
G04 #@! TO.N,LCD_B5*
X151955500Y-133604000D03*
G04 #@! TD*
G04 #@! TO.P,TP30,1*
G04 #@! TO.N,LCD_B6*
X152908000Y-131826000D03*
G04 #@! TD*
G04 #@! TO.P,TP31,1*
G04 #@! TO.N,LCD_B7*
X153924000Y-133604000D03*
G04 #@! TD*
G04 #@! TO.P,TP32,1*
G04 #@! TO.N,LCD_SHIFT*
X154813000Y-131826000D03*
G04 #@! TD*
G04 #@! TO.P,TP33,1*
G04 #@! TO.N,LCD_DISP*
X155575000Y-133604000D03*
G04 #@! TD*
G04 #@! TO.P,TP34,1*
G04 #@! TO.N,LCD_VSYNC*
X157480000Y-133223000D03*
G04 #@! TD*
G04 #@! TO.P,TP35,1*
G04 #@! TO.N,LCD_HSYNC*
X156464000Y-131826000D03*
G04 #@! TD*
G04 #@! TO.P,TP36,1*
G04 #@! TO.N,LCD_DEN*
X158750000Y-132080000D03*
G04 #@! TD*
G04 #@! TO.P,TP37,1*
G04 #@! TO.N,TCH_RIGHT*
X156845000Y-135890000D03*
G04 #@! TD*
G04 #@! TO.P,TP38,1*
G04 #@! TO.N,TCH_DOWN*
X158115000Y-136398000D03*
G04 #@! TD*
G04 #@! TO.P,TP39,1*
G04 #@! TO.N,TCH_LEFT*
X159385000Y-135890000D03*
G04 #@! TD*
G04 #@! TO.P,TP40,1*
G04 #@! TO.N,TCH_UP*
X160528000Y-135382000D03*
G04 #@! TD*
G04 #@! TO.P,TP41,1*
G04 #@! TO.N,SS2*
X130619500Y-117792500D03*
G04 #@! TD*
G04 #@! TO.P,TP42,1*
G04 #@! TO.N,SDO2*
X131445000Y-116586000D03*
G04 #@! TD*
G04 #@! TO.P,TP43,1*
G04 #@! TO.N,SDIO2*
X131445000Y-115252500D03*
G04 #@! TD*
G04 #@! TO.P,TP44,1*
G04 #@! TO.N,SCLK2*
X131381500Y-113982500D03*
G04 #@! TD*
G04 #@! TO.P,TP45,1*
G04 #@! TO.N,LCD_PD*
X105791000Y-123507500D03*
G04 #@! TD*
G04 #@! TO.P,TP46,1*
G04 #@! TO.N,LCD_INT*
X116586000Y-117919500D03*
G04 #@! TD*
G04 #@! TO.P,TP60,1*
G04 #@! TO.N,DRV_FLT*
X124841000Y-119126000D03*
G04 #@! TD*
G04 #@! TO.P,TP61,1*
G04 #@! TO.N,DRV_IN1*
X127381000Y-120713500D03*
G04 #@! TD*
G04 #@! TO.P,TP62,1*
G04 #@! TO.N,DRV_IN2*
X130302000Y-119189500D03*
G04 #@! TD*
G04 #@! TO.P,TP64,1*
G04 #@! TO.N,SCLK*
X94043500Y-112395000D03*
G04 #@! TD*
G04 #@! TO.P,TP65,1*
G04 #@! TO.N,MOSI*
X93599000Y-115824000D03*
G04 #@! TD*
G04 #@! TO.P,TP66,1*
G04 #@! TO.N,ADC_CS*
X89027000Y-113792000D03*
G04 #@! TD*
G04 #@! TO.P,TP68,1*
G04 #@! TO.N,LIN_IN*
X100139500Y-134302500D03*
G04 #@! TD*
G04 #@! TO.P,TP70,1*
G04 #@! TO.N,ADC_A1+*
X87566500Y-134302500D03*
G04 #@! TD*
G04 #@! TO.P,TP71,1*
G04 #@! TO.N,ADC_A1-*
X91821000Y-134239000D03*
G04 #@! TD*
G04 #@! TO.P,TP72,1*
G04 #@! TO.N,DRV_GND*
X79565500Y-134175500D03*
G04 #@! TD*
G04 #@! TO.P,TP73,1*
G04 #@! TO.N,ROT_Y1*
X104140000Y-109728000D03*
G04 #@! TD*
G04 #@! TO.P,TP74,1*
G04 #@! TO.N,ROT_Y2*
X103822500Y-108458000D03*
G04 #@! TD*
G04 #@! TO.P,TP78,1*
G04 #@! TO.N,NAND_CS*
X123507500Y-105219500D03*
G04 #@! TD*
G04 #@! TO.P,TP82,1*
G04 #@! TO.N,SDA*
X98234500Y-105600500D03*
G04 #@! TD*
G04 #@! TO.P,TP83,1*
G04 #@! TO.N,SCL*
X96456500Y-103378000D03*
G04 #@! TD*
G04 #@! TO.P,TP85,1*
G04 #@! TO.N,NAND_WP*
X123444000Y-109029500D03*
G04 #@! TD*
G04 #@! TO.P,TP86,1*
G04 #@! TO.N,NAND_HOLD*
X126428500Y-106807000D03*
G04 #@! TD*
G04 #@! TO.P,TP88,1*
G04 #@! TO.N,GPS_INT*
X84836000Y-103378000D03*
G04 #@! TD*
G04 #@! TO.P,TP89,1*
G04 #@! TO.N,TX*
X93853000Y-108204000D03*
G04 #@! TD*
G04 #@! TO.P,TP90,1*
G04 #@! TO.N,RX*
X95377000Y-105854500D03*
G04 #@! TD*
G04 #@! TO.P,TP91,1*
G04 #@! TO.N,BTN_A*
X160528000Y-101536500D03*
G04 #@! TD*
G04 #@! TO.P,TP92,1*
G04 #@! TO.N,BTN_B*
X161607500Y-104902000D03*
G04 #@! TD*
G04 #@! TO.P,TP99,1*
G04 #@! TO.N,LED_A*
X157670500Y-114617500D03*
G04 #@! TD*
G04 #@! TO.P,TP100,1*
G04 #@! TO.N,LED_B*
X159067500Y-110236000D03*
G04 #@! TD*
D17*
G04 #@! TO.N,DRV_GND*
X112712500Y-113093500D03*
X83312000Y-113792000D03*
X86106000Y-114981002D03*
X82423000Y-117983000D03*
X82423000Y-123190000D03*
X83312000Y-127000000D03*
X82931000Y-132461000D03*
X87249000Y-130429000D03*
X93345000Y-131699000D03*
X85852000Y-107061000D03*
X86868000Y-107061000D03*
X78676500Y-107188000D03*
X79819500Y-107251500D03*
X82867500Y-107251500D03*
X89789000Y-105283000D03*
X89979500Y-102171500D03*
X78676500Y-101092000D03*
X79819500Y-101092000D03*
X80835500Y-101092000D03*
X81851500Y-101092000D03*
X87884000Y-101028500D03*
X93980000Y-127762000D03*
X93847998Y-127000000D03*
X97599500Y-128905000D03*
X93472000Y-120650000D03*
X94996000Y-122047000D03*
X96075500Y-122047000D03*
X87312500Y-111760000D03*
X94869000Y-116014500D03*
X95377000Y-115316000D03*
X90043000Y-113030000D03*
X103124000Y-131191000D03*
X100584000Y-128397000D03*
X104394000Y-128333500D03*
X107950000Y-124460000D03*
X107442000Y-123571000D03*
X103327200Y-123799600D03*
X113919000Y-108966000D03*
X110109000Y-104140000D03*
X111125000Y-103759000D03*
X99822000Y-103759000D03*
X94742000Y-99568000D03*
X96012000Y-100076000D03*
X96266000Y-108204000D03*
X86073000Y-119443500D03*
X88392000Y-119443500D03*
D18*
X120269000Y-134366000D03*
D17*
X90678000Y-130302000D03*
X149606000Y-136211500D03*
X153162000Y-136271000D03*
D18*
X170434000Y-129413000D03*
D17*
X167513000Y-123571000D03*
X170370500Y-122301000D03*
X165608000Y-123571000D03*
X162687000Y-118745000D03*
X134620000Y-135001000D03*
X156210000Y-114554000D03*
X161798000Y-114554000D03*
X170434000Y-140970000D03*
X158242000Y-125476000D03*
X159004000Y-125476000D03*
X161290000Y-127000000D03*
X163576000Y-119634000D03*
X168656000Y-116332000D03*
X168910000Y-115570000D03*
X144335500Y-121511200D03*
X143764000Y-119062500D03*
X146082159Y-121479041D03*
X133096000Y-117602000D03*
X151130000Y-120142000D03*
X165354000Y-117094000D03*
X167386000Y-125476000D03*
X112268000Y-124206000D03*
X115316000Y-121920000D03*
X113284000Y-103886000D03*
X115316000Y-103378000D03*
X119888000Y-102108000D03*
X119888000Y-101092000D03*
X124714000Y-115570000D03*
X129540000Y-123190000D03*
X101092000Y-119888000D03*
X114046000Y-116586000D03*
X114046000Y-119888000D03*
X149514172Y-124911054D03*
X149203225Y-118427500D03*
X156210000Y-100838000D03*
X156210000Y-110490000D03*
X83820000Y-107188000D03*
X98552000Y-122301000D03*
X106489500Y-130302000D03*
X111379000Y-132207000D03*
X80073500Y-133032500D03*
G04 #@! TO.N,Net-(C26-Pad1)*
X95504000Y-127254000D03*
X98806000Y-126238000D03*
G04 #@! TO.N,LCD_ANODE*
X156273500Y-123952000D03*
X161290000Y-123888500D03*
X160337500Y-129095500D03*
X136398000Y-136842500D03*
X136398000Y-136842500D03*
G04 #@! TO.N,LCD_CATHODE*
X161798000Y-128524000D03*
X135636000Y-137160000D03*
G04 #@! TO.N,ADC_VDD*
X89916000Y-125222000D03*
X89916000Y-127889000D03*
X92202000Y-122682000D03*
X95250000Y-126492000D03*
X83312000Y-133286500D03*
G04 #@! TO.N,Net-(C38-Pad1)*
X143416860Y-123144991D03*
X144300559Y-124050441D03*
G04 #@! TO.N,Net-(C39-Pad1)*
X146748500Y-117170200D03*
X141605000Y-119126000D03*
X142333065Y-118314595D03*
G04 #@! TO.N,Net-(C52-Pad2)*
X87489000Y-127914309D03*
X85598000Y-129032000D03*
G04 #@! TO.N,Net-(C54-Pad1)*
X84328000Y-117983000D03*
X86995000Y-124348997D03*
G04 #@! TO.N,Net-(C54-Pad2)*
X83566000Y-123952000D03*
X86995000Y-125349000D03*
X81993122Y-115618878D03*
G04 #@! TO.N,LED_B*
X161038000Y-112776000D03*
X159766000Y-112776000D03*
X130302000Y-113283994D03*
X118618000Y-113410997D03*
X109220000Y-112446000D03*
X120078500Y-113410997D03*
X99419225Y-112090500D03*
X100625725Y-112331501D03*
G04 #@! TO.N,LED_A*
X132273694Y-115884306D03*
X118618000Y-112775994D03*
X108898152Y-111898605D03*
X120078500Y-112775994D03*
X99419225Y-111455497D03*
X100689225Y-111506001D03*
X157903190Y-113009001D03*
G04 #@! TO.N,PKT_MCLR*
X97790000Y-103632000D03*
X100139499Y-114490501D03*
G04 #@! TO.N,USB_D-*
X119888000Y-105281000D03*
X107667000Y-117335000D03*
G04 #@! TO.N,USB_D+*
X107213400Y-116840000D03*
X119888000Y-104523000D03*
G04 #@! TO.N,TCH_RIGHT*
X148653500Y-120904000D03*
X159639000Y-132461000D03*
G04 #@! TO.N,TCH_DOWN*
X148116941Y-119478441D03*
X160020000Y-131953000D03*
G04 #@! TO.N,TCH_LEFT*
X149034500Y-119189500D03*
X160528001Y-132412879D03*
G04 #@! TO.N,TCH_UP*
X149860000Y-119062500D03*
X160909000Y-133096000D03*
G04 #@! TO.N,ADC_GND*
X88138000Y-127508000D03*
X80581500Y-123444000D03*
G04 #@! TO.N,ADC_A1+*
X85979000Y-130302000D03*
X86028389Y-134055902D03*
G04 #@! TO.N,ADC_A1-*
X89535000Y-135001000D03*
X87630000Y-132334000D03*
G04 #@! TO.N,LIN_IN*
X106934000Y-133858000D03*
X109220000Y-133096000D03*
G04 #@! TO.N,ROT_VDD*
X108146998Y-128778000D03*
G04 #@! TO.N,ROT_A2*
X110363000Y-133985000D03*
X105791000Y-130683000D03*
D18*
G04 #@! TO.N,DRV_OUT1*
X124841000Y-135001000D03*
X119634000Y-122936000D03*
G04 #@! TO.N,DRV_OUT2*
X128397000Y-135001000D03*
X122682000Y-125476000D03*
D17*
G04 #@! TO.N,Net-(J6-Pad3)*
X80325734Y-131519572D03*
X80137000Y-129159000D03*
G04 #@! TO.N,Net-(J7-Pad3)*
X80264000Y-117348000D03*
X83312000Y-129032000D03*
G04 #@! TO.N,Net-(J7-Pad4)*
X77978000Y-118745000D03*
X82183846Y-128929152D03*
G04 #@! TO.N,Net-(L3-Pad2)*
X170370500Y-120904000D03*
X171069000Y-118872000D03*
G04 #@! TO.N,LCD_R0*
X130942500Y-130968000D03*
X132270500Y-128524042D03*
G04 #@! TO.N,LCD_R1*
X131942500Y-130968000D03*
X132270500Y-127889039D03*
G04 #@! TO.N,LCD_R2*
X132270500Y-127254036D03*
X132942500Y-130968000D03*
G04 #@! TO.N,LCD_R3*
X132270500Y-126619033D03*
X133942500Y-130968000D03*
G04 #@! TO.N,LCD_R4*
X132270500Y-125984030D03*
X134942500Y-130968000D03*
G04 #@! TO.N,LCD_R5*
X132270500Y-125349027D03*
X135942500Y-130968000D03*
G04 #@! TO.N,LCD_R6*
X132270500Y-124714024D03*
X136942500Y-130968000D03*
G04 #@! TO.N,LCD_R7*
X132270500Y-124079021D03*
X137942500Y-130968000D03*
G04 #@! TO.N,LCD_G0*
X132270500Y-123444018D03*
X138942500Y-130968000D03*
G04 #@! TO.N,LCD_G1*
X132270500Y-122809015D03*
X139942500Y-130968000D03*
G04 #@! TO.N,LCD_G2*
X132270500Y-122174012D03*
X140942500Y-130968000D03*
G04 #@! TO.N,LCD_G3*
X132270500Y-121539009D03*
X141942500Y-130968000D03*
G04 #@! TO.N,LCD_G4*
X132270500Y-120904006D03*
X142942500Y-130968000D03*
G04 #@! TO.N,LCD_G5*
X132270500Y-120269003D03*
X143942500Y-130968000D03*
G04 #@! TO.N,LCD_G6*
X132270500Y-119634000D03*
X144942500Y-130968000D03*
G04 #@! TO.N,LCD_G7*
X132270500Y-118999000D03*
X145942500Y-130968000D03*
G04 #@! TO.N,LCD_B0*
X134111967Y-116586000D03*
X146942500Y-130968000D03*
G04 #@! TO.N,LCD_B1*
X134746970Y-116586000D03*
X147942500Y-130968000D03*
G04 #@! TO.N,LCD_B2*
X135381973Y-116586000D03*
X148942500Y-130968000D03*
G04 #@! TO.N,SCL*
X97282000Y-108204000D03*
X96520000Y-106870500D03*
X113284000Y-101346000D03*
X115824000Y-101854000D03*
X105918000Y-102870000D03*
X105918000Y-101600000D03*
G04 #@! TO.N,SDA*
X98234500Y-106870500D03*
G04 #@! TO.N,MISO*
X91473000Y-119380000D03*
X113284000Y-122682000D03*
X119888000Y-108458000D03*
X103886000Y-119380000D03*
X119888000Y-108458000D03*
G04 #@! TO.N,LCD_B3*
X136016976Y-116586000D03*
X149942500Y-130968000D03*
G04 #@! TO.N,LCD_B4*
X136651979Y-116586000D03*
X150942500Y-130968000D03*
G04 #@! TO.N,LCD_B5*
X137286982Y-116586000D03*
X151942500Y-130968000D03*
G04 #@! TO.N,LCD_B6*
X137921985Y-116586000D03*
X152942500Y-130968000D03*
G04 #@! TO.N,LCD_B7*
X138556988Y-116586000D03*
X153942500Y-130968000D03*
G04 #@! TO.N,SCLK*
X95250000Y-112522000D03*
X118618000Y-112140991D03*
X125984000Y-112204491D03*
X126890500Y-112204491D03*
X120078500Y-112140991D03*
X100834808Y-115843672D03*
X106023225Y-119888001D03*
X105152473Y-118364000D03*
X104499225Y-111454105D03*
X108494111Y-111408730D03*
G04 #@! TO.N,Net-(R35-Pad1)*
X87592501Y-116840000D03*
X86106000Y-116840000D03*
G04 #@! TO.N,MOSI*
X95758000Y-114300000D03*
X103378000Y-118808500D03*
X116840000Y-112597115D03*
X108966000Y-118364000D03*
G04 #@! TO.N,DRV_IN1*
X126851225Y-118364001D03*
X109489572Y-108981546D03*
G04 #@! TO.N,DRV_IN2*
X126851225Y-117348001D03*
X108458000Y-108966000D03*
G04 #@! TO.N,Net-(R39-Pad2)*
X90551000Y-120269000D03*
X84455000Y-118999000D03*
G04 #@! TO.N,ROT_Y1*
X103632000Y-125476000D03*
X102870000Y-119697500D03*
X103124000Y-117856000D03*
X103229225Y-109728001D03*
G04 #@! TO.N,ROT_Y2*
X101854000Y-128524000D03*
X102655990Y-117387990D03*
X101854000Y-119697500D03*
X102743009Y-109220001D03*
G04 #@! TO.N,TX*
X105257366Y-119767248D03*
X100689225Y-110744001D03*
X103991225Y-110744001D03*
X95220019Y-109922037D03*
G04 #@! TO.N,RX*
X104453963Y-119697500D03*
X101257188Y-111222020D03*
X103568500Y-111252001D03*
X95250000Y-108839000D03*
G04 #@! TO.N,Net-(R55-Pad1)*
X127254000Y-111252000D03*
X122174000Y-111551000D03*
G04 #@! TO.N,BTN_A*
X109923344Y-110396284D03*
X119888000Y-105917994D03*
X159385000Y-101600000D03*
G04 #@! TO.N,BTN_B*
X110236122Y-110972600D03*
X119888000Y-106552997D03*
X160655000Y-107188000D03*
G04 #@! TO.N,PKT_PGED*
X107188000Y-100330000D03*
X101790500Y-116967000D03*
G04 #@! TO.N,PKT_PGEC*
X109728000Y-100393500D03*
X99930500Y-118110000D03*
G04 #@! TO.N,LCD_SHIFT*
X139191991Y-116586000D03*
X154942500Y-130968000D03*
G04 #@! TO.N,LCD_DISP*
X139826994Y-116586000D03*
X155942500Y-130968000D03*
G04 #@! TO.N,LCD_HSYNC*
X140461997Y-116586000D03*
X156942500Y-130968000D03*
G04 #@! TO.N,LCD_VSYNC*
X141097000Y-116586000D03*
X157942500Y-130968000D03*
G04 #@! TO.N,LCD_DEN*
X141732000Y-116586000D03*
X158942500Y-130968000D03*
G04 #@! TO.N,SS2*
X110236000Y-115062000D03*
X130302000Y-116078000D03*
X118618000Y-116078000D03*
X120078500Y-116078000D03*
G04 #@! TO.N,SDO2*
X109668037Y-114617500D03*
X130302000Y-115316000D03*
X118618000Y-115442997D03*
X120078500Y-115442997D03*
G04 #@! TO.N,SDIO2*
X130302000Y-114554000D03*
X110236000Y-114046000D03*
X118618000Y-114807994D03*
X120078500Y-114807994D03*
G04 #@! TO.N,SCLK2*
X130302000Y-113918997D03*
X109728000Y-113625501D03*
X118618000Y-114046000D03*
X120078500Y-114046000D03*
G04 #@! TO.N,LCD_PD*
X106362500Y-122555000D03*
G04 #@! TO.N,LCD_INT*
X109698019Y-115510037D03*
X130302000Y-116840000D03*
X109698019Y-115510037D03*
X118557691Y-116779691D03*
X120078500Y-116840000D03*
G04 #@! TO.N,DRV_FLT*
X126851225Y-119126001D03*
X107175105Y-108775500D03*
G04 #@! TO.N,ADC_CS*
X95250000Y-113284000D03*
X99314000Y-116078000D03*
X90170000Y-114046000D03*
G04 #@! TO.N,NAND_CS*
X119888000Y-107188000D03*
X112373225Y-121181000D03*
X110531725Y-123190000D03*
X109474000Y-123444000D03*
G04 #@! TO.N,NAND_WP*
X118872000Y-109982000D03*
X109407656Y-116399038D03*
X122174000Y-109093000D03*
G04 #@! TO.N,NAND_HOLD*
X127281059Y-109247059D03*
X108966000Y-115824000D03*
X126144441Y-109126441D03*
X114913225Y-113538001D03*
G04 #@! TO.N,GPS_INT*
X85344000Y-101092000D03*
X96520000Y-112077500D03*
X96834309Y-112969691D03*
X99561653Y-117593106D03*
G04 #@! TO.N,LCD_PWM*
X146062700Y-117983000D03*
X158750000Y-122174000D03*
G04 #@! TO.N,DVDD*
X140208000Y-127000000D03*
X135128000Y-140716000D03*
X110744000Y-127762000D03*
X106680000Y-124460000D03*
X151638000Y-120904000D03*
X164846000Y-119634000D03*
X165608000Y-119634000D03*
X164846000Y-118872000D03*
X166370000Y-119380000D03*
X104648000Y-123952000D03*
X100076000Y-124714000D03*
X96774000Y-123698000D03*
X96774000Y-120142000D03*
X96774000Y-116840000D03*
X92710000Y-112077500D03*
X92710000Y-118808500D03*
X90932000Y-101092000D03*
X83312000Y-101092000D03*
X94742000Y-98298000D03*
X97790000Y-99314000D03*
X93726000Y-104394000D03*
X96012000Y-104394000D03*
X100330000Y-105156000D03*
X101092000Y-105156000D03*
X105918000Y-105156000D03*
X112776000Y-104902000D03*
X115316000Y-100330000D03*
X118618000Y-103632000D03*
X117856000Y-103632000D03*
X118364000Y-99568000D03*
X127254000Y-115570000D03*
X105918000Y-106172000D03*
X108458000Y-123570999D03*
X114935000Y-117883477D03*
X113538000Y-117475001D03*
X156210000Y-104140000D03*
X156464000Y-112014000D03*
X96266000Y-110617000D03*
D18*
G04 #@! TO.N,DVDD_UNREG*
X165862000Y-133604000D03*
D17*
X169926000Y-133604000D03*
X111760000Y-124968000D03*
X168910000Y-108712000D03*
X160528000Y-108712000D03*
X110236000Y-118046000D03*
X93472000Y-133604000D03*
X94234000Y-134112000D03*
X95504000Y-134366000D03*
G04 #@! TD*
D19*
G04 #@! TO.N,DRV_GND*
X86073000Y-119443500D02*
X88392000Y-119443500D01*
X146082159Y-121380659D02*
X146082159Y-121479041D01*
X143764000Y-119062500D02*
X146082159Y-121380659D01*
X79565500Y-133540500D02*
X79565500Y-134175500D01*
X80073500Y-133032500D02*
X79565500Y-133540500D01*
X164846000Y-124333000D02*
X164846000Y-124587000D01*
X165608000Y-123571000D02*
X164846000Y-124333000D01*
G04 #@! TO.N,Net-(C26-Pad1)*
X95504000Y-127254000D02*
X96520000Y-126238000D01*
X96520000Y-126238000D02*
X98806000Y-126238000D01*
G04 #@! TO.N,LCD_ANODE*
X156273500Y-123952000D02*
X161226500Y-123952000D01*
X161226500Y-123952000D02*
X161290000Y-123888500D01*
D20*
X152781000Y-136842500D02*
X136398000Y-136842500D01*
X156146500Y-140208000D02*
X152781000Y-136842500D01*
X157924500Y-140208000D02*
X156146500Y-140208000D01*
X161544000Y-130302000D02*
X161544000Y-136588500D01*
X160337500Y-129095500D02*
X161544000Y-130302000D01*
X161544000Y-136588500D02*
X157924500Y-140208000D01*
D19*
X134501606Y-136525000D02*
X133794500Y-136525000D01*
X135721290Y-136525000D02*
X134501606Y-136525000D01*
X136038790Y-136842500D02*
X135721290Y-136525000D01*
X136398000Y-136842500D02*
X136038790Y-136842500D01*
D20*
G04 #@! TO.N,LCD_CATHODE*
X135636000Y-137795000D02*
X135636000Y-137160000D01*
X135890000Y-138049000D02*
X135636000Y-137795000D01*
X155194000Y-141097000D02*
X152146000Y-138049000D01*
X159194500Y-141097000D02*
X155194000Y-141097000D01*
X163957000Y-136334500D02*
X159194500Y-141097000D01*
X163957000Y-136144000D02*
X163957000Y-136334500D01*
X163957000Y-130683000D02*
X163957000Y-136144000D01*
X163639500Y-130365500D02*
X163957000Y-130683000D01*
X161798000Y-128524000D02*
X163639500Y-130365500D01*
D19*
X137287000Y-138611894D02*
X137287000Y-138049000D01*
X137287000Y-139319000D02*
X137287000Y-138611894D01*
D20*
X152146000Y-138049000D02*
X137287000Y-138049000D01*
X137287000Y-138049000D02*
X135890000Y-138049000D01*
D19*
G04 #@! TO.N,ADC_VDD*
X83312000Y-133921500D02*
X82931000Y-134302500D01*
X83312000Y-133286500D02*
X83312000Y-133921500D01*
G04 #@! TO.N,Net-(C38-Pad1)*
X143416860Y-123144991D02*
X144300559Y-124028690D01*
X144300559Y-124028690D02*
X144300559Y-124050441D01*
G04 #@! TO.N,Net-(C39-Pad1)*
X141605000Y-119126000D02*
X141605000Y-119042660D01*
X141605000Y-119042660D02*
X142333065Y-118314595D01*
G04 #@! TO.N,Net-(C52-Pad2)*
X85725000Y-129032000D02*
X85598000Y-129032000D01*
X86442692Y-128314308D02*
X85725000Y-129032000D01*
X87489000Y-127914309D02*
X87089001Y-128314308D01*
X87089001Y-128314308D02*
X86442692Y-128314308D01*
G04 #@! TO.N,Net-(C54-Pad1)*
X83729999Y-118581001D02*
X83729999Y-121083996D01*
X84328000Y-117983000D02*
X83729999Y-118581001D01*
X83729999Y-121083996D02*
X86995000Y-124348997D01*
G04 #@! TO.N,Net-(C54-Pad2)*
X84131685Y-123952000D02*
X85528685Y-125349000D01*
X83566000Y-123952000D02*
X84131685Y-123952000D01*
X85528685Y-125349000D02*
X86995000Y-125349000D01*
G04 #@! TO.N,LED_B*
X161038000Y-112776000D02*
X159766000Y-112776000D01*
X130174997Y-113410997D02*
X130302000Y-113283994D01*
X120078500Y-113410997D02*
X130174997Y-113410997D01*
X117653003Y-112446000D02*
X118618000Y-113410997D01*
X117359618Y-112152615D02*
X117653003Y-112446000D01*
X109220000Y-112446000D02*
X109513385Y-112152615D01*
X109513385Y-112152615D02*
X117359618Y-112152615D01*
X99660226Y-112331501D02*
X99419225Y-112090500D01*
X100625725Y-112331501D02*
X99660226Y-112331501D01*
X159766000Y-110934500D02*
X159067500Y-110236000D01*
X159766000Y-112776000D02*
X159766000Y-110934500D01*
G04 #@! TO.N,LED_A*
X117464832Y-111898605D02*
X108898152Y-111898605D01*
X118618000Y-112775994D02*
X117740611Y-111898605D01*
X117740611Y-111898605D02*
X117464832Y-111898605D01*
X99469729Y-111506001D02*
X99419225Y-111455497D01*
X100689225Y-111506001D02*
X99469729Y-111506001D01*
X157903190Y-114384810D02*
X157670500Y-114617500D01*
X157903190Y-113009001D02*
X157903190Y-114384810D01*
X132273694Y-113852752D02*
X132273694Y-115884306D01*
X131704942Y-113284000D02*
X132273694Y-113852752D01*
X131064000Y-113284000D02*
X131704942Y-113284000D01*
X120078500Y-112775994D02*
X130555994Y-112775994D01*
X130555994Y-112775994D02*
X131064000Y-113284000D01*
G04 #@! TO.N,PKT_MCLR*
X100838000Y-106680000D02*
X97790000Y-103632000D01*
X101701689Y-107543689D02*
X100838000Y-106680000D01*
X101701689Y-112928311D02*
X101701689Y-107543689D01*
X100139499Y-114490501D02*
X101701689Y-112928311D01*
D21*
G04 #@! TO.N,USB_D-*
X119734000Y-105127000D02*
X114692383Y-105127000D01*
X119888000Y-105281000D02*
X119734000Y-105127000D01*
X114692383Y-105127000D02*
X109906845Y-109912538D01*
X109906845Y-109912538D02*
X109099664Y-109912538D01*
X109099664Y-109912538D02*
X107667000Y-111345202D01*
X107667000Y-111345202D02*
X107667000Y-116332000D01*
D19*
X107667000Y-117335000D02*
X107667000Y-117319000D01*
X107670600Y-116344700D02*
X107670600Y-117347700D01*
G04 #@! TO.N,USB_D+*
X107213400Y-116840000D02*
X107213400Y-116361000D01*
X107188000Y-116361000D02*
X107217000Y-116332000D01*
D21*
X108977453Y-109462547D02*
X107281200Y-111158800D01*
X107281200Y-111158800D02*
X107217000Y-111158800D01*
X109258691Y-109462547D02*
X108977453Y-109462547D01*
X107217000Y-111158800D02*
X107217000Y-116332000D01*
X119734000Y-104677000D02*
X114506000Y-104677000D01*
X119888000Y-104523000D02*
X119734000Y-104677000D01*
X114506000Y-104677000D02*
X109720453Y-109462547D01*
X109720453Y-109462547D02*
X109258691Y-109462547D01*
D19*
G04 #@! TO.N,TCH_RIGHT*
X148653500Y-120904000D02*
X148907499Y-121157999D01*
X148907499Y-121157999D02*
X148920199Y-121157999D01*
X148920199Y-121157999D02*
X156438580Y-128676380D01*
X156438580Y-128676380D02*
X157308742Y-128676380D01*
X157308742Y-128676380D02*
X159511999Y-130879637D01*
X159511999Y-130879637D02*
X159511999Y-132333999D01*
X159511999Y-132333999D02*
X159639000Y-132461000D01*
X159639000Y-133096000D02*
X156845000Y-135890000D01*
X159639000Y-132461000D02*
X159639000Y-133096000D01*
G04 #@! TO.N,TCH_DOWN*
X157581570Y-128422370D02*
X159867600Y-130708400D01*
X157073570Y-128422370D02*
X157581570Y-128422370D01*
X152882600Y-124231400D02*
X157073570Y-128422370D01*
X152869900Y-124231400D02*
X152882600Y-124231400D01*
X148116941Y-119478441D02*
X152869900Y-124231400D01*
X159867600Y-130708400D02*
X159867600Y-131800600D01*
X159867600Y-131800600D02*
X160020000Y-131953000D01*
X158115000Y-135690894D02*
X158115000Y-136398000D01*
X160083501Y-133722393D02*
X158115000Y-135690894D01*
X160083501Y-132016501D02*
X160083501Y-133722393D01*
X160020000Y-131953000D02*
X160083501Y-132016501D01*
G04 #@! TO.N,TCH_LEFT*
X157178784Y-128168360D02*
X157733960Y-128168360D01*
X149034500Y-119189500D02*
X149034500Y-120024076D01*
X149034500Y-120024076D02*
X157178784Y-128168360D01*
X157733960Y-128168360D02*
X160121610Y-130556010D01*
X160476575Y-132361453D02*
X160528001Y-132412879D01*
X160121610Y-130556010D02*
X160476575Y-130910975D01*
X160476575Y-130910975D02*
X160476575Y-132361453D01*
X160528001Y-132412879D02*
X160528000Y-132772090D01*
X160528000Y-132772090D02*
X160401000Y-132899090D01*
X160401000Y-132899090D02*
X160401000Y-134239000D01*
X159385000Y-135182894D02*
X159385000Y-135890000D01*
X160328894Y-134239000D02*
X159385000Y-135182894D01*
X160401000Y-134239000D02*
X160328894Y-134239000D01*
G04 #@! TO.N,TCH_UP*
X149860000Y-119062500D02*
X149860000Y-120345200D01*
X157429150Y-127914350D02*
X158038750Y-127914350D01*
X149860000Y-120345200D02*
X157429150Y-127914350D01*
X158038750Y-127914350D02*
X160375618Y-130251218D01*
X160972502Y-133032498D02*
X160909000Y-133096000D01*
X160375618Y-130251218D02*
X160972502Y-130848102D01*
X160972502Y-130848102D02*
X160972502Y-133032498D01*
X160909000Y-135001000D02*
X160528000Y-135382000D01*
X160909000Y-133096000D02*
X160909000Y-135001000D01*
G04 #@! TO.N,ADC_GND*
X84074999Y-136595001D02*
X82875000Y-137795000D01*
X84147152Y-136595001D02*
X84074999Y-136595001D01*
X86472890Y-134269263D02*
X84147152Y-136595001D01*
X86472890Y-132475110D02*
X86472890Y-134269263D01*
X88138000Y-130810000D02*
X86472890Y-132475110D01*
X88138000Y-127508000D02*
X88138000Y-130810000D01*
X79942081Y-114935000D02*
X78740000Y-114935000D01*
X81937862Y-114935000D02*
X79942081Y-114935000D01*
X84772501Y-117769639D02*
X81937862Y-114935000D01*
X84772501Y-118196361D02*
X84772501Y-117769639D01*
X84541361Y-118427501D02*
X84772501Y-118196361D01*
X84242723Y-118427501D02*
X84541361Y-118427501D01*
X83984009Y-118686215D02*
X84242723Y-118427501D01*
X83984009Y-120179009D02*
X83984009Y-118686215D01*
X87651790Y-123846790D02*
X83984009Y-120179009D01*
X87651790Y-127381000D02*
X87651790Y-123846790D01*
X87778790Y-127508000D02*
X87651790Y-127381000D01*
X88138000Y-127508000D02*
X87778790Y-127508000D01*
X84391501Y-127254001D02*
X80581500Y-123444000D01*
X88138000Y-127508000D02*
X87884001Y-127254001D01*
X87884001Y-127254001D02*
X84391501Y-127254001D01*
G04 #@! TO.N,ADC_A1+*
X85979000Y-130302000D02*
X85979000Y-134006513D01*
X85979000Y-134006513D02*
X86028389Y-134055902D01*
X87574999Y-136595001D02*
X87574999Y-136406499D01*
X86375000Y-137795000D02*
X87574999Y-136595001D01*
X87566500Y-136398000D02*
X87566500Y-134302500D01*
X87574999Y-136406499D02*
X87566500Y-136398000D01*
G04 #@! TO.N,ADC_A1-*
X87630000Y-132334000D02*
X89535000Y-134239000D01*
X89535000Y-134239000D02*
X89535000Y-135001000D01*
X91821000Y-135849000D02*
X91821000Y-134239000D01*
X89875000Y-137795000D02*
X91821000Y-135849000D01*
G04 #@! TO.N,LIN_IN*
X106934000Y-133858000D02*
X107696000Y-133096000D01*
X107696000Y-133096000D02*
X109220000Y-133096000D01*
X100139500Y-137559500D02*
X100375000Y-137795000D01*
X100139500Y-134302500D02*
X100139500Y-137559500D01*
G04 #@! TO.N,ROT_VDD*
X105074999Y-136595001D02*
X105074999Y-135336001D01*
X103875000Y-137795000D02*
X105074999Y-136595001D01*
X105074999Y-135336001D02*
X105283000Y-135128000D01*
X105283000Y-135128000D02*
X105283000Y-129413000D01*
X105283000Y-129413000D02*
X105918000Y-128778000D01*
X105918000Y-128778000D02*
X108146998Y-128778000D01*
G04 #@! TO.N,ROT_A2*
X110363000Y-133985000D02*
X110363000Y-135128000D01*
X110363000Y-135128000D02*
X109982000Y-135509000D01*
X109982000Y-135509000D02*
X109416315Y-135509000D01*
X107569000Y-135509000D02*
X107566347Y-135511653D01*
X109416315Y-135509000D02*
X107569000Y-135509000D01*
X111830001Y-136595001D02*
X110363000Y-135128000D01*
X113175001Y-136595001D02*
X111830001Y-136595001D01*
X114375000Y-137795000D02*
X113175001Y-136595001D01*
X107569000Y-135509000D02*
X107315000Y-135509000D01*
X107315000Y-135509000D02*
X106457808Y-134651808D01*
X106457808Y-134651808D02*
X106457808Y-134270808D01*
X106457808Y-134270808D02*
X106299000Y-134112000D01*
X106299000Y-134112000D02*
X106299000Y-131191000D01*
X106299000Y-131191000D02*
X105791000Y-130683000D01*
D22*
G04 #@! TO.N,DRV_OUT1*
X124841000Y-135001000D02*
X124841000Y-132715000D01*
X124841000Y-132715000D02*
X119634000Y-127508000D01*
X119634000Y-127508000D02*
X119634000Y-122936000D01*
G04 #@! TO.N,DRV_OUT2*
X128397000Y-135001000D02*
X128397000Y-131191000D01*
X128397000Y-131191000D02*
X122682000Y-125476000D01*
D19*
G04 #@! TO.N,Net-(J6-Pad3)*
X80325734Y-129347734D02*
X80137000Y-129159000D01*
X80325734Y-131519572D02*
X80325734Y-129347734D01*
G04 #@! TO.N,Net-(J7-Pad3)*
X80137000Y-117475000D02*
X80264000Y-117348000D01*
X83312000Y-129032000D02*
X80137000Y-125857000D01*
X80137000Y-125857000D02*
X80137000Y-117475000D01*
G04 #@! TO.N,Net-(J7-Pad4)*
X77629999Y-125635001D02*
X77564999Y-125570001D01*
X77564999Y-125570001D02*
X77564999Y-119158001D01*
X79114003Y-125635001D02*
X77629999Y-125635001D01*
X77564999Y-119158001D02*
X77978000Y-118745000D01*
X82183846Y-128929152D02*
X79114003Y-125635001D01*
D23*
X82296000Y-128816998D02*
X82183846Y-128929152D01*
D19*
G04 #@! TO.N,Net-(L3-Pad2)*
X170370500Y-120904000D02*
X171069000Y-120205500D01*
X171069000Y-120205500D02*
X171069000Y-118872000D01*
G04 #@! TO.N,LCD_R0*
X132270500Y-129640000D02*
X130942500Y-130968000D01*
X132270500Y-128524042D02*
X132270500Y-129640000D01*
X130942500Y-131820500D02*
X130937000Y-131826000D01*
X130942500Y-130968000D02*
X130942500Y-131820500D01*
G04 #@! TO.N,LCD_R1*
X132270500Y-127889039D02*
X132293359Y-127889039D01*
X132629710Y-127889039D02*
X132778500Y-128037829D01*
X132270500Y-127889039D02*
X132629710Y-127889039D01*
X132778500Y-130132000D02*
X131942500Y-130968000D01*
X132778500Y-128037829D02*
X132778500Y-130132000D01*
X131942500Y-133530000D02*
X131953000Y-133540500D01*
X131942500Y-130968000D02*
X131942500Y-133530000D01*
G04 #@! TO.N,LCD_R2*
X132629710Y-127254036D02*
X132629746Y-127254000D01*
X132270500Y-127254036D02*
X132629710Y-127254036D01*
X133276668Y-130633832D02*
X132942500Y-130968000D01*
X133276668Y-127900922D02*
X133276668Y-130633832D01*
X132629746Y-127254000D02*
X133276668Y-127900922D01*
X132942500Y-131789000D02*
X132905500Y-131826000D01*
X132942500Y-130968000D02*
X132942500Y-131789000D01*
G04 #@! TO.N,LCD_R3*
X132629710Y-126619033D02*
X132629743Y-126619000D01*
X132270500Y-126619033D02*
X132629710Y-126619033D01*
X133942500Y-127931757D02*
X133942500Y-130968000D01*
X132629743Y-126619000D02*
X133942500Y-127931757D01*
X133942500Y-133519500D02*
X133921500Y-133540500D01*
X133942500Y-130968000D02*
X133942500Y-133519500D01*
G04 #@! TO.N,LCD_R4*
X132270500Y-125984030D02*
X132651470Y-125984030D01*
X134942500Y-128275060D02*
X134942500Y-130968000D01*
X132651470Y-125984030D02*
X134942500Y-128275060D01*
X134942500Y-131821000D02*
X134937500Y-131826000D01*
X134942500Y-130968000D02*
X134942500Y-131821000D01*
G04 #@! TO.N,LCD_R5*
X132629710Y-125349027D02*
X132629737Y-125349000D01*
X132270500Y-125349027D02*
X132629710Y-125349027D01*
X135942500Y-128661763D02*
X135942500Y-130968000D01*
X132629737Y-125349000D02*
X135942500Y-128661763D01*
X135942500Y-133529500D02*
X135953500Y-133540500D01*
X135942500Y-130968000D02*
X135942500Y-133529500D01*
G04 #@! TO.N,LCD_R6*
X132270500Y-124714024D02*
X132841976Y-124714024D01*
X136942500Y-128814548D02*
X136942500Y-130968000D01*
X132841976Y-124714024D02*
X136942500Y-128814548D01*
X136942500Y-131799000D02*
X136969500Y-131826000D01*
X136942500Y-130968000D02*
X136942500Y-131799000D01*
G04 #@! TO.N,LCD_R7*
X132629710Y-124079021D02*
X132629731Y-124079000D01*
X132270500Y-124079021D02*
X132629710Y-124079021D01*
X137942500Y-129391769D02*
X137942500Y-130968000D01*
X132629731Y-124079000D02*
X137942500Y-129391769D01*
X137942500Y-133434000D02*
X137985500Y-133477000D01*
X137942500Y-130968000D02*
X137942500Y-133434000D01*
G04 #@! TO.N,LCD_G0*
X132629710Y-123444018D02*
X132629728Y-123444000D01*
X132270500Y-123444018D02*
X132629710Y-123444018D01*
X138942500Y-129756772D02*
X138942500Y-130968000D01*
X132629728Y-123444000D02*
X138942500Y-129756772D01*
X138942500Y-131821500D02*
X138938000Y-131826000D01*
X138942500Y-130968000D02*
X138942500Y-131821500D01*
G04 #@! TO.N,LCD_G1*
X132270500Y-122809015D02*
X132714985Y-122809015D01*
X139942500Y-130036530D02*
X139942500Y-130968000D01*
X132714985Y-122809015D02*
X139942500Y-130036530D01*
X139942500Y-133465500D02*
X139954000Y-133477000D01*
X139942500Y-130968000D02*
X139942500Y-133465500D01*
G04 #@! TO.N,LCD_G2*
X132629710Y-122174012D02*
X132629722Y-122174000D01*
X132270500Y-122174012D02*
X132629710Y-122174012D01*
X140942500Y-130486778D02*
X140942500Y-130968000D01*
X132629722Y-122174000D02*
X140942500Y-130486778D01*
X140942500Y-131798500D02*
X140970000Y-131826000D01*
X140942500Y-130968000D02*
X140942500Y-131798500D01*
G04 #@! TO.N,LCD_G3*
X141608332Y-130633832D02*
X141942500Y-130968000D01*
X132767508Y-121793008D02*
X141608332Y-130633832D01*
X132524499Y-121793008D02*
X132767508Y-121793008D01*
X132270500Y-121539009D02*
X132524499Y-121793008D01*
X141942500Y-133457000D02*
X141922500Y-133477000D01*
X141942500Y-130968000D02*
X141942500Y-133457000D01*
G04 #@! TO.N,LCD_G4*
X142608332Y-130633832D02*
X142942500Y-130968000D01*
X133132505Y-121158005D02*
X142608332Y-130633832D01*
X132524499Y-121158005D02*
X133132505Y-121158005D01*
X132270500Y-120904006D02*
X132524499Y-121158005D01*
X142942500Y-131822000D02*
X142938500Y-131826000D01*
X142942500Y-130968000D02*
X142942500Y-131822000D01*
G04 #@! TO.N,LCD_G5*
X143942500Y-130968000D02*
X140919638Y-127945138D01*
X140919638Y-127945138D02*
X140278862Y-127945138D01*
X140278862Y-127945138D02*
X138938000Y-126604276D01*
X138938000Y-126604276D02*
X138938000Y-125984000D01*
X133223003Y-120269003D02*
X132270500Y-120269003D01*
X138938000Y-125984000D02*
X133223003Y-120269003D01*
X143942500Y-133465000D02*
X143954500Y-133477000D01*
X143942500Y-130968000D02*
X143942500Y-133465000D01*
G04 #@! TO.N,LCD_G6*
X132293359Y-119634000D02*
X132270500Y-119634000D01*
X133608500Y-119634000D02*
X144942500Y-130968000D01*
X132270500Y-119634000D02*
X133608500Y-119634000D01*
X144942500Y-131798000D02*
X144970500Y-131826000D01*
X144942500Y-130968000D02*
X144942500Y-131798000D01*
G04 #@! TO.N,LCD_G7*
X133973500Y-118999000D02*
X145942500Y-130968000D01*
X132270500Y-118999000D02*
X133973500Y-118999000D01*
X145942500Y-133457500D02*
X145923000Y-133477000D01*
X145942500Y-130968000D02*
X145942500Y-133457500D01*
G04 #@! TO.N,LCD_B0*
X134111967Y-118137467D02*
X146942500Y-130968000D01*
X134111967Y-116586000D02*
X134111967Y-118137467D01*
X146942500Y-131822500D02*
X146939000Y-131826000D01*
X146942500Y-130968000D02*
X146942500Y-131822500D01*
G04 #@! TO.N,LCD_B1*
X134746970Y-117772470D02*
X147942500Y-130968000D01*
X134746970Y-116586000D02*
X134746970Y-117772470D01*
X147942500Y-133528000D02*
X147955000Y-133540500D01*
X147942500Y-130968000D02*
X147942500Y-133528000D01*
G04 #@! TO.N,LCD_B2*
X135381973Y-117407473D02*
X148942500Y-130968000D01*
X135381973Y-116586000D02*
X135381973Y-117407473D01*
X148942500Y-131797500D02*
X148971000Y-131826000D01*
X148942500Y-130968000D02*
X148942500Y-131797500D01*
G04 #@! TO.N,SCL*
X97282000Y-108204000D02*
X97282000Y-107632500D01*
X97282000Y-107632500D02*
X96520000Y-106870500D01*
X113284000Y-101346000D02*
X113792000Y-101854000D01*
X113792000Y-101854000D02*
X115824000Y-101854000D01*
X105918000Y-102870000D02*
X105918000Y-101600000D01*
X96520000Y-103441500D02*
X96456500Y-103378000D01*
X96520000Y-106870500D02*
X96520000Y-103441500D01*
G04 #@! TO.N,SDA*
X98234500Y-106511290D02*
X98234500Y-105600500D01*
X98234500Y-106870500D02*
X98234500Y-106511290D01*
G04 #@! TO.N,MISO*
X91600000Y-119253000D02*
X91473000Y-119380000D01*
X92350000Y-119380000D02*
X91473000Y-119380000D01*
X92796362Y-119380000D02*
X92350000Y-119380000D01*
X92923363Y-119252999D02*
X92796362Y-119380000D01*
X103083361Y-119252999D02*
X92923363Y-119252999D01*
X103210362Y-119380000D02*
X103083361Y-119252999D01*
X103886000Y-119380000D02*
X103210362Y-119380000D01*
X119888000Y-109982000D02*
X119634000Y-110236000D01*
X119888000Y-108458000D02*
X119888000Y-109982000D01*
X119634000Y-110236000D02*
X119634000Y-117602000D01*
X119634000Y-117602000D02*
X115824000Y-121412000D01*
X114554000Y-121412000D02*
X113284000Y-122682000D01*
X115824000Y-121412000D02*
X114554000Y-121412000D01*
G04 #@! TO.N,LCD_B3*
X136016976Y-117042476D02*
X149942500Y-130968000D01*
X136016976Y-116586000D02*
X136016976Y-117042476D01*
X149942500Y-133521500D02*
X149923500Y-133540500D01*
X149942500Y-130968000D02*
X149942500Y-133521500D01*
G04 #@! TO.N,LCD_B4*
X136651979Y-116586000D02*
X136842481Y-116586000D01*
X150608332Y-130633832D02*
X150942500Y-130968000D01*
X150497999Y-130523499D02*
X150608332Y-130633832D01*
X150115755Y-130523499D02*
X150497999Y-130523499D01*
X136651979Y-117059723D02*
X150115755Y-130523499D01*
X136651979Y-116586000D02*
X136651979Y-117059723D01*
X150942500Y-131823000D02*
X150939500Y-131826000D01*
X150942500Y-130968000D02*
X150942500Y-131823000D01*
G04 #@! TO.N,LCD_B5*
X151608332Y-130633832D02*
X151942500Y-130968000D01*
X143674990Y-122700490D02*
X151608332Y-130633832D01*
X143401472Y-122700490D02*
X143674990Y-122700490D01*
X137286982Y-116586000D02*
X143401472Y-122700490D01*
X151942500Y-133591000D02*
X151955500Y-133604000D01*
X151942500Y-130968000D02*
X151942500Y-133591000D01*
G04 #@! TO.N,LCD_B6*
X144339000Y-122364500D02*
X152942500Y-130968000D01*
X143700500Y-122364500D02*
X144339000Y-122364500D01*
X138175999Y-116839999D02*
X143700500Y-122364500D01*
X137921985Y-116586000D02*
X138175984Y-116839999D01*
X138175984Y-116839999D02*
X138175999Y-116839999D01*
X152942500Y-131791500D02*
X152908000Y-131826000D01*
X152942500Y-130968000D02*
X152942500Y-131791500D01*
G04 #@! TO.N,LCD_B7*
X138810987Y-116989849D02*
X143868138Y-122047000D01*
X138556988Y-116586000D02*
X138810987Y-116839999D01*
X138810987Y-116839999D02*
X138810987Y-116989849D01*
X145021500Y-122047000D02*
X153942500Y-130968000D01*
X143868138Y-122047000D02*
X145021500Y-122047000D01*
X153942500Y-133458500D02*
X153797000Y-133604000D01*
X153942500Y-133585500D02*
X153924000Y-133604000D01*
X153942500Y-130968000D02*
X153942500Y-133585500D01*
G04 #@! TO.N,SCLK*
X96710500Y-112522000D02*
X95250000Y-112522000D01*
X96710500Y-112522000D02*
X99060000Y-112522000D01*
X99060000Y-112522000D02*
X99060000Y-114068864D01*
X117931113Y-111454104D02*
X118618000Y-112140991D01*
X126890500Y-112204491D02*
X125984000Y-112204491D01*
X125920500Y-112140991D02*
X125984000Y-112204491D01*
X120078500Y-112140991D02*
X125920500Y-112140991D01*
X99060000Y-114068864D02*
X100834808Y-115843672D01*
X100834808Y-115843672D02*
X100815136Y-115824000D01*
X106023225Y-119888001D02*
X106023225Y-119234752D01*
X106023225Y-119234752D02*
X105152473Y-118364000D01*
X105152473Y-118364000D02*
X104267011Y-117478538D01*
X104267011Y-117478538D02*
X104267011Y-111686319D01*
X104267011Y-111686319D02*
X104499225Y-111454105D01*
X108684791Y-111454104D02*
X108494111Y-111408730D01*
X108494111Y-111408730D02*
X117931113Y-111454104D01*
X94170500Y-112522000D02*
X94043500Y-112395000D01*
X95250000Y-112522000D02*
X94170500Y-112522000D01*
G04 #@! TO.N,Net-(R35-Pad1)*
X87592501Y-116840000D02*
X86073000Y-116840000D01*
G04 #@! TO.N,MOSI*
X96710500Y-114300000D02*
X95758000Y-114300000D01*
X96774000Y-114300000D02*
X96710500Y-114300000D01*
X97282000Y-114808000D02*
X96774000Y-114300000D01*
X97282000Y-116119362D02*
X97282000Y-114808000D01*
X103378000Y-118808500D02*
X99971138Y-118808500D01*
X99971138Y-118808500D02*
X97282000Y-116119362D01*
X109739300Y-112597115D02*
X116840000Y-112597115D01*
X108204000Y-115824000D02*
X108204000Y-114132415D01*
X108204000Y-114132415D02*
X109739300Y-112597115D01*
X108966000Y-116586000D02*
X108204000Y-115824000D01*
X108966000Y-118364000D02*
X108966000Y-116586000D01*
X95123000Y-114300000D02*
X93599000Y-115824000D01*
X95758000Y-114300000D02*
X95123000Y-114300000D01*
G04 #@! TO.N,DRV_IN1*
X112965424Y-123380510D02*
X111506000Y-121921086D01*
X114872575Y-123380511D02*
X112965424Y-123380510D01*
X120651075Y-117602011D02*
X114872575Y-123380511D01*
X126851225Y-118364001D02*
X126089235Y-117602011D01*
X126089235Y-117602011D02*
X120651075Y-117602011D01*
X111506000Y-121921086D02*
X111506000Y-121158000D01*
X111506000Y-121158000D02*
X109220000Y-121158000D01*
X104902000Y-116840000D02*
X104902000Y-112119224D01*
X109220000Y-121158000D02*
X104902000Y-116840000D01*
X104902000Y-112119224D02*
X106986612Y-110034612D01*
X109029525Y-108521499D02*
X109489572Y-108981546D01*
X108244639Y-108521499D02*
X109029525Y-108521499D01*
X108013499Y-108752639D02*
X108244639Y-108521499D01*
X106986612Y-110034612D02*
X108013499Y-109007725D01*
X108013499Y-109007725D02*
X108013499Y-108752639D01*
X127381000Y-118893776D02*
X127381000Y-120713500D01*
X126851225Y-118364001D02*
X127381000Y-118893776D01*
G04 #@! TO.N,DRV_IN2*
X111928724Y-121984586D02*
X111928724Y-120735276D01*
X113070639Y-123126501D02*
X111928724Y-121984586D01*
X114767361Y-123126501D02*
X113070639Y-123126501D01*
X126851225Y-117348001D02*
X120545861Y-117348001D01*
X120545861Y-117348001D02*
X114767361Y-123126501D01*
X111843458Y-120650010D02*
X111506010Y-120650010D01*
X111928724Y-120735276D02*
X111843458Y-120650010D01*
X111506010Y-120650010D02*
X109220010Y-120650010D01*
X109220010Y-120650010D02*
X105156000Y-116586000D01*
X105156000Y-116586000D02*
X105156000Y-112268000D01*
X105156000Y-112268000D02*
X107188000Y-110236000D01*
X107188000Y-110236000D02*
X108458000Y-108966000D01*
X128692724Y-119189500D02*
X130302000Y-119189500D01*
X126851225Y-117348001D02*
X128692724Y-119189500D01*
G04 #@! TO.N,Net-(R39-Pad2)*
X89281000Y-118999000D02*
X84455000Y-118999000D01*
X90551000Y-120269000D02*
X89281000Y-118999000D01*
G04 #@! TO.N,ROT_Y1*
X103632000Y-125476000D02*
X102362000Y-124206000D01*
X102362000Y-124206000D02*
X102362000Y-120205500D01*
X102362000Y-120205500D02*
X102870000Y-119697500D01*
X103124000Y-117856000D02*
X103124000Y-109833226D01*
X103124000Y-109833226D02*
X103229225Y-109728001D01*
X104139999Y-109728001D02*
X104140000Y-109728000D01*
X103229225Y-109728001D02*
X104139999Y-109728001D01*
G04 #@! TO.N,ROT_Y2*
X101854000Y-128524000D02*
X101854000Y-119697500D01*
X102655990Y-117387990D02*
X102655990Y-109307020D01*
X102655990Y-109307020D02*
X102743009Y-109220001D01*
X103505010Y-108458000D02*
X103822500Y-108458000D01*
X102743009Y-109220001D02*
X103505010Y-108458000D01*
G04 #@! TO.N,TX*
X100689225Y-110744001D02*
X99990724Y-110045500D01*
X99990724Y-110045500D02*
X99117234Y-110045500D01*
X104707973Y-118858645D02*
X104707973Y-118318749D01*
X105257366Y-119767248D02*
X105257366Y-119408038D01*
X105257366Y-119408038D02*
X104707973Y-118858645D01*
X104013001Y-110765777D02*
X103991225Y-110744001D01*
X104707973Y-118318749D02*
X104013001Y-117623777D01*
X104013001Y-117623777D02*
X104013001Y-110765777D01*
X99117234Y-110045500D02*
X95343482Y-110045500D01*
X95343482Y-110045500D02*
X95220019Y-109922037D01*
X93853000Y-108555018D02*
X93853000Y-108204000D01*
X95220019Y-109922037D02*
X93853000Y-108555018D01*
G04 #@! TO.N,RX*
X99863724Y-108902500D02*
X98869500Y-108902500D01*
X101257188Y-110295964D02*
X99863724Y-108902500D01*
X101257188Y-111222020D02*
X101257188Y-110295964D01*
X104453963Y-118528101D02*
X103737225Y-117811363D01*
X104453963Y-119697500D02*
X104453963Y-118528101D01*
X103737225Y-117811363D02*
X103737225Y-111420726D01*
X103737225Y-111420726D02*
X103568500Y-111252001D01*
X98869500Y-108902500D02*
X95313500Y-108902500D01*
X95313500Y-108902500D02*
X95250000Y-108839000D01*
X95250000Y-105981500D02*
X95377000Y-105854500D01*
X95250000Y-108839000D02*
X95250000Y-105981500D01*
G04 #@! TO.N,Net-(R55-Pad1)*
X124460000Y-111252000D02*
X127254000Y-111252000D01*
X122174000Y-111551000D02*
X122473000Y-111252000D01*
X122473000Y-111252000D02*
X124460000Y-111252000D01*
G04 #@! TO.N,BTN_A*
X117187716Y-110396284D02*
X109923344Y-110396284D01*
X117856000Y-109728000D02*
X117187716Y-110396284D01*
X119888000Y-105917994D02*
X117856000Y-107949994D01*
X117856000Y-107949994D02*
X117856000Y-109728000D01*
X160464500Y-101600000D02*
X160528000Y-101536500D01*
X159385000Y-101600000D02*
X160464500Y-101600000D01*
G04 #@! TO.N,BTN_B*
X119888000Y-106552997D02*
X118364000Y-108076997D01*
X118364000Y-108076997D02*
X118364000Y-109982000D01*
X117373400Y-110972600D02*
X110236122Y-110972600D01*
X118364000Y-109982000D02*
X117373400Y-110972600D01*
X161607500Y-106235500D02*
X161607500Y-104902000D01*
X160655000Y-107188000D02*
X161607500Y-106235500D01*
G04 #@! TO.N,PKT_PGED*
X106362500Y-101155500D02*
X107188000Y-100330000D01*
X102044499Y-116713001D02*
X102044499Y-107527275D01*
X101790500Y-116967000D02*
X102044499Y-116713001D01*
X102044499Y-107527275D02*
X102891773Y-106680001D01*
X106362500Y-102149724D02*
X106362500Y-101155500D01*
X106511285Y-102298509D02*
X106362500Y-102149724D01*
X106511285Y-106236577D02*
X106511285Y-102298509D01*
X106067861Y-106680001D02*
X106511285Y-106236577D01*
X102891773Y-106680001D02*
X106067861Y-106680001D01*
G04 #@! TO.N,PKT_PGEC*
X106785225Y-101875775D02*
X108267500Y-100393500D01*
X106785225Y-106321861D02*
X106785225Y-101875775D01*
X108267500Y-100393500D02*
X109728000Y-100393500D01*
X102996987Y-106934011D02*
X106173076Y-106934010D01*
X102298509Y-107632489D02*
X102996987Y-106934011D01*
X99930500Y-118110000D02*
X100628999Y-117411501D01*
X102003861Y-117411501D02*
X102235001Y-117180361D01*
X102235001Y-117180361D02*
X102235001Y-116881723D01*
X102235001Y-116881723D02*
X102298509Y-116818215D01*
X106173076Y-106934010D02*
X106785225Y-106321861D01*
X100628999Y-117411501D02*
X102003861Y-117411501D01*
X102298509Y-116818215D02*
X102298509Y-107632489D01*
G04 #@! TO.N,LCD_SHIFT*
X155003500Y-131029000D02*
X154942500Y-130968000D01*
X142875000Y-118900500D02*
X155003500Y-131029000D01*
X142875000Y-118198668D02*
X142875000Y-118900500D01*
X139445990Y-116839999D02*
X139445990Y-116903490D01*
X139191991Y-116586000D02*
X139445990Y-116839999D01*
X139445990Y-116903490D02*
X141033500Y-118491000D01*
X141033500Y-118491000D02*
X141414500Y-118491000D01*
X141414500Y-118491000D02*
X142049500Y-117856000D01*
X142049500Y-117856000D02*
X142494000Y-117856000D01*
X142546426Y-117870094D02*
X142875000Y-118198668D01*
X142508094Y-117870094D02*
X142546426Y-117870094D01*
X142494000Y-117856000D02*
X142508094Y-117870094D01*
X154813000Y-131097500D02*
X154942500Y-130968000D01*
X154813000Y-131826000D02*
X154813000Y-131097500D01*
G04 #@! TO.N,LCD_DISP*
X155942500Y-130573000D02*
X155942500Y-130968000D01*
X142985584Y-117616084D02*
X155942500Y-130573000D01*
X142613308Y-117616084D02*
X142985584Y-117616084D01*
X142599214Y-117601990D02*
X142613308Y-117616084D01*
X140080993Y-116839999D02*
X140080993Y-117157493D01*
X140080993Y-117157493D02*
X141097000Y-118173500D01*
X139826994Y-116586000D02*
X140080993Y-116839999D01*
X141097000Y-118173500D02*
X141351000Y-118173500D01*
X141351000Y-118173500D02*
X141922510Y-117601990D01*
X141922510Y-117601990D02*
X142599214Y-117601990D01*
X155575000Y-131335500D02*
X155942500Y-130968000D01*
X155575000Y-133604000D02*
X155575000Y-131335500D01*
G04 #@! TO.N,LCD_HSYNC*
X143322480Y-117347980D02*
X156608332Y-130633832D01*
X141808220Y-117347980D02*
X143322480Y-117347980D01*
X156608332Y-130633832D02*
X156942500Y-130968000D01*
X141436276Y-117719924D02*
X141808220Y-117347980D01*
X141436276Y-117729000D02*
X141436276Y-117719924D01*
X140461997Y-116586000D02*
X140461997Y-116945210D01*
X140461997Y-116945210D02*
X140589000Y-117072213D01*
X140589000Y-117072213D02*
X140589000Y-117306276D01*
X140589000Y-117306276D02*
X140610776Y-117306276D01*
X140610776Y-117306276D02*
X141033500Y-117729000D01*
X141033500Y-117729000D02*
X141436276Y-117729000D01*
X156942500Y-131347500D02*
X156464000Y-131826000D01*
X156942500Y-130968000D02*
X156942500Y-131347500D01*
G04 #@! TO.N,LCD_VSYNC*
X141097000Y-116945210D02*
X141097000Y-116586000D01*
X141245760Y-117093970D02*
X141097000Y-116945210D01*
X143509970Y-117093970D02*
X141245760Y-117093970D01*
X155600400Y-129184400D02*
X143509970Y-117093970D01*
X157942500Y-130968000D02*
X156158900Y-129184400D01*
X156158900Y-129184400D02*
X155600400Y-129184400D01*
X157942500Y-132760500D02*
X157480000Y-133223000D01*
X157942500Y-130968000D02*
X157942500Y-132760500D01*
G04 #@! TO.N,LCD_DEN*
X158608332Y-130633832D02*
X158942500Y-130968000D01*
X156904890Y-128930390D02*
X158608332Y-130633832D01*
X156022028Y-128930390D02*
X156904890Y-128930390D01*
X143677638Y-116586000D02*
X156022028Y-128930390D01*
X141732000Y-116586000D02*
X143677638Y-116586000D01*
X158942500Y-131887500D02*
X158750000Y-132080000D01*
X158942500Y-130968000D02*
X158942500Y-131887500D01*
G04 #@! TO.N,SS2*
X110744000Y-115062000D02*
X110236000Y-115062000D01*
X118618000Y-116078000D02*
X111760000Y-116078000D01*
X111760000Y-116078000D02*
X110744000Y-115062000D01*
X130302000Y-116078000D02*
X120078500Y-116078000D01*
X130746501Y-117665499D02*
X130619500Y-117792500D01*
X130746501Y-116522501D02*
X130746501Y-117665499D01*
X130302000Y-116078000D02*
X130746501Y-116522501D01*
G04 #@! TO.N,SDO2*
X130048001Y-115062001D02*
X124459999Y-115062001D01*
X130302000Y-115316000D02*
X130048001Y-115062001D01*
X124459999Y-115062001D02*
X124079003Y-115442997D01*
X118618000Y-115442997D02*
X111632997Y-115442997D01*
X110807500Y-114617500D02*
X109668037Y-114617500D01*
X111632997Y-115442997D02*
X110807500Y-114617500D01*
X120078500Y-115442997D02*
X124079003Y-115442997D01*
X130302000Y-115443000D02*
X130302000Y-115316000D01*
X131445000Y-116586000D02*
X130302000Y-115443000D01*
G04 #@! TO.N,SDIO2*
X118618000Y-114807994D02*
X111760006Y-114807994D01*
X110998012Y-114046000D02*
X110236000Y-114046000D01*
X111760006Y-114807994D02*
X110998012Y-114046000D01*
X120078500Y-114807994D02*
X123698006Y-114807994D01*
X123952000Y-114554000D02*
X130302000Y-114554000D01*
X123698006Y-114807994D02*
X123952000Y-114554000D01*
X130746500Y-114554000D02*
X130302000Y-114554000D01*
X131445000Y-115252500D02*
X130746500Y-114554000D01*
G04 #@! TO.N,SCLK2*
X118618000Y-114046000D02*
X111760000Y-114046000D01*
X109981999Y-113371502D02*
X109728000Y-113625501D01*
X111085502Y-113371502D02*
X109981999Y-113371502D01*
X111760000Y-114046000D02*
X111085502Y-113371502D01*
X130174997Y-114046000D02*
X130302000Y-113918997D01*
X120078500Y-114046000D02*
X130174997Y-114046000D01*
X130365503Y-113982500D02*
X130302000Y-113918997D01*
X131381500Y-113982500D02*
X130365503Y-113982500D01*
G04 #@! TO.N,LCD_PD*
X105791000Y-123507500D02*
X105791000Y-123126500D01*
X105791000Y-123126500D02*
X106362500Y-122555000D01*
G04 #@! TO.N,LCD_INT*
X109698019Y-115510037D02*
X110684037Y-115510037D01*
X120078500Y-116840000D02*
X130302000Y-116840000D01*
X112204501Y-117030501D02*
X110684037Y-115510037D01*
X114646743Y-117030501D02*
X112204501Y-117030501D01*
X114897553Y-116779691D02*
X114646743Y-117030501D01*
X118557691Y-116779691D02*
X114897553Y-116779691D01*
X117417882Y-117919500D02*
X118557691Y-116779691D01*
X116586000Y-117919500D02*
X117417882Y-117919500D01*
G04 #@! TO.N,DRV_FLT*
X125581245Y-117856021D02*
X120903979Y-117856021D01*
X126851225Y-119126001D02*
X125581245Y-117856021D01*
X120903979Y-117856021D02*
X120756289Y-117856021D01*
X120756289Y-117856021D02*
X114914310Y-123698000D01*
X114914310Y-123698000D02*
X112776000Y-123698000D01*
X112776000Y-123698000D02*
X111252000Y-122174000D01*
X111252000Y-122174000D02*
X111252000Y-121412000D01*
X111252000Y-121412000D02*
X108966000Y-121412000D01*
X108966000Y-121412000D02*
X104648000Y-117094000D01*
X104648000Y-117094000D02*
X104648000Y-112014000D01*
X104648000Y-112014000D02*
X107175105Y-109486895D01*
X107175105Y-109486895D02*
X107175105Y-108775500D01*
X126492014Y-119126000D02*
X124841000Y-119126000D01*
X126851225Y-119126001D02*
X126492014Y-119126000D01*
G04 #@! TO.N,ADC_CS*
X96520000Y-113284000D02*
X99314000Y-116078000D01*
X95250000Y-113284000D02*
X96520000Y-113284000D01*
X89281000Y-114046000D02*
X89027000Y-113792000D01*
X90170000Y-114046000D02*
X89281000Y-114046000D01*
G04 #@! TO.N,NAND_CS*
X119380000Y-117348000D02*
X115570000Y-121158000D01*
X119888000Y-107188000D02*
X119380000Y-107696000D01*
X119380000Y-107696000D02*
X119380000Y-117348000D01*
X115339001Y-120927001D02*
X115570000Y-121158000D01*
X112627224Y-120927001D02*
X115339001Y-120927001D01*
X112373225Y-121181000D02*
X112627224Y-120927001D01*
X110531725Y-123190000D02*
X109728000Y-123190000D01*
X109728000Y-123190000D02*
X109474000Y-123444000D01*
X123007501Y-105719499D02*
X123507500Y-105219500D01*
X121285001Y-107441999D02*
X123007501Y-105719499D01*
X120141999Y-107441999D02*
X121285001Y-107441999D01*
X119888000Y-107188000D02*
X120141999Y-107441999D01*
G04 #@! TO.N,NAND_WP*
X119126000Y-110236000D02*
X119126000Y-116840000D01*
X118872000Y-109982000D02*
X119126000Y-110236000D01*
X119126000Y-116840000D02*
X115570000Y-120396000D01*
X115570000Y-120396000D02*
X111760000Y-120396000D01*
X111760000Y-120396000D02*
X109588558Y-118224558D01*
X109588558Y-116954558D02*
X109588558Y-116700558D01*
X109588558Y-116700558D02*
X109220000Y-116332000D01*
X109588558Y-118224558D02*
X109588558Y-116954558D01*
X123380500Y-109093000D02*
X123444000Y-109029500D01*
X122174000Y-109093000D02*
X123380500Y-109093000D01*
G04 #@! TO.N,NAND_HOLD*
X108966000Y-113729639D02*
X109578146Y-113117493D01*
X108966000Y-115824000D02*
X108966000Y-113729639D01*
X109578146Y-113117493D02*
X111190717Y-113117493D01*
X127160441Y-109126441D02*
X127281059Y-109247059D01*
X126144441Y-109126441D02*
X127160441Y-109126441D01*
X111190717Y-113117493D02*
X111611225Y-113538001D01*
X111611225Y-113538001D02*
X114913225Y-113538001D01*
X127281059Y-107659559D02*
X126428500Y-106807000D01*
X127281059Y-109247059D02*
X127281059Y-107659559D01*
G04 #@! TO.N,GPS_INT*
X95267638Y-111506000D02*
X85344000Y-101582362D01*
X85344000Y-101582362D02*
X85344000Y-101092000D01*
X95267638Y-111506000D02*
X95948500Y-111506000D01*
X95948500Y-111506000D02*
X96520000Y-112077500D01*
X96834309Y-112969691D02*
X99758501Y-115893883D01*
X99758501Y-115893883D02*
X99758501Y-116395499D01*
X99561653Y-116592347D02*
X99758501Y-116395499D01*
X99561653Y-117593106D02*
X99561653Y-116592347D01*
X85344000Y-102870000D02*
X85344000Y-101092000D01*
X84836000Y-103378000D02*
X85344000Y-102870000D01*
G04 #@! TO.N,LCD_PWM*
X146062700Y-117983000D02*
X154559000Y-117983000D01*
X154559000Y-117983000D02*
X158750000Y-122174000D01*
G04 #@! TO.N,DVDD*
X92710000Y-118872000D02*
X92710000Y-118808500D01*
X92710000Y-112077500D02*
X92710000Y-118808500D01*
X101092000Y-105156000D02*
X105918000Y-105156000D01*
X164846000Y-120269000D02*
X163385500Y-121729500D01*
X164846000Y-119634000D02*
X164846000Y-120269000D01*
G04 #@! TO.N,DVDD_UNREG*
X165862000Y-133604000D02*
X169926000Y-133604000D01*
X168910000Y-108712000D02*
X160528000Y-108712000D01*
X165862000Y-132461000D02*
X165862000Y-133604000D01*
X168084500Y-130238500D02*
X165862000Y-132461000D01*
G04 #@! TD*
M02*
