G04 Layer_Physical_Order=2*
G04 Layer_Color=11436288*
%FSLAX44Y44*%
%MOMM*%
G71*
G01*
G75*
%ADD10C,0.2540*%
%ADD13C,1.5240*%
%ADD14C,1.5000*%
%ADD15C,1.6002*%
G04:AMPARAMS|DCode=16|XSize=1.6002mm|YSize=1.6002mm|CornerRadius=0.4001mm|HoleSize=0mm|Usage=FLASHONLY|Rotation=180.000|XOffset=0mm|YOffset=0mm|HoleType=Round|Shape=RoundedRectangle|*
%AMROUNDEDRECTD16*
21,1,1.6002,0.8001,0,0,180.0*
21,1,0.8001,1.6002,0,0,180.0*
1,1,0.8001,-0.4001,0.4001*
1,1,0.8001,0.4001,0.4001*
1,1,0.8001,0.4001,-0.4001*
1,1,0.8001,-0.4001,-0.4001*
%
%ADD16ROUNDEDRECTD16*%
%ADD17C,3.8100*%
%ADD18O,3.0480X1.5240*%
%ADD19R,3.0480X1.5240*%
%ADD20O,3.0480X1.5240*%
%ADD21C,2.7500*%
%ADD22R,1.5240X1.5240*%
%ADD23C,1.7000*%
%ADD24C,1.5500*%
%ADD25C,1.6000*%
G04:AMPARAMS|DCode=26|XSize=1.6002mm|YSize=1.6002mm|CornerRadius=0.4001mm|HoleSize=0mm|Usage=FLASHONLY|Rotation=270.000|XOffset=0mm|YOffset=0mm|HoleType=Round|Shape=RoundedRectangle|*
%AMROUNDEDRECTD26*
21,1,1.6002,0.8001,0,0,270.0*
21,1,0.8001,1.6002,0,0,270.0*
1,1,0.8001,-0.4001,-0.4001*
1,1,0.8001,-0.4001,0.4001*
1,1,0.8001,0.4001,0.4001*
1,1,0.8001,0.4001,-0.4001*
%
%ADD26ROUNDEDRECTD26*%
%ADD27C,1.6510*%
G04:AMPARAMS|DCode=28|XSize=1.651mm|YSize=1.651mm|CornerRadius=0.4128mm|HoleSize=0mm|Usage=FLASHONLY|Rotation=270.000|XOffset=0mm|YOffset=0mm|HoleType=Round|Shape=RoundedRectangle|*
%AMROUNDEDRECTD28*
21,1,1.6510,0.8255,0,0,270.0*
21,1,0.8255,1.6510,0,0,270.0*
1,1,0.8255,-0.4128,-0.4128*
1,1,0.8255,-0.4128,0.4128*
1,1,0.8255,0.4128,0.4128*
1,1,0.8255,0.4128,-0.4128*
%
%ADD28ROUNDEDRECTD28*%
G04:AMPARAMS|DCode=29|XSize=1.524mm|YSize=1.524mm|CornerRadius=0.381mm|HoleSize=0mm|Usage=FLASHONLY|Rotation=0.000|XOffset=0mm|YOffset=0mm|HoleType=Round|Shape=RoundedRectangle|*
%AMROUNDEDRECTD29*
21,1,1.5240,0.7620,0,0,0.0*
21,1,0.7620,1.5240,0,0,0.0*
1,1,0.7620,0.3810,-0.3810*
1,1,0.7620,-0.3810,-0.3810*
1,1,0.7620,-0.3810,0.3810*
1,1,0.7620,0.3810,0.3810*
%
%ADD29ROUNDEDRECTD29*%
G04:AMPARAMS|DCode=30|XSize=1.524mm|YSize=1.524mm|CornerRadius=0.381mm|HoleSize=0mm|Usage=FLASHONLY|Rotation=270.000|XOffset=0mm|YOffset=0mm|HoleType=Round|Shape=RoundedRectangle|*
%AMROUNDEDRECTD30*
21,1,1.5240,0.7620,0,0,270.0*
21,1,0.7620,1.5240,0,0,270.0*
1,1,0.7620,-0.3810,-0.3810*
1,1,0.7620,-0.3810,0.3810*
1,1,0.7620,0.3810,0.3810*
1,1,0.7620,0.3810,-0.3810*
%
%ADD30ROUNDEDRECTD30*%
G04:AMPARAMS|DCode=31|XSize=1.651mm|YSize=1.651mm|CornerRadius=0.4128mm|HoleSize=0mm|Usage=FLASHONLY|Rotation=0.000|XOffset=0mm|YOffset=0mm|HoleType=Round|Shape=RoundedRectangle|*
%AMROUNDEDRECTD31*
21,1,1.6510,0.8255,0,0,0.0*
21,1,0.8255,1.6510,0,0,0.0*
1,1,0.8255,0.4128,-0.4128*
1,1,0.8255,-0.4128,-0.4128*
1,1,0.8255,-0.4128,0.4128*
1,1,0.8255,0.4128,0.4128*
%
%ADD31ROUNDEDRECTD31*%
%ADD32R,1.7000X1.7000*%
%ADD33C,1.9050*%
%ADD34R,1.5000X1.5000*%
%ADD35R,1.5000X1.5000*%
%ADD36C,1.2700*%
G36*
X1073000Y898000D02*
X1075000Y896000D01*
Y752000D01*
X1091000D01*
X1102000Y741000D01*
X1103000Y742000D01*
X1109027D01*
X1109748Y741702D01*
X1112400Y741352D01*
X1115052Y741702D01*
X1115773Y742000D01*
X1182718D01*
X1183149Y740730D01*
X1182482Y740218D01*
X1180792Y738016D01*
X1179730Y735452D01*
X1179535Y733970D01*
X1200465D01*
X1200270Y735452D01*
X1199208Y738016D01*
X1197518Y740218D01*
X1196851Y740730D01*
X1197282Y742000D01*
X1208000D01*
Y723000D01*
X1212000Y719000D01*
X1209000Y716000D01*
X1195977D01*
X1195316Y716508D01*
X1192752Y717570D01*
X1190000Y717932D01*
X1187248Y717570D01*
X1184684Y716508D01*
X1184023Y716000D01*
X1143000D01*
Y658494D01*
X1118391Y633885D01*
X1071609D01*
X1023885Y681609D01*
Y734300D01*
X1023589Y735787D01*
X1022747Y737047D01*
X999385Y760408D01*
X999899Y761648D01*
X1000248Y764300D01*
X999899Y766952D01*
X998875Y769424D01*
X997246Y771546D01*
X995124Y773175D01*
X992652Y774199D01*
X990000Y774548D01*
X987348Y774199D01*
X984876Y773175D01*
X982754Y771546D01*
X981125Y769424D01*
X980101Y766952D01*
X979752Y764300D01*
X980101Y761648D01*
X981125Y759176D01*
X982754Y757054D01*
X984876Y755425D01*
X987348Y754401D01*
X990000Y754052D01*
X992652Y754401D01*
X993892Y754915D01*
X1016115Y732691D01*
Y680000D01*
X1016411Y678513D01*
X1017253Y677253D01*
X1067253Y627253D01*
X1068513Y626411D01*
X1070000Y626115D01*
X1120000D01*
X1121487Y626411D01*
X1122747Y627253D01*
X1141827Y646333D01*
X1143000Y645847D01*
Y618494D01*
X1138391Y613885D01*
X1071609D01*
X1003885Y681609D01*
Y728900D01*
X1003589Y730387D01*
X1002747Y731647D01*
X999385Y735008D01*
X999899Y736248D01*
X1000248Y738900D01*
X999899Y741552D01*
X998875Y744024D01*
X997246Y746146D01*
X995124Y747775D01*
X992652Y748799D01*
X990000Y749148D01*
X987348Y748799D01*
X984876Y747775D01*
X982754Y746146D01*
X981125Y744024D01*
X980101Y741552D01*
X979752Y738900D01*
X980101Y736248D01*
X981125Y733776D01*
X982754Y731654D01*
X984876Y730025D01*
X987348Y729001D01*
X990000Y728652D01*
X992652Y729001D01*
X993892Y729515D01*
X996115Y727291D01*
Y680000D01*
X996411Y678513D01*
X997253Y677253D01*
X1067253Y607253D01*
X1068513Y606411D01*
X1070000Y606115D01*
X1140000D01*
X1141487Y606411D01*
X1141730Y606574D01*
X1143000Y605895D01*
Y538494D01*
X1139191Y534685D01*
X1076988D01*
X1076475Y535924D01*
X1074846Y538046D01*
X1072724Y539675D01*
X1070252Y540699D01*
X1067600Y541048D01*
X1064948Y540699D01*
X1062476Y539675D01*
X1060354Y538046D01*
X1058725Y535924D01*
X1058212Y534685D01*
X1010809D01*
X933885Y611609D01*
Y694591D01*
X956108Y716815D01*
X957348Y716301D01*
X960000Y715952D01*
X962652Y716301D01*
X965124Y717325D01*
X967246Y718954D01*
X968875Y721076D01*
X969899Y723548D01*
X970248Y726200D01*
X969899Y728852D01*
X968875Y731324D01*
X967246Y733446D01*
X965124Y735075D01*
X962652Y736098D01*
X960000Y736448D01*
X957348Y736098D01*
X954876Y735075D01*
X952754Y733446D01*
X951125Y731324D01*
X950101Y728852D01*
X949752Y726200D01*
X950101Y723548D01*
X950615Y722309D01*
X927253Y698947D01*
X926411Y697687D01*
X926115Y696200D01*
Y610000D01*
X926411Y608513D01*
X927253Y607253D01*
X1006453Y528053D01*
X1007713Y527211D01*
X1007960Y527162D01*
X1009200Y526915D01*
X1058212D01*
X1058725Y525676D01*
X1060354Y523554D01*
X1062476Y521925D01*
X1064948Y520901D01*
X1067600Y520552D01*
X1070252Y520901D01*
X1072724Y521925D01*
X1074846Y523554D01*
X1076475Y525676D01*
X1076988Y526915D01*
X1140800D01*
X1140871Y526930D01*
X1142172Y525985D01*
X1142250Y525250D01*
X1085000Y468000D01*
X1044000Y467000D01*
X1003000Y509000D01*
X981000D01*
X946000Y544000D01*
X939000Y537000D01*
X807000D01*
Y636000D01*
X805000Y638000D01*
X788000Y655000D01*
X745000D01*
Y755000D01*
X742000Y758000D01*
X734000Y767000D01*
X724000D01*
X722079Y768921D01*
X722452Y769679D01*
X722739Y770057D01*
X725352Y770402D01*
X727824Y771425D01*
X729946Y773054D01*
X731575Y775176D01*
X732598Y777648D01*
X732781Y779030D01*
X722700D01*
Y781570D01*
X732781D01*
X732598Y782952D01*
X731575Y785424D01*
X729946Y787546D01*
X727831Y789169D01*
X727827Y789202D01*
X727965Y790491D01*
X728921Y790681D01*
X730181Y791523D01*
X732658Y794000D01*
X741000D01*
Y802342D01*
X759773Y821115D01*
X780892D01*
X781397Y819845D01*
X779993Y818016D01*
X778931Y815452D01*
X778569Y812700D01*
X778931Y809949D01*
X779993Y807384D01*
X781683Y805183D01*
X783885Y803493D01*
X786449Y802431D01*
X789200Y802069D01*
X791952Y802431D01*
X794516Y803493D01*
X796717Y805183D01*
X798407Y807384D01*
X799469Y809949D01*
X799831Y812700D01*
X799469Y815452D01*
X798407Y818016D01*
X797002Y819845D01*
X797508Y821115D01*
X798000D01*
X799487Y821411D01*
X800747Y822253D01*
X801589Y823513D01*
X801885Y825000D01*
Y828589D01*
X803757Y830461D01*
X804599Y831722D01*
X804895Y833208D01*
Y851690D01*
X804599Y853177D01*
X803757Y854437D01*
X798876Y859318D01*
X799469Y860749D01*
X799831Y863500D01*
X799469Y866252D01*
X798407Y868816D01*
X796717Y871017D01*
X794516Y872707D01*
X791952Y873769D01*
X789200Y874131D01*
X786449Y873769D01*
X783885Y872707D01*
X781683Y871017D01*
X779993Y868816D01*
X778931Y866252D01*
X778569Y863500D01*
X778931Y860749D01*
X779993Y858185D01*
X781683Y855983D01*
X783885Y854293D01*
X786449Y853231D01*
X789200Y852869D01*
X791952Y853231D01*
X793382Y853824D01*
X797125Y850081D01*
Y846905D01*
X795855Y846279D01*
X794516Y847307D01*
X791952Y848369D01*
X789200Y848731D01*
X786449Y848369D01*
X783885Y847307D01*
X781683Y845617D01*
X780286Y843797D01*
X779494Y843955D01*
X747834D01*
X746348Y843659D01*
X745088Y842817D01*
X742173Y839903D01*
X741000Y840389D01*
Y1053000D01*
X754000Y1066000D01*
X756000Y1068000D01*
X786377D01*
X787256Y1067325D01*
X789728Y1066301D01*
X792380Y1065952D01*
X807620D01*
X810272Y1066301D01*
X812744Y1067325D01*
X813623Y1068000D01*
X903000D01*
X1073000Y898000D01*
D02*
G37*
G36*
X778717Y835353D02*
X779010Y835157D01*
X779993Y832785D01*
X781683Y830583D01*
X782241Y830155D01*
X781810Y828885D01*
X758165D01*
X756678Y828589D01*
X755418Y827747D01*
X742173Y814503D01*
X741000Y814989D01*
Y827742D01*
X749444Y836185D01*
X777885D01*
X778717Y835353D01*
D02*
G37*
G36*
X279000Y1142000D02*
X578000D01*
X654000Y1066000D01*
X665000Y1055000D01*
Y762000D01*
Y756000D01*
X677000Y744000D01*
X680000Y741000D01*
X697082D01*
X697092Y740861D01*
X697508D01*
X697518Y741000D01*
X703000D01*
X712000Y732000D01*
X710000Y730000D01*
Y717000D01*
X689000D01*
X687000Y715000D01*
X673000Y701000D01*
X666000D01*
Y566000D01*
X669000Y563000D01*
X711000Y521000D01*
X942000D01*
Y519000D01*
X966000Y495000D01*
X981000Y480000D01*
X1004000D01*
X1030000Y454000D01*
X1026000Y450000D01*
Y263000D01*
X270000D01*
X266000Y267000D01*
X267000Y268000D01*
Y1152204D01*
X268270Y1152730D01*
X279000Y1142000D01*
D02*
G37*
G36*
X1139000Y1214000D02*
X1185000Y1168000D01*
X1224000Y1129000D01*
X1239000D01*
Y814000D01*
X1244827Y808173D01*
X1244341Y807000D01*
X1149000D01*
Y990000D01*
X1153000Y994000D01*
X1054000Y1093000D01*
Y1120000D01*
X816491D01*
X815929Y1121139D01*
X816495Y1121876D01*
X817518Y1124348D01*
X817868Y1127000D01*
X817518Y1129652D01*
X816495Y1132124D01*
X814866Y1134246D01*
X812744Y1135875D01*
X810272Y1136898D01*
X807620Y1137248D01*
X792380D01*
X789728Y1136898D01*
X787256Y1135875D01*
X785134Y1134246D01*
X783505Y1132124D01*
X782482Y1129652D01*
X782132Y1127000D01*
X782482Y1124348D01*
X783505Y1121876D01*
X784071Y1121139D01*
X783509Y1120000D01*
X726314D01*
X725352Y1120398D01*
X722700Y1120748D01*
X720048Y1120398D01*
X719086Y1120000D01*
X700914D01*
X699952Y1120398D01*
X697300Y1120748D01*
X694648Y1120398D01*
X693686Y1120000D01*
X655000D01*
X651000Y1124000D01*
X616000Y1159000D01*
X403000D01*
Y1232000D01*
X1139000D01*
Y1214000D01*
D02*
G37*
%LPC*%
G36*
X490000Y640335D02*
X487118Y639956D01*
X484432Y638843D01*
X482126Y637074D01*
X480357Y634768D01*
X479244Y632082D01*
X478865Y629200D01*
X479244Y626318D01*
X480357Y623632D01*
X482126Y621326D01*
X484432Y619557D01*
X487118Y618444D01*
X490000Y618065D01*
X492882Y618444D01*
X495568Y619557D01*
X497874Y621326D01*
X499643Y623632D01*
X500756Y626318D01*
X501135Y629200D01*
X500756Y632082D01*
X499643Y634768D01*
X497874Y637074D01*
X495568Y638843D01*
X492882Y639956D01*
X490000Y640335D01*
D02*
G37*
G36*
X330000Y638648D02*
X327348Y638298D01*
X324876Y637275D01*
X322754Y635646D01*
X321125Y633524D01*
X320102Y631052D01*
X319752Y628400D01*
X320102Y625748D01*
X321125Y623276D01*
X322754Y621154D01*
X324876Y619525D01*
X327348Y618502D01*
X330000Y618152D01*
X332652Y618502D01*
X335124Y619525D01*
X337246Y621154D01*
X338875Y623276D01*
X339898Y625748D01*
X340248Y628400D01*
X339898Y631052D01*
X338875Y633524D01*
X337246Y635646D01*
X335124Y637275D01*
X332652Y638298D01*
X330000Y638648D01*
D02*
G37*
G36*
X341870Y546081D02*
Y537270D01*
X350681D01*
X350499Y538652D01*
X349475Y541124D01*
X347846Y543246D01*
X345724Y544875D01*
X343252Y545899D01*
X341870Y546081D01*
D02*
G37*
G36*
X339330D02*
X337948Y545899D01*
X335476Y544875D01*
X333354Y543246D01*
X331725Y541124D01*
X330701Y538652D01*
X330519Y537270D01*
X339330D01*
Y546081D01*
D02*
G37*
G36*
X1067600Y590594D02*
X1063368Y590178D01*
X1059298Y588943D01*
X1055547Y586938D01*
X1052260Y584240D01*
X1049562Y580953D01*
X1047557Y577202D01*
X1046322Y573132D01*
X1045906Y568900D01*
X1046322Y564668D01*
X1047557Y560598D01*
X1049562Y556847D01*
X1052260Y553560D01*
X1055547Y550862D01*
X1059298Y548857D01*
X1063368Y547622D01*
X1067600Y547206D01*
X1071832Y547622D01*
X1075902Y548857D01*
X1079653Y550862D01*
X1082940Y553560D01*
X1085638Y556847D01*
X1087643Y560598D01*
X1088878Y564668D01*
X1089295Y568900D01*
X1088878Y573132D01*
X1087643Y577202D01*
X1085638Y580953D01*
X1082940Y584240D01*
X1079653Y586938D01*
X1075902Y588943D01*
X1071832Y590178D01*
X1067600Y590594D01*
D02*
G37*
G36*
X630000Y617848D02*
X627348Y617499D01*
X624876Y616475D01*
X622754Y614846D01*
X621125Y612724D01*
X620102Y610252D01*
X619752Y607600D01*
X620102Y604948D01*
X621125Y602476D01*
X622754Y600354D01*
X624876Y598725D01*
X627348Y597701D01*
X630000Y597352D01*
X632652Y597701D01*
X635124Y598725D01*
X637246Y600354D01*
X638875Y602476D01*
X639898Y604948D01*
X640248Y607600D01*
X639898Y610252D01*
X638875Y612724D01*
X637246Y614846D01*
X635124Y616475D01*
X632652Y617499D01*
X630000Y617848D01*
D02*
G37*
G36*
X998600Y606155D02*
X994368Y605738D01*
X990298Y604503D01*
X986547Y602498D01*
X983260Y599800D01*
X980562Y596513D01*
X978557Y592762D01*
X977322Y588692D01*
X976906Y584460D01*
X977322Y580228D01*
X978557Y576158D01*
X980562Y572407D01*
X983260Y569120D01*
X986547Y566422D01*
X990298Y564417D01*
X994368Y563182D01*
X998600Y562766D01*
X1002832Y563182D01*
X1006902Y564417D01*
X1010653Y566422D01*
X1013940Y569120D01*
X1016638Y572407D01*
X1018643Y576158D01*
X1019878Y580228D01*
X1020294Y584460D01*
X1019878Y588692D01*
X1018643Y592762D01*
X1016638Y596513D01*
X1013940Y599800D01*
X1010653Y602498D01*
X1006902Y604503D01*
X1002832Y605738D01*
X998600Y606155D01*
D02*
G37*
G36*
X370630Y651859D02*
X369279Y651682D01*
X366837Y650670D01*
X364739Y649061D01*
X363130Y646963D01*
X362118Y644521D01*
X361941Y643170D01*
X370630D01*
Y651859D01*
D02*
G37*
G36*
X1112400Y660248D02*
X1109748Y659899D01*
X1107276Y658875D01*
X1105154Y657246D01*
X1103525Y655124D01*
X1102502Y652652D01*
X1102152Y650000D01*
X1102502Y647348D01*
X1103525Y644876D01*
X1105154Y642754D01*
X1107276Y641125D01*
X1109748Y640101D01*
X1112400Y639752D01*
X1115052Y640101D01*
X1117524Y641125D01*
X1119646Y642754D01*
X1121275Y644876D01*
X1122299Y647348D01*
X1122648Y650000D01*
X1122299Y652652D01*
X1121275Y655124D01*
X1119646Y657246D01*
X1117524Y658875D01*
X1115052Y659899D01*
X1112400Y660248D01*
D02*
G37*
G36*
X371900Y677427D02*
X369279Y677082D01*
X366837Y676070D01*
X364739Y674461D01*
X363130Y672363D01*
X362118Y669921D01*
X361773Y667300D01*
X362118Y664679D01*
X363130Y662237D01*
X364739Y660139D01*
X366837Y658530D01*
X369279Y657518D01*
X371900Y657173D01*
X374521Y657518D01*
X376963Y658530D01*
X379061Y660139D01*
X380670Y662237D01*
X381682Y664679D01*
X382027Y667300D01*
X381682Y669921D01*
X380670Y672363D01*
X379061Y674461D01*
X376963Y676070D01*
X374521Y677082D01*
X371900Y677427D01*
D02*
G37*
G36*
X373170Y651859D02*
Y643170D01*
X381859D01*
X381682Y644521D01*
X380670Y646963D01*
X379061Y649061D01*
X376963Y650670D01*
X374521Y651682D01*
X373170Y651859D01*
D02*
G37*
G36*
X960000Y660248D02*
X957348Y659899D01*
X954876Y658875D01*
X952754Y657246D01*
X951125Y655124D01*
X950101Y652652D01*
X949752Y650000D01*
X950101Y647348D01*
X951125Y644876D01*
X952754Y642754D01*
X954876Y641125D01*
X957348Y640101D01*
X960000Y639752D01*
X962652Y640101D01*
X965124Y641125D01*
X967246Y642754D01*
X968875Y644876D01*
X969899Y647348D01*
X970248Y650000D01*
X969899Y652652D01*
X968875Y655124D01*
X967246Y657246D01*
X965124Y658875D01*
X962652Y659899D01*
X960000Y660248D01*
D02*
G37*
G36*
X448100Y652027D02*
X445479Y651682D01*
X443037Y650670D01*
X440939Y649061D01*
X439330Y646963D01*
X438318Y644521D01*
X437973Y641900D01*
X438318Y639279D01*
X439330Y636837D01*
X440939Y634739D01*
X443037Y633130D01*
X445479Y632118D01*
X448100Y631773D01*
X450721Y632118D01*
X453163Y633130D01*
X455261Y634739D01*
X456870Y636837D01*
X457882Y639279D01*
X458227Y641900D01*
X457882Y644521D01*
X456870Y646963D01*
X455261Y649061D01*
X453163Y650670D01*
X450721Y651682D01*
X448100Y652027D01*
D02*
G37*
G36*
X290000Y641135D02*
X287118Y640756D01*
X284432Y639643D01*
X282126Y637874D01*
X280357Y635568D01*
X279244Y632882D01*
X278865Y630000D01*
X279244Y627118D01*
X280357Y624432D01*
X282126Y622126D01*
X284432Y620357D01*
X287118Y619244D01*
X290000Y618865D01*
X292882Y619244D01*
X295568Y620357D01*
X297874Y622126D01*
X299643Y624432D01*
X300756Y627118D01*
X301135Y630000D01*
X300756Y632882D01*
X299643Y635568D01*
X297874Y637874D01*
X295568Y639643D01*
X292882Y640756D01*
X290000Y641135D01*
D02*
G37*
G36*
X381859Y640630D02*
X373170D01*
Y631941D01*
X374521Y632118D01*
X376963Y633130D01*
X379061Y634739D01*
X380670Y636837D01*
X381682Y639279D01*
X381859Y640630D01*
D02*
G37*
G36*
X370630D02*
X361941D01*
X362118Y639279D01*
X363130Y636837D01*
X364739Y634739D01*
X366837Y633130D01*
X369279Y632118D01*
X370630Y631941D01*
Y640630D01*
D02*
G37*
G36*
X537300Y508227D02*
X534679Y507882D01*
X532237Y506870D01*
X530139Y505261D01*
X528530Y503163D01*
X527518Y500721D01*
X527173Y498100D01*
X527518Y495479D01*
X528530Y493037D01*
X530139Y490939D01*
X532237Y489330D01*
X534679Y488318D01*
X537300Y487973D01*
X539921Y488318D01*
X542363Y489330D01*
X544461Y490939D01*
X546070Y493037D01*
X547082Y495479D01*
X547427Y498100D01*
X547082Y500721D01*
X546070Y503163D01*
X544461Y505261D01*
X542363Y506870D01*
X539921Y507882D01*
X537300Y508227D01*
D02*
G37*
G36*
X511900D02*
X509279Y507882D01*
X506837Y506870D01*
X504739Y505261D01*
X503130Y503163D01*
X502118Y500721D01*
X501773Y498100D01*
X502118Y495479D01*
X503130Y493037D01*
X504739Y490939D01*
X506837Y489330D01*
X509279Y488318D01*
X511900Y487973D01*
X514521Y488318D01*
X516963Y489330D01*
X519061Y490939D01*
X520670Y493037D01*
X521682Y495479D01*
X522027Y498100D01*
X521682Y500721D01*
X520670Y503163D01*
X519061Y505261D01*
X516963Y506870D01*
X514521Y507882D01*
X511900Y508227D01*
D02*
G37*
G36*
X280000Y520248D02*
X277348Y519898D01*
X274876Y518875D01*
X272754Y517246D01*
X271125Y515124D01*
X270102Y512652D01*
X269752Y510000D01*
X270102Y507348D01*
X271125Y504876D01*
X272754Y502754D01*
X274876Y501125D01*
X277348Y500102D01*
X280000Y499752D01*
X282652Y500102D01*
X285124Y501125D01*
X287246Y502754D01*
X288875Y504876D01*
X289898Y507348D01*
X290248Y510000D01*
X289898Y512652D01*
X288875Y515124D01*
X287246Y517246D01*
X285124Y518875D01*
X282652Y519898D01*
X280000Y520248D01*
D02*
G37*
G36*
X1067600Y515648D02*
X1064948Y515299D01*
X1062476Y514275D01*
X1060354Y512646D01*
X1058725Y510524D01*
X1057701Y508052D01*
X1057352Y505400D01*
X1057701Y502748D01*
X1058725Y500276D01*
X1060354Y498154D01*
X1062476Y496525D01*
X1064948Y495502D01*
X1067600Y495152D01*
X1070252Y495502D01*
X1072724Y496525D01*
X1074846Y498154D01*
X1076475Y500276D01*
X1077498Y502748D01*
X1077848Y505400D01*
X1077498Y508052D01*
X1076475Y510524D01*
X1074846Y512646D01*
X1072724Y514275D01*
X1070252Y515299D01*
X1067600Y515648D01*
D02*
G37*
G36*
X321900Y508227D02*
X319279Y507882D01*
X316837Y506870D01*
X314739Y505261D01*
X313130Y503163D01*
X312118Y500721D01*
X311773Y498100D01*
X312118Y495479D01*
X313130Y493037D01*
X314739Y490939D01*
X316837Y489330D01*
X319279Y488318D01*
X321900Y487973D01*
X324521Y488318D01*
X326963Y489330D01*
X329061Y490939D01*
X330670Y493037D01*
X331682Y495479D01*
X332027Y498100D01*
X331682Y500721D01*
X330670Y503163D01*
X329061Y505261D01*
X326963Y506870D01*
X324521Y507882D01*
X321900Y508227D01*
D02*
G37*
G36*
X1068870Y490080D02*
Y481270D01*
X1077681D01*
X1077498Y482652D01*
X1076475Y485124D01*
X1074846Y487246D01*
X1072724Y488875D01*
X1070252Y489898D01*
X1068870Y490080D01*
D02*
G37*
G36*
X398100Y508227D02*
X395479Y507882D01*
X393037Y506870D01*
X390939Y505261D01*
X389330Y503163D01*
X388318Y500721D01*
X387973Y498100D01*
X388318Y495479D01*
X389330Y493037D01*
X390939Y490939D01*
X393037Y489330D01*
X395479Y488318D01*
X398100Y487973D01*
X400721Y488318D01*
X403163Y489330D01*
X405261Y490939D01*
X406870Y493037D01*
X407882Y495479D01*
X408227Y498100D01*
X407882Y500721D01*
X406870Y503163D01*
X405261Y505261D01*
X403163Y506870D01*
X400721Y507882D01*
X398100Y508227D01*
D02*
G37*
G36*
X347300D02*
X344679Y507882D01*
X342237Y506870D01*
X340139Y505261D01*
X338530Y503163D01*
X337518Y500721D01*
X337173Y498100D01*
X337518Y495479D01*
X338530Y493037D01*
X340139Y490939D01*
X342237Y489330D01*
X344679Y488318D01*
X347300Y487973D01*
X349921Y488318D01*
X352363Y489330D01*
X354461Y490939D01*
X356070Y493037D01*
X357082Y495479D01*
X357427Y498100D01*
X357082Y500721D01*
X356070Y503163D01*
X354461Y505261D01*
X352363Y506870D01*
X349921Y507882D01*
X347300Y508227D01*
D02*
G37*
G36*
X480000Y520248D02*
X477348Y519898D01*
X474876Y518875D01*
X472754Y517246D01*
X471125Y515124D01*
X470102Y512652D01*
X469752Y510000D01*
X470102Y507348D01*
X471125Y504876D01*
X472754Y502754D01*
X474876Y501125D01*
X477348Y500102D01*
X480000Y499752D01*
X482652Y500102D01*
X485124Y501125D01*
X487246Y502754D01*
X488875Y504876D01*
X489898Y507348D01*
X490248Y510000D01*
X489898Y512652D01*
X488875Y515124D01*
X487246Y517246D01*
X485124Y518875D01*
X482652Y519898D01*
X480000Y520248D01*
D02*
G37*
G36*
X350681Y534730D02*
X341870D01*
Y525919D01*
X343252Y526101D01*
X345724Y527125D01*
X347846Y528754D01*
X349475Y530876D01*
X350499Y533348D01*
X350681Y534730D01*
D02*
G37*
G36*
X339330D02*
X330519D01*
X330701Y533348D01*
X331725Y530876D01*
X333354Y528754D01*
X335476Y527125D01*
X337948Y526101D01*
X339330Y525919D01*
Y534730D01*
D02*
G37*
G36*
X516870Y545080D02*
Y536270D01*
X525681D01*
X525499Y537652D01*
X524475Y540124D01*
X522846Y542246D01*
X520724Y543875D01*
X518252Y544898D01*
X516870Y545080D01*
D02*
G37*
G36*
X514330D02*
X512948Y544898D01*
X510476Y543875D01*
X508354Y542246D01*
X506725Y540124D01*
X505701Y537652D01*
X505519Y536270D01*
X514330D01*
Y545080D01*
D02*
G37*
G36*
Y533730D02*
X505519D01*
X505701Y532348D01*
X506725Y529876D01*
X508354Y527754D01*
X510476Y526125D01*
X512948Y525102D01*
X514330Y524920D01*
Y533730D01*
D02*
G37*
G36*
X541000Y545248D02*
X538348Y544898D01*
X535876Y543875D01*
X533754Y542246D01*
X532125Y540124D01*
X531101Y537652D01*
X530752Y535000D01*
X531101Y532348D01*
X532125Y529876D01*
X533754Y527754D01*
X535876Y526125D01*
X538348Y525102D01*
X541000Y524752D01*
X543652Y525102D01*
X546124Y526125D01*
X548246Y527754D01*
X549875Y529876D01*
X550899Y532348D01*
X551248Y535000D01*
X550899Y537652D01*
X549875Y540124D01*
X548246Y542246D01*
X546124Y543875D01*
X543652Y544898D01*
X541000Y545248D01*
D02*
G37*
G36*
X366000Y546248D02*
X363348Y545899D01*
X360876Y544875D01*
X358754Y543246D01*
X357125Y541124D01*
X356101Y538652D01*
X355752Y536000D01*
X356101Y533348D01*
X357125Y530876D01*
X358754Y528754D01*
X360876Y527125D01*
X363348Y526101D01*
X366000Y525752D01*
X368652Y526101D01*
X371124Y527125D01*
X373246Y528754D01*
X374875Y530876D01*
X375899Y533348D01*
X376248Y536000D01*
X375899Y538652D01*
X374875Y541124D01*
X373246Y543246D01*
X371124Y544875D01*
X368652Y545899D01*
X366000Y546248D01*
D02*
G37*
G36*
X525681Y533730D02*
X516870D01*
Y524920D01*
X518252Y525102D01*
X520724Y526125D01*
X522846Y527754D01*
X524475Y529876D01*
X525499Y532348D01*
X525681Y533730D01*
D02*
G37*
G36*
X448100Y677427D02*
X445479Y677082D01*
X443037Y676070D01*
X440939Y674461D01*
X439330Y672363D01*
X438318Y669921D01*
X437973Y667300D01*
X438318Y664679D01*
X439330Y662237D01*
X440939Y660139D01*
X443037Y658530D01*
X445479Y657518D01*
X448100Y657173D01*
X450721Y657518D01*
X453163Y658530D01*
X455261Y660139D01*
X456870Y662237D01*
X457882Y664679D01*
X458227Y667300D01*
X457882Y669921D01*
X456870Y672363D01*
X455261Y674461D01*
X453163Y676070D01*
X450721Y677082D01*
X448100Y677427D01*
D02*
G37*
G36*
X1113670Y736281D02*
Y727470D01*
X1122480D01*
X1122299Y728852D01*
X1121275Y731324D01*
X1119646Y733446D01*
X1117524Y735075D01*
X1115052Y736098D01*
X1113670Y736281D01*
D02*
G37*
G36*
X1111130D02*
X1109748Y736098D01*
X1107276Y735075D01*
X1105154Y733446D01*
X1103525Y731324D01*
X1102502Y728852D01*
X1102319Y727470D01*
X1111130D01*
Y736281D01*
D02*
G37*
G36*
X698570Y739581D02*
Y730770D01*
X707381D01*
X707198Y732152D01*
X706175Y734624D01*
X704546Y736746D01*
X702424Y738375D01*
X699952Y739398D01*
X698570Y739581D01*
D02*
G37*
G36*
X696030D02*
X694648Y739398D01*
X692176Y738375D01*
X690054Y736746D01*
X688425Y734624D01*
X687402Y732152D01*
X687219Y730770D01*
X696030D01*
Y739581D01*
D02*
G37*
G36*
X1200465Y731430D02*
X1191270D01*
Y722235D01*
X1192752Y722430D01*
X1195316Y723493D01*
X1197518Y725182D01*
X1199208Y727384D01*
X1200270Y729948D01*
X1200465Y731430D01*
D02*
G37*
G36*
X1188730D02*
X1179535D01*
X1179730Y729948D01*
X1180792Y727384D01*
X1182482Y725182D01*
X1184684Y723493D01*
X1187248Y722430D01*
X1188730Y722235D01*
Y731430D01*
D02*
G37*
G36*
X890800Y747131D02*
X888048Y746769D01*
X885484Y745707D01*
X883283Y744017D01*
X881593Y741815D01*
X880531Y739251D01*
X880169Y736500D01*
X880531Y733748D01*
X881593Y731184D01*
X883283Y728983D01*
X885484Y727293D01*
X888048Y726231D01*
X890800Y725869D01*
X893551Y726231D01*
X896115Y727293D01*
X898317Y728983D01*
X900007Y731184D01*
X901069Y733748D01*
X901431Y736500D01*
X901069Y739251D01*
X900007Y741815D01*
X898317Y744017D01*
X896115Y745707D01*
X893551Y746769D01*
X890800Y747131D01*
D02*
G37*
G36*
X789200D02*
X786449Y746769D01*
X783885Y745707D01*
X781683Y744017D01*
X779993Y741815D01*
X778931Y739251D01*
X778569Y736500D01*
X778931Y733748D01*
X779993Y731184D01*
X781683Y728983D01*
X783885Y727293D01*
X786449Y726231D01*
X789200Y725869D01*
X791952Y726231D01*
X794516Y727293D01*
X796717Y728983D01*
X798407Y731184D01*
X799469Y733748D01*
X799831Y736500D01*
X799469Y739251D01*
X798407Y741815D01*
X796717Y744017D01*
X794516Y745707D01*
X791952Y746769D01*
X789200Y747131D01*
D02*
G37*
G36*
X538231Y742003D02*
X536351Y741755D01*
X533416Y740540D01*
X530896Y738606D01*
X528962Y736085D01*
X527746Y733150D01*
X527499Y731271D01*
X538231D01*
Y742003D01*
D02*
G37*
G36*
X789200Y772531D02*
X786449Y772169D01*
X783885Y771107D01*
X781683Y769417D01*
X779993Y767215D01*
X778931Y764651D01*
X778569Y761900D01*
X778931Y759148D01*
X779993Y756584D01*
X781683Y754383D01*
X783885Y752693D01*
X786449Y751631D01*
X789200Y751269D01*
X791952Y751631D01*
X794516Y752693D01*
X796717Y754383D01*
X798407Y756584D01*
X799469Y759148D01*
X799831Y761900D01*
X799469Y764651D01*
X798407Y767215D01*
X796717Y769417D01*
X794516Y771107D01*
X791952Y772169D01*
X789200Y772531D01*
D02*
G37*
G36*
X630000Y770248D02*
X627348Y769899D01*
X624876Y768875D01*
X622754Y767246D01*
X621125Y765124D01*
X620102Y762652D01*
X619752Y760000D01*
X620102Y757348D01*
X621125Y754876D01*
X622754Y752754D01*
X624876Y751125D01*
X627348Y750101D01*
X630000Y749752D01*
X632652Y750101D01*
X635124Y751125D01*
X637246Y752754D01*
X638875Y754876D01*
X639898Y757348D01*
X640248Y760000D01*
X639898Y762652D01*
X638875Y765124D01*
X637246Y767246D01*
X635124Y768875D01*
X632652Y769899D01*
X630000Y770248D01*
D02*
G37*
G36*
X960000Y787248D02*
X957348Y786898D01*
X954876Y785875D01*
X952754Y784246D01*
X951125Y782124D01*
X950101Y779652D01*
X949752Y777000D01*
X950101Y774348D01*
X951125Y771876D01*
X952754Y769754D01*
X954876Y768125D01*
X957348Y767102D01*
X960000Y766752D01*
X962652Y767102D01*
X965124Y768125D01*
X967246Y769754D01*
X968875Y771876D01*
X969899Y774348D01*
X970248Y777000D01*
X969899Y779652D01*
X968875Y782124D01*
X967246Y784246D01*
X965124Y785875D01*
X962652Y786898D01*
X960000Y787248D01*
D02*
G37*
G36*
X890800Y772531D02*
X888048Y772169D01*
X885484Y771107D01*
X883283Y769417D01*
X881593Y767215D01*
X880531Y764651D01*
X880169Y761900D01*
X880531Y759148D01*
X881593Y756584D01*
X883283Y754383D01*
X885484Y752693D01*
X888048Y751631D01*
X890800Y751269D01*
X893551Y751631D01*
X896115Y752693D01*
X898317Y754383D01*
X900007Y756584D01*
X901069Y759148D01*
X901431Y761900D01*
X901069Y764651D01*
X900007Y767215D01*
X898317Y769417D01*
X896115Y771107D01*
X893551Y772169D01*
X890800Y772531D01*
D02*
G37*
G36*
X288730Y742568D02*
X287118Y742356D01*
X284432Y741243D01*
X282126Y739474D01*
X280357Y737168D01*
X279244Y734482D01*
X279032Y732870D01*
X288730D01*
Y742568D01*
D02*
G37*
G36*
X564501Y742170D02*
X561351Y741755D01*
X558416Y740540D01*
X555896Y738606D01*
X553962Y736085D01*
X552746Y733150D01*
X552641Y732352D01*
X551360D01*
X551255Y733150D01*
X550039Y736085D01*
X548106Y738606D01*
X545585Y740540D01*
X542650Y741755D01*
X540771Y742003D01*
Y730001D01*
Y717999D01*
X542650Y718246D01*
X545585Y719462D01*
X548106Y721396D01*
X550039Y723916D01*
X551255Y726851D01*
X551360Y727650D01*
X552641D01*
X552746Y726851D01*
X553962Y723916D01*
X555896Y721396D01*
X558416Y719462D01*
X561351Y718246D01*
X564501Y717832D01*
X567650Y718246D01*
X570585Y719462D01*
X573106Y721396D01*
X575040Y723916D01*
X576255Y726851D01*
X576670Y730001D01*
X576255Y733150D01*
X575040Y736085D01*
X573106Y738606D01*
X570585Y740540D01*
X567650Y741755D01*
X564501Y742170D01*
D02*
G37*
G36*
X960000Y761848D02*
X957348Y761498D01*
X954876Y760475D01*
X952754Y758846D01*
X951125Y756724D01*
X950101Y754252D01*
X949752Y751600D01*
X950101Y748948D01*
X951125Y746476D01*
X952754Y744354D01*
X954876Y742725D01*
X957348Y741702D01*
X960000Y741352D01*
X962652Y741702D01*
X965124Y742725D01*
X967246Y744354D01*
X968875Y746476D01*
X969899Y748948D01*
X970248Y751600D01*
X969899Y754252D01*
X968875Y756724D01*
X967246Y758846D01*
X965124Y760475D01*
X962652Y761498D01*
X960000Y761848D01*
D02*
G37*
G36*
X291270Y742568D02*
Y732870D01*
X300968D01*
X300756Y734482D01*
X299643Y737168D01*
X297874Y739474D01*
X295568Y741243D01*
X292882Y742356D01*
X291270Y742568D01*
D02*
G37*
G36*
X1112400Y711048D02*
X1109748Y710698D01*
X1107276Y709675D01*
X1105154Y708046D01*
X1103525Y705924D01*
X1102502Y703452D01*
X1102152Y700800D01*
X1102502Y698148D01*
X1103525Y695676D01*
X1105154Y693554D01*
X1107276Y691925D01*
X1109748Y690901D01*
X1112400Y690552D01*
X1115052Y690901D01*
X1117524Y691925D01*
X1119646Y693554D01*
X1121275Y695676D01*
X1122299Y698148D01*
X1122648Y700800D01*
X1122299Y703452D01*
X1121275Y705924D01*
X1119646Y708046D01*
X1117524Y709675D01*
X1115052Y710698D01*
X1112400Y711048D01*
D02*
G37*
G36*
X960000D02*
X957348Y710698D01*
X954876Y709675D01*
X952754Y708046D01*
X951125Y705924D01*
X950101Y703452D01*
X949752Y700800D01*
X950101Y698148D01*
X951125Y695676D01*
X952754Y693554D01*
X954876Y691925D01*
X957348Y690901D01*
X960000Y690552D01*
X962652Y690901D01*
X965124Y691925D01*
X967246Y693554D01*
X968875Y695676D01*
X969899Y698148D01*
X970248Y700800D01*
X969899Y703452D01*
X968875Y705924D01*
X967246Y708046D01*
X965124Y709675D01*
X962652Y710698D01*
X960000Y711048D01*
D02*
G37*
G36*
X381940Y728140D02*
X361860D01*
Y708060D01*
X381940D01*
Y728140D01*
D02*
G37*
G36*
X448100Y728227D02*
X445479Y727882D01*
X443037Y726870D01*
X440939Y725261D01*
X439330Y723163D01*
X438318Y720721D01*
X437973Y718100D01*
X438318Y715479D01*
X439330Y713037D01*
X440939Y710939D01*
X443037Y709330D01*
X445479Y708318D01*
X448100Y707973D01*
X450721Y708318D01*
X453163Y709330D01*
X455261Y710939D01*
X456870Y713037D01*
X457882Y715479D01*
X458227Y718100D01*
X457882Y720721D01*
X456870Y723163D01*
X455261Y725261D01*
X453163Y726870D01*
X450721Y727882D01*
X448100Y728227D01*
D02*
G37*
G36*
X1112400Y685648D02*
X1109748Y685298D01*
X1107276Y684275D01*
X1105154Y682646D01*
X1103525Y680524D01*
X1102502Y678052D01*
X1102152Y675400D01*
X1102502Y672748D01*
X1103525Y670276D01*
X1105154Y668154D01*
X1107276Y666525D01*
X1109748Y665501D01*
X1112400Y665152D01*
X1115052Y665501D01*
X1117524Y666525D01*
X1119646Y668154D01*
X1121275Y670276D01*
X1122299Y672748D01*
X1122648Y675400D01*
X1122299Y678052D01*
X1121275Y680524D01*
X1119646Y682646D01*
X1117524Y684275D01*
X1115052Y685298D01*
X1112400Y685648D01*
D02*
G37*
G36*
X960000D02*
X957348Y685298D01*
X954876Y684275D01*
X952754Y682646D01*
X951125Y680524D01*
X950101Y678052D01*
X949752Y675400D01*
X950101Y672748D01*
X951125Y670276D01*
X952754Y668154D01*
X954876Y666525D01*
X957348Y665501D01*
X960000Y665152D01*
X962652Y665501D01*
X965124Y666525D01*
X967246Y668154D01*
X968875Y670276D01*
X969899Y672748D01*
X970248Y675400D01*
X969899Y678052D01*
X968875Y680524D01*
X967246Y682646D01*
X965124Y684275D01*
X962652Y685298D01*
X960000Y685648D01*
D02*
G37*
G36*
X448100Y702827D02*
X445479Y702482D01*
X443037Y701470D01*
X440939Y699861D01*
X439330Y697763D01*
X438318Y695321D01*
X437973Y692700D01*
X438318Y690079D01*
X439330Y687637D01*
X440939Y685539D01*
X443037Y683930D01*
X445479Y682918D01*
X448100Y682573D01*
X450721Y682918D01*
X453163Y683930D01*
X455261Y685539D01*
X456870Y687637D01*
X457882Y690079D01*
X458227Y692700D01*
X457882Y695321D01*
X456870Y697763D01*
X455261Y699861D01*
X453163Y701470D01*
X450721Y702482D01*
X448100Y702827D01*
D02*
G37*
G36*
X371900D02*
X369279Y702482D01*
X366837Y701470D01*
X364739Y699861D01*
X363130Y697763D01*
X362118Y695321D01*
X361773Y692700D01*
X362118Y690079D01*
X363130Y687637D01*
X364739Y685539D01*
X366837Y683930D01*
X369279Y682918D01*
X371900Y682573D01*
X374521Y682918D01*
X376963Y683930D01*
X379061Y685539D01*
X380670Y687637D01*
X381682Y690079D01*
X382027Y692700D01*
X381682Y695321D01*
X380670Y697763D01*
X379061Y699861D01*
X376963Y701470D01*
X374521Y702482D01*
X371900Y702827D01*
D02*
G37*
G36*
X1111130Y724930D02*
X1102319D01*
X1102502Y723548D01*
X1103525Y721076D01*
X1105154Y718954D01*
X1107276Y717325D01*
X1109748Y716301D01*
X1111130Y716120D01*
Y724930D01*
D02*
G37*
G36*
X330000Y740248D02*
X327348Y739899D01*
X324876Y738875D01*
X322754Y737246D01*
X321125Y735124D01*
X320102Y732652D01*
X319752Y730000D01*
X320102Y727348D01*
X321125Y724876D01*
X322754Y722754D01*
X324876Y721125D01*
X327348Y720101D01*
X330000Y719752D01*
X332652Y720101D01*
X335124Y721125D01*
X337246Y722754D01*
X338875Y724876D01*
X339898Y727348D01*
X340248Y730000D01*
X339898Y732652D01*
X338875Y735124D01*
X337246Y737246D01*
X335124Y738875D01*
X332652Y739899D01*
X330000Y740248D01*
D02*
G37*
G36*
X490000Y741935D02*
X487118Y741556D01*
X484432Y740443D01*
X482126Y738674D01*
X480357Y736368D01*
X479244Y733682D01*
X478865Y730800D01*
X479244Y727918D01*
X480357Y725232D01*
X482126Y722926D01*
X484432Y721157D01*
X487118Y720044D01*
X490000Y719665D01*
X492882Y720044D01*
X495568Y721157D01*
X497874Y722926D01*
X499643Y725232D01*
X500756Y727918D01*
X501135Y730800D01*
X500756Y733682D01*
X499643Y736368D01*
X497874Y738674D01*
X495568Y740443D01*
X492882Y741556D01*
X490000Y741935D01*
D02*
G37*
G36*
X300968Y730330D02*
X291270D01*
Y720632D01*
X292882Y720844D01*
X295568Y721957D01*
X297874Y723726D01*
X299643Y726032D01*
X300756Y728718D01*
X300968Y730330D01*
D02*
G37*
G36*
X288730D02*
X279032D01*
X279244Y728718D01*
X280357Y726032D01*
X282126Y723726D01*
X284432Y721957D01*
X287118Y720844D01*
X288730Y720632D01*
Y730330D01*
D02*
G37*
G36*
X538231Y728731D02*
X527499D01*
X527746Y726851D01*
X528962Y723916D01*
X530896Y721396D01*
X533416Y719462D01*
X536351Y718246D01*
X538231Y717999D01*
Y728731D01*
D02*
G37*
G36*
X1122480Y724930D02*
X1113670D01*
Y716120D01*
X1115052Y716301D01*
X1117524Y717325D01*
X1119646Y718954D01*
X1121275Y721076D01*
X1122299Y723548D01*
X1122480Y724930D01*
D02*
G37*
G36*
X707381Y728230D02*
X698570D01*
Y719419D01*
X699952Y719602D01*
X702424Y720625D01*
X704546Y722254D01*
X706175Y724376D01*
X707198Y726848D01*
X707381Y728230D01*
D02*
G37*
G36*
X696030D02*
X687219D01*
X687402Y726848D01*
X688425Y724376D01*
X690054Y722254D01*
X692176Y720625D01*
X694648Y719602D01*
X696030Y719419D01*
Y728230D01*
D02*
G37*
G36*
X1066330Y490080D02*
X1064948Y489898D01*
X1062476Y488875D01*
X1060354Y487246D01*
X1058725Y485124D01*
X1057701Y482652D01*
X1057520Y481270D01*
X1066330D01*
Y490080D01*
D02*
G37*
G36*
X666230Y318730D02*
X657035D01*
X657230Y317248D01*
X658292Y314684D01*
X659982Y312482D01*
X662184Y310792D01*
X664748Y309730D01*
X666230Y309535D01*
Y318730D01*
D02*
G37*
G36*
X537765D02*
X528570D01*
Y309535D01*
X530052Y309730D01*
X532616Y310792D01*
X534818Y312482D01*
X536508Y314684D01*
X537570Y317248D01*
X537765Y318730D01*
D02*
G37*
G36*
X356030Y330465D02*
X354548Y330270D01*
X351984Y329207D01*
X349782Y327518D01*
X348092Y325316D01*
X347030Y322752D01*
X346835Y321270D01*
X356030D01*
Y330465D01*
D02*
G37*
G36*
X677965Y318730D02*
X668770D01*
Y309535D01*
X670252Y309730D01*
X672816Y310792D01*
X675018Y312482D01*
X676708Y314684D01*
X677770Y317248D01*
X677965Y318730D01*
D02*
G37*
G36*
X356030D02*
X346835D01*
X347030Y317248D01*
X348092Y314684D01*
X349782Y312482D01*
X351984Y310792D01*
X354548Y309730D01*
X356030Y309535D01*
Y318730D01*
D02*
G37*
G36*
X696500Y330597D02*
X688500D01*
X686792Y330373D01*
X685201Y329714D01*
X683835Y328665D01*
X682786Y327299D01*
X682127Y325708D01*
X681903Y324001D01*
Y316000D01*
X682127Y314292D01*
X682786Y312701D01*
X683835Y311335D01*
X685201Y310286D01*
X686792Y309627D01*
X688500Y309403D01*
X696500D01*
X698208Y309627D01*
X699799Y310286D01*
X701165Y311335D01*
X702214Y312701D01*
X702873Y314292D01*
X703098Y316000D01*
Y324001D01*
X702873Y325708D01*
X702214Y327299D01*
X701165Y328665D01*
X699799Y329714D01*
X698208Y330373D01*
X696500Y330597D01*
D02*
G37*
G36*
X526030Y318730D02*
X516835D01*
X517030Y317248D01*
X518092Y314684D01*
X519782Y312482D01*
X521984Y310792D01*
X524548Y309730D01*
X526030Y309535D01*
Y318730D01*
D02*
G37*
G36*
X367765D02*
X358570D01*
Y309535D01*
X360052Y309730D01*
X362616Y310792D01*
X364818Y312482D01*
X366507Y314684D01*
X367570Y317248D01*
X367765Y318730D01*
D02*
G37*
G36*
X358570Y330465D02*
Y321270D01*
X367765D01*
X367570Y322752D01*
X366507Y325316D01*
X364818Y327518D01*
X362616Y329207D01*
X360052Y330270D01*
X358570Y330465D01*
D02*
G37*
G36*
X582100Y330597D02*
X579370D01*
Y321270D01*
X588698D01*
Y324001D01*
X588473Y325708D01*
X587814Y327299D01*
X586765Y328665D01*
X585399Y329714D01*
X583808Y330373D01*
X582100Y330597D01*
D02*
G37*
G36*
X576830D02*
X574100D01*
X572392Y330373D01*
X570801Y329714D01*
X569435Y328665D01*
X568386Y327299D01*
X567727Y325708D01*
X567503Y324001D01*
Y321270D01*
X576830D01*
Y330597D01*
D02*
G37*
G36*
X668770Y330465D02*
Y321270D01*
X677965D01*
X677770Y322752D01*
X676708Y325316D01*
X675018Y327518D01*
X672816Y329207D01*
X670252Y330270D01*
X668770Y330465D01*
D02*
G37*
G36*
X666230D02*
X664748Y330270D01*
X662184Y329207D01*
X659982Y327518D01*
X658292Y325316D01*
X657230Y322752D01*
X657035Y321270D01*
X666230D01*
Y330465D01*
D02*
G37*
G36*
X412100Y330597D02*
X409370D01*
Y321270D01*
X418697D01*
Y324001D01*
X418473Y325708D01*
X417814Y327299D01*
X416765Y328665D01*
X415399Y329714D01*
X413808Y330373D01*
X412100Y330597D01*
D02*
G37*
G36*
X406830D02*
X404100D01*
X402392Y330373D01*
X400801Y329714D01*
X399435Y328665D01*
X398386Y327299D01*
X397727Y325708D01*
X397503Y324001D01*
Y321270D01*
X406830D01*
Y330597D01*
D02*
G37*
G36*
X528570Y330465D02*
Y321270D01*
X537765D01*
X537570Y322752D01*
X536508Y325316D01*
X534818Y327518D01*
X532616Y329207D01*
X530052Y330270D01*
X528570Y330465D01*
D02*
G37*
G36*
X526030D02*
X524548Y330270D01*
X521984Y329207D01*
X519782Y327518D01*
X518092Y325316D01*
X517030Y322752D01*
X516835Y321270D01*
X526030D01*
Y330465D01*
D02*
G37*
G36*
X588698Y318730D02*
X579370D01*
Y309403D01*
X582100D01*
X583808Y309627D01*
X585399Y310286D01*
X586765Y311335D01*
X587814Y312701D01*
X588473Y314292D01*
X588698Y316000D01*
Y318730D01*
D02*
G37*
G36*
X997330Y290081D02*
X995948Y289898D01*
X993476Y288875D01*
X991354Y287246D01*
X989725Y285124D01*
X988701Y282652D01*
X988520Y281270D01*
X997330D01*
Y290081D01*
D02*
G37*
G36*
X870330D02*
X868948Y289898D01*
X866476Y288875D01*
X864354Y287246D01*
X862725Y285124D01*
X861702Y282652D01*
X861519Y281270D01*
X870330D01*
Y290081D01*
D02*
G37*
G36*
X306500Y330632D02*
X303748Y330270D01*
X301184Y329207D01*
X298982Y327518D01*
X297292Y325316D01*
X296230Y322752D01*
X295868Y320000D01*
X296230Y317248D01*
X297292Y314684D01*
X298982Y312482D01*
X301184Y310792D01*
X303748Y309730D01*
X306500Y309368D01*
X309252Y309730D01*
X311816Y310792D01*
X314018Y312482D01*
X315707Y314684D01*
X316770Y317248D01*
X317132Y320000D01*
X316770Y322752D01*
X315707Y325316D01*
X314018Y327518D01*
X311816Y329207D01*
X309252Y330270D01*
X306500Y330632D01*
D02*
G37*
G36*
X999870Y290081D02*
Y281270D01*
X1008680D01*
X1008499Y282652D01*
X1007475Y285124D01*
X1005846Y287246D01*
X1003724Y288875D01*
X1001252Y289898D01*
X999870Y290081D01*
D02*
G37*
G36*
X846200Y290248D02*
X843548Y289898D01*
X841076Y288875D01*
X838954Y287246D01*
X837325Y285124D01*
X836301Y282652D01*
X835952Y280000D01*
X836301Y277348D01*
X837325Y274876D01*
X838209Y273725D01*
X837582Y272455D01*
X829417D01*
X828791Y273725D01*
X829675Y274876D01*
X830698Y277348D01*
X831048Y280000D01*
X830698Y282652D01*
X829675Y285124D01*
X828046Y287246D01*
X825924Y288875D01*
X823452Y289898D01*
X820800Y290248D01*
X818148Y289898D01*
X815676Y288875D01*
X813554Y287246D01*
X811925Y285124D01*
X810901Y282652D01*
X810712Y281213D01*
X809371Y280758D01*
X807382Y282747D01*
X806122Y283589D01*
X804802Y283852D01*
X804275Y285124D01*
X802646Y287246D01*
X800524Y288875D01*
X798052Y289898D01*
X796670Y290081D01*
Y280000D01*
Y269919D01*
X798052Y270102D01*
X800524Y271125D01*
X802646Y272754D01*
X803684Y274107D01*
X804952Y274190D01*
X813319Y265823D01*
X814579Y264981D01*
X816066Y264685D01*
X850935D01*
X852421Y264981D01*
X853681Y265823D01*
X853973Y266115D01*
X861600D01*
X863087Y266411D01*
X864347Y267253D01*
X867709Y270615D01*
X868948Y270102D01*
X870330Y269919D01*
Y278730D01*
X861519D01*
X861702Y277348D01*
X862215Y276108D01*
X859991Y273885D01*
X855743D01*
X855190Y275155D01*
X856098Y277348D01*
X856448Y280000D01*
X856098Y282652D01*
X855075Y285124D01*
X853446Y287246D01*
X851324Y288875D01*
X848852Y289898D01*
X846200Y290248D01*
D02*
G37*
G36*
X1008680Y278730D02*
X999870D01*
Y269919D01*
X1001252Y270102D01*
X1003724Y271125D01*
X1005846Y272754D01*
X1007475Y274876D01*
X1008499Y277348D01*
X1008680Y278730D01*
D02*
G37*
G36*
X773810Y290284D02*
X766190D01*
X763712Y289792D01*
X761612Y288388D01*
X760208Y286288D01*
X759716Y283810D01*
Y279041D01*
X758542Y278555D01*
X754351Y282747D01*
X753090Y283589D01*
X751604Y283885D01*
X709000D01*
X707513Y283589D01*
X706253Y282747D01*
X705411Y281487D01*
X705115Y280000D01*
X705411Y278513D01*
X706253Y277253D01*
X707513Y276411D01*
X709000Y276115D01*
X749995D01*
X760287Y265823D01*
X761547Y264981D01*
X763034Y264685D01*
X776966D01*
X778453Y264981D01*
X779713Y265823D01*
X784177Y270287D01*
X785019Y271547D01*
X785315Y273034D01*
Y274158D01*
X786450Y274805D01*
X786585Y274799D01*
X788154Y272754D01*
X790276Y271125D01*
X792748Y270102D01*
X794130Y269919D01*
Y280000D01*
Y290081D01*
X792748Y289898D01*
X790276Y288875D01*
X788154Y287246D01*
X786525Y285124D01*
X786012Y283885D01*
X782828D01*
X781554Y283631D01*
X781270Y283671D01*
X781140Y283719D01*
X780179Y284340D01*
X779792Y286288D01*
X778388Y288388D01*
X776288Y289792D01*
X773810Y290284D01*
D02*
G37*
G36*
X372700Y508227D02*
X370079Y507882D01*
X367637Y506870D01*
X365539Y505261D01*
X363930Y503163D01*
X362918Y500721D01*
X362573Y498100D01*
X362918Y495479D01*
X363930Y493037D01*
X365539Y490939D01*
X367637Y489330D01*
X368815Y488842D01*
Y477300D01*
X369111Y475813D01*
X369953Y474553D01*
X467253Y377253D01*
X468513Y376411D01*
X470000Y376115D01*
X858391D01*
X918515Y315991D01*
Y289388D01*
X917276Y288875D01*
X915154Y287246D01*
X913525Y285124D01*
X912502Y282652D01*
X912152Y280000D01*
X912502Y277348D01*
X913525Y274876D01*
X914409Y273725D01*
X913783Y272455D01*
X905618D01*
X904991Y273725D01*
X905875Y274876D01*
X906898Y277348D01*
X907248Y280000D01*
X906898Y282652D01*
X905875Y285124D01*
X904246Y287246D01*
X902124Y288875D01*
X899652Y289898D01*
X897000Y290248D01*
X894348Y289898D01*
X891876Y288875D01*
X889754Y287246D01*
X888125Y285124D01*
X887102Y282652D01*
X886912Y281213D01*
X885571Y280758D01*
X883582Y282747D01*
X882322Y283589D01*
X881002Y283852D01*
X880475Y285124D01*
X878846Y287246D01*
X876724Y288875D01*
X874252Y289898D01*
X872870Y290081D01*
Y280000D01*
Y269919D01*
X874252Y270102D01*
X876724Y271125D01*
X878846Y272754D01*
X879884Y274107D01*
X881152Y274190D01*
X889519Y265823D01*
X890779Y264981D01*
X892266Y264685D01*
X987170D01*
X988657Y264981D01*
X989917Y265823D01*
X994708Y270615D01*
X995948Y270102D01*
X997330Y269919D01*
Y278730D01*
X988520D01*
X988701Y277348D01*
X989215Y276108D01*
X985561Y272455D01*
X981817D01*
X981191Y273725D01*
X982075Y274876D01*
X983099Y277348D01*
X983448Y280000D01*
X983099Y282652D01*
X982075Y285124D01*
X980446Y287246D01*
X978324Y288875D01*
X975852Y289898D01*
X973200Y290248D01*
X970548Y289898D01*
X968076Y288875D01*
X965954Y287246D01*
X964325Y285124D01*
X963301Y282652D01*
X962952Y280000D01*
X963301Y277348D01*
X964325Y274876D01*
X965209Y273725D01*
X964583Y272455D01*
X956417D01*
X955791Y273725D01*
X956675Y274876D01*
X957699Y277348D01*
X958048Y280000D01*
X957699Y282652D01*
X956675Y285124D01*
X955046Y287246D01*
X952924Y288875D01*
X950452Y289898D01*
X947800Y290248D01*
X945148Y289898D01*
X942676Y288875D01*
X940554Y287246D01*
X938925Y285124D01*
X937902Y282652D01*
X937552Y280000D01*
X937902Y277348D01*
X938925Y274876D01*
X939809Y273725D01*
X939183Y272455D01*
X931018D01*
X930391Y273725D01*
X931275Y274876D01*
X932299Y277348D01*
X932648Y280000D01*
X932299Y282652D01*
X931275Y285124D01*
X929646Y287246D01*
X927524Y288875D01*
X926285Y289388D01*
Y317600D01*
X925989Y319087D01*
X925147Y320347D01*
X862747Y382747D01*
X861487Y383589D01*
X860000Y383885D01*
X780001D01*
X779682Y385155D01*
X782053Y386422D01*
X785340Y389120D01*
X788038Y392407D01*
X790043Y396158D01*
X791278Y400228D01*
X791694Y404460D01*
X791278Y408692D01*
X790043Y412762D01*
X788038Y416513D01*
X785340Y419800D01*
X782053Y422498D01*
X778302Y424503D01*
X774232Y425738D01*
X770000Y426155D01*
X765768Y425738D01*
X761698Y424503D01*
X757947Y422498D01*
X754660Y419800D01*
X751962Y416513D01*
X749957Y412762D01*
X748722Y408692D01*
X748306Y404460D01*
X748722Y400228D01*
X749957Y396158D01*
X751962Y392407D01*
X754660Y389120D01*
X757947Y386422D01*
X760318Y385155D01*
X759999Y383885D01*
X471609D01*
X376585Y478909D01*
Y488842D01*
X377763Y489330D01*
X379861Y490939D01*
X381470Y493037D01*
X382482Y495479D01*
X382827Y498100D01*
X382482Y500721D01*
X381470Y503163D01*
X379861Y505261D01*
X377763Y506870D01*
X375321Y507882D01*
X372700Y508227D01*
D02*
G37*
G36*
X331900Y330632D02*
X329148Y330270D01*
X326584Y329207D01*
X324382Y327518D01*
X322692Y325316D01*
X321630Y322752D01*
X321268Y320000D01*
X321630Y317248D01*
X322692Y314684D01*
X324382Y312482D01*
X326584Y310792D01*
X329148Y309730D01*
X331900Y309368D01*
X334652Y309730D01*
X337216Y310792D01*
X339418Y312482D01*
X341107Y314684D01*
X342170Y317248D01*
X342532Y320000D01*
X342170Y322752D01*
X341107Y325316D01*
X339418Y327518D01*
X337216Y329207D01*
X334652Y330270D01*
X331900Y330632D01*
D02*
G37*
G36*
X406830Y318730D02*
X397503D01*
Y316000D01*
X397727Y314292D01*
X398386Y312701D01*
X399435Y311335D01*
X400801Y310286D01*
X402392Y309627D01*
X404100Y309403D01*
X406830D01*
Y318730D01*
D02*
G37*
G36*
X642100Y330632D02*
X639348Y330270D01*
X636784Y329207D01*
X634582Y327518D01*
X632892Y325316D01*
X631830Y322752D01*
X631468Y320000D01*
X631830Y317248D01*
X632892Y314684D01*
X634582Y312482D01*
X636784Y310792D01*
X639348Y309730D01*
X642100Y309368D01*
X644852Y309730D01*
X647416Y310792D01*
X649618Y312482D01*
X651308Y314684D01*
X652370Y317248D01*
X652732Y320000D01*
X652370Y322752D01*
X651308Y325316D01*
X649618Y327518D01*
X647416Y329207D01*
X644852Y330270D01*
X642100Y330632D01*
D02*
G37*
G36*
X576830Y318730D02*
X567503D01*
Y316000D01*
X567727Y314292D01*
X568386Y312701D01*
X569435Y311335D01*
X570801Y310286D01*
X572392Y309627D01*
X574100Y309403D01*
X576830D01*
Y318730D01*
D02*
G37*
G36*
X418697D02*
X409370D01*
Y309403D01*
X412100D01*
X413808Y309627D01*
X415399Y310286D01*
X416765Y311335D01*
X417814Y312701D01*
X418473Y314292D01*
X418697Y316000D01*
Y318730D01*
D02*
G37*
G36*
X476500Y330632D02*
X473748Y330270D01*
X471184Y329207D01*
X468982Y327518D01*
X467293Y325316D01*
X466230Y322752D01*
X465868Y320000D01*
X466230Y317248D01*
X467293Y314684D01*
X468982Y312482D01*
X471184Y310792D01*
X473748Y309730D01*
X476500Y309368D01*
X479252Y309730D01*
X481816Y310792D01*
X484018Y312482D01*
X485708Y314684D01*
X486770Y317248D01*
X487132Y320000D01*
X486770Y322752D01*
X485708Y325316D01*
X484018Y327518D01*
X481816Y329207D01*
X479252Y330270D01*
X476500Y330632D01*
D02*
G37*
G36*
X382700D02*
X379948Y330270D01*
X377384Y329207D01*
X375182Y327518D01*
X373492Y325316D01*
X372430Y322752D01*
X372068Y320000D01*
X372430Y317248D01*
X373492Y314684D01*
X375182Y312482D01*
X377384Y310792D01*
X379948Y309730D01*
X382700Y309368D01*
X385452Y309730D01*
X388016Y310792D01*
X390218Y312482D01*
X391908Y314684D01*
X392970Y317248D01*
X393332Y320000D01*
X392970Y322752D01*
X391908Y325316D01*
X390218Y327518D01*
X388016Y329207D01*
X385452Y330270D01*
X382700Y330632D01*
D02*
G37*
G36*
X552700D02*
X549948Y330270D01*
X547384Y329207D01*
X545182Y327518D01*
X543493Y325316D01*
X542430Y322752D01*
X542068Y320000D01*
X542430Y317248D01*
X543493Y314684D01*
X545182Y312482D01*
X547384Y310792D01*
X549948Y309730D01*
X552700Y309368D01*
X555452Y309730D01*
X558016Y310792D01*
X560218Y312482D01*
X561908Y314684D01*
X562970Y317248D01*
X563332Y320000D01*
X562970Y322752D01*
X561908Y325316D01*
X560218Y327518D01*
X558016Y329207D01*
X555452Y330270D01*
X552700Y330632D01*
D02*
G37*
G36*
X501900D02*
X499148Y330270D01*
X496584Y329207D01*
X494382Y327518D01*
X492692Y325316D01*
X491630Y322752D01*
X491268Y320000D01*
X491630Y317248D01*
X492692Y314684D01*
X494382Y312482D01*
X496584Y310792D01*
X499148Y309730D01*
X501900Y309368D01*
X504652Y309730D01*
X507216Y310792D01*
X509418Y312482D01*
X511108Y314684D01*
X512170Y317248D01*
X512532Y320000D01*
X512170Y322752D01*
X511108Y325316D01*
X509418Y327518D01*
X507216Y329207D01*
X504652Y330270D01*
X501900Y330632D01*
D02*
G37*
G36*
X562700Y508227D02*
X560079Y507882D01*
X557637Y506870D01*
X555539Y505261D01*
X553930Y503163D01*
X552918Y500721D01*
X552573Y498100D01*
X552918Y495479D01*
X553930Y493037D01*
X555539Y490939D01*
X557637Y489330D01*
X558815Y488842D01*
Y467300D01*
X559111Y465813D01*
X559953Y464553D01*
X591966Y432541D01*
X591246Y431464D01*
X590721Y431682D01*
X589370Y431859D01*
Y423170D01*
X598059D01*
X597882Y424521D01*
X597664Y425046D01*
X598741Y425766D01*
X607253Y417253D01*
X608513Y416411D01*
X610000Y416115D01*
X640000D01*
X641487Y416411D01*
X642747Y417253D01*
X701609Y476115D01*
X900791D01*
X913015Y463891D01*
X912502Y462652D01*
X912152Y460000D01*
X912502Y457348D01*
X913525Y454876D01*
X915154Y452754D01*
X917276Y451125D01*
X919748Y450102D01*
X922400Y449752D01*
X925052Y450102D01*
X927524Y451125D01*
X929646Y452754D01*
X931275Y454876D01*
X932299Y457348D01*
X932648Y460000D01*
X932299Y462652D01*
X931275Y465124D01*
X929646Y467246D01*
X927524Y468875D01*
X925052Y469898D01*
X922400Y470248D01*
X919748Y469898D01*
X918509Y469385D01*
X905147Y482747D01*
X903887Y483589D01*
X902400Y483885D01*
X700000D01*
X698513Y483589D01*
X697253Y482747D01*
X638391Y423885D01*
X611609D01*
X566585Y468909D01*
Y488842D01*
X567763Y489330D01*
X569861Y490939D01*
X571470Y493037D01*
X572482Y495479D01*
X572827Y498100D01*
X572482Y500721D01*
X571470Y503163D01*
X569861Y505261D01*
X567763Y506870D01*
X565321Y507882D01*
X562700Y508227D01*
D02*
G37*
G36*
X897000Y470248D02*
X894348Y469898D01*
X891876Y468875D01*
X889754Y467246D01*
X888125Y465124D01*
X887102Y462652D01*
X886752Y460000D01*
X887102Y457348D01*
X888125Y454876D01*
X889754Y452754D01*
X891876Y451125D01*
X894348Y450102D01*
X897000Y449752D01*
X899652Y450102D01*
X902124Y451125D01*
X904246Y452754D01*
X905875Y454876D01*
X906898Y457348D01*
X907248Y460000D01*
X906898Y462652D01*
X905875Y465124D01*
X904246Y467246D01*
X902124Y468875D01*
X899652Y469898D01*
X897000Y470248D01*
D02*
G37*
G36*
X973200D02*
X970548Y469898D01*
X968076Y468875D01*
X965954Y467246D01*
X964325Y465124D01*
X963301Y462652D01*
X962952Y460000D01*
X963301Y457348D01*
X964325Y454876D01*
X965954Y452754D01*
X968076Y451125D01*
X970548Y450102D01*
X973200Y449752D01*
X975852Y450102D01*
X978324Y451125D01*
X980446Y452754D01*
X982075Y454876D01*
X983099Y457348D01*
X983448Y460000D01*
X983099Y462652D01*
X982075Y465124D01*
X980446Y467246D01*
X978324Y468875D01*
X975852Y469898D01*
X973200Y470248D01*
D02*
G37*
G36*
X588100Y508227D02*
X585479Y507882D01*
X583037Y506870D01*
X580939Y505261D01*
X579330Y503163D01*
X578318Y500721D01*
X577973Y498100D01*
X578318Y495479D01*
X579330Y493037D01*
X580939Y490939D01*
X583037Y489330D01*
X585479Y488318D01*
X588100Y487973D01*
X590721Y488318D01*
X593163Y489330D01*
X595261Y490939D01*
X596870Y493037D01*
X597882Y495479D01*
X597965Y496115D01*
X906191D01*
X938415Y463891D01*
X937902Y462652D01*
X937552Y460000D01*
X937902Y457348D01*
X938925Y454876D01*
X940554Y452754D01*
X942676Y451125D01*
X945148Y450102D01*
X947800Y449752D01*
X950452Y450102D01*
X952924Y451125D01*
X955046Y452754D01*
X956675Y454876D01*
X957699Y457348D01*
X958048Y460000D01*
X957699Y462652D01*
X956675Y465124D01*
X955046Y467246D01*
X952924Y468875D01*
X950452Y469898D01*
X947800Y470248D01*
X945148Y469898D01*
X943908Y469385D01*
X910547Y502747D01*
X909287Y503589D01*
X907800Y503885D01*
X596316D01*
X595261Y505261D01*
X593163Y506870D01*
X590721Y507882D01*
X588100Y508227D01*
D02*
G37*
G36*
X820800Y470248D02*
X818148Y469898D01*
X815676Y468875D01*
X813554Y467246D01*
X811925Y465124D01*
X810901Y462652D01*
X810552Y460000D01*
X810901Y457348D01*
X811925Y454876D01*
X813554Y452754D01*
X815676Y451125D01*
X818148Y450102D01*
X820800Y449752D01*
X823452Y450102D01*
X825924Y451125D01*
X828046Y452754D01*
X829675Y454876D01*
X830698Y457348D01*
X831048Y460000D01*
X830698Y462652D01*
X829675Y465124D01*
X828046Y467246D01*
X825924Y468875D01*
X823452Y469898D01*
X820800Y470248D01*
D02*
G37*
G36*
X773810Y470284D02*
X766190D01*
X763712Y469792D01*
X761612Y468388D01*
X760208Y466288D01*
X759716Y463810D01*
Y456190D01*
X760208Y453712D01*
X761612Y451612D01*
X763712Y450208D01*
X766190Y449716D01*
X773810D01*
X776288Y450208D01*
X778388Y451612D01*
X779792Y453712D01*
X780284Y456190D01*
Y463810D01*
X779792Y466288D01*
X778388Y468388D01*
X776288Y469792D01*
X773810Y470284D01*
D02*
G37*
G36*
X871600Y470248D02*
X868948Y469898D01*
X866476Y468875D01*
X864354Y467246D01*
X862725Y465124D01*
X861702Y462652D01*
X861352Y460000D01*
X861702Y457348D01*
X862725Y454876D01*
X864354Y452754D01*
X866476Y451125D01*
X868948Y450102D01*
X871600Y449752D01*
X874252Y450102D01*
X876724Y451125D01*
X878846Y452754D01*
X880475Y454876D01*
X881498Y457348D01*
X881848Y460000D01*
X881498Y462652D01*
X880475Y465124D01*
X878846Y467246D01*
X876724Y468875D01*
X874252Y469898D01*
X871600Y470248D01*
D02*
G37*
G36*
X846200D02*
X843548Y469898D01*
X841076Y468875D01*
X838954Y467246D01*
X837325Y465124D01*
X836301Y462652D01*
X835952Y460000D01*
X836301Y457348D01*
X837325Y454876D01*
X838954Y452754D01*
X841076Y451125D01*
X843548Y450102D01*
X846200Y449752D01*
X848852Y450102D01*
X851324Y451125D01*
X853446Y452754D01*
X855075Y454876D01*
X856098Y457348D01*
X856448Y460000D01*
X856098Y462652D01*
X855075Y465124D01*
X853446Y467246D01*
X851324Y468875D01*
X848852Y469898D01*
X846200Y470248D01*
D02*
G37*
G36*
X998600D02*
X995948Y469898D01*
X993476Y468875D01*
X991354Y467246D01*
X989725Y465124D01*
X988701Y462652D01*
X988352Y460000D01*
X988701Y457348D01*
X989725Y454876D01*
X991354Y452754D01*
X993476Y451125D01*
X995948Y450102D01*
X998600Y449752D01*
X1001252Y450102D01*
X1003724Y451125D01*
X1005846Y452754D01*
X1007475Y454876D01*
X1008499Y457348D01*
X1008848Y460000D01*
X1008499Y462652D01*
X1007475Y465124D01*
X1005846Y467246D01*
X1003724Y468875D01*
X1001252Y469898D01*
X998600Y470248D01*
D02*
G37*
G36*
X627000Y488248D02*
X624348Y487898D01*
X621876Y486875D01*
X619754Y485246D01*
X618125Y483124D01*
X617102Y480652D01*
X616752Y478000D01*
X617102Y475348D01*
X618125Y472876D01*
X619754Y470754D01*
X621876Y469125D01*
X624348Y468102D01*
X627000Y467752D01*
X629652Y468102D01*
X632124Y469125D01*
X634246Y470754D01*
X635875Y472876D01*
X636898Y475348D01*
X637248Y478000D01*
X636898Y480652D01*
X635875Y483124D01*
X634246Y485246D01*
X632124Y486875D01*
X629652Y487898D01*
X627000Y488248D01*
D02*
G37*
G36*
X444000Y483648D02*
X441348Y483298D01*
X438876Y482275D01*
X436754Y480646D01*
X435125Y478524D01*
X434101Y476052D01*
X433752Y473400D01*
X434101Y470748D01*
X435125Y468276D01*
X436754Y466154D01*
X438876Y464525D01*
X441348Y463502D01*
X444000Y463152D01*
X446652Y463502D01*
X449124Y464525D01*
X451246Y466154D01*
X452875Y468276D01*
X453899Y470748D01*
X454248Y473400D01*
X453899Y476052D01*
X452875Y478524D01*
X451246Y480646D01*
X449124Y482275D01*
X446652Y483298D01*
X444000Y483648D01*
D02*
G37*
G36*
X1077681Y478730D02*
X1068870D01*
Y469920D01*
X1070252Y470102D01*
X1072724Y471125D01*
X1074846Y472754D01*
X1076475Y474876D01*
X1077498Y477348D01*
X1077681Y478730D01*
D02*
G37*
G36*
X1066330D02*
X1057520D01*
X1057701Y477348D01*
X1058725Y474876D01*
X1060354Y472754D01*
X1062476Y471125D01*
X1064948Y470102D01*
X1066330Y469920D01*
Y478730D01*
D02*
G37*
G36*
X805480Y458730D02*
X796670D01*
Y449920D01*
X798052Y450102D01*
X800524Y451125D01*
X802646Y452754D01*
X804275Y454876D01*
X805298Y457348D01*
X805480Y458730D01*
D02*
G37*
G36*
X794130D02*
X785320D01*
X785501Y457348D01*
X786525Y454876D01*
X788154Y452754D01*
X790276Y451125D01*
X792748Y450102D01*
X794130Y449920D01*
Y458730D01*
D02*
G37*
G36*
X796670Y470080D02*
Y461270D01*
X805480D01*
X805298Y462652D01*
X804275Y465124D01*
X802646Y467246D01*
X800524Y468875D01*
X798052Y469898D01*
X796670Y470080D01*
D02*
G37*
G36*
X794130D02*
X792748Y469898D01*
X790276Y468875D01*
X788154Y467246D01*
X786525Y465124D01*
X785501Y462652D01*
X785320Y461270D01*
X794130D01*
Y470080D01*
D02*
G37*
G36*
X627000Y462848D02*
X624348Y462499D01*
X621876Y461475D01*
X619754Y459846D01*
X618125Y457724D01*
X617102Y455252D01*
X616752Y452600D01*
X617102Y449948D01*
X618125Y447476D01*
X619754Y445354D01*
X621876Y443725D01*
X624348Y442701D01*
X627000Y442352D01*
X629652Y442701D01*
X632124Y443725D01*
X634246Y445354D01*
X635875Y447476D01*
X636898Y449948D01*
X637248Y452600D01*
X636898Y455252D01*
X635875Y457724D01*
X634246Y459846D01*
X632124Y461475D01*
X629652Y462499D01*
X627000Y462848D01*
D02*
G37*
G36*
X537300Y432027D02*
X534679Y431682D01*
X532237Y430670D01*
X530139Y429061D01*
X528530Y426963D01*
X527518Y424521D01*
X527173Y421900D01*
X527518Y419279D01*
X528530Y416837D01*
X530139Y414739D01*
X532237Y413130D01*
X534679Y412118D01*
X537300Y411773D01*
X539921Y412118D01*
X542363Y413130D01*
X544461Y414739D01*
X546070Y416837D01*
X547082Y419279D01*
X547427Y421900D01*
X547082Y424521D01*
X546070Y426963D01*
X544461Y429061D01*
X542363Y430670D01*
X539921Y431682D01*
X537300Y432027D01*
D02*
G37*
G36*
X372700D02*
X370079Y431682D01*
X367637Y430670D01*
X365539Y429061D01*
X363930Y426963D01*
X362918Y424521D01*
X362573Y421900D01*
X362918Y419279D01*
X363930Y416837D01*
X365539Y414739D01*
X367637Y413130D01*
X370079Y412118D01*
X372700Y411773D01*
X375321Y412118D01*
X377763Y413130D01*
X379861Y414739D01*
X381470Y416837D01*
X382482Y419279D01*
X382827Y421900D01*
X382482Y424521D01*
X381470Y426963D01*
X379861Y429061D01*
X377763Y430670D01*
X375321Y431682D01*
X372700Y432027D01*
D02*
G37*
G36*
X331940Y431940D02*
X311860D01*
Y411860D01*
X331940D01*
Y431940D01*
D02*
G37*
G36*
X562700Y432027D02*
X560079Y431682D01*
X557637Y430670D01*
X555539Y429061D01*
X553930Y426963D01*
X552918Y424521D01*
X552573Y421900D01*
X552918Y419279D01*
X553930Y416837D01*
X555539Y414739D01*
X557637Y413130D01*
X560079Y412118D01*
X562700Y411773D01*
X565321Y412118D01*
X567763Y413130D01*
X569861Y414739D01*
X571470Y416837D01*
X572482Y419279D01*
X572827Y421900D01*
X572482Y424521D01*
X571470Y426963D01*
X569861Y429061D01*
X567763Y430670D01*
X565321Y431682D01*
X562700Y432027D01*
D02*
G37*
G36*
X280002Y420247D02*
X277349Y419897D01*
X274878Y418873D01*
X272755Y417245D01*
X271127Y415123D01*
X270103Y412651D01*
X269754Y409999D01*
X270103Y407346D01*
X271127Y404875D01*
X272755Y402753D01*
X274878Y401124D01*
X277349Y400100D01*
X280002Y399751D01*
X282654Y400100D01*
X285126Y401124D01*
X287248Y402753D01*
X288876Y404875D01*
X289900Y407346D01*
X290249Y409999D01*
X289900Y412651D01*
X288876Y415123D01*
X287248Y417245D01*
X285126Y418873D01*
X282654Y419897D01*
X280002Y420247D01*
D02*
G37*
G36*
X998600Y426155D02*
X994368Y425738D01*
X990298Y424503D01*
X986547Y422498D01*
X983260Y419800D01*
X980562Y416513D01*
X978557Y412762D01*
X977322Y408692D01*
X976906Y404460D01*
X977322Y400228D01*
X978557Y396158D01*
X980562Y392407D01*
X983260Y389120D01*
X986547Y386422D01*
X990298Y384417D01*
X994368Y383182D01*
X998600Y382766D01*
X1002832Y383182D01*
X1006902Y384417D01*
X1010653Y386422D01*
X1013940Y389120D01*
X1016638Y392407D01*
X1018643Y396158D01*
X1019878Y400228D01*
X1020294Y404460D01*
X1019878Y408692D01*
X1018643Y412762D01*
X1016638Y416513D01*
X1013940Y419800D01*
X1010653Y422498D01*
X1006902Y424503D01*
X1002832Y425738D01*
X998600Y426155D01*
D02*
G37*
G36*
X347300Y432027D02*
X344679Y431682D01*
X342237Y430670D01*
X340139Y429061D01*
X338530Y426963D01*
X337518Y424521D01*
X337173Y421900D01*
X337518Y419279D01*
X338530Y416837D01*
X340139Y414739D01*
X342237Y413130D01*
X344679Y412118D01*
X347300Y411773D01*
X349921Y412118D01*
X352363Y413130D01*
X354461Y414739D01*
X356070Y416837D01*
X357082Y419279D01*
X357427Y421900D01*
X357082Y424521D01*
X356070Y426963D01*
X354461Y429061D01*
X352363Y430670D01*
X349921Y431682D01*
X347300Y432027D01*
D02*
G37*
G36*
X480002Y420247D02*
X477349Y419897D01*
X474878Y418873D01*
X472755Y417245D01*
X471127Y415123D01*
X470103Y412651D01*
X469754Y409999D01*
X470103Y407346D01*
X471127Y404875D01*
X472755Y402753D01*
X474878Y401124D01*
X477349Y400100D01*
X480002Y399751D01*
X482654Y400100D01*
X485126Y401124D01*
X487248Y402753D01*
X488876Y404875D01*
X489900Y407346D01*
X490249Y409999D01*
X489900Y412651D01*
X488876Y415123D01*
X487248Y417245D01*
X485126Y418873D01*
X482654Y419897D01*
X480002Y420247D01*
D02*
G37*
G36*
X521940Y431940D02*
X501860D01*
Y411860D01*
X521940D01*
Y431940D01*
D02*
G37*
G36*
X399370Y431859D02*
Y423170D01*
X408059D01*
X407882Y424521D01*
X406870Y426963D01*
X405261Y429061D01*
X403163Y430670D01*
X400721Y431682D01*
X399370Y431859D01*
D02*
G37*
G36*
X396830D02*
X395479Y431682D01*
X393037Y430670D01*
X390939Y429061D01*
X389330Y426963D01*
X388318Y424521D01*
X388141Y423170D01*
X396830D01*
Y431859D01*
D02*
G37*
G36*
X444000Y458248D02*
X441348Y457898D01*
X438876Y456875D01*
X436754Y455246D01*
X435125Y453124D01*
X434101Y450652D01*
X433752Y448000D01*
X434101Y445348D01*
X435125Y442876D01*
X436754Y440754D01*
X438876Y439125D01*
X441348Y438102D01*
X444000Y437752D01*
X446652Y438102D01*
X449124Y439125D01*
X451246Y440754D01*
X452875Y442876D01*
X453899Y445348D01*
X454248Y448000D01*
X453899Y450652D01*
X452875Y453124D01*
X451246Y455246D01*
X449124Y456875D01*
X446652Y457898D01*
X444000Y458248D01*
D02*
G37*
G36*
X586830Y431859D02*
X585479Y431682D01*
X583037Y430670D01*
X580939Y429061D01*
X579330Y426963D01*
X578318Y424521D01*
X578141Y423170D01*
X586830D01*
Y431859D01*
D02*
G37*
G36*
X408059Y420630D02*
X399370D01*
Y411941D01*
X400721Y412118D01*
X403163Y413130D01*
X405261Y414739D01*
X406870Y416837D01*
X407882Y419279D01*
X408059Y420630D01*
D02*
G37*
G36*
X396830D02*
X388141D01*
X388318Y419279D01*
X389330Y416837D01*
X390939Y414739D01*
X393037Y413130D01*
X395479Y412118D01*
X396830Y411941D01*
Y420630D01*
D02*
G37*
G36*
X598059D02*
X589370D01*
Y411941D01*
X590721Y412118D01*
X593163Y413130D01*
X595261Y414739D01*
X596870Y416837D01*
X597882Y419279D01*
X598059Y420630D01*
D02*
G37*
G36*
X586830D02*
X578141D01*
X578318Y419279D01*
X579330Y416837D01*
X580939Y414739D01*
X583037Y413130D01*
X585479Y412118D01*
X586830Y411941D01*
Y420630D01*
D02*
G37*
G36*
X798730Y1061048D02*
X792380D01*
X789728Y1060698D01*
X787256Y1059675D01*
X785134Y1058046D01*
X783505Y1055924D01*
X782482Y1053452D01*
X782299Y1052070D01*
X798730D01*
Y1061048D01*
D02*
G37*
G36*
X817701Y1049530D02*
X801270D01*
Y1040552D01*
X807620D01*
X810272Y1040901D01*
X812744Y1041925D01*
X814866Y1043554D01*
X816495Y1045676D01*
X817518Y1048148D01*
X817701Y1049530D01*
D02*
G37*
G36*
X480000Y1081135D02*
X477118Y1080756D01*
X474432Y1079643D01*
X472126Y1077874D01*
X470357Y1075568D01*
X469244Y1072882D01*
X468865Y1070000D01*
X469244Y1067118D01*
X470357Y1064432D01*
X472126Y1062126D01*
X474432Y1060357D01*
X477118Y1059244D01*
X480000Y1058865D01*
X482882Y1059244D01*
X485568Y1060357D01*
X487874Y1062126D01*
X489643Y1064432D01*
X490756Y1067118D01*
X491135Y1070000D01*
X490756Y1072882D01*
X489643Y1075568D01*
X487874Y1077874D01*
X485568Y1079643D01*
X482882Y1080756D01*
X480000Y1081135D01*
D02*
G37*
G36*
X807620Y1061048D02*
X801270D01*
Y1052070D01*
X817701D01*
X817518Y1053452D01*
X816495Y1055924D01*
X814866Y1058046D01*
X812744Y1059675D01*
X810272Y1060698D01*
X807620Y1061048D01*
D02*
G37*
G36*
X417000Y1049648D02*
X414348Y1049298D01*
X411876Y1048275D01*
X409754Y1046646D01*
X408125Y1044524D01*
X407102Y1042052D01*
X406752Y1039400D01*
X407102Y1036748D01*
X408125Y1034276D01*
X409754Y1032154D01*
X411876Y1030525D01*
X414348Y1029501D01*
X417000Y1029152D01*
X419652Y1029501D01*
X422124Y1030525D01*
X424246Y1032154D01*
X425875Y1034276D01*
X426898Y1036748D01*
X427248Y1039400D01*
X426898Y1042052D01*
X425875Y1044524D01*
X424246Y1046646D01*
X422124Y1048275D01*
X419652Y1049298D01*
X417000Y1049648D01*
D02*
G37*
G36*
X300000Y1042280D02*
X297314Y1041926D01*
X294811Y1040889D01*
X292661Y1039240D01*
X291012Y1037090D01*
X289975Y1034587D01*
X289621Y1031901D01*
X289975Y1029215D01*
X291012Y1026711D01*
X292661Y1024562D01*
X294811Y1022913D01*
X297314Y1021876D01*
X300000Y1021522D01*
X302686Y1021876D01*
X305189Y1022913D01*
X307339Y1024562D01*
X308988Y1026711D01*
X310025Y1029215D01*
X310379Y1031901D01*
X310025Y1034587D01*
X308988Y1037090D01*
X307339Y1039240D01*
X305189Y1040889D01*
X302686Y1041926D01*
X300000Y1042280D01*
D02*
G37*
G36*
X798730Y1049530D02*
X782299D01*
X782482Y1048148D01*
X783505Y1045676D01*
X785134Y1043554D01*
X787256Y1041925D01*
X789728Y1040901D01*
X792380Y1040552D01*
X798730D01*
Y1049530D01*
D02*
G37*
G36*
X491040Y1055640D02*
X468960D01*
Y1033560D01*
X491040D01*
Y1055640D01*
D02*
G37*
G36*
X415730Y1090730D02*
X406920D01*
X407102Y1089348D01*
X408125Y1086876D01*
X409754Y1084754D01*
X411876Y1083125D01*
X414348Y1082102D01*
X415730Y1081919D01*
Y1090730D01*
D02*
G37*
G36*
X417000Y1127648D02*
X414348Y1127299D01*
X411876Y1126275D01*
X409754Y1124646D01*
X408125Y1122524D01*
X407102Y1120052D01*
X406752Y1117400D01*
X407102Y1114748D01*
X408125Y1112276D01*
X409754Y1110154D01*
X411876Y1108525D01*
X414348Y1107502D01*
X417000Y1107152D01*
X419652Y1107502D01*
X422124Y1108525D01*
X424246Y1110154D01*
X425875Y1112276D01*
X426898Y1114748D01*
X427248Y1117400D01*
X426898Y1120052D01*
X425875Y1122524D01*
X424246Y1124646D01*
X422124Y1126275D01*
X419652Y1127299D01*
X417000Y1127648D01*
D02*
G37*
G36*
X300000Y1118480D02*
X297314Y1118126D01*
X294811Y1117089D01*
X292661Y1115440D01*
X291012Y1113290D01*
X289975Y1110787D01*
X289621Y1108101D01*
X289975Y1105415D01*
X291012Y1102911D01*
X292661Y1100762D01*
X294811Y1099112D01*
X297314Y1098076D01*
X300000Y1097722D01*
X302686Y1098076D01*
X305189Y1099112D01*
X307339Y1100762D01*
X308988Y1102911D01*
X310025Y1105415D01*
X310379Y1108101D01*
X310025Y1110787D01*
X308988Y1113290D01*
X307339Y1115440D01*
X305189Y1117089D01*
X302686Y1118126D01*
X300000Y1118480D01*
D02*
G37*
G36*
X378730Y1119530D02*
X369032D01*
X369244Y1117918D01*
X370357Y1115232D01*
X372126Y1112926D01*
X374432Y1111157D01*
X377118Y1110044D01*
X378730Y1109832D01*
Y1119530D01*
D02*
G37*
G36*
X340000Y1131135D02*
X337118Y1130756D01*
X334432Y1129643D01*
X332126Y1127874D01*
X330357Y1125568D01*
X329244Y1122882D01*
X328865Y1120000D01*
X329244Y1117118D01*
X330357Y1114432D01*
X332126Y1112126D01*
X334432Y1110357D01*
X337118Y1109244D01*
X340000Y1108865D01*
X342882Y1109244D01*
X345568Y1110357D01*
X347874Y1112126D01*
X349643Y1114432D01*
X350756Y1117118D01*
X351135Y1120000D01*
X350756Y1122882D01*
X349643Y1125568D01*
X347874Y1127874D01*
X345568Y1129643D01*
X342882Y1130756D01*
X340000Y1131135D01*
D02*
G37*
G36*
X480000Y1106535D02*
X477118Y1106156D01*
X474432Y1105043D01*
X472126Y1103274D01*
X470357Y1100968D01*
X469244Y1098282D01*
X468865Y1095400D01*
X469244Y1092518D01*
X470357Y1089832D01*
X472126Y1087526D01*
X474432Y1085757D01*
X477118Y1084644D01*
X480000Y1084265D01*
X482882Y1084644D01*
X485568Y1085757D01*
X487874Y1087526D01*
X489643Y1089832D01*
X490756Y1092518D01*
X491135Y1095400D01*
X490756Y1098282D01*
X489643Y1100968D01*
X487874Y1103274D01*
X485568Y1105043D01*
X482882Y1106156D01*
X480000Y1106535D01*
D02*
G37*
G36*
X427080Y1090730D02*
X418270D01*
Y1081919D01*
X419652Y1082102D01*
X422124Y1083125D01*
X424246Y1084754D01*
X425875Y1086876D01*
X426898Y1089348D01*
X427080Y1090730D01*
D02*
G37*
G36*
X418270Y1102081D02*
Y1093270D01*
X427080D01*
X426898Y1094652D01*
X425875Y1097124D01*
X424246Y1099246D01*
X422124Y1100875D01*
X419652Y1101898D01*
X418270Y1102081D01*
D02*
G37*
G36*
X415730D02*
X414348Y1101898D01*
X411876Y1100875D01*
X409754Y1099246D01*
X408125Y1097124D01*
X407102Y1094652D01*
X406920Y1093270D01*
X415730D01*
Y1102081D01*
D02*
G37*
G36*
X614000Y1041227D02*
X611379Y1040882D01*
X608937Y1039870D01*
X606839Y1038261D01*
X605230Y1036163D01*
X604218Y1033721D01*
X603873Y1031100D01*
X604218Y1028479D01*
X605230Y1026037D01*
X606839Y1023939D01*
X608937Y1022330D01*
X611379Y1021318D01*
X614000Y1020973D01*
X616621Y1021318D01*
X619063Y1022330D01*
X621161Y1023939D01*
X622770Y1026037D01*
X623782Y1028479D01*
X624127Y1031100D01*
X623782Y1033721D01*
X622770Y1036163D01*
X621161Y1038261D01*
X619063Y1039870D01*
X616621Y1040882D01*
X614000Y1041227D01*
D02*
G37*
G36*
X612730Y1004430D02*
X604041D01*
X604218Y1003079D01*
X605230Y1000637D01*
X606839Y998539D01*
X608937Y996930D01*
X611379Y995918D01*
X612730Y995741D01*
Y1004430D01*
D02*
G37*
G36*
X817780Y1010160D02*
X782220D01*
Y989840D01*
X817780D01*
Y1010160D01*
D02*
G37*
G36*
X1188730Y1010853D02*
X1185872D01*
X1184132Y1010624D01*
X1182510Y1009952D01*
X1181117Y1008884D01*
X1180049Y1007491D01*
X1179377Y1005869D01*
X1179147Y1004128D01*
Y1001271D01*
X1188730D01*
Y1010853D01*
D02*
G37*
G36*
X623959Y1004430D02*
X615270D01*
Y995741D01*
X616621Y995918D01*
X619063Y996930D01*
X621161Y998539D01*
X622770Y1000637D01*
X623782Y1003079D01*
X623959Y1004430D01*
D02*
G37*
G36*
X614000Y990427D02*
X611379Y990082D01*
X608937Y989070D01*
X606839Y987461D01*
X605230Y985363D01*
X604218Y982921D01*
X603873Y980300D01*
X604218Y977679D01*
X605230Y975237D01*
X606839Y973139D01*
X608937Y971530D01*
X611379Y970518D01*
X614000Y970173D01*
X616621Y970518D01*
X619063Y971530D01*
X621161Y973139D01*
X622770Y975237D01*
X623782Y977679D01*
X624127Y980300D01*
X623782Y982921D01*
X622770Y985363D01*
X621161Y987461D01*
X619063Y989070D01*
X616621Y990082D01*
X614000Y990427D01*
D02*
G37*
G36*
X1190000Y985488D02*
X1187182Y985117D01*
X1184556Y984029D01*
X1182301Y982299D01*
X1180571Y980044D01*
X1179483Y977418D01*
X1179112Y974600D01*
X1179483Y971782D01*
X1180571Y969156D01*
X1182301Y966901D01*
X1184556Y965171D01*
X1187182Y964083D01*
X1190000Y963712D01*
X1192818Y964083D01*
X1195444Y965171D01*
X1197699Y966901D01*
X1199429Y969156D01*
X1200517Y971782D01*
X1200888Y974600D01*
X1200517Y977418D01*
X1199429Y980044D01*
X1197699Y982299D01*
X1195444Y984029D01*
X1192818Y985117D01*
X1190000Y985488D01*
D02*
G37*
G36*
X1200853Y998731D02*
X1191270D01*
Y989148D01*
X1194128D01*
X1195868Y989377D01*
X1197490Y990049D01*
X1198883Y991118D01*
X1199951Y992511D01*
X1200623Y994133D01*
X1200853Y995873D01*
Y998731D01*
D02*
G37*
G36*
X1188730D02*
X1179147D01*
Y995873D01*
X1179377Y994133D01*
X1180049Y992511D01*
X1181117Y991118D01*
X1182510Y990049D01*
X1184132Y989377D01*
X1185872Y989148D01*
X1188730D01*
Y998731D01*
D02*
G37*
G36*
X1194128Y1010853D02*
X1191270D01*
Y1001271D01*
X1200853D01*
Y1004128D01*
X1200623Y1005869D01*
X1199951Y1007491D01*
X1198883Y1008884D01*
X1197490Y1009952D01*
X1195868Y1010624D01*
X1194128Y1010853D01*
D02*
G37*
G36*
X380000Y1030335D02*
X377118Y1029956D01*
X374432Y1028843D01*
X372126Y1027074D01*
X370357Y1024768D01*
X369244Y1022082D01*
X368865Y1019200D01*
X369244Y1016318D01*
X370357Y1013632D01*
X372126Y1011326D01*
X374432Y1009557D01*
X377118Y1008444D01*
X380000Y1008065D01*
X382882Y1008444D01*
X385568Y1009557D01*
X387874Y1011326D01*
X389643Y1013632D01*
X390756Y1016318D01*
X391135Y1019200D01*
X390756Y1022082D01*
X389643Y1024768D01*
X387874Y1027074D01*
X385568Y1028843D01*
X382882Y1029956D01*
X380000Y1030335D01*
D02*
G37*
G36*
X340000Y1029535D02*
X337118Y1029156D01*
X334432Y1028043D01*
X332126Y1026274D01*
X330357Y1023968D01*
X329244Y1021282D01*
X328865Y1018400D01*
X329244Y1015518D01*
X330357Y1012832D01*
X332126Y1010526D01*
X334432Y1008757D01*
X337118Y1007644D01*
X340000Y1007265D01*
X342882Y1007644D01*
X345568Y1008757D01*
X347874Y1010526D01*
X349643Y1012832D01*
X350756Y1015518D01*
X351135Y1018400D01*
X350756Y1021282D01*
X349643Y1023968D01*
X347874Y1026274D01*
X345568Y1028043D01*
X342882Y1029156D01*
X340000Y1029535D01*
D02*
G37*
G36*
X418270Y1024081D02*
Y1015270D01*
X427080D01*
X426898Y1016652D01*
X425875Y1019124D01*
X424246Y1021246D01*
X422124Y1022875D01*
X419652Y1023898D01*
X418270Y1024081D01*
D02*
G37*
G36*
X415730D02*
X414348Y1023898D01*
X411876Y1022875D01*
X409754Y1021246D01*
X408125Y1019124D01*
X407102Y1016652D01*
X406920Y1015270D01*
X415730D01*
Y1024081D01*
D02*
G37*
G36*
X427080Y1012730D02*
X418270D01*
Y1003920D01*
X419652Y1004101D01*
X422124Y1005125D01*
X424246Y1006754D01*
X425875Y1008876D01*
X426898Y1011348D01*
X427080Y1012730D01*
D02*
G37*
G36*
X415730D02*
X406920D01*
X407102Y1011348D01*
X408125Y1008876D01*
X409754Y1006754D01*
X411876Y1005125D01*
X414348Y1004101D01*
X415730Y1003920D01*
Y1012730D01*
D02*
G37*
G36*
X615270Y1015659D02*
Y1006970D01*
X623959D01*
X623782Y1008321D01*
X622770Y1010763D01*
X621161Y1012861D01*
X619063Y1014470D01*
X616621Y1015482D01*
X615270Y1015659D01*
D02*
G37*
G36*
X612730D02*
X611379Y1015482D01*
X608937Y1014470D01*
X606839Y1012861D01*
X605230Y1010763D01*
X604218Y1008321D01*
X604041Y1006970D01*
X612730D01*
Y1015659D01*
D02*
G37*
G36*
X613121Y1188730D02*
X603670D01*
Y1179279D01*
X605218Y1179483D01*
X607844Y1180571D01*
X610099Y1182301D01*
X611829Y1184556D01*
X612917Y1187182D01*
X613121Y1188730D01*
D02*
G37*
G36*
X601130D02*
X591679D01*
X591883Y1187182D01*
X592971Y1184556D01*
X594701Y1182301D01*
X596956Y1180571D01*
X599582Y1179483D01*
X601130Y1179279D01*
Y1188730D01*
D02*
G37*
G36*
X448729Y1200853D02*
X445872D01*
X444131Y1200623D01*
X442509Y1199951D01*
X441116Y1198883D01*
X440048Y1197490D01*
X439376Y1195868D01*
X439147Y1194128D01*
Y1191270D01*
X448729D01*
Y1200853D01*
D02*
G37*
G36*
X1094640Y1224894D02*
X1090408Y1224478D01*
X1086338Y1223243D01*
X1082587Y1221238D01*
X1079300Y1218540D01*
X1076602Y1215253D01*
X1074597Y1211502D01*
X1073362Y1207432D01*
X1072945Y1203200D01*
X1073362Y1198968D01*
X1074597Y1194898D01*
X1076602Y1191147D01*
X1079300Y1187860D01*
X1082587Y1185162D01*
X1086338Y1183157D01*
X1090408Y1181922D01*
X1094640Y1181506D01*
X1098872Y1181922D01*
X1102942Y1183157D01*
X1106693Y1185162D01*
X1109980Y1187860D01*
X1112678Y1191147D01*
X1114683Y1194898D01*
X1115918Y1198968D01*
X1116335Y1203200D01*
X1115918Y1207432D01*
X1114683Y1211502D01*
X1112678Y1215253D01*
X1109980Y1218540D01*
X1106693Y1221238D01*
X1102942Y1223243D01*
X1098872Y1224478D01*
X1094640Y1224894D01*
D02*
G37*
G36*
X511521Y1188730D02*
X502070D01*
Y1179279D01*
X503618Y1179483D01*
X506244Y1180571D01*
X508499Y1182301D01*
X510229Y1184556D01*
X511317Y1187182D01*
X511521Y1188730D01*
D02*
G37*
G36*
X499530D02*
X490079D01*
X490283Y1187182D01*
X491371Y1184556D01*
X493101Y1182301D01*
X495356Y1180571D01*
X497982Y1179483D01*
X499530Y1179279D01*
Y1188730D01*
D02*
G37*
G36*
X562321D02*
X552870D01*
Y1179279D01*
X554418Y1179483D01*
X557044Y1180571D01*
X559299Y1182301D01*
X561029Y1184556D01*
X562117Y1187182D01*
X562321Y1188730D01*
D02*
G37*
G36*
X550330D02*
X540879D01*
X541083Y1187182D01*
X542171Y1184556D01*
X543901Y1182301D01*
X546156Y1180571D01*
X548782Y1179483D01*
X550330Y1179279D01*
Y1188730D01*
D02*
G37*
G36*
X454127Y1200853D02*
X451269D01*
Y1191270D01*
X460852D01*
Y1194128D01*
X460622Y1195868D01*
X459951Y1197490D01*
X458882Y1198883D01*
X457489Y1199951D01*
X455867Y1200623D01*
X454127Y1200853D01*
D02*
G37*
G36*
X603670Y1200721D02*
Y1191270D01*
X613121D01*
X612917Y1192818D01*
X611829Y1195444D01*
X610099Y1197699D01*
X607844Y1199429D01*
X605218Y1200517D01*
X603670Y1200721D01*
D02*
G37*
G36*
X601130D02*
X599582Y1200517D01*
X596956Y1199429D01*
X594701Y1197699D01*
X592971Y1195444D01*
X591883Y1192818D01*
X591679Y1191270D01*
X601130D01*
Y1200721D01*
D02*
G37*
G36*
X710000Y1226369D02*
X706807Y1226054D01*
X703736Y1225123D01*
X700906Y1223610D01*
X698426Y1221574D01*
X696390Y1219094D01*
X694877Y1216264D01*
X693946Y1213193D01*
X693631Y1210000D01*
X693946Y1206807D01*
X694877Y1203736D01*
X696390Y1200906D01*
X698426Y1198426D01*
X700906Y1196390D01*
X703736Y1194877D01*
X706807Y1193946D01*
X710000Y1193631D01*
X713193Y1193946D01*
X716264Y1194877D01*
X719094Y1196390D01*
X721574Y1198426D01*
X723610Y1200906D01*
X725123Y1203736D01*
X726054Y1206807D01*
X726369Y1210000D01*
X726054Y1213193D01*
X725123Y1216264D01*
X723610Y1219094D01*
X721574Y1221574D01*
X719094Y1223610D01*
X716264Y1225123D01*
X713193Y1226054D01*
X710000Y1226369D01*
D02*
G37*
G36*
X807620Y1213448D02*
X792380D01*
X789728Y1213099D01*
X787256Y1212075D01*
X785134Y1210446D01*
X783505Y1208324D01*
X782482Y1205852D01*
X782132Y1203200D01*
X782482Y1200548D01*
X783505Y1198076D01*
X785134Y1195954D01*
X787256Y1194325D01*
X789728Y1193301D01*
X792380Y1192952D01*
X807620D01*
X810272Y1193301D01*
X812744Y1194325D01*
X814866Y1195954D01*
X816495Y1198076D01*
X817518Y1200548D01*
X817868Y1203200D01*
X817518Y1205852D01*
X816495Y1208324D01*
X814866Y1210446D01*
X812744Y1212075D01*
X810272Y1213099D01*
X807620Y1213448D01*
D02*
G37*
G36*
X502070Y1200721D02*
Y1191270D01*
X511521D01*
X511317Y1192818D01*
X510229Y1195444D01*
X508499Y1197699D01*
X506244Y1199429D01*
X503618Y1200517D01*
X502070Y1200721D01*
D02*
G37*
G36*
X499530D02*
X497982Y1200517D01*
X495356Y1199429D01*
X493101Y1197699D01*
X491371Y1195444D01*
X490283Y1192818D01*
X490079Y1191270D01*
X499530D01*
Y1200721D01*
D02*
G37*
G36*
X552870D02*
Y1191270D01*
X562321D01*
X562117Y1192818D01*
X561029Y1195444D01*
X559299Y1197699D01*
X557044Y1199429D01*
X554418Y1200517D01*
X552870Y1200721D01*
D02*
G37*
G36*
X550330D02*
X548782Y1200517D01*
X546156Y1199429D01*
X543901Y1197699D01*
X542171Y1195444D01*
X541083Y1192818D01*
X540879Y1191270D01*
X550330D01*
Y1200721D01*
D02*
G37*
G36*
X460852Y1188730D02*
X451269D01*
Y1179147D01*
X454127D01*
X455867Y1179377D01*
X457489Y1180049D01*
X458882Y1181117D01*
X459951Y1182510D01*
X460622Y1184132D01*
X460852Y1185872D01*
Y1188730D01*
D02*
G37*
G36*
X807620Y1162648D02*
X792380D01*
X789728Y1162299D01*
X787256Y1161275D01*
X785134Y1159646D01*
X783505Y1157524D01*
X782482Y1155052D01*
X782132Y1152400D01*
X782482Y1149748D01*
X783505Y1147276D01*
X785134Y1145154D01*
X787256Y1143525D01*
X789728Y1142502D01*
X792380Y1142152D01*
X807620D01*
X810272Y1142502D01*
X812744Y1143525D01*
X814866Y1145154D01*
X816495Y1147276D01*
X817518Y1149748D01*
X817868Y1152400D01*
X817518Y1155052D01*
X816495Y1157524D01*
X814866Y1159646D01*
X812744Y1161275D01*
X810272Y1162299D01*
X807620Y1162648D01*
D02*
G37*
G36*
X722700Y1146148D02*
X720048Y1145798D01*
X717576Y1144775D01*
X715454Y1143146D01*
X713825Y1141024D01*
X712802Y1138552D01*
X712452Y1135900D01*
X712802Y1133248D01*
X713825Y1130776D01*
X715454Y1128654D01*
X717576Y1127025D01*
X720048Y1126002D01*
X722700Y1125652D01*
X725352Y1126002D01*
X727824Y1127025D01*
X729946Y1128654D01*
X731575Y1130776D01*
X732598Y1133248D01*
X732948Y1135900D01*
X732598Y1138552D01*
X731575Y1141024D01*
X729946Y1143146D01*
X727824Y1144775D01*
X725352Y1145798D01*
X722700Y1146148D01*
D02*
G37*
G36*
X721430Y1160030D02*
X712619D01*
X712802Y1158648D01*
X713825Y1156176D01*
X715454Y1154054D01*
X717576Y1152425D01*
X720048Y1151402D01*
X721430Y1151219D01*
Y1160030D01*
D02*
G37*
G36*
X697300Y1171548D02*
X694648Y1171199D01*
X692176Y1170175D01*
X690054Y1168546D01*
X688425Y1166424D01*
X687402Y1163952D01*
X687052Y1161300D01*
X687402Y1158648D01*
X688425Y1156176D01*
X690054Y1154054D01*
X692176Y1152425D01*
X694648Y1151402D01*
X697300Y1151052D01*
X699952Y1151402D01*
X702424Y1152425D01*
X704546Y1154054D01*
X706175Y1156176D01*
X707198Y1158648D01*
X707548Y1161300D01*
X707198Y1163952D01*
X706175Y1166424D01*
X704546Y1168546D01*
X702424Y1170175D01*
X699952Y1171199D01*
X697300Y1171548D01*
D02*
G37*
G36*
X378730Y1131768D02*
X377118Y1131556D01*
X374432Y1130443D01*
X372126Y1128674D01*
X370357Y1126368D01*
X369244Y1123682D01*
X369032Y1122070D01*
X378730D01*
Y1131768D01*
D02*
G37*
G36*
X390968Y1119530D02*
X381270D01*
Y1109832D01*
X382882Y1110044D01*
X385568Y1111157D01*
X387874Y1112926D01*
X389643Y1115232D01*
X390756Y1117918D01*
X390968Y1119530D01*
D02*
G37*
G36*
X697300Y1146148D02*
X694648Y1145798D01*
X692176Y1144775D01*
X690054Y1143146D01*
X688425Y1141024D01*
X687402Y1138552D01*
X687052Y1135900D01*
X687402Y1133248D01*
X688425Y1130776D01*
X690054Y1128654D01*
X692176Y1127025D01*
X694648Y1126002D01*
X697300Y1125652D01*
X699952Y1126002D01*
X702424Y1127025D01*
X704546Y1128654D01*
X706175Y1130776D01*
X707198Y1133248D01*
X707548Y1135900D01*
X707198Y1138552D01*
X706175Y1141024D01*
X704546Y1143146D01*
X702424Y1144775D01*
X699952Y1145798D01*
X697300Y1146148D01*
D02*
G37*
G36*
X381270Y1131768D02*
Y1122070D01*
X390968D01*
X390756Y1123682D01*
X389643Y1126368D01*
X387874Y1128674D01*
X385568Y1130443D01*
X382882Y1131556D01*
X381270Y1131768D01*
D02*
G37*
G36*
X732781Y1160030D02*
X723970D01*
Y1151219D01*
X725352Y1151402D01*
X727824Y1152425D01*
X729946Y1154054D01*
X731575Y1156176D01*
X732598Y1158648D01*
X732781Y1160030D01*
D02*
G37*
G36*
X577000Y1200888D02*
X574182Y1200517D01*
X571556Y1199429D01*
X569301Y1197699D01*
X567571Y1195444D01*
X566483Y1192818D01*
X566112Y1190000D01*
X566483Y1187182D01*
X567571Y1184556D01*
X569301Y1182301D01*
X571556Y1180571D01*
X574182Y1179483D01*
X577000Y1179112D01*
X579818Y1179483D01*
X582444Y1180571D01*
X584699Y1182301D01*
X586429Y1184556D01*
X587517Y1187182D01*
X587888Y1190000D01*
X587517Y1192818D01*
X586429Y1195444D01*
X584699Y1197699D01*
X582444Y1199429D01*
X579818Y1200517D01*
X577000Y1200888D01*
D02*
G37*
G36*
X526200D02*
X523382Y1200517D01*
X520756Y1199429D01*
X518501Y1197699D01*
X516771Y1195444D01*
X515683Y1192818D01*
X515312Y1190000D01*
X515683Y1187182D01*
X516771Y1184556D01*
X518501Y1182301D01*
X520756Y1180571D01*
X523382Y1179483D01*
X526200Y1179112D01*
X529018Y1179483D01*
X531644Y1180571D01*
X533899Y1182301D01*
X535629Y1184556D01*
X536717Y1187182D01*
X537088Y1190000D01*
X536717Y1192818D01*
X535629Y1195444D01*
X533899Y1197699D01*
X531644Y1199429D01*
X529018Y1200517D01*
X526200Y1200888D01*
D02*
G37*
G36*
X448729Y1188730D02*
X439147D01*
Y1185872D01*
X439376Y1184132D01*
X440048Y1182510D01*
X441116Y1181117D01*
X442509Y1180049D01*
X444131Y1179377D01*
X445872Y1179147D01*
X448729D01*
Y1188730D01*
D02*
G37*
G36*
X627800Y1200888D02*
X624982Y1200517D01*
X622356Y1199429D01*
X620101Y1197699D01*
X618371Y1195444D01*
X617283Y1192818D01*
X616912Y1190000D01*
X617283Y1187182D01*
X618371Y1184556D01*
X620101Y1182301D01*
X622356Y1180571D01*
X624982Y1179483D01*
X627800Y1179112D01*
X630618Y1179483D01*
X633244Y1180571D01*
X635499Y1182301D01*
X637229Y1184556D01*
X638317Y1187182D01*
X638688Y1190000D01*
X638317Y1192818D01*
X637229Y1195444D01*
X635499Y1197699D01*
X633244Y1199429D01*
X630618Y1200517D01*
X627800Y1200888D01*
D02*
G37*
G36*
X723970Y1171380D02*
Y1162570D01*
X732781D01*
X732598Y1163952D01*
X731575Y1166424D01*
X729946Y1168546D01*
X727824Y1170175D01*
X725352Y1171199D01*
X723970Y1171380D01*
D02*
G37*
G36*
X721430D02*
X720048Y1171199D01*
X717576Y1170175D01*
X715454Y1168546D01*
X713825Y1166424D01*
X712802Y1163952D01*
X712619Y1162570D01*
X721430D01*
Y1171380D01*
D02*
G37*
G36*
X475400Y1200888D02*
X472582Y1200517D01*
X469956Y1199429D01*
X467701Y1197699D01*
X465971Y1195444D01*
X464883Y1192818D01*
X464512Y1190000D01*
X464883Y1187182D01*
X465971Y1184556D01*
X467701Y1182301D01*
X469956Y1180571D01*
X472582Y1179483D01*
X475400Y1179112D01*
X478218Y1179483D01*
X480844Y1180571D01*
X483099Y1182301D01*
X484829Y1184556D01*
X485917Y1187182D01*
X486288Y1190000D01*
X485917Y1192818D01*
X484829Y1195444D01*
X483099Y1197699D01*
X480844Y1199429D01*
X478218Y1200517D01*
X475400Y1200888D01*
D02*
G37*
G36*
X807620Y1188048D02*
X792380D01*
X789728Y1187699D01*
X787256Y1186675D01*
X785134Y1185046D01*
X783505Y1182924D01*
X782482Y1180452D01*
X782132Y1177800D01*
X782482Y1175148D01*
X783505Y1172676D01*
X785134Y1170554D01*
X787256Y1168925D01*
X789728Y1167902D01*
X792380Y1167552D01*
X807620D01*
X810272Y1167902D01*
X812744Y1168925D01*
X814866Y1170554D01*
X816495Y1172676D01*
X817518Y1175148D01*
X817868Y1177800D01*
X817518Y1180452D01*
X816495Y1182924D01*
X814866Y1185046D01*
X812744Y1186675D01*
X810272Y1187699D01*
X807620Y1188048D01*
D02*
G37*
G36*
X990000Y850748D02*
X987348Y850398D01*
X984876Y849375D01*
X982754Y847746D01*
X981125Y845624D01*
X980101Y843152D01*
X979752Y840500D01*
X980101Y837848D01*
X981125Y835376D01*
X982754Y833254D01*
X984876Y831625D01*
X987348Y830602D01*
X990000Y830252D01*
X992652Y830602D01*
X995124Y831625D01*
X997246Y833254D01*
X998875Y835376D01*
X999899Y837848D01*
X1000248Y840500D01*
X999899Y843152D01*
X998875Y845624D01*
X997246Y847746D01*
X995124Y849375D01*
X992652Y850398D01*
X990000Y850748D01*
D02*
G37*
G36*
X429081Y838730D02*
X420270D01*
Y829920D01*
X421652Y830101D01*
X424124Y831125D01*
X426246Y832754D01*
X427875Y834876D01*
X428899Y837348D01*
X429081Y838730D01*
D02*
G37*
G36*
X624270Y838959D02*
Y830270D01*
X632959D01*
X632782Y831621D01*
X631770Y834063D01*
X630161Y836161D01*
X628063Y837770D01*
X625621Y838782D01*
X624270Y838959D01*
D02*
G37*
G36*
X621730D02*
X620379Y838782D01*
X617937Y837770D01*
X615839Y836161D01*
X614230Y834063D01*
X613218Y831621D01*
X613041Y830270D01*
X621730D01*
Y838959D01*
D02*
G37*
G36*
X562730Y837959D02*
X561379Y837782D01*
X558937Y836770D01*
X556839Y835161D01*
X555230Y833063D01*
X554218Y830621D01*
X554041Y829270D01*
X562730D01*
Y837959D01*
D02*
G37*
G36*
X380000Y850335D02*
X377118Y849956D01*
X374432Y848843D01*
X372126Y847074D01*
X370357Y844768D01*
X369244Y842082D01*
X368865Y839200D01*
X369244Y836318D01*
X370357Y833632D01*
X372126Y831326D01*
X374432Y829557D01*
X377118Y828444D01*
X380000Y828065D01*
X382882Y828444D01*
X385568Y829557D01*
X387874Y831326D01*
X389643Y833632D01*
X390756Y836318D01*
X391135Y839200D01*
X390756Y842082D01*
X389643Y844768D01*
X387874Y847074D01*
X385568Y848843D01*
X382882Y849956D01*
X380000Y850335D01*
D02*
G37*
G36*
X417730Y838730D02*
X408919D01*
X409101Y837348D01*
X410125Y834876D01*
X411754Y832754D01*
X413876Y831125D01*
X416348Y830101D01*
X417730Y829920D01*
Y838730D01*
D02*
G37*
G36*
X565270Y837959D02*
Y829270D01*
X573959D01*
X573782Y830621D01*
X572770Y833063D01*
X571161Y835161D01*
X569063Y836770D01*
X566621Y837782D01*
X565270Y837959D01*
D02*
G37*
G36*
X1188730Y846330D02*
X1179279D01*
X1179483Y844782D01*
X1180571Y842156D01*
X1182301Y839901D01*
X1184556Y838171D01*
X1187182Y837083D01*
X1188730Y836879D01*
Y846330D01*
D02*
G37*
G36*
Y858321D02*
X1187182Y858117D01*
X1184556Y857029D01*
X1182301Y855299D01*
X1180571Y853044D01*
X1179483Y850418D01*
X1179279Y848870D01*
X1188730D01*
Y858321D01*
D02*
G37*
G36*
X960000Y863448D02*
X957348Y863099D01*
X954876Y862075D01*
X952754Y860446D01*
X951125Y858324D01*
X950101Y855852D01*
X949752Y853200D01*
X950101Y850548D01*
X951125Y848076D01*
X952754Y845954D01*
X954876Y844325D01*
X957348Y843301D01*
X960000Y842952D01*
X962652Y843301D01*
X965124Y844325D01*
X967246Y845954D01*
X968875Y848076D01*
X969899Y850548D01*
X970248Y853200D01*
X969899Y855852D01*
X968875Y858324D01*
X967246Y860446D01*
X965124Y862075D01*
X962652Y863099D01*
X960000Y863448D01*
D02*
G37*
G36*
X890800Y874131D02*
X888048Y873769D01*
X885484Y872707D01*
X883283Y871017D01*
X881593Y868816D01*
X880531Y866252D01*
X880169Y863500D01*
X880531Y860749D01*
X881593Y858185D01*
X883283Y855983D01*
X885484Y854293D01*
X888048Y853231D01*
X890800Y852869D01*
X893551Y853231D01*
X896115Y854293D01*
X898317Y855983D01*
X900007Y858185D01*
X901069Y860749D01*
X901431Y863500D01*
X901069Y866252D01*
X900007Y868816D01*
X898317Y871017D01*
X896115Y872707D01*
X893551Y873769D01*
X890800Y874131D01*
D02*
G37*
G36*
X1191270Y858321D02*
Y848870D01*
X1200721D01*
X1200517Y850418D01*
X1199429Y853044D01*
X1197699Y855299D01*
X1195444Y857029D01*
X1192818Y858117D01*
X1191270Y858321D01*
D02*
G37*
G36*
X417730Y850080D02*
X416348Y849899D01*
X413876Y848875D01*
X411754Y847246D01*
X410125Y845124D01*
X409101Y842652D01*
X408919Y841270D01*
X417730D01*
Y850080D01*
D02*
G37*
G36*
X1200721Y846330D02*
X1191270D01*
Y836879D01*
X1192818Y837083D01*
X1195444Y838171D01*
X1197699Y839901D01*
X1199429Y842156D01*
X1200517Y844782D01*
X1200721Y846330D01*
D02*
G37*
G36*
X300000Y862280D02*
X297314Y861926D01*
X294811Y860889D01*
X292661Y859240D01*
X291012Y857090D01*
X289975Y854587D01*
X289621Y851901D01*
X289975Y849215D01*
X291012Y846711D01*
X292661Y844562D01*
X294811Y842913D01*
X297314Y841876D01*
X300000Y841522D01*
X302686Y841876D01*
X305189Y842913D01*
X307339Y844562D01*
X308988Y846711D01*
X310025Y849215D01*
X310379Y851901D01*
X310025Y854587D01*
X308988Y857090D01*
X307339Y859240D01*
X305189Y860889D01*
X302686Y861926D01*
X300000Y862280D01*
D02*
G37*
G36*
X420270Y850080D02*
Y841270D01*
X429081D01*
X428899Y842652D01*
X427875Y845124D01*
X426246Y847246D01*
X424124Y848875D01*
X421652Y849899D01*
X420270Y850080D01*
D02*
G37*
G36*
X890800Y848731D02*
X888048Y848369D01*
X885484Y847307D01*
X883283Y845617D01*
X881593Y843416D01*
X880531Y840852D01*
X880169Y838100D01*
X880531Y835349D01*
X881593Y832785D01*
X883283Y830583D01*
X885484Y828893D01*
X888048Y827831D01*
X890800Y827469D01*
X893551Y827831D01*
X896115Y828893D01*
X898317Y830583D01*
X900007Y832785D01*
X901069Y835349D01*
X901431Y838100D01*
X901069Y840852D01*
X900007Y843416D01*
X898317Y845617D01*
X896115Y847307D01*
X893551Y848369D01*
X890800Y848731D01*
D02*
G37*
G36*
X790470Y797764D02*
Y788570D01*
X799664D01*
X799469Y790051D01*
X798407Y792616D01*
X796717Y794817D01*
X794516Y796507D01*
X791952Y797569D01*
X790470Y797764D01*
D02*
G37*
G36*
X787930D02*
X786449Y797569D01*
X783885Y796507D01*
X781683Y794817D01*
X779993Y792616D01*
X778931Y790051D01*
X778736Y788570D01*
X787930D01*
Y797764D01*
D02*
G37*
G36*
X892070D02*
Y788570D01*
X901264D01*
X901069Y790051D01*
X900007Y792616D01*
X898317Y794817D01*
X896115Y796507D01*
X893551Y797569D01*
X892070Y797764D01*
D02*
G37*
G36*
X889530D02*
X888048Y797569D01*
X885484Y796507D01*
X883283Y794817D01*
X881593Y792616D01*
X880531Y790051D01*
X880336Y788570D01*
X889530D01*
Y797764D01*
D02*
G37*
G36*
X799664Y786030D02*
X790470D01*
Y776836D01*
X791952Y777031D01*
X794516Y778093D01*
X796717Y779783D01*
X798407Y781984D01*
X799469Y784548D01*
X799664Y786030D01*
D02*
G37*
G36*
X787930D02*
X778736D01*
X778931Y784548D01*
X779993Y781984D01*
X781683Y779783D01*
X783885Y778093D01*
X786449Y777031D01*
X787930Y776836D01*
Y786030D01*
D02*
G37*
G36*
X901264D02*
X892070D01*
Y776836D01*
X893551Y777031D01*
X896115Y778093D01*
X898317Y779783D01*
X900007Y781984D01*
X901069Y784548D01*
X901264Y786030D01*
D02*
G37*
G36*
X889530D02*
X880336D01*
X880531Y784548D01*
X881593Y781984D01*
X883283Y779783D01*
X885484Y778093D01*
X888048Y777031D01*
X889530Y776836D01*
Y786030D01*
D02*
G37*
G36*
X960000Y812648D02*
X957348Y812299D01*
X954876Y811275D01*
X952754Y809646D01*
X951125Y807524D01*
X950101Y805052D01*
X949752Y802400D01*
X950101Y799748D01*
X951125Y797276D01*
X952754Y795154D01*
X954876Y793525D01*
X957348Y792502D01*
X960000Y792152D01*
X962652Y792502D01*
X965124Y793525D01*
X967246Y795154D01*
X968875Y797276D01*
X969899Y799748D01*
X970248Y802400D01*
X969899Y805052D01*
X968875Y807524D01*
X967246Y809646D01*
X965124Y811275D01*
X962652Y812299D01*
X960000Y812648D01*
D02*
G37*
G36*
X621730Y827730D02*
X613041D01*
X613218Y826379D01*
X614230Y823937D01*
X615839Y821839D01*
X617937Y820230D01*
X620379Y819218D01*
X621730Y819041D01*
Y827730D01*
D02*
G37*
G36*
X573959Y826730D02*
X565270D01*
Y818041D01*
X566621Y818218D01*
X569063Y819230D01*
X571161Y820839D01*
X572770Y822937D01*
X573782Y825379D01*
X573959Y826730D01*
D02*
G37*
G36*
X340000Y849535D02*
X337118Y849156D01*
X334432Y848043D01*
X332126Y846274D01*
X330357Y843968D01*
X329244Y841282D01*
X328865Y838400D01*
X329244Y835518D01*
X330357Y832832D01*
X332126Y830526D01*
X334432Y828757D01*
X337118Y827644D01*
X340000Y827265D01*
X342882Y827644D01*
X345568Y828757D01*
X347874Y830526D01*
X349643Y832832D01*
X350756Y835518D01*
X351135Y838400D01*
X350756Y841282D01*
X349643Y843968D01*
X347874Y846274D01*
X345568Y848043D01*
X342882Y849156D01*
X340000Y849535D01*
D02*
G37*
G36*
X632959Y827730D02*
X624270D01*
Y819041D01*
X625621Y819218D01*
X628063Y820230D01*
X630161Y821839D01*
X631770Y823937D01*
X632782Y826379D01*
X632959Y827730D01*
D02*
G37*
G36*
X1190000Y833088D02*
X1187182Y832717D01*
X1184556Y831629D01*
X1182301Y829899D01*
X1180571Y827644D01*
X1179483Y825018D01*
X1179112Y822200D01*
X1179483Y819382D01*
X1180571Y816756D01*
X1182301Y814501D01*
X1184556Y812771D01*
X1187182Y811683D01*
X1190000Y811312D01*
X1192818Y811683D01*
X1195444Y812771D01*
X1197699Y814501D01*
X1199429Y816756D01*
X1200517Y819382D01*
X1200888Y822200D01*
X1200517Y825018D01*
X1199429Y827644D01*
X1197699Y829899D01*
X1195444Y831629D01*
X1192818Y832717D01*
X1190000Y833088D01*
D02*
G37*
G36*
X807620Y1035648D02*
X792380D01*
X789728Y1035298D01*
X787256Y1034275D01*
X785134Y1032646D01*
X783505Y1030524D01*
X782482Y1028052D01*
X782132Y1025400D01*
X782482Y1022748D01*
X783505Y1020276D01*
X785134Y1018154D01*
X787256Y1016525D01*
X789728Y1015501D01*
X792380Y1015152D01*
X807620D01*
X810272Y1015501D01*
X812744Y1016525D01*
X814866Y1018154D01*
X816495Y1020276D01*
X817008Y1021515D01*
X832991D01*
X866115Y988391D01*
Y833500D01*
X866411Y832013D01*
X867253Y830753D01*
X881124Y816882D01*
X880531Y815452D01*
X880169Y812700D01*
X880531Y809949D01*
X881593Y807384D01*
X883283Y805183D01*
X885484Y803493D01*
X888048Y802431D01*
X890800Y802069D01*
X893551Y802431D01*
X896115Y803493D01*
X898317Y805183D01*
X900007Y807384D01*
X901069Y809949D01*
X901431Y812700D01*
X901069Y815452D01*
X900007Y818016D01*
X898317Y820217D01*
X896115Y821907D01*
X893551Y822969D01*
X890800Y823331D01*
X888048Y822969D01*
X886618Y822376D01*
X873885Y835109D01*
Y990000D01*
X873589Y991487D01*
X872747Y992747D01*
X837347Y1028147D01*
X836087Y1028989D01*
X834600Y1029285D01*
X817008D01*
X816495Y1030524D01*
X814866Y1032646D01*
X812744Y1034275D01*
X810272Y1035298D01*
X807620Y1035648D01*
D02*
G37*
G36*
X562730Y826730D02*
X554041D01*
X554218Y825379D01*
X555230Y822937D01*
X556839Y820839D01*
X558937Y819230D01*
X561379Y818218D01*
X562730Y818041D01*
Y826730D01*
D02*
G37*
G36*
X960000Y838048D02*
X957348Y837699D01*
X954876Y836675D01*
X952754Y835046D01*
X951125Y832924D01*
X950101Y830452D01*
X949752Y827800D01*
X950101Y825148D01*
X951125Y822676D01*
X952754Y820554D01*
X954876Y818925D01*
X957348Y817902D01*
X960000Y817552D01*
X962652Y817902D01*
X965124Y818925D01*
X967246Y820554D01*
X968875Y822676D01*
X969899Y825148D01*
X970248Y827800D01*
X969899Y830452D01*
X968875Y832924D01*
X967246Y835046D01*
X965124Y836675D01*
X962652Y837699D01*
X960000Y838048D01*
D02*
G37*
G36*
X378730Y939530D02*
X369032D01*
X369244Y937918D01*
X370357Y935232D01*
X372126Y932926D01*
X374432Y931157D01*
X377118Y930044D01*
X378730Y929832D01*
Y939530D01*
D02*
G37*
G36*
X340000Y951135D02*
X337118Y950756D01*
X334432Y949643D01*
X332126Y947874D01*
X330357Y945568D01*
X329244Y942882D01*
X328865Y940000D01*
X329244Y937118D01*
X330357Y934432D01*
X332126Y932126D01*
X334432Y930357D01*
X337118Y929244D01*
X340000Y928865D01*
X342882Y929244D01*
X345568Y930357D01*
X347874Y932126D01*
X349643Y934432D01*
X350756Y937118D01*
X351135Y940000D01*
X350756Y942882D01*
X349643Y945568D01*
X347874Y947874D01*
X345568Y949643D01*
X342882Y950756D01*
X340000Y951135D01*
D02*
G37*
G36*
X1188730Y947930D02*
X1179279D01*
X1179483Y946382D01*
X1180571Y943756D01*
X1182301Y941501D01*
X1184556Y939771D01*
X1187182Y938683D01*
X1188730Y938479D01*
Y947930D01*
D02*
G37*
G36*
X390968Y939530D02*
X381270D01*
Y929832D01*
X382882Y930044D01*
X385568Y931157D01*
X387874Y932926D01*
X389643Y935232D01*
X390756Y937918D01*
X390968Y939530D01*
D02*
G37*
G36*
X300000Y938480D02*
X297314Y938126D01*
X294811Y937089D01*
X292661Y935440D01*
X291012Y933290D01*
X289975Y930787D01*
X289621Y928101D01*
X289975Y925415D01*
X290515Y924110D01*
X277253Y910848D01*
X276411Y909587D01*
X276115Y908101D01*
Y840000D01*
X276411Y838513D01*
X277253Y837253D01*
X317253Y797253D01*
X318513Y796411D01*
X320000Y796115D01*
X378391D01*
X406115Y768391D01*
Y600000D01*
X406411Y598513D01*
X407253Y597253D01*
X437253Y567253D01*
X438513Y566411D01*
X438760Y566362D01*
X440000Y566115D01*
X621987D01*
X622235Y565517D01*
X623660Y563660D01*
X625517Y562235D01*
X627679Y561339D01*
X630000Y561033D01*
X632321Y561339D01*
X634483Y562235D01*
X636340Y563660D01*
X637765Y565517D01*
X638661Y567679D01*
X638967Y570000D01*
X638661Y572321D01*
X637765Y574483D01*
X636340Y576340D01*
X634483Y577765D01*
X632321Y578661D01*
X630000Y578967D01*
X627679Y578661D01*
X625517Y577765D01*
X623660Y576340D01*
X622235Y574483D01*
X621987Y573885D01*
X441609D01*
X413885Y601609D01*
Y770000D01*
X413638Y771240D01*
X413589Y771487D01*
X412747Y772747D01*
X382747Y802747D01*
X381487Y803589D01*
X380000Y803885D01*
X321609D01*
X283885Y841609D01*
Y906492D01*
X296009Y918616D01*
X297314Y918076D01*
X300000Y917722D01*
X302686Y918076D01*
X305189Y919112D01*
X307339Y920762D01*
X308988Y922911D01*
X310025Y925415D01*
X310379Y928101D01*
X310025Y930787D01*
X308988Y933290D01*
X307339Y935440D01*
X305189Y937089D01*
X302686Y938126D01*
X300000Y938480D01*
D02*
G37*
G36*
X1190000Y934688D02*
X1187182Y934317D01*
X1184556Y933229D01*
X1182301Y931499D01*
X1180571Y929244D01*
X1179483Y926618D01*
X1179112Y923800D01*
X1179483Y920982D01*
X1180571Y918356D01*
X1182301Y916101D01*
X1184556Y914371D01*
X1187182Y913283D01*
X1190000Y912912D01*
X1192818Y913283D01*
X1195444Y914371D01*
X1197699Y916101D01*
X1199429Y918356D01*
X1200517Y920982D01*
X1200888Y923800D01*
X1200517Y926618D01*
X1199429Y929244D01*
X1197699Y931499D01*
X1195444Y933229D01*
X1192818Y934317D01*
X1190000Y934688D01*
D02*
G37*
G36*
X420000Y943648D02*
X417348Y943298D01*
X414876Y942275D01*
X412754Y940646D01*
X411125Y938524D01*
X410102Y936052D01*
X409752Y933400D01*
X410102Y930748D01*
X411125Y928276D01*
X412754Y926154D01*
X414876Y924525D01*
X417348Y923502D01*
X420000Y923152D01*
X422652Y923502D01*
X425124Y924525D01*
X427246Y926154D01*
X428875Y928276D01*
X429898Y930748D01*
X430248Y933400D01*
X429898Y936052D01*
X428875Y938524D01*
X427246Y940646D01*
X425124Y942275D01*
X422652Y943298D01*
X420000Y943648D01*
D02*
G37*
G36*
X960000Y939648D02*
X957348Y939298D01*
X954876Y938275D01*
X952754Y936646D01*
X951125Y934524D01*
X950101Y932052D01*
X949752Y929400D01*
X950101Y926748D01*
X951125Y924276D01*
X952754Y922154D01*
X954876Y920525D01*
X957348Y919501D01*
X960000Y919152D01*
X962652Y919501D01*
X965124Y920525D01*
X967246Y922154D01*
X968875Y924276D01*
X969899Y926748D01*
X970248Y929400D01*
X969899Y932052D01*
X968875Y934524D01*
X967246Y936646D01*
X965124Y938275D01*
X962652Y939298D01*
X960000Y939648D01*
D02*
G37*
G36*
X1200721Y947930D02*
X1191270D01*
Y938479D01*
X1192818Y938683D01*
X1195444Y939771D01*
X1197699Y941501D01*
X1199429Y943756D01*
X1200517Y946382D01*
X1200721Y947930D01*
D02*
G37*
G36*
X1191270Y959921D02*
Y950470D01*
X1200721D01*
X1200517Y952018D01*
X1199429Y954644D01*
X1197699Y956899D01*
X1195444Y958629D01*
X1192818Y959717D01*
X1191270Y959921D01*
D02*
G37*
G36*
X1188730D02*
X1187182Y959717D01*
X1184556Y958629D01*
X1182301Y956899D01*
X1180571Y954644D01*
X1179483Y952018D01*
X1179279Y950470D01*
X1188730D01*
Y959921D01*
D02*
G37*
G36*
X615270Y964859D02*
Y956170D01*
X623959D01*
X623782Y957521D01*
X622770Y959963D01*
X621161Y962061D01*
X619063Y963670D01*
X616621Y964682D01*
X615270Y964859D01*
D02*
G37*
G36*
X612730D02*
X611379Y964682D01*
X608937Y963670D01*
X606839Y962061D01*
X605230Y959963D01*
X604218Y957521D01*
X604041Y956170D01*
X612730D01*
Y964859D01*
D02*
G37*
G36*
X381270Y951768D02*
Y942070D01*
X390968D01*
X390756Y943682D01*
X389643Y946368D01*
X387874Y948674D01*
X385568Y950443D01*
X382882Y951556D01*
X381270Y951768D01*
D02*
G37*
G36*
X378730D02*
X377118Y951556D01*
X374432Y950443D01*
X372126Y948674D01*
X370357Y946368D01*
X369244Y943682D01*
X369032Y942070D01*
X378730D01*
Y951768D01*
D02*
G37*
G36*
X623959Y953630D02*
X615270D01*
Y944941D01*
X616621Y945118D01*
X619063Y946130D01*
X621161Y947739D01*
X622770Y949837D01*
X623782Y952279D01*
X623959Y953630D01*
D02*
G37*
G36*
X612730D02*
X604041D01*
X604218Y952279D01*
X605230Y949837D01*
X606839Y947739D01*
X608937Y946130D01*
X611379Y945118D01*
X612730Y944941D01*
Y953630D01*
D02*
G37*
G36*
X421270Y918081D02*
Y909270D01*
X430080D01*
X429898Y910652D01*
X428875Y913124D01*
X427246Y915246D01*
X425124Y916875D01*
X422652Y917898D01*
X421270Y918081D01*
D02*
G37*
G36*
X960000Y888848D02*
X957348Y888499D01*
X954876Y887475D01*
X952754Y885846D01*
X951125Y883724D01*
X950101Y881252D01*
X949752Y878600D01*
X950101Y875948D01*
X951125Y873476D01*
X952754Y871354D01*
X954876Y869725D01*
X957348Y868701D01*
X960000Y868352D01*
X962652Y868701D01*
X965124Y869725D01*
X967246Y871354D01*
X968875Y873476D01*
X969899Y875948D01*
X970248Y878600D01*
X969899Y881252D01*
X968875Y883724D01*
X967246Y885846D01*
X965124Y887475D01*
X962652Y888499D01*
X960000Y888848D01*
D02*
G37*
G36*
X564000Y888127D02*
X561379Y887782D01*
X558937Y886770D01*
X556839Y885161D01*
X555230Y883063D01*
X554218Y880621D01*
X553873Y878000D01*
X554218Y875379D01*
X555230Y872937D01*
X556839Y870839D01*
X558937Y869230D01*
X561379Y868218D01*
X564000Y867873D01*
X566621Y868218D01*
X569063Y869230D01*
X571161Y870839D01*
X572770Y872937D01*
X573782Y875379D01*
X574127Y878000D01*
X573782Y880621D01*
X572770Y883063D01*
X571161Y885161D01*
X569063Y886770D01*
X566621Y887782D01*
X564000Y888127D01*
D02*
G37*
G36*
X480000Y901135D02*
X477118Y900756D01*
X474432Y899643D01*
X472126Y897874D01*
X470357Y895568D01*
X469244Y892882D01*
X468865Y890000D01*
X469244Y887118D01*
X470357Y884432D01*
X472126Y882126D01*
X474432Y880357D01*
X477118Y879244D01*
X480000Y878865D01*
X482882Y879244D01*
X485568Y880357D01*
X487874Y882126D01*
X489643Y884432D01*
X490756Y887118D01*
X491135Y890000D01*
X490756Y892882D01*
X489643Y895568D01*
X487874Y897874D01*
X485568Y899643D01*
X482882Y900756D01*
X480000Y901135D01*
D02*
G37*
G36*
X623000Y889127D02*
X620379Y888782D01*
X617937Y887770D01*
X615839Y886161D01*
X614230Y884063D01*
X613218Y881621D01*
X612873Y879000D01*
X613218Y876379D01*
X614230Y873937D01*
X615839Y871839D01*
X617937Y870230D01*
X620379Y869218D01*
X623000Y868873D01*
X625621Y869218D01*
X628063Y870230D01*
X630161Y871839D01*
X631770Y873937D01*
X632782Y876379D01*
X633127Y879000D01*
X632782Y881621D01*
X631770Y884063D01*
X630161Y886161D01*
X628063Y887770D01*
X625621Y888782D01*
X623000Y889127D01*
D02*
G37*
G36*
X419000Y875648D02*
X416348Y875298D01*
X413876Y874275D01*
X411754Y872646D01*
X410125Y870524D01*
X409101Y868052D01*
X408752Y865400D01*
X409101Y862748D01*
X410125Y860276D01*
X411754Y858154D01*
X413876Y856525D01*
X416348Y855501D01*
X419000Y855152D01*
X421652Y855501D01*
X424124Y856525D01*
X426246Y858154D01*
X427875Y860276D01*
X428899Y862748D01*
X429248Y865400D01*
X428899Y868052D01*
X427875Y870524D01*
X426246Y872646D01*
X424124Y874275D01*
X421652Y875298D01*
X419000Y875648D01*
D02*
G37*
G36*
X491040Y875640D02*
X468960D01*
Y853560D01*
X491040D01*
Y875640D01*
D02*
G37*
G36*
X1190000Y883888D02*
X1187182Y883517D01*
X1184556Y882429D01*
X1182301Y880699D01*
X1180571Y878444D01*
X1179483Y875818D01*
X1179112Y873000D01*
X1179483Y870182D01*
X1180571Y867556D01*
X1182301Y865301D01*
X1184556Y863571D01*
X1187182Y862483D01*
X1190000Y862112D01*
X1192818Y862483D01*
X1195444Y863571D01*
X1197699Y865301D01*
X1199429Y867556D01*
X1200517Y870182D01*
X1200888Y873000D01*
X1200517Y875818D01*
X1199429Y878444D01*
X1197699Y880699D01*
X1195444Y882429D01*
X1192818Y883517D01*
X1190000Y883888D01*
D02*
G37*
G36*
X990000Y876148D02*
X987348Y875798D01*
X984876Y874775D01*
X982754Y873146D01*
X981125Y871024D01*
X980101Y868552D01*
X979752Y865900D01*
X980101Y863248D01*
X981125Y860776D01*
X982754Y858654D01*
X984876Y857025D01*
X987348Y856002D01*
X990000Y855652D01*
X992652Y856002D01*
X995124Y857025D01*
X997246Y858654D01*
X998875Y860776D01*
X999899Y863248D01*
X1000248Y865900D01*
X999899Y868552D01*
X998875Y871024D01*
X997246Y873146D01*
X995124Y874775D01*
X992652Y875798D01*
X990000Y876148D01*
D02*
G37*
G36*
X1188730Y897130D02*
X1179279D01*
X1179483Y895582D01*
X1180571Y892956D01*
X1182301Y890701D01*
X1184556Y888971D01*
X1187182Y887883D01*
X1188730Y887679D01*
Y897130D01*
D02*
G37*
G36*
X1191270Y909121D02*
Y899670D01*
X1200721D01*
X1200517Y901218D01*
X1199429Y903844D01*
X1197699Y906099D01*
X1195444Y907829D01*
X1192818Y908917D01*
X1191270Y909121D01*
D02*
G37*
G36*
X1188730D02*
X1187182Y908917D01*
X1184556Y907829D01*
X1182301Y906099D01*
X1180571Y903844D01*
X1179483Y901218D01*
X1179279Y899670D01*
X1188730D01*
Y909121D01*
D02*
G37*
G36*
X418730Y918081D02*
X417348Y917898D01*
X414876Y916875D01*
X412754Y915246D01*
X411125Y913124D01*
X410102Y910652D01*
X409920Y909270D01*
X418730D01*
Y918081D01*
D02*
G37*
G36*
X480000Y926535D02*
X477118Y926156D01*
X474432Y925043D01*
X472126Y923274D01*
X470357Y920968D01*
X469244Y918282D01*
X468865Y915400D01*
X469244Y912518D01*
X470357Y909832D01*
X472126Y907526D01*
X474432Y905757D01*
X477118Y904644D01*
X480000Y904265D01*
X482882Y904644D01*
X485568Y905757D01*
X487874Y907526D01*
X489643Y909832D01*
X490756Y912518D01*
X491135Y915400D01*
X490756Y918282D01*
X489643Y920968D01*
X487874Y923274D01*
X485568Y925043D01*
X482882Y926156D01*
X480000Y926535D01*
D02*
G37*
G36*
X960000Y914248D02*
X957348Y913898D01*
X954876Y912875D01*
X952754Y911246D01*
X951125Y909124D01*
X950101Y906652D01*
X949752Y904000D01*
X950101Y901348D01*
X951125Y898876D01*
X952754Y896754D01*
X954876Y895125D01*
X957348Y894101D01*
X960000Y893752D01*
X962652Y894101D01*
X965124Y895125D01*
X967246Y896754D01*
X968875Y898876D01*
X969899Y901348D01*
X970248Y904000D01*
X969899Y906652D01*
X968875Y909124D01*
X967246Y911246D01*
X965124Y912875D01*
X962652Y913898D01*
X960000Y914248D01*
D02*
G37*
G36*
X1200721Y897130D02*
X1191270D01*
Y887679D01*
X1192818Y887883D01*
X1195444Y888971D01*
X1197699Y890701D01*
X1199429Y892956D01*
X1200517Y895582D01*
X1200721Y897130D01*
D02*
G37*
G36*
X430080Y906730D02*
X421270D01*
Y897919D01*
X422652Y898102D01*
X425124Y899125D01*
X427246Y900754D01*
X428875Y902876D01*
X429898Y905348D01*
X430080Y906730D01*
D02*
G37*
G36*
X418730D02*
X409920D01*
X410102Y905348D01*
X411125Y902876D01*
X412754Y900754D01*
X414876Y899125D01*
X417348Y898102D01*
X418730Y897919D01*
Y906730D01*
D02*
G37*
%LPD*%
D10*
X1200000Y590000D02*
X1208771D01*
X1210531Y591760D01*
X1211760D01*
X1220000Y600000D01*
X1140800Y530800D02*
X1200000Y590000D01*
X1220000Y600000D02*
X1230000D01*
X902400Y480000D02*
X922400Y460000D01*
X610000Y420000D02*
X640000D01*
X562700Y467300D02*
X610000Y420000D01*
X562700Y467300D02*
Y498100D01*
X700000Y480000D02*
X902400D01*
X640000Y420000D02*
X700000Y480000D01*
X470000Y380000D02*
X860000D01*
X372700Y477300D02*
X470000Y380000D01*
X372700Y477300D02*
Y498100D01*
X440000Y570000D02*
X630000D01*
X410000Y600000D02*
X440000Y570000D01*
X410000Y600000D02*
Y770000D01*
X380000Y800000D02*
X410000Y770000D01*
X320000Y800000D02*
X380000D01*
X280000Y840000D02*
X320000Y800000D01*
X280000Y840000D02*
Y908101D01*
X300000Y928101D01*
X930000Y610000D02*
X1009200Y530800D01*
X930000Y610000D02*
Y696200D01*
X960000Y726200D01*
X1160000Y630000D02*
Y650000D01*
X1140000Y610000D02*
X1160000Y630000D01*
X1070000Y610000D02*
X1140000D01*
X1000000Y680000D02*
X1070000Y610000D01*
X1000000Y680000D02*
Y728900D01*
X990000Y738900D02*
X1000000Y728900D01*
X1070000Y630000D02*
X1120000D01*
X1020000Y680000D02*
X1070000Y630000D01*
X1020000Y680000D02*
Y734300D01*
X990000Y764300D02*
X1020000Y734300D01*
X1240000Y610000D02*
Y748100D01*
X1009200Y530800D02*
X1067600D01*
X1140800D01*
X1230000Y600000D02*
X1240000Y610000D01*
X800000Y1101600D02*
X908400D01*
X1090000Y920000D01*
Y799400D02*
Y920000D01*
X1084920Y779080D02*
X1112400Y751600D01*
X1090000Y799400D02*
X1112400Y777000D01*
X1084920Y779080D02*
Y915080D01*
X870000Y833500D02*
X890800Y812700D01*
X870000Y833500D02*
Y990000D01*
X800000Y1025400D02*
X834600D01*
X870000Y990000D01*
X923800Y1076200D02*
X1084920Y915080D01*
X800000Y1076200D02*
X923800D01*
X1235000Y753100D02*
X1236250Y751850D01*
X1195000Y753100D02*
X1235000D01*
X1190000Y758100D02*
X1195000Y753100D01*
X1235000Y753100D02*
X1236250Y751850D01*
X1240000Y748100D01*
X1180000Y690000D02*
Y697300D01*
X1190000Y707300D01*
X1120000Y630000D02*
X1180000Y690000D01*
X1180950Y670950D02*
Y672850D01*
X1190000Y681900D01*
X1160000Y650000D02*
X1180950Y670950D01*
X709000Y280000D02*
X751604D01*
X763034Y268570D01*
X776966D01*
X781430Y273034D01*
Y278602D01*
X782828Y280000D01*
X795400D01*
X804636D01*
X816066Y268570D01*
X850935D01*
X852365Y270000D01*
X861600D01*
X871600Y280000D01*
X860000Y380000D02*
X922400Y317600D01*
Y280000D02*
Y317600D01*
X871600Y280000D02*
X880836D01*
X892266Y268570D01*
X987170D01*
X998600Y280000D01*
X588100Y498100D02*
X590000Y500000D01*
X907800D02*
X947800Y460000D01*
X590000Y500000D02*
X907800D01*
X711270Y794270D02*
Y815270D01*
X715670Y819670D01*
X727434D01*
X697300Y780300D02*
X711270Y794270D01*
X697300Y754900D02*
X711270Y768870D01*
Y785034D01*
X720506Y794270D01*
X727434D01*
X758165Y825000D01*
X727434Y819670D02*
X747834Y840070D01*
X779494D01*
X781464Y838100D01*
X789200D01*
X758165Y825000D02*
X798000D01*
Y830198D01*
X801010Y833208D01*
Y851690D01*
X789200Y863500D02*
X801010Y851690D01*
D13*
X515600Y535000D02*
D03*
X541000D02*
D03*
X697300Y1161300D02*
D03*
X722700D02*
D03*
X697300Y1135900D02*
D03*
X722700D02*
D03*
X697300Y1110500D02*
D03*
X722700D02*
D03*
X697300Y1085100D02*
D03*
X722700D02*
D03*
X697300Y1059700D02*
D03*
X722700D02*
D03*
X697300Y1034300D02*
D03*
X722700D02*
D03*
X697300Y1008900D02*
D03*
X722700D02*
D03*
X697300Y983500D02*
D03*
X722700D02*
D03*
X697300Y958100D02*
D03*
X722700D02*
D03*
X697300Y932700D02*
D03*
X722700D02*
D03*
X697300Y907300D02*
D03*
X722700D02*
D03*
X697300Y881900D02*
D03*
X722700D02*
D03*
X697300Y856500D02*
D03*
X722700D02*
D03*
X697300Y831100D02*
D03*
X722700D02*
D03*
X697300Y805700D02*
D03*
X722700D02*
D03*
X697300Y780300D02*
D03*
X722700D02*
D03*
X697300Y754900D02*
D03*
X722700D02*
D03*
X697300Y729500D02*
D03*
X722700D02*
D03*
X697300Y704100D02*
D03*
X722700D02*
D03*
X697300Y678700D02*
D03*
X280002Y409999D02*
D03*
X280000Y510000D02*
D03*
X480002Y409999D02*
D03*
X480000Y510000D02*
D03*
X630000Y607600D02*
D03*
Y760000D02*
D03*
X420000Y908000D02*
D03*
Y933400D02*
D03*
X444000Y448000D02*
D03*
Y473400D02*
D03*
X366000Y536000D02*
D03*
X340600D02*
D03*
X627000Y478000D02*
D03*
Y452600D02*
D03*
X417000Y1092000D02*
D03*
Y1117400D02*
D03*
X419000Y840000D02*
D03*
Y865400D02*
D03*
X330000Y730000D02*
D03*
Y628400D02*
D03*
X990000Y764300D02*
D03*
Y738900D02*
D03*
Y840500D02*
D03*
Y865900D02*
D03*
X1112400Y929400D02*
D03*
X960000Y726200D02*
D03*
Y751600D02*
D03*
Y827800D02*
D03*
Y802400D02*
D03*
Y777000D02*
D03*
Y904000D02*
D03*
Y929400D02*
D03*
Y878600D02*
D03*
Y853200D02*
D03*
Y700800D02*
D03*
Y675400D02*
D03*
Y650000D02*
D03*
X1112400Y675400D02*
D03*
Y700800D02*
D03*
Y853200D02*
D03*
Y878600D02*
D03*
Y904000D02*
D03*
Y777000D02*
D03*
Y802400D02*
D03*
Y827800D02*
D03*
Y751600D02*
D03*
Y726200D02*
D03*
Y650000D02*
D03*
X998600Y280000D02*
D03*
X973200D02*
D03*
X947800D02*
D03*
X922400D02*
D03*
X897000D02*
D03*
X871600D02*
D03*
X846200D02*
D03*
X820800D02*
D03*
X795400D02*
D03*
X998600Y460000D02*
D03*
X973200D02*
D03*
X947800D02*
D03*
X922400D02*
D03*
X897000D02*
D03*
X871600D02*
D03*
X846200D02*
D03*
X820800D02*
D03*
X795400D02*
D03*
X1220000Y454600D02*
D03*
Y429200D02*
D03*
Y403800D02*
D03*
Y378400D02*
D03*
X1067600Y530800D02*
D03*
Y505400D02*
D03*
Y480000D02*
D03*
Y454600D02*
D03*
Y429200D02*
D03*
Y403800D02*
D03*
Y378400D02*
D03*
Y353000D02*
D03*
Y327600D02*
D03*
X417000Y1014000D02*
D03*
Y1039400D02*
D03*
D14*
X623000Y829000D02*
D03*
Y879000D02*
D03*
X371900Y692700D02*
D03*
Y667300D02*
D03*
Y641900D02*
D03*
X448100Y718100D02*
D03*
Y692700D02*
D03*
Y667300D02*
D03*
Y641900D02*
D03*
X347300Y421900D02*
D03*
X372700D02*
D03*
X398100D02*
D03*
X321900Y498100D02*
D03*
X347300D02*
D03*
X372700D02*
D03*
X398100D02*
D03*
X537300Y421900D02*
D03*
X562700D02*
D03*
X588100D02*
D03*
X511900Y498100D02*
D03*
X537300D02*
D03*
X562700D02*
D03*
X588100D02*
D03*
X564000Y828000D02*
D03*
Y878000D02*
D03*
X614000Y1031100D02*
D03*
Y1005700D02*
D03*
Y980300D02*
D03*
Y954900D02*
D03*
D15*
X642100Y320000D02*
D03*
X667500D02*
D03*
X306500D02*
D03*
X331900D02*
D03*
X357300D02*
D03*
X382700D02*
D03*
X1190000Y681900D02*
D03*
Y707300D02*
D03*
Y732700D02*
D03*
X476500Y320000D02*
D03*
X501900D02*
D03*
X527300D02*
D03*
X552700D02*
D03*
D16*
X692500D02*
D03*
X408100D02*
D03*
X578100D02*
D03*
D17*
X1094640Y1000000D02*
D03*
Y1203200D02*
D03*
X770000Y404460D02*
D03*
X998600D02*
D03*
X770000Y584460D02*
D03*
X998600D02*
D03*
X1067600Y568900D02*
D03*
Y289500D02*
D03*
X1220000Y568900D02*
D03*
Y289500D02*
D03*
D18*
X800000Y1076200D02*
D03*
Y1050800D02*
D03*
Y1025400D02*
D03*
D19*
Y1000000D02*
D03*
D20*
Y1101600D02*
D03*
Y1127000D02*
D03*
Y1152400D02*
D03*
Y1177800D02*
D03*
Y1203200D02*
D03*
D21*
X1200000Y1210000D02*
D03*
Y630000D02*
D03*
X710000Y1210000D02*
D03*
Y630000D02*
D03*
D22*
X722700Y678700D02*
D03*
D23*
X340000Y1120000D02*
D03*
Y1018400D02*
D03*
X380000Y1019200D02*
D03*
Y1120800D02*
D03*
X340000Y940000D02*
D03*
Y838400D02*
D03*
X380000Y839200D02*
D03*
Y940800D02*
D03*
X490000Y629200D02*
D03*
Y730800D02*
D03*
X290000Y630000D02*
D03*
Y731600D02*
D03*
X480000Y1070000D02*
D03*
Y1095400D02*
D03*
Y890000D02*
D03*
Y915400D02*
D03*
D24*
X300000Y1031901D02*
D03*
Y1108101D02*
D03*
Y851901D02*
D03*
Y928101D02*
D03*
D25*
X890800Y736500D02*
D03*
Y761900D02*
D03*
Y787300D02*
D03*
Y812700D02*
D03*
Y838100D02*
D03*
Y863500D02*
D03*
X789200D02*
D03*
Y838100D02*
D03*
Y812700D02*
D03*
Y787300D02*
D03*
Y761900D02*
D03*
Y736500D02*
D03*
D26*
X1190000Y758100D02*
D03*
D27*
Y974600D02*
D03*
Y949200D02*
D03*
Y923800D02*
D03*
Y898400D02*
D03*
Y873000D02*
D03*
Y847600D02*
D03*
Y822200D02*
D03*
X475400Y1190000D02*
D03*
X500800D02*
D03*
X526200D02*
D03*
X551600D02*
D03*
X577000D02*
D03*
X602400D02*
D03*
X627800D02*
D03*
D28*
X1190000Y1000001D02*
D03*
D29*
X770000Y280000D02*
D03*
Y460000D02*
D03*
D30*
X1220000Y480000D02*
D03*
D31*
X449999Y1190000D02*
D03*
D32*
X480000Y1044600D02*
D03*
Y864600D02*
D03*
D33*
X564501Y730001D02*
D03*
X539501D02*
D03*
D34*
X371900Y718100D02*
D03*
D35*
X321900Y421900D02*
D03*
X511900D02*
D03*
D36*
X630000Y570000D02*
D03*
M02*
