G04 Layer_Color=15132400*
%FSLAX44Y44*%
%MOMM*%
G71*
G01*
G75*
%ADD10C,0.2540*%
%ADD37C,0.1524*%
%ADD38C,0.2500*%
%ADD39C,0.2000*%
%ADD40C,0.6350*%
%ADD41C,0.6000*%
%ADD42C,0.1270*%
%ADD43C,0.1600*%
G36*
X552000Y700790D02*
X540570D01*
X530410Y710950D01*
Y714760D01*
X541840D01*
X552000Y724920D01*
Y700790D01*
D02*
G37*
G36*
Y734226D02*
X544380Y741846D01*
Y742700D01*
X541840D01*
X539300Y745240D01*
X530410D01*
Y747780D01*
X540570Y757940D01*
X550730D01*
X552000Y759210D01*
Y734226D01*
D02*
G37*
D10*
X754450Y678700D02*
G03*
X754450Y678700I-6350J0D01*
G01*
X744600Y285080D02*
G03*
X770000Y259680I25400J0D01*
G01*
Y429860D02*
G03*
X744600Y404460I0J-25400D01*
G01*
X1024000D02*
G03*
X998600Y429860I-25400J0D01*
G01*
Y259680D02*
G03*
X1024000Y285080I0J25400D01*
G01*
X744600Y465080D02*
G03*
X770000Y439680I25400J0D01*
G01*
Y609860D02*
G03*
X744600Y584460I0J-25400D01*
G01*
X1024000D02*
G03*
X998600Y609860I-25400J0D01*
G01*
Y439680D02*
G03*
X1024000Y465080I0J25400D01*
G01*
X1251750Y568900D02*
G03*
X1220000Y600650I-31750J0D01*
G01*
X1220000Y257750D02*
G03*
X1251750Y289500I0J31750D01*
G01*
X1035850Y289500D02*
G03*
X1067600Y257750I31750J0D01*
G01*
X1067600Y600650D02*
G03*
X1035850Y568900I0J-31750D01*
G01*
X502900Y522300D02*
X553700D01*
X502900D02*
Y547700D01*
X553700D01*
Y522300D02*
Y547700D01*
X610300Y828600D02*
Y879400D01*
X635700Y828600D02*
Y879400D01*
X684600Y666000D02*
X735400D01*
X684600D02*
Y1174000D01*
X735400D01*
Y666000D02*
Y1174000D01*
X270002Y499998D02*
X290002D01*
X270002D02*
X290002D01*
X270002Y419998D02*
Y499998D01*
X290002Y419998D02*
Y499998D01*
X270002Y419998D02*
X290002D01*
X328570Y1031100D02*
Y1107300D01*
X352003D01*
Y1031100D02*
Y1107300D01*
X328570Y1031100D02*
X352003D01*
X391430Y1031900D02*
Y1108100D01*
X367997Y1031900D02*
X391430D01*
X367997D02*
Y1108100D01*
X391430D01*
X328570Y851100D02*
Y927300D01*
X352003D01*
Y851100D02*
Y927300D01*
X328570Y851100D02*
X352003D01*
X368570Y851900D02*
X392003D01*
Y928100D01*
X368570D02*
X392003D01*
X368570Y851900D02*
Y928100D01*
X501430Y641900D02*
Y718100D01*
X477997Y641900D02*
X501430D01*
X477997D02*
Y718100D01*
X501430D01*
X470002Y499998D02*
X490002D01*
X470002D02*
X490002D01*
X470002Y419998D02*
Y499998D01*
X490002Y419998D02*
Y499998D01*
X470002Y419998D02*
X490002D01*
X301430Y642700D02*
Y718900D01*
X277997Y642700D02*
X301430D01*
X277997D02*
Y718900D01*
X301430D01*
X763800Y711100D02*
X916200D01*
Y888900D01*
X763800Y711100D02*
Y888900D01*
X916200D01*
X655400Y633000D02*
Y734600D01*
X604600D02*
X655400D01*
X604600Y633000D02*
Y734600D01*
Y633000D02*
X655400D01*
X407300Y895300D02*
X432700D01*
Y946100D01*
X407300D02*
X432700D01*
X407300Y895300D02*
Y946100D01*
X431300Y435300D02*
X456700D01*
Y486100D01*
X431300D02*
X456700D01*
X431300Y435300D02*
Y486100D01*
X378700Y523300D02*
Y548700D01*
X327900D02*
X378700D01*
X327900Y523300D02*
Y548700D01*
Y523300D02*
X378700D01*
X614300Y490700D02*
X639700D01*
X614300Y439900D02*
Y490700D01*
Y439900D02*
X639700D01*
Y490700D01*
X404300Y1079300D02*
X429700D01*
Y1130100D01*
X404300D02*
X429700D01*
X404300Y1079300D02*
Y1130100D01*
X406300Y827300D02*
X431700D01*
Y878100D01*
X406300D02*
X431700D01*
X406300Y827300D02*
Y878100D01*
X317300Y641100D02*
X342700D01*
X317300D02*
Y717300D01*
X342700D01*
Y641100D02*
Y717300D01*
X934600Y624600D02*
X1137800D01*
X934600D02*
Y954800D01*
X1137800D01*
Y624600D02*
Y954800D01*
X744600Y285080D02*
Y404460D01*
X770000Y429860D02*
X998600D01*
X1024000Y285080D02*
Y404460D01*
X770000Y259680D02*
X998600D01*
X744600Y465080D02*
Y584460D01*
X770000Y609860D02*
X998600D01*
X1024000Y465080D02*
Y584460D01*
X770000Y439680D02*
X998600D01*
X1035850Y289500D02*
Y568900D01*
X1067600Y600650D02*
X1220000D01*
X1067600Y257750D02*
X1220000D01*
X1251750Y289500D02*
Y568900D01*
X551300Y827600D02*
Y878400D01*
X576700Y827600D02*
Y878400D01*
X404300Y1001300D02*
X429700D01*
Y1052100D01*
X404300D02*
X429700D01*
X404300Y1001300D02*
Y1052100D01*
X559017Y908812D02*
X556478Y911351D01*
X551399D01*
X548860Y908812D01*
Y898655D01*
X551399Y896116D01*
X556478D01*
X559017Y898655D01*
X564095Y908812D02*
X566634Y911351D01*
X571713D01*
X574252Y908812D01*
Y906273D01*
X571713Y903734D01*
X569173D01*
X571713D01*
X574252Y901194D01*
Y898655D01*
X571713Y896116D01*
X566634D01*
X564095Y898655D01*
X564000Y1059000D02*
X569078D01*
X566539D01*
Y1074235D01*
X564000Y1071696D01*
X586853Y1059000D02*
X576696D01*
X586853Y1069157D01*
Y1071696D01*
X584313Y1074235D01*
X579235D01*
X576696Y1071696D01*
X591931Y1074235D02*
Y1064078D01*
X597009Y1059000D01*
X602088Y1064078D01*
Y1074235D01*
X632558Y1071696D02*
X630019Y1074235D01*
X624940D01*
X622401Y1071696D01*
Y1061539D01*
X624940Y1059000D01*
X630019D01*
X632558Y1061539D01*
X640175Y1059000D02*
X645254D01*
X647793Y1061539D01*
Y1066618D01*
X645254Y1069157D01*
X640175D01*
X637636Y1066618D01*
Y1061539D01*
X640175Y1059000D01*
X652871D02*
Y1069157D01*
X660489D01*
X663028Y1066618D01*
Y1059000D01*
X668106Y1069157D02*
X673185Y1059000D01*
X678263Y1069157D01*
X514409Y569258D02*
X511870Y571797D01*
X506791D01*
X504252Y569258D01*
Y559101D01*
X506791Y556562D01*
X511870D01*
X514409Y559101D01*
X519487Y556562D02*
X524565D01*
X522026D01*
Y571797D01*
X519487Y569258D01*
X532183Y556562D02*
X537261D01*
X534722D01*
Y571797D01*
X532183Y569258D01*
X628650Y361188D02*
Y376423D01*
X636268D01*
X638807Y373884D01*
Y368806D01*
X636268Y366266D01*
X628650D01*
X646424Y361188D02*
X651503D01*
X654042Y363727D01*
Y368806D01*
X651503Y371345D01*
X646424D01*
X643885Y368806D01*
Y363727D01*
X646424Y361188D01*
X661659Y373884D02*
Y371345D01*
X659120D01*
X664199D01*
X661659D01*
Y363727D01*
X664199Y361188D01*
X950157Y1112696D02*
X947617Y1115235D01*
X942539D01*
X940000Y1112696D01*
Y1102539D01*
X942539Y1100000D01*
X947617D01*
X950157Y1102539D01*
Y1107617D01*
X945078D01*
X955235Y1100000D02*
Y1115235D01*
X962853D01*
X965392Y1112696D01*
Y1107617D01*
X962853Y1105078D01*
X955235D01*
X980627Y1112696D02*
X978088Y1115235D01*
X973009D01*
X970470Y1112696D01*
Y1110157D01*
X973009Y1107617D01*
X978088D01*
X980627Y1105078D01*
Y1102539D01*
X978088Y1100000D01*
X973009D01*
X970470Y1102539D01*
X325078Y390000D02*
X320000Y395078D01*
Y400157D01*
X325078Y405235D01*
X332696Y390000D02*
X337774D01*
X335235D01*
Y405235D01*
X332696Y402696D01*
X345392Y390000D02*
X350470Y395078D01*
Y400157D01*
X345392Y405235D01*
X358088D02*
X363166D01*
X360627D01*
Y390000D01*
X358088D01*
X363166D01*
X370784D02*
Y405235D01*
X380940Y390000D01*
Y405235D01*
X386019Y390000D02*
Y400157D01*
X391097Y405235D01*
X396175Y400157D01*
Y390000D01*
Y397617D01*
X386019D01*
X401254Y390000D02*
X406332D01*
X403793D01*
Y405235D01*
X401254Y402696D01*
X413950Y390000D02*
X419028D01*
X416489D01*
Y405235D01*
X413950Y402696D01*
X434263Y390000D02*
Y405235D01*
X426646Y397617D01*
X436802D01*
X515078Y390000D02*
X510000Y395078D01*
Y400157D01*
X515078Y405235D01*
X532853Y390000D02*
X522696D01*
X532853Y400157D01*
Y402696D01*
X530313Y405235D01*
X525235D01*
X522696Y402696D01*
X537931Y390000D02*
X543009Y395078D01*
Y400157D01*
X537931Y405235D01*
X550627D02*
X555705D01*
X553166D01*
Y390000D01*
X550627D01*
X555705D01*
X563323D02*
Y405235D01*
X573479Y390000D01*
Y405235D01*
X578558Y390000D02*
Y400157D01*
X583636Y405235D01*
X588714Y400157D01*
Y390000D01*
Y397617D01*
X578558D01*
X593793Y390000D02*
X598871D01*
X596332D01*
Y405235D01*
X593793Y402696D01*
X606489Y390000D02*
X611567D01*
X609028D01*
Y405235D01*
X606489Y402696D01*
X626802Y390000D02*
Y405235D01*
X619185Y397617D01*
X629341D01*
X404765Y640000D02*
X417461D01*
X420000Y642539D01*
Y647617D01*
X417461Y650157D01*
X404765D01*
X420000Y655235D02*
X409843D01*
X404765Y660313D01*
X409843Y665392D01*
X420000D01*
X412383D01*
Y655235D01*
X404765Y670470D02*
Y680627D01*
X407304D01*
X417461Y670470D01*
X420000D01*
Y693323D02*
X404765D01*
X412383Y685705D01*
Y695862D01*
X420000Y700940D02*
Y706019D01*
Y703480D01*
X404765D01*
X407304Y700940D01*
X270510Y526212D02*
Y541447D01*
X278127D01*
X280667Y538908D01*
Y533829D01*
X278127Y531290D01*
X270510D01*
X275588D02*
X280667Y526212D01*
X285745Y538908D02*
X288284Y541447D01*
X293363D01*
X295902Y538908D01*
Y536369D01*
X293363Y533829D01*
X295902Y531290D01*
Y528751D01*
X293363Y526212D01*
X288284D01*
X285745Y528751D01*
Y531290D01*
X288284Y533829D01*
X285745Y536369D01*
Y538908D01*
X288284Y533829D02*
X293363D01*
X470662Y526212D02*
Y541447D01*
X478279D01*
X480819Y538908D01*
Y533829D01*
X478279Y531290D01*
X470662D01*
X475740D02*
X480819Y526212D01*
X485897Y528751D02*
X488436Y526212D01*
X493515D01*
X496054Y528751D01*
Y538908D01*
X493515Y541447D01*
X488436D01*
X485897Y538908D01*
Y536369D01*
X488436Y533829D01*
X496054D01*
X320000Y750000D02*
Y765235D01*
X327617D01*
X330157Y762696D01*
Y757617D01*
X327617Y755078D01*
X320000D01*
X325078D02*
X330157Y750000D01*
X345392Y765235D02*
X340313Y762696D01*
X335235Y757617D01*
Y752539D01*
X337774Y750000D01*
X342853D01*
X345392Y752539D01*
Y755078D01*
X342853Y757617D01*
X335235D01*
X479308Y748014D02*
Y763249D01*
X486926D01*
X489465Y760710D01*
Y755632D01*
X486926Y753092D01*
X479308D01*
X484386D02*
X489465Y748014D01*
X504700Y763249D02*
X494543D01*
Y755632D01*
X499622Y758171D01*
X502161D01*
X504700Y755632D01*
Y750553D01*
X502161Y748014D01*
X497082D01*
X494543Y750553D01*
X369768Y957918D02*
Y973153D01*
X377385D01*
X379925Y970614D01*
Y965536D01*
X377385Y962996D01*
X369768D01*
X374846D02*
X379925Y957918D01*
X392621D02*
Y973153D01*
X385003Y965536D01*
X395160D01*
X366776Y1141730D02*
Y1156965D01*
X374394D01*
X376933Y1154426D01*
Y1149348D01*
X374394Y1146808D01*
X366776D01*
X371854D02*
X376933Y1141730D01*
X392168D02*
X382011D01*
X392168Y1151887D01*
Y1154426D01*
X389629Y1156965D01*
X384550D01*
X382011Y1154426D01*
X329796Y957108D02*
Y972343D01*
X337413D01*
X339953Y969804D01*
Y964725D01*
X337413Y962186D01*
X329796D01*
X334874D02*
X339953Y957108D01*
X345031Y969804D02*
X347570Y972343D01*
X352649D01*
X355188Y969804D01*
Y967265D01*
X352649Y964725D01*
X350109D01*
X352649D01*
X355188Y962186D01*
Y959647D01*
X352649Y957108D01*
X347570D01*
X345031Y959647D01*
X279182Y748832D02*
Y764067D01*
X286800D01*
X289339Y761528D01*
Y756450D01*
X286800Y753910D01*
X279182D01*
X284260D02*
X289339Y748832D01*
X294417Y764067D02*
X304574D01*
Y761528D01*
X294417Y751371D01*
Y748832D01*
X329946Y1137252D02*
Y1152487D01*
X337564D01*
X340103Y1149948D01*
Y1144870D01*
X337564Y1142330D01*
X329946D01*
X335024D02*
X340103Y1137252D01*
X345181D02*
X350259D01*
X347720D01*
Y1152487D01*
X345181Y1149948D01*
X764972Y913113D02*
Y897878D01*
X775129D01*
X780207Y908035D02*
X785285Y897878D01*
X790364Y908035D01*
X795442Y897878D02*
X800520D01*
X797981D01*
Y913113D01*
X795442D01*
X833530Y910574D02*
X830991Y913113D01*
X825912D01*
X823373Y910574D01*
Y908035D01*
X825912Y905496D01*
X830991D01*
X833530Y902956D01*
Y900417D01*
X830991Y897878D01*
X825912D01*
X823373Y900417D01*
X838608Y913113D02*
Y897878D01*
Y905496D01*
X841147Y908035D01*
X846226D01*
X848765Y905496D01*
Y897878D01*
X853843D02*
X858922D01*
X856382D01*
Y908035D01*
X853843D01*
X869078Y897878D02*
Y910574D01*
Y905496D01*
X866539D01*
X871618D01*
X869078D01*
Y910574D01*
X871618Y913113D01*
X881774Y910574D02*
Y908035D01*
X879235D01*
X884313D01*
X881774D01*
Y900417D01*
X884313Y897878D01*
X899548D02*
X894470D01*
X891931Y900417D01*
Y905496D01*
X894470Y908035D01*
X899548D01*
X902088Y905496D01*
Y902956D01*
X891931D01*
X907166Y908035D02*
Y897878D01*
Y902956D01*
X909705Y905496D01*
X912244Y908035D01*
X914783D01*
X490000Y375235D02*
Y360000D01*
X500157D01*
X515392Y372696D02*
X512853Y375235D01*
X507774D01*
X505235Y372696D01*
Y362539D01*
X507774Y360000D01*
X512853D01*
X515392Y362539D01*
X528088Y360000D02*
X523009D01*
X520470Y362539D01*
Y367617D01*
X523009Y370157D01*
X528088D01*
X530627Y367617D01*
Y365078D01*
X520470D01*
X535705Y360000D02*
X540784D01*
X538244D01*
Y375235D01*
X535705D01*
X548401Y360000D02*
X553479D01*
X550940D01*
Y375235D01*
X548401D01*
X576332D02*
Y372696D01*
X581410Y367617D01*
X586489Y372696D01*
Y375235D01*
X581410Y367617D02*
Y360000D01*
X263000Y376235D02*
Y361000D01*
X273157D01*
X288392Y373696D02*
X285853Y376235D01*
X280774D01*
X278235Y373696D01*
Y363539D01*
X280774Y361000D01*
X285853D01*
X288392Y363539D01*
X301088Y361000D02*
X296009D01*
X293470Y363539D01*
Y368618D01*
X296009Y371157D01*
X301088D01*
X303627Y368618D01*
Y366078D01*
X293470D01*
X308705Y361000D02*
X313784D01*
X311244D01*
Y376235D01*
X308705D01*
X321401Y361000D02*
X326479D01*
X323940D01*
Y376235D01*
X321401D01*
X349332D02*
X359489Y361000D01*
Y376235D02*
X349332Y361000D01*
X364567D02*
X374724Y371157D01*
X389959Y373696D02*
X387420Y376235D01*
X382341D01*
X379802Y373696D01*
Y371157D01*
X382341Y368618D01*
X387420D01*
X389959Y366078D01*
Y363539D01*
X387420Y361000D01*
X382341D01*
X379802Y363539D01*
X395037Y361000D02*
X400116D01*
X397576D01*
Y371157D01*
X395037D01*
X407733Y361000D02*
Y371157D01*
X415351D01*
X417890Y368618D01*
Y361000D01*
X428047Y355922D02*
X430586D01*
X433125Y358461D01*
Y371157D01*
X425507D01*
X422968Y368618D01*
Y363539D01*
X425507Y361000D01*
X433125D01*
X438203D02*
X443282D01*
X440742D01*
Y376235D01*
X438203D01*
X458517Y361000D02*
X453438D01*
X450899Y363539D01*
Y368618D01*
X453438Y371157D01*
X458517D01*
X461056Y368618D01*
Y366078D01*
X450899D01*
X504765Y1020000D02*
X520000D01*
Y1030157D01*
Y1035235D02*
X504765D01*
Y1042853D01*
X507304Y1045392D01*
X512383D01*
X514922Y1042853D01*
Y1035235D01*
Y1040313D02*
X520000Y1045392D01*
Y1058088D02*
Y1053009D01*
X517461Y1050470D01*
X512383D01*
X509843Y1053009D01*
Y1058088D01*
X512383Y1060627D01*
X514922D01*
Y1050470D01*
X525078Y1070784D02*
Y1073323D01*
X522539Y1075862D01*
X509843D01*
Y1068244D01*
X512383Y1065705D01*
X517461D01*
X520000Y1068244D01*
Y1075862D01*
X504765Y1096175D02*
Y1106332D01*
X507304D01*
X517461Y1096175D01*
X520000D01*
X504765Y1111410D02*
X514922D01*
X520000Y1116489D01*
X514922Y1121567D01*
X504765D01*
Y870000D02*
X520000D01*
Y880157D01*
Y885235D02*
X504765D01*
Y892853D01*
X507304Y895392D01*
X512383D01*
X514922Y892853D01*
Y885235D01*
Y890313D02*
X520000Y895392D01*
Y908088D02*
Y903009D01*
X517461Y900470D01*
X512383D01*
X509843Y903009D01*
Y908088D01*
X512383Y910627D01*
X514922D01*
Y900470D01*
X525078Y920784D02*
Y923323D01*
X522539Y925862D01*
X509843D01*
Y918244D01*
X512383Y915705D01*
X517461D01*
X520000Y918244D01*
Y925862D01*
X504765Y956332D02*
Y946175D01*
X512383D01*
X509843Y951254D01*
Y953793D01*
X512383Y956332D01*
X517461D01*
X520000Y953793D01*
Y948715D01*
X517461Y946175D01*
X504765Y961410D02*
X514922D01*
X520000Y966489D01*
X514922Y971567D01*
X504765D01*
X404765Y1170000D02*
X420000D01*
Y1180157D01*
X404765Y1185235D02*
X420000D01*
Y1192853D01*
X417461Y1195392D01*
X414922D01*
X412383Y1192853D01*
Y1185235D01*
Y1192853D01*
X409843Y1195392D01*
X407304D01*
X404765Y1192853D01*
Y1185235D01*
X409843Y1200470D02*
X417461D01*
X420000Y1203009D01*
Y1210627D01*
X409843D01*
X407304Y1218244D02*
X409843D01*
Y1215705D01*
Y1220784D01*
Y1218244D01*
X417461D01*
X420000Y1220784D01*
X1150000Y1075235D02*
Y1060000D01*
X1157617D01*
X1160157Y1062539D01*
Y1072696D01*
X1157617Y1075235D01*
X1150000D01*
X1180470Y1060000D02*
Y1075235D01*
X1188088D01*
X1190627Y1072696D01*
Y1067617D01*
X1188088Y1065078D01*
X1180470D01*
X1198244Y1070157D02*
X1203323D01*
X1205862Y1067617D01*
Y1060000D01*
X1198244D01*
X1195705Y1062539D01*
X1198244Y1065078D01*
X1205862D01*
X1221097Y1075235D02*
Y1060000D01*
X1213480D01*
X1210940Y1062539D01*
Y1067617D01*
X1213480Y1070157D01*
X1221097D01*
X289814Y1139609D02*
Y1124374D01*
X297432D01*
X299971Y1126913D01*
Y1137070D01*
X297432Y1139609D01*
X289814D01*
X305049Y1124374D02*
X310127D01*
X307588D01*
Y1139609D01*
X305049Y1137070D01*
X289900Y959785D02*
Y944550D01*
X297518D01*
X300057Y947089D01*
Y957246D01*
X297518Y959785D01*
X289900D01*
X315292Y944550D02*
X305135D01*
X315292Y954707D01*
Y957246D01*
X312753Y959785D01*
X307674D01*
X305135Y957246D01*
X418635Y967586D02*
X416096Y970125D01*
X411017D01*
X408478Y967586D01*
Y957429D01*
X411017Y954890D01*
X416096D01*
X418635Y957429D01*
X423713Y970125D02*
X433870D01*
Y967586D01*
X423713Y957429D01*
Y954890D01*
X442661Y507722D02*
X440121Y510261D01*
X435043D01*
X432504Y507722D01*
Y497565D01*
X435043Y495026D01*
X440121D01*
X442661Y497565D01*
X447739Y507722D02*
X450278Y510261D01*
X455357D01*
X457896Y507722D01*
Y505183D01*
X455357Y502644D01*
X457896Y500104D01*
Y497565D01*
X455357Y495026D01*
X450278D01*
X447739Y497565D01*
Y500104D01*
X450278Y502644D01*
X447739Y505183D01*
Y507722D01*
X450278Y502644D02*
X455357D01*
X339275Y570354D02*
X336735Y572893D01*
X331657D01*
X329118Y570354D01*
Y560197D01*
X331657Y557658D01*
X336735D01*
X339275Y560197D01*
X344353D02*
X346892Y557658D01*
X351971D01*
X354510Y560197D01*
Y570354D01*
X351971Y572893D01*
X346892D01*
X344353Y570354D01*
Y567815D01*
X346892Y565275D01*
X354510D01*
X625853Y512330D02*
X623313Y514869D01*
X618235D01*
X615696Y512330D01*
Y502173D01*
X618235Y499634D01*
X623313D01*
X625853Y502173D01*
X630931Y499634D02*
X636009D01*
X633470D01*
Y514869D01*
X630931Y512330D01*
X643627D02*
X646166Y514869D01*
X651245D01*
X653784Y512330D01*
Y502173D01*
X651245Y499634D01*
X646166D01*
X643627Y502173D01*
Y512330D01*
X414157Y1148696D02*
X411618Y1151235D01*
X406539D01*
X404000Y1148696D01*
Y1138539D01*
X406539Y1136000D01*
X411618D01*
X414157Y1138539D01*
X429392Y1151235D02*
X419235D01*
Y1143617D01*
X424313Y1146157D01*
X426853D01*
X429392Y1143617D01*
Y1138539D01*
X426853Y1136000D01*
X421774D01*
X419235Y1138539D01*
X416157Y817696D02*
X413618Y820235D01*
X408539D01*
X406000Y817696D01*
Y807539D01*
X408539Y805000D01*
X413618D01*
X416157Y807539D01*
X431392Y820235D02*
X426313Y817696D01*
X421235Y812617D01*
Y807539D01*
X423774Y805000D01*
X428853D01*
X431392Y807539D01*
Y810078D01*
X428853Y812617D01*
X421235D01*
X619157Y909696D02*
X616618Y912235D01*
X611539D01*
X609000Y909696D01*
Y899539D01*
X611539Y897000D01*
X616618D01*
X619157Y899539D01*
X634392Y897000D02*
X624235D01*
X634392Y907157D01*
Y909696D01*
X631853Y912235D01*
X626774D01*
X624235Y909696D01*
X551843Y677304D02*
X554383Y674765D01*
X559461D01*
X562000Y677304D01*
Y687461D01*
X559461Y690000D01*
X554383D01*
X551843Y687461D01*
X546765Y690000D02*
X541687D01*
X544226D01*
Y674765D01*
X546765Y677304D01*
X1150000Y780000D02*
Y790157D01*
X1155078Y795235D01*
X1160157Y790157D01*
Y780000D01*
Y787617D01*
X1150000D01*
X1165235Y780000D02*
Y795235D01*
X1170313Y790157D01*
X1175392Y795235D01*
Y780000D01*
X1190627D02*
X1180470D01*
X1190627Y790157D01*
Y792696D01*
X1188088Y795235D01*
X1183009D01*
X1180470Y792696D01*
X1195705D02*
X1198244Y795235D01*
X1203323D01*
X1205862Y792696D01*
Y790157D01*
X1203323Y787617D01*
X1200784D01*
X1203323D01*
X1205862Y785078D01*
Y782539D01*
X1203323Y780000D01*
X1198244D01*
X1195705Y782539D01*
X1210940Y780000D02*
X1216019D01*
X1213480D01*
Y795235D01*
X1210940Y792696D01*
X1233793Y795235D02*
X1223636D01*
Y787617D01*
X1228715Y790157D01*
X1231254D01*
X1233793Y787617D01*
Y782539D01*
X1231254Y780000D01*
X1226175D01*
X1223636Y782539D01*
X860000Y340000D02*
Y350157D01*
X865078Y355235D01*
X870157Y350157D01*
Y340000D01*
Y347617D01*
X860000D01*
X875235Y355235D02*
Y340000D01*
X882853D01*
X885392Y342539D01*
Y352696D01*
X882853Y355235D01*
X875235D01*
X900627Y352696D02*
X898088Y355235D01*
X893009D01*
X890470Y352696D01*
Y342539D01*
X893009Y340000D01*
X898088D01*
X900627Y342539D01*
X905705Y340000D02*
X910784D01*
X908244D01*
Y355235D01*
X905705Y352696D01*
X605780Y791477D02*
Y776242D01*
X615937D01*
X631172D02*
X621015D01*
X631172Y786399D01*
Y788938D01*
X628633Y791477D01*
X623554D01*
X621015Y788938D01*
X418157Y990696D02*
X415617Y993235D01*
X410539D01*
X408000Y990696D01*
Y980539D01*
X410539Y978000D01*
X415617D01*
X418157Y980539D01*
X430853Y978000D02*
Y993235D01*
X423235Y985618D01*
X433392D01*
X860000Y520000D02*
Y530157D01*
X865078Y535235D01*
X870157Y530157D01*
Y520000D01*
Y527617D01*
X860000D01*
X875235Y535235D02*
Y520000D01*
X882853D01*
X885392Y522539D01*
Y532696D01*
X882853Y535235D01*
X875235D01*
X900627Y532696D02*
X898088Y535235D01*
X893009D01*
X890470Y532696D01*
Y522539D01*
X893009Y520000D01*
X898088D01*
X900627Y522539D01*
X915862Y520000D02*
X905705D01*
X915862Y530157D01*
Y532696D01*
X913323Y535235D01*
X908244D01*
X905705Y532696D01*
X1144765Y380000D02*
X1160000D01*
Y390157D01*
X1147304Y405392D02*
X1144765Y402853D01*
Y397774D01*
X1147304Y395235D01*
X1149843D01*
X1152383Y397774D01*
Y402853D01*
X1154922Y405392D01*
X1157461D01*
X1160000Y402853D01*
Y397774D01*
X1157461Y395235D01*
X1160000Y410470D02*
X1144765D01*
X1149843Y415549D01*
X1144765Y420627D01*
X1160000D01*
X1157461Y425705D02*
X1160000Y428244D01*
Y433323D01*
X1157461Y435862D01*
X1147304D01*
X1144765Y433323D01*
Y428244D01*
X1147304Y425705D01*
X1149843D01*
X1152383Y428244D01*
Y435862D01*
X1144765Y440940D02*
X1160000D01*
Y448558D01*
X1157461Y451097D01*
X1147304D01*
X1144765Y448558D01*
Y440940D01*
X1147304Y466332D02*
X1144765Y463793D01*
Y458715D01*
X1147304Y456175D01*
X1149843D01*
X1152383Y458715D01*
Y463793D01*
X1154922Y466332D01*
X1157461D01*
X1160000Y463793D01*
Y458715D01*
X1157461Y456175D01*
X1147304Y471410D02*
X1144765Y473950D01*
Y479028D01*
X1147304Y481567D01*
X1157461D01*
X1160000Y479028D01*
Y473950D01*
X1157461Y471410D01*
X1147304D01*
X1061600Y675400D02*
X1051443D01*
X1046365Y680478D01*
X1051443Y685557D01*
X1061600D01*
X1053982D01*
Y675400D01*
X1051443Y690635D02*
X1061600D01*
X1056522D01*
X1053982Y693174D01*
X1051443Y695713D01*
Y698253D01*
X1046365Y716027D02*
X1061600D01*
Y708409D01*
X1059061Y705870D01*
X1053982D01*
X1051443Y708409D01*
Y716027D01*
Y721105D02*
X1059061D01*
X1061600Y723644D01*
Y731262D01*
X1051443D01*
X1061600Y736340D02*
Y741419D01*
Y738879D01*
X1051443D01*
Y736340D01*
X1061600Y749036D02*
X1051443D01*
Y756654D01*
X1053982Y759193D01*
X1061600D01*
Y766810D02*
Y771889D01*
X1059061Y774428D01*
X1053982D01*
X1051443Y771889D01*
Y766810D01*
X1053982Y764271D01*
X1059061D01*
X1061600Y766810D01*
Y794741D02*
X1046365D01*
Y802359D01*
X1048904Y804898D01*
X1053982D01*
X1056522Y802359D01*
Y794741D01*
X1051443Y809977D02*
X1061600D01*
X1056522D01*
X1053982Y812516D01*
X1051443Y815055D01*
Y817594D01*
X1061600Y827751D02*
Y832829D01*
X1059061Y835368D01*
X1053982D01*
X1051443Y832829D01*
Y827751D01*
X1053982Y825211D01*
X1059061D01*
X1061600Y827751D01*
X1046365Y865838D02*
Y855682D01*
X1053982D01*
X1051443Y860760D01*
Y863299D01*
X1053982Y865838D01*
X1059061D01*
X1061600Y863299D01*
Y858221D01*
X1059061Y855682D01*
X1046365Y870917D02*
X1056522D01*
X1061600Y875995D01*
X1056522Y881074D01*
X1046365D01*
X410157Y272696D02*
X407617Y275235D01*
X402539D01*
X400000Y272696D01*
Y270157D01*
X402539Y267617D01*
X407617D01*
X410157Y265078D01*
Y262539D01*
X407617Y260000D01*
X402539D01*
X400000Y262539D01*
X415235Y275235D02*
Y260000D01*
Y267617D01*
X417774Y270157D01*
X422853D01*
X425392Y267617D01*
Y260000D01*
X430470D02*
Y262539D01*
X433009D01*
Y260000D01*
X430470D01*
X375000D02*
Y275235D01*
X382617D01*
X385157Y272696D01*
Y267617D01*
X382617Y265078D01*
X375000D01*
X380078D02*
X385157Y260000D01*
X350000Y275235D02*
Y260000D01*
X357617D01*
X360157Y262539D01*
Y265078D01*
X357617Y267617D01*
X350000D01*
X357617D01*
X360157Y270157D01*
Y272696D01*
X357617Y275235D01*
X350000D01*
X335157Y272696D02*
X332617Y275235D01*
X327539D01*
X325000Y272696D01*
Y262539D01*
X327539Y260000D01*
X332617D01*
X335157Y262539D01*
Y267617D01*
X330078D01*
X300000Y275235D02*
Y260000D01*
X305078Y265078D01*
X310157Y260000D01*
Y275235D01*
X470000D02*
Y260000D01*
X475078Y265078D01*
X480157Y260000D01*
Y275235D01*
X505157Y272696D02*
X502617Y275235D01*
X497539D01*
X495000Y272696D01*
Y262539D01*
X497539Y260000D01*
X502617D01*
X505157Y262539D01*
Y267617D01*
X500078D01*
X520000Y275235D02*
Y260000D01*
X527617D01*
X530157Y262539D01*
Y265078D01*
X527617Y267617D01*
X520000D01*
X527617D01*
X530157Y270157D01*
Y272696D01*
X527617Y275235D01*
X520000D01*
X545000Y260000D02*
Y275235D01*
X552617D01*
X555157Y272696D01*
Y267617D01*
X552617Y265078D01*
X545000D01*
X550078D02*
X555157Y260000D01*
X580157Y272696D02*
X577617Y275235D01*
X572539D01*
X570000Y272696D01*
Y270157D01*
X572539Y267617D01*
X577617D01*
X580157Y265078D01*
Y262539D01*
X577617Y260000D01*
X572539D01*
X570000Y262539D01*
X585235Y275235D02*
Y260000D01*
Y267617D01*
X587774Y270157D01*
X592853D01*
X595392Y267617D01*
Y260000D01*
X600470D02*
Y262539D01*
X603009D01*
Y260000D01*
X600470D01*
X690000D02*
Y275235D01*
X697617D01*
X700157Y272696D01*
Y267617D01*
X697617Y265078D01*
X690000D01*
X695078D02*
X700157Y260000D01*
X640000Y275235D02*
Y272696D01*
X645078Y267617D01*
X650157Y272696D01*
Y275235D01*
X645078Y267617D02*
Y260000D01*
X665000Y275235D02*
Y260000D01*
X672617D01*
X675157Y262539D01*
Y265078D01*
X672617Y267617D01*
X665000D01*
X672617D01*
X675157Y270157D01*
Y272696D01*
X672617Y275235D01*
X665000D01*
X1250000Y750000D02*
X1234765D01*
Y757617D01*
X1237304Y760157D01*
X1242383D01*
X1244922Y757617D01*
Y750000D01*
Y755078D02*
X1250000Y760157D01*
X1234765Y723333D02*
X1250000D01*
Y730951D01*
X1247461Y733490D01*
X1244922D01*
X1242383Y730951D01*
Y723333D01*
Y730951D01*
X1239843Y733490D01*
X1237304D01*
X1234765Y730951D01*
Y723333D01*
Y696667D02*
X1237304D01*
X1242383Y701745D01*
X1237304Y706823D01*
X1234765D01*
X1242383Y701745D02*
X1250000D01*
X1234765Y670000D02*
X1250000D01*
X1244922Y675078D01*
X1250000Y680157D01*
X1234765D01*
Y830000D02*
X1247461D01*
X1250000Y832539D01*
Y837617D01*
X1247461Y840157D01*
X1234765D01*
X1250000Y845235D02*
X1247461D01*
Y847774D01*
X1250000D01*
Y845235D01*
X1234765Y880000D02*
X1250000D01*
Y887617D01*
X1247461Y890157D01*
X1237304D01*
X1234765Y887617D01*
Y880000D01*
X1250000Y895235D02*
X1247461D01*
Y897774D01*
X1250000D01*
Y895235D01*
X1234765Y930000D02*
X1250000D01*
Y940157D01*
Y945235D02*
X1247461D01*
Y947774D01*
X1250000D01*
Y945235D01*
Y980000D02*
X1234765D01*
Y987617D01*
X1237304Y990157D01*
X1242383D01*
X1244922Y987617D01*
Y980000D01*
Y985078D02*
X1250000Y990157D01*
Y995235D02*
X1247461D01*
Y997774D01*
X1250000D01*
Y995235D01*
X460000Y1230000D02*
X465078D01*
X462539D01*
Y1245235D01*
X460000Y1242696D01*
X520157Y1230000D02*
X510000D01*
X520157Y1240157D01*
Y1242696D01*
X517617Y1245235D01*
X512539D01*
X510000Y1242696D01*
X560000D02*
X562539Y1245235D01*
X567617D01*
X570157Y1242696D01*
Y1240157D01*
X567617Y1237617D01*
X565078D01*
X567617D01*
X570157Y1235078D01*
Y1232539D01*
X567617Y1230000D01*
X562539D01*
X560000Y1232539D01*
X617617Y1230000D02*
Y1245235D01*
X610000Y1237617D01*
X620157D01*
X400000Y1245235D02*
X410157D01*
X405078D01*
Y1230000D01*
X417774D02*
X422853D01*
X425392Y1232539D01*
Y1237617D01*
X422853Y1240157D01*
X417774D01*
X415235Y1237617D01*
Y1232539D01*
X417774Y1230000D01*
X430470Y1224922D02*
Y1240157D01*
X438088D01*
X440627Y1237617D01*
Y1232539D01*
X438088Y1230000D01*
X430470D01*
D37*
X1094640Y974600D02*
G03*
X1120040Y1000000I0J25400D01*
G01*
Y1203200D02*
G03*
X1094640Y1228600I-25400J0D01*
G01*
X805080D02*
G03*
X779680Y1203200I0J-25400D01*
G01*
Y1000000D02*
G03*
X805080Y974600I25400J0D01*
G01*
Y1228600D02*
X1094640D01*
X779680Y1000000D02*
Y1203200D01*
X805080Y974600D02*
X1094640D01*
X1120040Y1000000D02*
Y1203200D01*
D38*
X492250Y1024500D02*
G03*
X492250Y1024500I-1250J0D01*
G01*
Y844500D02*
G03*
X492250Y844500I-1250J0D01*
G01*
X373150Y731100D02*
G03*
X373150Y731100I-1250J0D01*
G01*
X310150Y421900D02*
G03*
X310150Y421900I-1250J0D01*
G01*
X500150D02*
G03*
X500150Y421900I-1250J0D01*
G01*
D39*
X583750Y730000D02*
G03*
X583750Y730000I-31750J0D01*
G01*
X552000Y730001D02*
G03*
X552000Y730001I-12499J0D01*
G01*
X403650Y731000D02*
G03*
X416350Y731000I6350J0D01*
G01*
X309000Y453650D02*
G03*
X309000Y466350I0J6350D01*
G01*
X499000Y453650D02*
G03*
X499000Y466350I0J6350D01*
G01*
X288250Y1080550D02*
X311750D01*
X300000Y1093250D02*
Y1096670D01*
Y1043330D02*
Y1046750D01*
X288250D02*
X311750D01*
X288250D02*
Y1093250D01*
X311750D01*
Y1046750D02*
Y1093250D01*
X288250Y900550D02*
X311750D01*
X300000Y913250D02*
Y916670D01*
Y863330D02*
Y866750D01*
X288250D02*
X311750D01*
X288250D02*
Y913250D01*
X311750D01*
Y866750D02*
Y913250D01*
X451500Y1018000D02*
Y1122000D01*
X497500D01*
Y1018000D02*
Y1122000D01*
X451500Y1018000D02*
X497500D01*
X456500Y1018000D02*
Y1122000D01*
X451500Y838000D02*
Y942000D01*
X497500D01*
Y838000D02*
Y942000D01*
X451500Y838000D02*
X497500D01*
X456500Y838000D02*
Y942000D01*
X552000Y698250D02*
Y761750D01*
X383500Y629000D02*
Y731000D01*
X436500Y629000D02*
Y731000D01*
X383500D02*
X403650D01*
X416350D02*
X436500D01*
X383500Y629000D02*
X436500D01*
X309000Y433500D02*
X411000D01*
X309000Y486500D02*
X411000D01*
X309000Y433500D02*
Y453650D01*
Y466350D02*
Y486500D01*
X411000Y433500D02*
Y486500D01*
X499000Y433500D02*
X601000D01*
X499000Y486500D02*
X601000D01*
X499000Y433500D02*
Y453650D01*
Y466350D02*
Y486500D01*
X601000Y433500D02*
Y486500D01*
D40*
X549876Y741734D02*
G03*
X549790Y718192I-10375J-11733D01*
G01*
X525059Y721020D02*
G03*
X549308Y701730I26941J8980D01*
G01*
X549838Y758571D02*
G03*
X524001Y736087I2162J-28571D01*
G01*
D41*
X396500Y721000D02*
G03*
X396500Y721000I-3000J0D01*
G01*
X322000Y443500D02*
G03*
X322000Y443500I-3000J0D01*
G01*
X512000D02*
G03*
X512000Y443500I-3000J0D01*
G01*
D42*
X648250Y345400D02*
Y353020D01*
X635550Y345400D02*
X648250D01*
X635550D02*
Y353020D01*
X660950Y345400D02*
Y353020D01*
Y345400D02*
X673650D01*
Y353020D01*
X686350Y345400D02*
Y353020D01*
Y345400D02*
X699050D01*
Y353020D01*
X626660Y286980D02*
X708000D01*
X626660D02*
Y353020D01*
X708000D01*
Y286980D02*
Y353020D01*
X300150Y345400D02*
Y353020D01*
Y345400D02*
X312850D01*
Y353020D01*
X338250Y345400D02*
Y353020D01*
X325550Y345400D02*
X338250D01*
X325550D02*
Y353020D01*
X414450Y345400D02*
Y353020D01*
X401750Y345400D02*
X414450D01*
X401750D02*
Y353020D01*
X350950Y345400D02*
Y353020D01*
Y345400D02*
X363650D01*
Y353020D01*
X376350Y345400D02*
Y353020D01*
Y345400D02*
X389050D01*
Y353020D01*
X291260Y286980D02*
X423340D01*
X291260D02*
Y353020D01*
X423340D01*
Y286980D02*
Y353020D01*
X1156980Y688250D02*
X1164600D01*
Y675550D02*
Y688250D01*
X1156980Y675550D02*
X1164600D01*
X1156980Y764450D02*
X1164600D01*
Y751750D02*
Y764450D01*
X1156980Y751750D02*
X1164600D01*
X1156980Y700950D02*
X1164600D01*
Y713650D01*
X1156980D02*
X1164600D01*
X1156980Y726350D02*
X1164600D01*
Y739050D01*
X1156980D02*
X1164600D01*
X1223020Y666660D02*
Y773340D01*
X1156980Y666660D02*
X1223020D01*
X1156980D02*
Y773340D01*
X1223020D01*
X1157503Y815850D02*
X1164600D01*
Y828550D01*
X1157503D02*
X1164600D01*
X1157503Y841250D02*
X1164600D01*
Y853950D01*
X1157503D02*
X1164600D01*
X1157503Y866650D02*
X1164600D01*
Y879350D01*
X1157503D02*
X1164600D01*
X1157503Y892050D02*
X1164600D01*
Y904750D01*
X1157503D02*
X1164600D01*
X1157503Y917450D02*
X1164600D01*
Y930150D01*
X1157503D02*
X1164600D01*
X1157503Y942850D02*
X1164600D01*
Y955550D01*
X1157503D02*
X1164600D01*
X1157503Y968250D02*
X1164600D01*
Y980950D01*
X1157503D02*
X1164600D01*
X1157503Y993650D02*
X1164600D01*
Y1006350D01*
X1157503D02*
X1164600D01*
X1157503Y1014998D02*
X1222502D01*
X1157503Y806960D02*
Y1014998D01*
Y806960D02*
X1222502D01*
Y1014998D01*
X634150Y1157503D02*
Y1164600D01*
X621450D02*
X634150D01*
X621450Y1157503D02*
Y1164600D01*
X608750Y1157503D02*
Y1164600D01*
X596050D02*
X608750D01*
X596050Y1157503D02*
Y1164600D01*
X583350Y1157503D02*
Y1164600D01*
X570650D02*
X583350D01*
X570650Y1157503D02*
Y1164600D01*
X557950Y1157503D02*
Y1164600D01*
X545250D02*
X557950D01*
X545250Y1157503D02*
Y1164600D01*
X532550Y1157503D02*
Y1164600D01*
X519850D02*
X532550D01*
X519850Y1157503D02*
Y1164600D01*
X507150Y1157503D02*
Y1164600D01*
X494450D02*
X507150D01*
X494450Y1157503D02*
Y1164600D01*
X481750Y1157503D02*
Y1164600D01*
X469050D02*
X481750D01*
X469050Y1157503D02*
Y1164600D01*
X456350Y1157503D02*
Y1164600D01*
X443650D02*
X456350D01*
X443650Y1157503D02*
Y1164600D01*
X435002Y1157503D02*
Y1222502D01*
Y1157503D02*
X643040D01*
Y1222502D01*
X435002D02*
X643040D01*
X470150Y345400D02*
Y353020D01*
Y345400D02*
X482850D01*
Y353020D01*
X508250Y345400D02*
Y353020D01*
X495550Y345400D02*
X508250D01*
X495550D02*
Y353020D01*
X584450Y345400D02*
Y353020D01*
X571750Y345400D02*
X584450D01*
X571750D02*
Y353020D01*
X520950Y345400D02*
Y353020D01*
Y345400D02*
X533650D01*
Y353020D01*
X546350Y345400D02*
Y353020D01*
Y345400D02*
X559050D01*
Y353020D01*
X461260Y286980D02*
X593340D01*
X461260D02*
Y353020D01*
X593340D01*
Y286980D02*
Y353020D01*
X879370Y733962D02*
Y741580D01*
Y737771D01*
X874292D01*
Y733962D01*
Y741580D01*
X871752Y733962D02*
Y739041D01*
X869213Y741580D01*
X866674Y739041D01*
Y733962D01*
X860326Y741580D02*
Y733962D01*
X864135Y737771D01*
X859057D01*
X818410Y860963D02*
Y868580D01*
X813332D01*
X810792Y860963D02*
Y866041D01*
X808253Y868580D01*
X805714Y866041D01*
Y860963D01*
X803175Y868580D02*
X800636D01*
X801905D01*
Y860963D01*
X803175Y862232D01*
D43*
X563000Y1051000D02*
X623000D01*
X563000Y935000D02*
X623000D01*
X563000D02*
Y1051000D01*
X623000Y935000D02*
Y1051000D01*
M02*
